<svg id="Layer_1" data-name="Layer 1" xmlns="http://www.w3.org/2000/svg" viewBox="0 0 100 100"><defs><style>.cls-1{fill:#d8d8d8;}.cls-2{fill:#6e6e6e;}</style></defs><title>10_shopclickdrive</title><path class="cls-1" d="M50,1A49,49,0,1,1,1,50,49.05,49.05,0,0,1,50,1m0-1a50,50,0,1,0,50,50A50,50,0,0,0,50,0Z"/><path class="cls-2" d="M50.1,25A25,25,0,0,0,26,56.62l5.55-.83a19.47,19.47,0,0,1-.86-4.74l7.39,2.77a12.61,12.61,0,0,1,2.56-12.15h-8.1a19.45,19.45,0,0,1,35.14,0H59.6a12.65,12.65,0,0,1,2.57,12.14l7.34-2.76A19.44,19.44,0,0,1,56.28,68.43l1.39-8.3a12.61,12.61,0,0,1-15.15,0l1.39,8.34a19.25,19.25,0,0,1-5.81-3.15l-3.17,4.59A25,25,0,1,0,50.1,25Z"/><path class="cls-2" d="M48.76,39.51a10.8,10.8,0,0,0-8.57,15l3-.45,2-.29a.44.44,0,0,1,.43.68l-1.14,1.65-1.51,2.18a10.8,10.8,0,1,0,5.84-18.76Z"/><path class="cls-2" d="M18.9,68.23c.72,1.14,1.41,2.26,2.12,3.4l8.81-5.51,1.61,6.52L43.36,55.35,22.58,58.44l5.12,4.3Z"/></svg>