<?xml version="1.0" encoding="utf-8"?>
<!-- Generator: Adobe Illustrator 25.1.0, SVG Export Plug-In . SVG Version: 6.00 Build 0)  -->
<svg version="1.1" id="Layer_1" xmlns="http://www.w3.org/2000/svg" xmlns:xlink="http://www.w3.org/1999/xlink" x="0px" y="0px"
	 viewBox="0 0 1020.2 32.2" style="enable-background:new 0 0 1020.2 32.2;" xml:space="preserve">
<style type="text/css">
	.st0{fill:#FFFFFF;}
</style>
<rect y="12.9" class="st0" width="455.1" height="3.8"/>
<rect x="565.1" y="12.9" class="st0" width="455.1" height="3.8"/>
<g>
	<path class="st0" d="M495.9,32.1c-4,0-8-2.1-9.6-6.2c-0.5-1.3-0.8-2.9-0.8-4.8V10.8c0-2,0.3-3.5,0.8-4.8c1.6-4,5.6-6.2,9.6-6.2h0.5
		c4,0,7.9,2.2,9.6,6.2c0.5,1.3,0.8,2.9,0.8,4.8v10.3c0,2-0.3,3.5-0.8,4.8c-1.6,4-5.5,6.2-9.6,6.2C496.4,32.2,495.9,32.2,495.9,32.1z
		 M496.3,26.3c1.5,0,3-0.6,3.8-2.2c0.3-0.7,0.5-1.8,0.5-3V10.9c0-1.3-0.1-2.3-0.5-3c-0.8-1.6-2.3-2.2-3.8-2.2h-0.5
		c-1.5,0-3,0.6-3.8,2.2c-0.4,0.7-0.5,1.8-0.5,3V21c0,1.3,0.1,2.3,0.5,3c0.8,1.6,2.3,2.2,3.8,2.2L496.3,26.3L496.3,26.3z"/>
	<path class="st0" d="M527.9,31.8c-0.8-0.8-1.1-2.4-1.3-3.8l-0.4-4.9c-0.3-3-1.7-4.1-4.9-4.1h-2.8v12.8h-6.1V0.2h9.7
		c1.4,0,2.7,0.1,3.7,0.3c4.1,0.9,6.8,3.6,6.8,8c0,3.2-1.7,5.8-4.8,7.2l0,0c2.7,1,4.2,2.7,4.4,6l0.5,5.6c0.1,1.6,0.6,3.1,1.8,4v0.3
		h-6.6V31.8z M521.9,13.3c2.9,0,4.5-1.6,4.5-3.9c0-1.7-1-2.7-2.5-3.1c-0.5-0.1-1.3-0.2-2.1-0.2h-3.2v7.2
		C518.6,13.3,521.9,13.3,521.9,13.3z"/>
</g>
</svg>
