<svg xmlns="http://www.w3.org/2000/svg" width="190.501" height="57.89" viewBox="0 0 190.501 57.89"><g transform="translate(-2.4 -2.2)"><path d="M23.268,41.243A10.982,10.982,0,0,1,25.96,44.16a7.105,7.105,0,0,1,.9,3.59,7.237,7.237,0,0,1-2.917,6.058,9.833,9.833,0,0,1-6.956,2.468H2.4V27.106H16.312a9.776,9.776,0,0,1,6.507,2.468,7.555,7.555,0,0,1,2.693,5.834,6.909,6.909,0,0,1-.673,2.917,9.265,9.265,0,0,1-1.571,2.468l-.224.449ZM7.561,31.37v7.853h8.751A5.361,5.361,0,0,0,19.453,38.1,3.507,3.507,0,0,0,20.8,35.409a3.2,3.2,0,0,0-1.346-2.693,4.864,4.864,0,0,0-3.141-1.122H7.561Zm12.79,19.746A4.074,4.074,0,0,0,21.7,47.974a4.43,4.43,0,0,0-1.346-3.141,4.567,4.567,0,0,0-3.366-1.346H7.561v8.751h9.424A5.511,5.511,0,0,0,20.351,51.115ZM34.038,14.541h2.019l3.815-7.18v9.873h2.693V2.649H39.647L35.16,10.727,30.672,2.649H27.531V17.458h2.693V7.361ZM47.276,26.433a17.131,17.131,0,0,1,6.058,1.122,24.024,24.024,0,0,1,4.936,3.366,15.983,15.983,0,0,1,3.366,4.936,13.289,13.289,0,0,1,1.122,6.058,16.855,16.855,0,0,1-1.122,5.834,19.194,19.194,0,0,1-3.366,4.936,15.983,15.983,0,0,1-4.936,3.366,13.289,13.289,0,0,1-6.058,1.122,16.855,16.855,0,0,1-5.834-1.122,14.86,14.86,0,0,1-4.936-3.366A19.194,19.194,0,0,1,33.14,47.75a12.908,12.908,0,0,1-1.122-5.834,19.238,19.238,0,0,1,1.122-6.058,19.194,19.194,0,0,1,3.366-4.936,15.983,15.983,0,0,1,4.936-3.366,16.855,16.855,0,0,1,5.834-1.122Zm7.4,22.663a9.822,9.822,0,0,0,2.917-7.18,10.33,10.33,0,0,0-2.917-7.4,10.174,10.174,0,0,0-7.4-3.141,9.679,9.679,0,0,0-7.18,3.141,9.976,9.976,0,0,0-2.917,7.4A9.478,9.478,0,0,0,40.1,49.1a9.822,9.822,0,0,0,7.18,2.917A9.189,9.189,0,0,0,54.681,49.1Zm.224-46.447h1.346l6.731,14.809H60.066L58.72,14.765H52.213l-1.346,2.468H47.95Zm-1.571,9.424H57.6L55.354,7.361Zm17.277-.9v6.058H67.92V2.424h7.4a5.5,5.5,0,0,1,3.59,1.346,4.074,4.074,0,0,1,1.346,3.141,4.726,4.726,0,0,1-1.122,2.917A5.361,5.361,0,0,1,76.222,11.4l4.039,6.058H77.119L73.08,11.4H70.612Zm17.5,15.931h5.161V56.725H90.807L73.978,37.652V56.725H68.817V27.106h2.468L88.114,46.179ZM70.612,4.893V8.931H75.1a2.037,2.037,0,0,0,1.571-.673,2.037,2.037,0,0,0,.673-1.571,1.6,1.6,0,0,0-.673-1.346A2.424,2.424,0,0,0,75.1,4.668H70.612ZM93.275,2.649A5.5,5.5,0,0,1,96.865,4a4.074,4.074,0,0,1,1.346,3.141,4.726,4.726,0,0,1-1.122,2.917,5.361,5.361,0,0,1-2.917,1.571l4.039,6.058H95.07l-4.039-6.058H88.787v6.058H86.095V2.649Zm2.244,4.263a1.357,1.357,0,0,0-.673-1.346,2.548,2.548,0,0,0-1.8-.673H88.563V8.931H93.05a2.037,2.037,0,0,0,1.571-.673,1.23,1.23,0,0,0,.9-1.346Zm25.8,20.194h5.61L113.918,56.725H111.45L98.436,27.106h5.61l8.527,19.746Zm-16.829-9.873h2.693V2.649h-2.693ZM120.425,2.2a7.293,7.293,0,0,1,5.385,2.244,7.293,7.293,0,0,1,2.244,5.385,6.652,6.652,0,0,1-2.244,5.385,7.293,7.293,0,0,1-5.385,2.244,6.96,6.96,0,0,1-5.385-2.244A7.293,7.293,0,0,1,112.8,9.829a7.293,7.293,0,0,1,2.244-5.385A7.293,7.293,0,0,1,120.425,2.2Zm3.59,11.219a5.1,5.1,0,0,0,1.346-3.59,4.6,4.6,0,0,0-4.712-4.712,5.5,5.5,0,0,0-3.59,1.346,4.037,4.037,0,0,0-1.571,3.366,5.5,5.5,0,0,0,1.346,3.59,5.1,5.1,0,0,0,3.59,1.346A5.5,5.5,0,0,0,124.015,13.419Zm17.726,13.014a9.478,9.478,0,0,1,7.18,2.917,9.822,9.822,0,0,1,2.917,7.18,9.478,9.478,0,0,1-2.917,7.18,9.822,9.822,0,0,1-7.18,2.917,9.478,9.478,0,0,1-7.18-2.917,9.822,9.822,0,0,1-2.917-7.18,9.478,9.478,0,0,1,2.917-7.18,10.806,10.806,0,0,1,7.18-2.917Zm1.571-23.785V5.117h-4.263V17.234h-2.693V5.117h-4.263V2.649ZM146,41.018a5.745,5.745,0,0,0,1.8-4.263,6.564,6.564,0,0,0-1.8-4.263,5.745,5.745,0,0,0-4.263-1.8,6.564,6.564,0,0,0-4.263,1.8,5.745,5.745,0,0,0-1.8,4.263,6.13,6.13,0,0,0,1.8,4.263,5.96,5.96,0,0,0,8.527,0ZM159.243,2.649V5.117H154.98V17.234h-2.693V5.117h-4.263V2.649Zm25.131,24.458L172.482,43.935v12.79h-5.161V43.935L155.429,27.106h5.834l8.527,12.117,8.527-12.117h6.058Zm3.141.449V30.7h.449V27.555h1.122v-.449h-2.917v.449Zm2.693,3.141h0V28l.9,2.917h.449l.9-2.917V30.7h.449V26.882h-.673l-.9,2.917v0l-.9-2.917h-.673V30.7Z" transform="translate(0)" fill="#fff"/><rect width="25.804" height="4.263" transform="translate(129.176 55.827)" fill="#f79665"/></g></svg>