<svg xmlns="http://www.w3.org/2000/svg" width="45" height="45" viewBox="0 0 45 45"><defs><style>.a{fill:#00204c;}.b,.d{fill:none;}.b{stroke:#00204c;stroke-width:2px;}.c{stroke:none;}</style></defs><g transform="translate(-314 -5115)"><path class="a" d="M16.454,8.654a.2.2,0,0,1,.318.154v6.7A1.573,1.573,0,0,1,15.2,17.079H1.572A1.573,1.573,0,0,1,0,15.507v-6.7a.2.2,0,0,1,.318-.154c.734.57,1.707,1.294,5.048,3.721.691.5,1.857,1.566,3.02,1.559,1.169.01,2.359-1.074,3.024-1.559C14.751,9.951,15.721,9.224,16.454,8.654ZM8.386,12.886c.76.013,1.854-.957,2.4-1.356,4.347-3.155,4.678-3.43,5.68-4.216a.784.784,0,0,0,.3-.619V6.072A1.573,1.573,0,0,0,15.2,4.5H1.572A1.573,1.573,0,0,0,0,6.072v.622a.789.789,0,0,0,.3.619c1,.783,1.333,1.061,5.68,4.216C6.532,11.93,7.626,12.9,8.386,12.886Z" transform="translate(328 5126.5)"/><g class="b" transform="translate(314 5115)"><circle class="c" cx="22.5" cy="22.5" r="22.5"/><circle class="d" cx="22.5" cy="22.5" r="21.5"/></g></g></svg>