<svg xmlns="http://www.w3.org/2000/svg" viewBox="-11143 8340.938 112.195 36.452"><defs><style>.cls-1{fill:#009641}</style></defs><g id="Group_1073" data-name="Group 1073" transform="translate(-11143 8340.938)"><path id="Path_3018" data-name="Path 3018" d="M175.4 41.934a1.434 1.434 0 1 1 1.434 1.434 1.45 1.45 0 0 1-1.434-1.434m2.618 0a1.184 1.184 0 1 0-1.184 1.184 1.273 1.273 0 0 0 1.184-1.184zm-.5.748h-.374l-.374-.623h-.312v.623h-.312v-1.559h.748a1.061 1.061 0 0 1 .436.062.444.444 0 0 1 .187.374c0 .312-.125.374-.436.436l.436.686m-.5-.873c.187 0 .312-.062.312-.249s-.249-.187-.374-.187h-.374v.436h.436" transform="translate(-66.072 -15.256)"/><g id="Group_1072" data-name="Group 1072" transform="translate(0 30.23)"><path id="Path_3019" data-name="Path 3019" class="cls-1" d="M170.866 48.591v1.247a1.474 1.474 0 0 0-.686-.81 2.545 2.545 0 0 0-1.18-.063v2.369a1.354 1.354 0 0 0 1.371-.436l.125-.187v1.683a.9.9 0 0 0-.623-.623 3.833 3.833 0 0 0-.873-.062V54.2a2.437 2.437 0 0 0 1.5-.062 1.719 1.719 0 0 0 .748-.873 5.336 5.336 0 0 1-.312 1.434H167.5c.5-.436.312-1.184.374-1.808a24.731 24.731 0 0 0-.125-3.74c0-.125-.125-.249-.187-.374l1.621-.125a7.612 7.612 0 0 1 1.683-.062" transform="translate(-63.096 -48.528)"/><path id="Path_3020" data-name="Path 3020" class="cls-1" d="M67.676 50.009a1.129 1.129 0 0 0-1-.81 1.018 1.018 0 0 0-.436 0V53c.062.561-.187 1.309.312 1.683h-1.93a.846.846 0 0 0 .436-.81V49.2a1.462 1.462 0 0 0-1.371.623c-.062.125-.125.187-.187.312.062-.5.062-1 .125-1.434l1.745.062c.748 0 1.558 0 2.306-.062v1.309" transform="translate(-23.92 -48.575)"/><path id="Path_3021" data-name="Path 3021" class="cls-1" d="M12 53.312a3.553 3.553 0 0 0 .249 1.371h-1.687a2.529 2.529 0 0 0 .249-1.184v-3.428a1.8 1.8 0 0 0-.312-1.309h1.745A5.02 5.02 0 0 0 12 50.944v.436h1.995v-1.87a4.032 4.032 0 0 0-.249-.81h1.683a.672.672 0 0 0-.125.5l-.062.561v3.927a1.829 1.829 0 0 0 .249 1H13.8a1.768 1.768 0 0 0 .249-.81v-2.061h-1.991L12 53.312" transform="translate(-3.955 -48.575)"/><path id="Path_3022" data-name="Path 3022" class="cls-1" d="M41.356 50.2l.873 1.558.748 1.184.062-2.306a9.651 9.651 0 0 0-.062-1.371 1.719 1.719 0 0 0-.436-.561h1.371c-.436.5-.312 1.309-.374 1.932l-.062 2.493v1.5h-1.06l-2.556-4.495v1.5l.062 1.558a2.912 2.912 0 0 0 .187 1.06c.062.125.187.187.249.312H38.8c.623-.436.374-1.184.5-1.87a27.043 27.043 0 0 0 0-3.179 1.032 1.032 0 0 0-.312-.748h-.062L40.3 48.7h.249l.81 1.5" transform="translate(-14.616 -48.575)"/><path id="Path_3023" data-name="Path 3023" class="cls-1" d="M75.958 48.625a1.991 1.991 0 0 0-.187.873v2.493a10.563 10.563 0 0 0 .062 1.434.98.98 0 0 0 .623.686.75.75 0 0 0 .873-.187 1 1 0 0 0 .374-.81l.062-1.621c0-.81 0-1.683-.062-2.431-.062-.125-.062-.312-.187-.436H79.2a.829.829 0 0 0-.187.5l-.062 1.309v1.247l.062 1.5c.062.5 0 1 .374 1.309h-1.5l-.125-.436a1.931 1.931 0 0 1-1.932.561 2.615 2.615 0 0 1-.873-.561 1.431 1.431 0 0 1-.249-.873c-.125-1.309.125-2.743-.062-4.051a1.867 1.867 0 0 0-.246-.631l1.558.125" transform="translate(-28.026 -48.5)"/><path id="Path_3024" data-name="Path 3024" class="cls-1" d="M128.341 48.824v1.247a1.587 1.587 0 0 0-1-1 .684.684 0 0 0-.748.187.944.944 0 0 0-.062 1.06c.561 1 1.995 1.434 2.057 2.618a1.543 1.543 0 0 1-.686 1.434 2.528 2.528 0 0 1-2.119.312 1.66 1.66 0 0 1-.623-.374l-.062-1.5a1.764 1.764 0 0 0 .935 1.371.873.873 0 0 0 .873 0 .889.889 0 0 0 .374-.748c-.125-.81-1-1.184-1.5-1.745a1.8 1.8 0 0 1-.561-1.745 1.475 1.475 0 0 1 .873-1.122c.748-.312 1.5.062 2.244 0" transform="translate(-47.124 -48.575)"/><path id="Path_3025" data-name="Path 3025" class="cls-1" d="M111.657 48.8a1.034 1.034 0 0 0-.374 1v4.488a1.513 1.513 0 0 0 1.5-.5 6.8 6.8 0 0 1 .374-.686 6.788 6.788 0 0 1-.312 1.621H109.6c.436-.187.436-.686.436-1.06l.062-1.621v-1.559c-.062-.561.125-1.247-.436-1.621l1.995-.062" transform="translate(-41.286 -48.613)"/><path id="Path_3026" data-name="Path 3026" class="cls-1" d="M138.876 50.009a1.128 1.128 0 0 0-1-.81 1.018 1.018 0 0 0-.436 0V53c.062.561-.187 1.309.312 1.683h-1.932c.312-.125.374-.5.436-.81V49.2a1.462 1.462 0 0 0-1.371.623c-.062.125-.125.187-.187.312.062-.5.062-1 .125-1.434l1.745.062c.748 0 1.558 0 2.306-.062v1.309" transform="translate(-50.741 -48.575)"/><path id="Path_3027" data-name="Path 3027" class="cls-1" d="M26.066 48.6v1.247a1.474 1.474 0 0 0-.686-.81 2.545 2.545 0 0 0-1.184-.062v2.369a1.354 1.354 0 0 0 1.371-.436l.125-.187V52.4a.9.9 0 0 0-.623-.623 3.833 3.833 0 0 0-.873-.062v2.495a2.437 2.437 0 0 0 1.5-.062 1.719 1.719 0 0 0 .748-.873 5.336 5.336 0 0 1-.312 1.434H22.7c.5-.436.312-1.184.374-1.808a24.731 24.731 0 0 0-.125-3.74c0-.125-.125-.249-.187-.374l1.621-.125a16.351 16.351 0 0 1 1.683-.062" transform="translate(-8.551 -48.538)"/><path id="Path_3028" data-name="Path 3028" class="cls-1" d="M4.176 49.971a1.128 1.128 0 0 0-1-.81 1.018 1.018 0 0 0-.436 0v3.8c.062.561-.187 1.309.312 1.683h-1.93a.846.846 0 0 0 .436-.81v-4.673a1.462 1.462 0 0 0-1.371.623A1.362 1.362 0 0 0 0 50.1c.062-.5.062-1 .125-1.434H1.87c.748 0 1.558 0 2.306-.062v1.371" transform="translate(0 -48.538)"/><path id="Path_3029" data-name="Path 3029" class="cls-1" d="M89.94 49.1a1.784 1.784 0 0 1-.062 1.683 1.9 1.9 0 0 1-.81.623 10.086 10.086 0 0 0 .623 1.122 8.763 8.763 0 0 0 1.434 2.057 1.629 1.629 0 0 1-1.87-.561 13.164 13.164 0 0 1-1.122-2.057.421.421 0 0 0-.374-.249V53.9a1 1 0 0 0 .312.686H86.2a.855.855 0 0 0 .374-.81l.062-1.683a22.551 22.551 0 0 0-.125-2.93.857.857 0 0 0-.312-.5h1.184c.81 0 1.745-.249 2.431.249l.125.187m-2.239-.187V51.4a1.093 1.093 0 0 0 1.184-.5 1.8 1.8 0 0 0-.062-1.5 1.045 1.045 0 0 0-1.122-.488z" transform="translate(-32.471 -48.538)"/><path id="Path_3030" data-name="Path 3030" class="cls-1" d="M148.864 50.682l.623 1.808.5 1.247a1.823 1.823 0 0 0 .436.748h-1.5l-.748-2.431h-1.558a7.893 7.893 0 0 0-.374 1.745.892.892 0 0 0 .187.686H145a3.675 3.675 0 0 0 .748-1.371c.249-.686.5-1.309.686-1.995l.561-1.932a.865.865 0 0 0-.125-.686h1.5l.5 2.182m-.873 1l-.686-2.057-.561 2.057z" transform="translate(-54.621 -48.5)"/><path id="Path_3031" data-name="Path 3031" class="cls-1" d="M161.276 50.009a1.129 1.129 0 0 0-1-.81 1.018 1.018 0 0 0-.436 0V53c.062.561-.187 1.309.312 1.683h-1.932c.312-.125.374-.5.436-.81V49.2a1.462 1.462 0 0 0-1.371.623c-.062.125-.125.187-.187.312.062-.5.062-1 .125-1.434l1.745.062c.748 0 1.558 0 2.306-.062v1.309" transform="translate(-59.179 -48.575)"/><path id="Path_3032" data-name="Path 3032" class="cls-1" d="M55.464 50.682l.623 1.808.5 1.247a1.823 1.823 0 0 0 .436.748h-1.5l-.748-2.431h-1.554a7.893 7.893 0 0 0-.374 1.745.892.892 0 0 0 .187.686H51.6a3.675 3.675 0 0 0 .748-1.371c.249-.686.5-1.309.686-1.995l.561-1.932a.866.866 0 0 0-.125-.686h1.5l.5 2.182m-.935 1l-.686-2.057-.561 2.057z" transform="translate(-19.437 -48.5)"/><path id="Path_3033" data-name="Path 3033" class="cls-1" d="M101.327 50.682l.623 1.808.5 1.247a1.823 1.823 0 0 0 .436.748h-1.5l-.748-2.431h-1.617a7.893 7.893 0 0 0-.374 1.745.892.892 0 0 0 .187.686H97.4a3.675 3.675 0 0 0 .748-1.371c.249-.686.5-1.309.686-1.995l.561-1.932a.865.865 0 0 0-.125-.686h1.5l.561 2.182m-.873 1l-.686-2.057-.561 2.057z" transform="translate(-36.69 -48.5)"/></g><path id="Path_3034" data-name="Path 3034" d="M12.092 6.869c.561 1.932 1.06 3.179 1.683 5.111.561 1.932 1.06 3.117 1.745 5.049H8.041l4.051-10.16m7.978 22.688h3.74c-1.745-3.74-2.8-6.046-4.176-9.786-2.182-5.8-4.3-12.9-4.862-15.271-.686.062-1.309.062-2.057.062a20.151 20.151 0 0 1-2.743.062c0 .062.623.561.623 1.184a1.383 1.383 0 0 1-.062.561c-.748 2.244-6.42 16.892-8.477 20.07C1.247 27.687.81 28.373 0 29.557h4.176v-1.434a10.638 10.638 0 0 1 .873-3.678c.872-2.368 2.244-5.545 2.551-6.108h8.228c.686 2.119 1.184 3.366 1.995 5.423.81 2.244 1.371 3.615 2.244 5.8z" transform="translate(0 -1.695)"/><path id="Path_3035" data-name="Path 3035" d="M72.4 24.785a11.464 11.464 0 0 1 3.678-1.247 21.123 21.123 0 0 1 .125 2.8c0 1.808-.062 3.054-.935 4.3a3.584 3.584 0 0 1-2.556.935 2.763 2.763 0 0 1-2.556-1.184 4.493 4.493 0 0 1-.436-1.87c0-1.683 1.122-2.8 2.68-3.74m-5.8 5.049c.374 2.244 2.493 3.678 4.986 3.678a4.9 4.9 0 0 0 4.737-2.93l.374 2.8 3.179-.187c-.062-.748-.748-.374-.873-8.539 0-2.119.249-3.864.249-5.423a6.637 6.637 0 0 0-.748-3.428c-.686-1.06-2.493-1.247-4.238-1.309-1.87 0-4.488.187-6.046 1.434a3.437 3.437 0 0 0-1.06 2.244.994.994 0 0 0 .249.748 1.246 1.246 0 0 0 1.06.374 1.8 1.8 0 0 0 1.683-1.122c.561-1.558 1.371-3.054 3.241-3.117 1.558 0 3.054 1.371 3.117 3.74a7.192 7.192 0 0 1-.374 2.93c-.561.935-2.743 1.683-4.488 2.618-2.056 1.194-5.048 2.627-5.048 5.494z" transform="translate(-25.088 -5.462)"/><path id="Path_3036" data-name="Path 3036" d="M90.238 31.453c.187-1 .374-8.851.374-12.965 0-1.184-.062-2.119-.062-2.306a3.425 3.425 0 0 0-.873-1.5l3.553-.182.187 2.93A6.635 6.635 0 0 1 99.214 14a4.724 4.724 0 0 1 2.743.81c1.683 1.184 1.808 5.049 1.808 8.29 0 1.558-.062 3.054-.062 4.612a28.28 28.28 0 0 0 .249 3.927 12.139 12.139 0 0 0 .374 1.434s-1.122.062-2.119.062c-.748 0-1.371-.062-1.371-.187 0-1 .125-4.176.125-8.1 0-1.745 0-3.74-.125-5.734a2.9 2.9 0 0 0-3.117-2.93c-2.369 0-3.927.561-4.363 3.491a18.63 18.63 0 0 0-.187 3.117c0 2.68.187 6.358.187 8.913a4.465 4.465 0 0 0 .187 1.434h-3.866c-.187-.062.374-.561.561-1.683" transform="translate(-33.767 -5.274)"/><path id="Path_3037" data-name="Path 3037" d="M114.2 31.329a8.532 8.532 0 0 1 .249-2.119 5.294 5.294 0 0 0 1.5 2.244 4.762 4.762 0 0 0 3.241.935c1.683-.062 3.677-.374 3.864-3.179 0-2.93-2.182-3.864-3.8-4.862-2.306-1.434-4.488-2.556-4.488-5.111.062-3.366 2.743-4.737 6.42-4.737a32.243 32.243 0 0 1 3.553.374 6.047 6.047 0 0 1 .062 1.06c0 .623-.062 1-.062 1.558a4.206 4.206 0 0 0-2.057-1.683 5.646 5.646 0 0 0-1.995-.374 3.03 3.03 0 0 0-2.93 1.558 1.974 1.974 0 0 0-.249 1c0 1.434 1.371 2.8 2.743 3.8 2.182 1.621 5.8 2.68 5.8 5.984a4.717 4.717 0 0 1-.062.935 6.083 6.083 0 0 1-4.363 4.612 9.584 9.584 0 0 1-2.431.312 14.8 14.8 0 0 1-4.8-.81 5.785 5.785 0 0 1-.187-1.5" transform="translate(-43.019 -5.462)"/><path id="Path_3038" data-name="Path 3038" d="M138.7 24.785a11.464 11.464 0 0 1 3.677-1.247 21.122 21.122 0 0 1 .125 2.8c0 1.808-.062 3.054-.935 4.3a3.584 3.584 0 0 1-2.556.935 2.763 2.763 0 0 1-2.556-1.184 4.493 4.493 0 0 1-.436-1.87c0-1.683 1.122-2.8 2.68-3.74m-5.8 5.049c.374 2.244 2.493 3.678 4.986 3.678a4.9 4.9 0 0 0 4.737-2.93l.374 2.8 3.179-.187c-.062-.748-.748-.374-.873-8.539 0-2.119.249-3.864.249-5.423a6.637 6.637 0 0 0-.748-3.428c-.686-1.06-2.493-1.247-4.238-1.309-1.87 0-4.488.187-6.046 1.434a3.437 3.437 0 0 0-1.06 2.244.994.994 0 0 0 .249.748 1.246 1.246 0 0 0 1.06.374 1.8 1.8 0 0 0 1.683-1.122c.561-1.558 1.371-3.054 3.241-3.117 1.558 0 3.054 1.371 3.117 3.74a7.192 7.192 0 0 1-.374 2.93c-.561.935-2.743 1.683-4.488 2.618-2.057 1.184-5.049 2.618-5.049 5.485z" transform="translate(-50.063 -5.462)"/><path id="Path_3039" data-name="Path 3039" d="M155 31.329a8.532 8.532 0 0 1 .249-2.119 5.294 5.294 0 0 0 1.5 2.244 4.762 4.762 0 0 0 3.241.935c1.683-.062 3.678-.374 3.864-3.179 0-2.93-2.182-3.864-3.8-4.862-2.306-1.434-4.488-2.556-4.488-5.111.062-3.366 2.743-4.737 6.42-4.737a32.244 32.244 0 0 1 3.553.374 6.047 6.047 0 0 1 .062 1.06c0 .623-.062 1-.062 1.558a4.206 4.206 0 0 0-2.057-1.683 5.646 5.646 0 0 0-1.995-.374 3.03 3.03 0 0 0-2.93 1.558 1.974 1.974 0 0 0-.249 1c0 1.434 1.371 2.8 2.743 3.8 2.182 1.621 5.8 2.68 5.8 5.984a4.716 4.716 0 0 1-.062.935 6.083 6.083 0 0 1-4.363 4.612 9.584 9.584 0 0 1-2.431.312 14.8 14.8 0 0 1-4.8-.81 5.786 5.786 0 0 1-.187-1.5" transform="translate(-58.388 -5.462)"/><path id="Path_3040" data-name="Path 3040" class="cls-1" d="M42.722 17.843a3.034 3.034 0 0 1 1.371.374 3.048 3.048 0 0 0 1.184.312 2.894 2.894 0 0 0 2.369-1.621 9.324 9.324 0 0 0 .748-1.808 5.161 5.161 0 0 1-2.369.5h-.685c-2.057-.125-3.179 1.5-3.74 2.556a2.54 2.54 0 0 1 1.122-.312" transform="translate(-15.67 -5.688)"/><path id="Path_3041" data-name="Path 3041" d="M48.622 9.287a3.332 3.332 0 0 0 2.306-.748.217.217 0 0 1 .312-.062.061.061 0 0 1 .062.062L51.427 0h-1.683c-.81.062-1.683.187-2.244.187.249.561.748.935.81 1.558.125.748.249 3.74.312 7.542" transform="translate(-17.893)"/><path id="Path_3042" data-name="Path 3042" d="M40.053 24.724V23.6c0-1.5.062-3.491.125-5.111a1.947 1.947 0 0 0-.873.561c-.062.062-.125.125-.187.125s-.125 0-.125-.062a.228.228 0 0 1-.125-.312 7.065 7.065 0 0 1 1.371-2.431v-.249c0-.374.062-.748.062-1.122a15.322 15.322 0 0 0-1.932.062 17.516 17.516 0 0 0-1.808.062c.249.623.81 1.184.873 1.87.062.873.062 2.057.062 3.491 0 3.864-.249 9.1-.436 11.282a7.675 7.675 0 0 1-.561 1.808h4.051a40.939 40.939 0 0 1-.436-7.168 15.76 15.76 0 0 1-.062-1.683" transform="translate(-13.749 -5.65)"/><path id="Path_3043" data-name="Path 3043" d="M61.252 32.651c-1.371-1.5-6.108-8.789-7.168-10.347-.062-.187-.561-.312-.561-.312.062-.062 1.184-1 3.366-3.3a44.673 44.673 0 0 0 3.241-3.615h-3.491a3.186 3.186 0 0 1 .249 1.122 2.743 2.743 0 0 1-.125.623 17.111 17.111 0 0 1-5.3 5.485l.062-7.6a9.42 9.42 0 0 1-.935 2.369 4.354 4.354 0 0 1-1.683 1.683v4.176a78.246 78.246 0 0 1-.312 9.35 3.03 3.03 0 0 1-.5 1.184h4.114a2.712 2.712 0 0 1-.5-.935c-.187-1.434-.249-5.111-.249-8.352 0-.5.062-.686.249-.686a.555.555 0 0 1 .5.312c.249.374 5.984 9.6 5.984 9.661h3.74c-.187-.249-.5-.561-.686-.81" transform="translate(-18.119 -5.537)"/></g></svg>