<?xml version="1.0" encoding="utf-8"?>
<!-- Generator: Adobe Illustrator 25.1.0, SVG Export Plug-In . SVG Version: 6.00 Build 0)  -->
<svg version="1.1" id="Layer_1" xmlns="http://www.w3.org/2000/svg" xmlns:xlink="http://www.w3.org/1999/xlink" x="0px" y="0px"
	 viewBox="0 0 1020.2 32.2" style="enable-background:new 0 0 1020.2 32.2;" xml:space="preserve">
<style type="text/css">
	.st0{fill:#FFFFFF;}
	.st1{fill:#B5842D;}
</style>
<rect y="10.6" class="st0" width="425.1" height="8.4"/>
<rect x="595.1" y="10.6" class="st0" width="425.1" height="8.4"/>
<g>
	<path class="st1" d="M462,31.4V0.8h10.7c2.2,0,3.8,0.3,5,0.7c3.8,1.3,6.2,4.9,6.2,9.4c0,4.5-2.5,7.9-6.2,9.3
		c-1.1,0.4-2.9,0.7-4.8,0.7h-3v10.4H462z M472.7,13.6c0.9,0,1.6-0.2,2-0.4c0.9-0.4,1.3-1.3,1.3-2.4c0-1.1-0.5-2-1.3-2.4
		c-0.4-0.2-1-0.4-2-0.4h-2.8v5.5H472.7z"/>
	<path class="st1" d="M488.2,31.4V0.8h7.9V24h11.4v7.3H488.2z"/>
	<path class="st1" d="M521.5,31.8c-4.3,0-8.2-1.7-9.7-5.8c-0.5-1.3-0.8-2.9-0.8-4.9V0.8h7.9v19.9c0,1.1,0.1,1.8,0.3,2.3
		c0.4,1,1.2,1.5,2.5,1.5h0.1c1.3,0,2.1-0.4,2.5-1.5c0.2-0.5,0.3-1.2,0.3-2.3V0.8h7.9v20.4c0,1.9-0.3,3.5-0.8,4.9
		c-1.6,4.1-5.4,5.8-9.8,5.8H521.5z"/>
	<path class="st1" d="M550.4,10.5c-0.1-2.2-1.3-3.1-2.9-3.1c-1.1,0-2.3,0.6-2.3,1.9c0,0.9,0.4,1.8,2.2,2.4l2.5,0.8
		c5.3,1.7,8.5,4.7,8.5,9.7c0,5.7-4.1,9.7-10.4,9.7c-7.2,0-11.1-4.1-11.3-10.7h7.6c0.1,2.5,1.6,3.6,3.5,3.6c1.6,0,2.7-0.9,2.7-2.3
		c0-1.2-1-2.2-2.9-2.8l-2.4-0.8c-4.7-1.6-7.9-4-7.9-9.5c0-5.6,4.4-8.9,10.1-8.9c5.9,0,10.8,2.6,10.5,10.1H550.4z"/>
</g>
</svg>
