<?xml version="1.0" encoding="utf-8"?>
<!-- Generator: Adobe Illustrator 25.1.0, SVG Export Plug-In . SVG Version: 6.00 Build 0)  -->
<svg version="1.1" id="Layer_1" xmlns="http://www.w3.org/2000/svg" xmlns:xlink="http://www.w3.org/1999/xlink" x="0px" y="0px"
	 viewBox="0 0 40 40" style="enable-background:new 0 0 40 40;" xml:space="preserve">
<style type="text/css">
	.st0{fill:#CD9834;}
</style>
<g>
	<path class="st0" d="M10.8,21.5L10.8,21.5h14.7l-6.6,6.6c-0.6,0.6-0.6,1.6,0,2.2c0.6,0.6,1.6,0.6,2.2,0l9.2-9.2
		c0.4-0.4,0.6-1.1,0.3-1.7l0,0c-0.1-0.2-0.2-0.4-0.3-0.5l-9.2-9.2c-0.6-0.6-1.6-0.6-2.2,0s-0.6,1.6,0,2.2l6.6,6.6H10.8
		c-0.9,0-1.5,0.7-1.5,1.5C9.2,20.9,9.9,21.5,10.8,21.5z"/>
	<path class="st0" d="M20,40c11,0,20-9,20-20S31,0,20,0S0,9,0,20S9,40,20,40z M20,3.1c9.3,0,16.9,7.6,16.9,16.9S29.3,36.9,20,36.9
		S3.1,29.3,3.1,20S10.7,3.1,20,3.1z"/>
</g>
</svg>
