<svg xmlns="http://www.w3.org/2000/svg" viewBox="0 0 500 500"><defs><style>.cls-1{fill:#f5f6f6;}.cls-2{fill:#005a72;}.cls-3{fill:#cccbcb;}.cls-4{fill:#353535;}</style></defs><g id="Layer_1" data-name="Layer 1"><polyline class="cls-1" points="418.74 136.03 137.39 207.92 137.39 250 137.39 292.08 418.74 363.97"/><polygon class="cls-2" points="156.16 237.49 156.16 222.49 399.98 160.19 399.98 237.49 156.16 237.49"/><path class="cls-3" d="M418.74,250V129.93a14.5,14.5,0,0,1,14.5-14.5h0a14.5,14.5,0,0,1,14.5,14.5V370.07a14.5,14.5,0,0,1-14.5,14.5h0a14.5,14.5,0,0,1-14.5-14.5V322.59"/><polyline class="cls-1" points="85.83 299.52 137.39 291.38 137.39 207.92 85.83 199.78"/><path class="cls-3" d="M85.83,295.62a16.79,16.79,0,0,1-16.78,16.79h0a16.79,16.79,0,0,1-16.79-16.79V203.68a16.78,16.78,0,0,1,16.79-16.79h0a16.78,16.78,0,0,1,16.78,16.79v22"/><path class="cls-4" d="M138.33,202l-48.51-7.66a22.78,22.78,0,0,0-43.56,9.35v91.94A22.78,22.78,0,0,0,89.82,305l48.51-7.66a6,6,0,0,0,5.06-5.93V207.92A6,6,0,0,0,138.33,202Zm-6.94,84.26L91,292.63a6,6,0,0,0-11.2,3,10.79,10.79,0,1,1-21.57,0V203.68a10.79,10.79,0,1,1,21.57,0v22a6,6,0,0,0,12,0V206.8L131.39,213Z"/><path class="cls-4" d="M433.24,109.43a20.52,20.52,0,0,0-20.5,20.5v1.44L131.39,203.26v93.49l60,15.33v49.06a23.06,23.06,0,0,0,23,23h65.12a23.07,23.07,0,0,0,23.05-23V340.5l110.1,28.13v1.44a20.5,20.5,0,0,0,41,0V129.93A20.52,20.52,0,0,0,433.24,109.43ZM290.64,361.14a11.06,11.06,0,0,1-11.05,11H214.47a11,11,0,0,1-11-11v-46l87.21,22.28Zm151.1,8.93a8.5,8.5,0,0,1-17,0V322.59a6,6,0,1,0-12,0v33.65L143.39,287.43V212.58l269.35-68.82V250a6,6,0,0,0,12,0V129.93a8.5,8.5,0,0,1,17,0Z"/></g></svg>