<?xml version="1.0" encoding="UTF-8"?><svg id="Layer_1" xmlns="http://www.w3.org/2000/svg" viewBox="0 0 500 500"><defs><style>.cls-1{fill:#fad040;}.cls-2{fill:#f5f6f6;}.cls-3{fill:#cccbcb;}.cls-4{fill:#353535;}</style></defs><g><path class="cls-2" d="M116.02,271.53h-38.85c-16.04,0-29.05-13-29.05-29.05v-78.43c0-16.04,13-29.05,29.05-29.05H422.83c16.04,0,29.05,13,29.05,29.05v78.43c0,16.04-13,29.05-29.05,29.05h-38.85"/><path class="cls-4" d="M422.83,277.53h-38.85v-12h38.85c12.71,0,23.05-10.34,23.05-23.05v-78.43c0-12.71-10.34-23.05-23.05-23.05H77.17c-12.71,0-23.05,10.34-23.05,23.05v78.43c0,12.71,10.34,23.05,23.05,23.05h38.85v12h-38.85c-19.33,0-35.05-15.72-35.05-35.05v-78.43c0-19.33,15.72-35.05,35.05-35.05H422.83c19.33,0,35.05,15.72,35.05,35.05v78.43c0,19.33-15.72,35.05-35.05,35.05Z"/></g><circle class="cls-2" cx="249.99" cy="259.37" r="57.07"/><g><polyline class="cls-3" points="344.1 358.11 344.1 385.27 155.91 385.27 155.91 358.11"/><polygon class="cls-4" points="350.1 391.27 149.91 391.27 149.91 358.11 161.91 358.11 161.91 379.27 338.1 379.27 338.1 358.11 350.1 358.11 350.1 391.27"/></g><path class="cls-1" d="M257.79,203.26c27.52,3.8,48.73,27.35,48.73,55.92,0,31.21-25.3,56.52-56.52,56.52s-56.52-25.3-56.52-56.52c0-28.56,21.21-52.12,48.73-55.92H116.02v132.68H383.98V203.26h-126.19Z"/><g><polyline class="cls-2" points="363.02 335.95 363.02 362.51 136.99 362.51 136.99 335.95"/><polygon class="cls-4" points="369.02 368.51 130.99 368.51 130.99 335.95 142.99 335.95 142.99 356.51 357.02 356.51 357.02 335.95 369.02 335.95 369.02 368.51"/></g><path class="cls-4" d="M341.18,269.11c-4.88,0-8.86-3.97-8.86-8.86s3.97-8.86,8.86-8.86,8.86,3.97,8.86,8.86-3.97,8.86-8.86,8.86Z"/><path class="cls-4" d="M158.82,269.11c-4.88,0-8.86-3.97-8.86-8.86s3.97-8.86,8.86-8.86,8.86,3.97,8.86,8.86-3.97,8.86-8.86,8.86Z"/><path class="cls-4" d="M270.33,246.48v-2.58c0-9.43-6.46-17.54-15.53-19.74v-5.27h-9.59v5.27c-9.07,2.19-15.53,10.3-15.53,19.74,0,8.62,5.65,16.07,14.73,19.45,1.16,.43,2.35,.82,3.6,1.23,1.92,.63,3.91,1.28,5.68,2.13,4.48,2.13,7.05,5.74,7.05,9.89,0,5.92-4.81,10.74-10.74,10.74s-10.63-4.72-10.74-10.52l-.05-2.53h-9.57l.03,2.61c.13,9.27,6.59,17.25,15.53,19.43v5.27h9.59v-5.27c9.07-2.19,15.53-10.3,15.53-19.74,0-4.55-1.51-8.71-4.61-12.72-2.98-3.85-7.44-5.78-10.98-7.05-.94-.33-1.9-.64-2.86-.96-3.02-.98-6.15-1.99-8.53-3.77-2.52-1.88-4.08-5.03-4.08-8.21,0-5.92,4.81-10.74,10.74-10.74s10.74,4.82,10.74,10.74v2.58h9.59Z"/><path class="cls-4" d="M407.98,209.26H92.02c-3.31,0-6-2.69-6-6s2.69-6,6-6H407.98c3.31,0,6,2.69,6,6s-2.69,6-6,6Z"/><polygon class="cls-4" points="389.98 341.95 110.02 341.95 110.02 203.26 122.02 203.26 122.02 329.95 377.98 329.95 377.98 203.26 389.98 203.26 389.98 341.95"/></svg>