<svg xmlns="http://www.w3.org/2000/svg" viewBox="0 0 500 500"><defs><style>.cls-1{fill:#f5f6f6;}.cls-2{fill:#cccbcb;}.cls-3{fill:#353535;}.cls-4{fill:#005a72;}.cls-5{fill:#baafa0;}.cls-6{fill:#a29482;}.cls-7{fill:#fad040;}</style></defs><g id="Layer_1" data-name="Layer 1"><path class="cls-1" d="M164.44,316H42.19a5.48,5.48,0,0,1-5.48-5.48V102.59a5.48,5.48,0,0,1,5.48-5.48H385.05a5.48,5.48,0,0,1,5.47,5.48V310.47a5.47,5.47,0,0,1-5.47,5.48H262.79"/><path id="Path_5042" data-name="Path 5042" class="cls-2" d="M229.9,363.7l31.39,31.36V363.79h31.28L261.2,332.43"/><path id="Path_5043" data-name="Path 5043" class="cls-3" d="M261.29,400.46a5.39,5.39,0,0,1-3.81-1.58l-31.36-31.36a5.38,5.38,0,1,1,7.6-7.61l22.21,22.2V363.79a5.37,5.37,0,0,1,5.38-5.37h18.3l-22.23-22.17a5.37,5.37,0,0,1,7.6-7.59L296.35,360a5.38,5.38,0,0,1-3.81,9.18h-25.9v25.91a5.37,5.37,0,0,1-3.32,5,5.26,5.26,0,0,1-2,.38Z"/><path id="Path_5044" data-name="Path 5044" class="cls-2" d="M197.89,363.7,166.5,395.06V363.79H135.22l31.36-31.36"/><path id="Path_5045" data-name="Path 5045" class="cls-3" d="M166.49,400.46a5.39,5.39,0,0,1-5.38-5.38V369.17H135.22a5.38,5.38,0,0,1-3.78-9.18l31.37-31.36a5.37,5.37,0,0,1,7.61,7.59h0L148.2,358.43h18.3a5.38,5.38,0,0,1,5.38,5.38h0V382.1l22.21-22.2a5.38,5.38,0,1,1,7.6,7.61l-31.36,31.36a5.38,5.38,0,0,1-3.84,1.58Z"/><circle id="Ellipse_268" data-name="Ellipse 268" class="cls-2" cx="213.89" cy="316.4" r="49.01"/><path id="Path_5041" data-name="Path 5041" class="cls-3" d="M213.89,370.79A54.39,54.39,0,1,1,268.3,316.4a54.37,54.37,0,0,1-54.41,54.39h0Zm0-98a43.64,43.64,0,1,0,43.64,43.63h0A43.63,43.63,0,0,0,213.89,272.78Z"/><circle id="Ellipse_269" data-name="Ellipse 269" class="cls-4" cx="213.89" cy="316.4" r="21.56"/><path id="Path_5038" data-name="Path 5038" class="cls-4" d="M263.05,269.28a5.3,5.3,0,0,1-3.8-1.57,64.24,64.24,0,0,0-90.72,0,5.38,5.38,0,1,1-8-7.14l.16-.17a2.65,2.65,0,0,1,.29-.29,74.89,74.89,0,0,1,105.9,0h0a5.37,5.37,0,0,1-3.8,9.18Z"/><path id="Path_5039" data-name="Path 5039" class="cls-5" d="M289.8,194.55H139.55a5.38,5.38,0,0,1,0-10.75H289.8a5.38,5.38,0,0,1,0,10.75Z"/><path id="Path_5040" data-name="Path 5040" class="cls-6" d="M316.14,159.47H113a5.38,5.38,0,0,1,0-10.76H316.13a5.38,5.38,0,0,1,0,10.76Z"/><g id="Group_7281" data-name="Group 7281"><path id="Path_4215" data-name="Path 4215" class="cls-7" d="M390.22,241.61c-39.88,0-72.2,9.16-72.2,20.45V380.92a12.08,12.08,0,0,0,8.36,11.81,229,229,0,0,0,127.7,0,12.09,12.09,0,0,0,8.35-11.81V262.06C462.43,250.77,430.1,241.61,390.22,241.61Z"/><path id="Path_4216" data-name="Path 4216" class="cls-3" d="M390.22,407.17A253,253,0,0,1,325,398.63a16.66,16.66,0,0,1-12.32-16.06V369.13a5.38,5.38,0,1,1,10.75,0h0v13.44a5.88,5.88,0,0,0,4.37,5.68,242.7,242.7,0,0,0,124.92,0,5.91,5.91,0,0,0,4.37-5.68V369.13a5.38,5.38,0,1,1,10.75,0h0v13.44a16.66,16.66,0,0,1-12.32,16.06A253.18,253.18,0,0,1,390.22,407.17Z"/><path id="Path_4217" data-name="Path 4217" class="cls-3" d="M390.22,365.87A253.92,253.92,0,0,1,325,357.34a16.68,16.68,0,0,1-12.34-16.06V327.84a5.38,5.38,0,1,1,10.75,0h0v13.44a5.87,5.87,0,0,0,4.37,5.68,242.7,242.7,0,0,0,124.92,0,5.87,5.87,0,0,0,4.37-5.68V327.84a5.38,5.38,0,1,1,10.75,0h0v13.44a16.65,16.65,0,0,1-12.32,16.08A253.56,253.56,0,0,1,390.22,365.87Z"/><path id="Path_4218" data-name="Path 4218" class="cls-3" d="M390.22,324.57A253.4,253.4,0,0,1,324.93,316,16.68,16.68,0,0,1,312.63,300V286.52a5.38,5.38,0,0,1,10.76,0V300a5.89,5.89,0,0,0,4.36,5.69,243,243,0,0,0,124.93,0A5.88,5.88,0,0,0,457,300V286.52a5.38,5.38,0,0,1,10.76,0V300A16.68,16.68,0,0,1,455.48,316a253.05,253.05,0,0,1-65.24,8.53Z"/><path id="Path_4219" data-name="Path 4219" class="cls-3" d="M390.22,287.89c-37.36,0-77.58-8.06-77.58-25.82s40.22-25.84,77.58-25.84,77.58,8.07,77.58,25.83S427.59,287.89,390.22,287.89Zm0-40.9a190.46,190.46,0,0,0-49.58,5.79c-14.34,4-17.25,8.35-17.25,9.28s2.93,5.23,17.25,9.29a215.53,215.53,0,0,0,99.18,0c14.33-4.06,17.23-8.36,17.23-9.29s-2.92-5.22-17.23-9.28a190.62,190.62,0,0,0-49.6-5.8Z"/></g><g id="Group_7285" data-name="Group 7285"><path id="Path_5047" data-name="Path 5047" class="cls-3" d="M384.77,92.83H43a10.84,10.84,0,0,0-10.83,10.82V310.87A10.84,10.84,0,0,0,43,321.7H164.9a5.38,5.38,0,0,0,0-10.75H43a.08.08,0,0,1-.08-.09V103.65a.08.08,0,0,1,.08-.08H384.76a.09.09,0,0,1,.09.08V223.22h.09a5.37,5.37,0,0,0,10.56,0h.09V103.65A10.84,10.84,0,0,0,384.77,92.83Z"/><path id="Path_5048" data-name="Path 5048" class="cls-3" d="M303.31,310.94H262.89a5.38,5.38,0,1,0,0,10.75h40.42a5.38,5.38,0,1,0,0-10.75Z"/></g></g></svg>