<?xml version="1.0" encoding="UTF-8"?><svg id="Layer_1" xmlns="http://www.w3.org/2000/svg" viewBox="0 0 238.82 234.63"><defs><style>.cls-1{fill:#fff;}</style></defs><rect class="cls-1" x="84.19" y="81.6" width="69.65" height="28.61"/><rect class="cls-1" x="84.19" y="115.29" width="69.65" height="28.61"/><path class="cls-1" d="M119.39,9L18.35,76.71v26.73h13.55v80.19H207.19V103.44h13.24v-26.73L119.39,9Zm66.07,147.7H53.51V87.81L119.01,44.14l66.45,43.67v68.89Z"/><g><path class="cls-1" d="M34.15,203.39v-15.03h10.87v1.77h-8.88v4.6h8.32v1.76h-8.32v5.12h9.23v1.77h-11.22Z"/><path class="cls-1" d="M59.59,201.78c.92,.63,1.77,1.1,2.55,1.39l-.58,1.38c-1.08-.39-2.16-1-3.23-1.85-1.11,.62-2.34,.93-3.69,.93s-2.59-.33-3.7-.98-1.96-1.58-2.56-2.77c-.6-1.19-.9-2.53-.9-4.02s.3-2.83,.9-4.05,1.46-2.14,2.57-2.78c1.11-.63,2.35-.95,3.73-.95s2.64,.33,3.75,.99c1.11,.66,1.96,1.58,2.55,2.77,.58,1.19,.88,2.52,.88,4.01,0,1.24-.19,2.35-.56,3.34-.38,.99-.94,1.85-1.7,2.58Zm-4.38-2.54c1.15,.32,2.1,.8,2.84,1.44,1.17-1.07,1.75-2.67,1.75-4.81,0-1.22-.21-2.28-.62-3.19-.41-.91-1.02-1.62-1.82-2.12-.8-.5-1.69-.75-2.68-.75-1.48,0-2.71,.51-3.69,1.52-.98,1.01-1.47,2.53-1.47,4.55s.48,3.46,1.45,4.5c.97,1.05,2.2,1.57,3.71,1.57,.71,0,1.38-.13,2.01-.4-.62-.4-1.28-.69-1.97-.86l.48-1.45Z"/><path class="cls-1" d="M74.48,188.36h1.99v8.68c0,1.51-.17,2.71-.51,3.6s-.96,1.61-1.85,2.17c-.89,.56-2.06,.83-3.51,.83s-2.56-.24-3.46-.73-1.53-1.19-1.92-2.11c-.38-.92-.57-2.17-.57-3.77v-8.68h1.99v8.67c0,1.31,.12,2.27,.36,2.89,.24,.62,.66,1.1,1.25,1.43,.59,.34,1.31,.5,2.17,.5,1.46,0,2.51-.33,3.13-1,.62-.66,.93-1.94,.93-3.82v-8.67Z"/><path class="cls-1" d="M78.22,203.39l5.77-15.03h2.14l6.15,15.03h-2.27l-1.75-4.55h-6.29l-1.65,4.55h-2.11Zm4.34-6.17h5.1l-1.57-4.16c-.48-1.26-.83-2.3-1.07-3.12-.19,.96-.46,1.92-.81,2.87l-1.65,4.41Z"/><path class="cls-1" d="M93.88,203.39v-15.03h1.99v13.26h7.4v1.77h-9.39Z"/><path class="cls-1" d="M111.7,203.39v-15.03h1.99v6.17h7.81v-6.17h1.99v15.03h-1.99v-7.09h-7.81v7.09h-1.99Z"/><path class="cls-1" d="M126.29,196.07c0-2.5,.67-4.45,2.01-5.86,1.34-1.41,3.07-2.12,5.19-2.12,1.39,0,2.64,.33,3.75,.99,1.11,.66,1.96,1.59,2.55,2.77,.58,1.19,.88,2.53,.88,4.03s-.31,2.89-.92,4.09-1.49,2.11-2.62,2.73c-1.13,.62-2.34,.93-3.65,.93-1.42,0-2.68-.34-3.79-1.03-1.11-.68-1.96-1.62-2.53-2.8s-.86-2.43-.86-3.75Zm2.05,.03c0,1.81,.49,3.24,1.46,4.28,.97,1.04,2.2,1.56,3.67,1.56s2.73-.53,3.7-1.58c.97-1.05,1.45-2.55,1.45-4.48,0-1.22-.21-2.29-.62-3.2-.41-.91-1.02-1.62-1.81-2.12-.8-.5-1.69-.75-2.68-.75-1.41,0-2.62,.48-3.63,1.45-1.02,.97-1.52,2.58-1.52,4.84Z"/><path class="cls-1" d="M153.17,188.36h1.99v8.68c0,1.51-.17,2.71-.51,3.6s-.96,1.61-1.85,2.17c-.89,.56-2.06,.83-3.51,.83s-2.56-.24-3.46-.73-1.54-1.19-1.92-2.11c-.38-.92-.57-2.17-.57-3.77v-8.68h1.99v8.67c0,1.31,.12,2.27,.36,2.89,.24,.62,.66,1.1,1.25,1.43,.59,.34,1.31,.5,2.17,.5,1.46,0,2.5-.33,3.13-1,.62-.66,.93-1.94,.93-3.82v-8.67Z"/><path class="cls-1" d="M157.88,198.56l1.88-.16c.09,.75,.29,1.37,.62,1.85,.32,.48,.83,.87,1.51,1.17,.68,.3,1.45,.45,2.31,.45,.76,0,1.43-.11,2.01-.34s1.01-.54,1.3-.93c.28-.39,.43-.82,.43-1.29s-.14-.88-.41-1.24c-.27-.35-.72-.65-1.35-.89-.4-.16-1.29-.4-2.68-.73-1.38-.33-2.35-.64-2.9-.94-.72-.38-1.25-.84-1.6-1.4-.35-.56-.53-1.18-.53-1.87,0-.76,.22-1.47,.65-2.13,.43-.66,1.06-1.16,1.89-1.5s1.75-.51,2.76-.51c1.11,0,2.1,.18,2.95,.54,.85,.36,1.51,.89,1.96,1.58s.7,1.49,.74,2.37l-1.91,.14c-.1-.95-.45-1.67-1.04-2.15-.59-.49-1.46-.73-2.62-.73s-2.08,.22-2.63,.66c-.55,.44-.83,.97-.83,1.59,0,.54,.19,.98,.58,1.33,.38,.35,1.38,.71,3,1.07,1.62,.37,2.73,.69,3.33,.96,.88,.4,1.52,.91,1.94,1.53,.42,.62,.63,1.33,.63,2.14s-.23,1.55-.69,2.26c-.46,.71-1.12,1.26-1.97,1.65-.86,.39-1.82,.59-2.9,.59-1.36,0-2.5-.2-3.42-.59-.92-.4-1.64-.99-2.16-1.79-.52-.8-.8-1.7-.83-2.7Z"/><path class="cls-1" d="M172.99,203.39v-15.03h1.99v15.03h-1.99Z"/><path class="cls-1" d="M178.55,203.39v-15.03h2.04l7.9,11.8v-11.8h1.91v15.03h-2.04l-7.9-11.81v11.81h-1.91Z"/><path class="cls-1" d="M200.85,197.49v-1.76h6.37s0,5.57,0,5.57c-.98,.78-1.99,1.37-3.03,1.76-1.04,.39-2.11,.59-3.2,.59-1.48,0-2.82-.32-4.02-.95-1.21-.63-2.12-1.55-2.73-2.74-.62-1.2-.92-2.53-.92-4.01s.31-2.83,.92-4.1c.61-1.27,1.49-2.21,2.64-2.82s2.47-.92,3.97-.92c1.09,0,2.07,.18,2.95,.53,.88,.35,1.57,.84,2.07,1.47s.88,1.45,1.14,2.46l-1.79,.49c-.23-.77-.51-1.37-.84-1.8s-.81-.79-1.44-1.05c-.62-.26-1.31-.39-2.07-.39-.91,0-1.7,.14-2.36,.42-.66,.28-1.2,.64-1.6,1.09-.41,.45-.72,.95-.95,1.49-.38,.93-.57,1.94-.57,3.02,0,1.34,.23,2.46,.69,3.36,.46,.9,1.13,1.57,2.02,2.01s1.82,.66,2.81,.66c.86,0,1.7-.17,2.52-.5,.82-.33,1.44-.69,1.87-1.06v-2.8h-4.42Z"/></g><g><path class="cls-1" d="M32.68,215.88c0-2.9,.78-5.17,2.34-6.81s3.57-2.46,6.03-2.46c1.61,0,3.07,.39,4.36,1.16,1.3,.77,2.28,1.85,2.96,3.22,.68,1.38,1.02,2.94,1.02,4.69s-.36,3.36-1.07,4.76c-.72,1.4-1.73,2.46-3.04,3.18-1.31,.72-2.73,1.08-4.24,1.08-1.65,0-3.12-.4-4.41-1.19-1.3-.79-2.28-1.88-2.95-3.25s-1-2.83-1-4.36Zm2.38,.04c0,2.11,.57,3.77,1.7,4.98,1.13,1.21,2.55,1.82,4.26,1.82s3.17-.61,4.3-1.84c1.12-1.22,1.69-2.96,1.69-5.21,0-1.42-.24-2.67-.72-3.73-.48-1.06-1.18-1.88-2.11-2.47-.93-.58-1.97-.88-3.12-.88-1.64,0-3.05,.56-4.23,1.69-1.18,1.12-1.77,3-1.77,5.63Z"/><path class="cls-1" d="M52.48,224.4v-17.48h6.59c1.16,0,2.05,.06,2.66,.17,.86,.14,1.58,.42,2.16,.82s1.05,.96,1.4,1.69c.35,.72,.53,1.52,.53,2.38,0,1.49-.47,2.74-1.42,3.77-.95,1.03-2.66,1.54-5.13,1.54h-4.48v7.11h-2.31Zm2.31-9.17h4.52c1.49,0,2.56-.28,3.18-.83,.63-.56,.94-1.34,.94-2.35,0-.73-.18-1.36-.55-1.88s-.86-.86-1.46-1.03c-.39-.1-1.11-.16-2.16-.16h-4.47v6.25Z"/><path class="cls-1" d="M68.86,224.4v-17.48h6.59c1.16,0,2.05,.06,2.66,.17,.86,.14,1.58,.42,2.16,.82s1.05,.96,1.4,1.69c.35,.72,.53,1.52,.53,2.38,0,1.49-.47,2.74-1.42,3.77-.95,1.03-2.66,1.54-5.13,1.54h-4.48v7.11h-2.31Zm2.31-9.17h4.52c1.49,0,2.56-.28,3.18-.83,.63-.56,.94-1.34,.94-2.35,0-.73-.18-1.36-.55-1.88s-.86-.86-1.46-1.03c-.39-.1-1.11-.16-2.16-.16h-4.47v6.25Z"/><path class="cls-1" d="M84.55,215.88c0-2.9,.78-5.17,2.34-6.81s3.57-2.46,6.03-2.46c1.61,0,3.07,.39,4.36,1.16,1.3,.77,2.28,1.85,2.96,3.22,.68,1.38,1.02,2.94,1.02,4.69s-.36,3.36-1.07,4.76c-.72,1.4-1.73,2.46-3.04,3.18-1.31,.72-2.73,1.08-4.24,1.08-1.65,0-3.12-.4-4.41-1.19-1.3-.79-2.28-1.88-2.95-3.25s-1-2.83-1-4.36Zm2.38,.04c0,2.11,.57,3.77,1.7,4.98,1.13,1.21,2.55,1.82,4.26,1.82s3.17-.61,4.3-1.84c1.12-1.22,1.69-2.96,1.69-5.21,0-1.42-.24-2.67-.72-3.73-.48-1.06-1.18-1.88-2.11-2.47-.93-.58-1.97-.88-3.12-.88-1.64,0-3.05,.56-4.23,1.69-1.18,1.12-1.77,3-1.77,5.63Z"/><path class="cls-1" d="M104.38,224.4v-17.48h7.75c1.56,0,2.74,.16,3.55,.47,.81,.31,1.46,.87,1.94,1.66s.73,1.67,.73,2.64c0,1.24-.4,2.29-1.2,3.14-.8,.85-2.04,1.39-3.72,1.62,.61,.29,1.08,.58,1.4,.87,.68,.62,1.32,1.4,1.92,2.33l3.04,4.76h-2.91l-2.31-3.64c-.68-1.05-1.23-1.85-1.67-2.41-.44-.56-.83-.95-1.17-1.17-.35-.22-.7-.38-1.06-.46-.26-.06-.69-.08-1.29-.08h-2.68v7.76h-2.31Zm2.31-9.77h4.97c1.06,0,1.88-.11,2.48-.33s1.05-.57,1.36-1.05c.31-.48,.47-1,.47-1.57,0-.83-.3-1.51-.9-2.04-.6-.53-1.55-.8-2.84-.8h-5.53v5.78Z"/><path class="cls-1" d="M126.53,224.4v-15.42h-5.76v-2.06h13.86v2.06h-5.78v15.42h-2.31Z"/><path class="cls-1" d="M148.56,206.91h2.31v10.1c0,1.76-.2,3.15-.6,4.19s-1.12,1.87-2.15,2.52c-1.04,.65-2.4,.97-4.08,.97s-2.98-.28-4.02-.85c-1.04-.56-1.79-1.38-2.23-2.45s-.67-2.53-.67-4.38v-10.1h2.31v10.09c0,1.52,.14,2.64,.42,3.36s.77,1.27,1.46,1.66c.69,.39,1.53,.58,2.52,.58,1.7,0,2.91-.38,3.64-1.16,.72-.77,1.08-2.25,1.08-4.45v-10.09Z"/><path class="cls-1" d="M154.8,224.4v-17.48h2.37l9.18,13.72v-13.72h2.22v17.48h-2.37l-9.18-13.74v13.74h-2.22Z"/><path class="cls-1" d="M172.95,224.4v-17.48h2.31v17.48h-2.31Z"/><path class="cls-1" d="M183.89,224.4v-15.42h-5.76v-2.06h13.86v2.06h-5.78v15.42h-2.31Z"/><path class="cls-1" d="M199.38,224.4v-7.41l-6.74-10.08h2.81l3.45,5.27c.64,.99,1.23,1.97,1.78,2.96,.52-.91,1.16-1.94,1.91-3.09l3.39-5.14h2.7l-6.98,10.08v7.41h-2.31Z"/></g></svg>