<svg xmlns="http://www.w3.org/2000/svg" viewBox="0 0 500 500"><defs><style>.cls-1{fill:#f5f6f6;}.cls-2{fill:#353535;}.cls-3{fill:#cccbcb;}.cls-4{fill:#005a72;}.cls-5{fill:none;}</style></defs><g id="Layer_1" data-name="Layer 1"><path class="cls-1" d="M300.78,221.37a16.06,16.06,0,0,0-11.65-13.12c8.54-26.15-.07-46.74-.07-46.74s-40.23,8.07-80.91,8.07-77.51-8.07-77.51-8.07-8.67,20.71,0,47c0,0,.3.67.86,1.83a15.76,15.76,0,0,0-7.11,11,33.54,33.54,0,0,0-.34,4.76c0,12.56,6.84,22.51,15.78,23.33,0,.19.11.38.16.57,6.41,23.83,22.08,44.12,43,57.16l5.92,3.69a44.76,44.76,0,0,0,47.3,0l5.92-3.69c21-13,36.61-33.33,43-57.16.06-.19.11-.38.16-.57,8.94-.82,15.78-10.77,15.78-23.33A33.27,33.27,0,0,0,300.78,221.37Z"/><path class="cls-2" d="M129,198.21s14.24-10.27,31.14-8S200.38,200,213,200s29.18-6.84,40.08-8.43c23-3.36,31,4.22,38.57,7.83a36.25,36.25,0,0,0-1.26,9.73s-15.57-3.31-18.88,2.32,2.32,19.88-12.92,24.52-30.81-7.62-41.74-7.95-32.52,12.05-43.93,8.14c-18.28-6.24-15.26-15.08-17.78-22-1.2-3.32-10.54-9-21.1-7.69Z"/><path class="cls-1" d="M354,426.16s-30.57-2.4-31.09-31V274.46a11.88,11.88,0,0,1,11.89-11.88h95.44a11.88,11.88,0,0,1,11.89,11.88V444.94a13.93,13.93,0,0,1-13.93,13.92H360.24v-31Z"/><path class="cls-3" d="M336.82,458.86h-244a33.64,33.64,0,0,1-33.27-38.62l14.07-56a39.67,39.67,0,0,1,27.4-27L148.72,329l67.42,44.61,58.43-43.73,48,8.6.72,55.56s.89,32.26,37.46,34.77V459Z"/><path class="cls-1" d="M173.57,303.37a36.18,36.18,0,0,1-8.14,19c-7.46,8.81-16.27,8.81-16.27,8.81l64.41,40.68,61-42s-18.66-9-20.68-26.74c-19.87,11.66-25.48,13.53-42,13.67C200.92,316.89,173.57,303.37,173.57,303.37Z"/><path class="cls-3" d="M300.54,117.71c17,5.5,27.25,12.57,27.25,20.29,0,17.52-52.77,31.72-117.86,31.72S92.08,155.52,92.08,138c0-7.72,10.23-14.79,27.24-20.29"/><path class="cls-2" d="M209.93,174.59C149,174.59,87.21,162,87.21,138c0-10,10.3-18.35,30.62-24.92a4.87,4.87,0,0,1,3,9.27C103.22,128,97,134.16,97,138c0,4.34,8.1,11.59,30.91,17.73,21.86,5.88,51,9.12,82.07,9.12s60.21-3.24,82.07-9.12c22.82-6.14,30.92-13.39,30.92-17.73,0-3.84-6.28-10-23.88-15.66a4.87,4.87,0,1,1,3-9.26c20.32,6.57,30.63,15,30.63,24.92C332.66,162,270.92,174.59,209.93,174.59Z"/><path class="cls-2" d="M212.61,204.58a42.86,42.86,0,0,1-14-2.35c-18.58-6.45-43.34-6.5-43.57-6.47h0a4.87,4.87,0,0,1,0-9.73c1.09,0,26.62,0,46.8,7a32.74,32.74,0,0,0,21.67,0c20.17-7,45.71-7,46.79-7a4.87,4.87,0,0,1,0,9.73h0c-.61,0-25.12.07-43.56,6.47A42.82,42.82,0,0,1,212.61,204.58Z"/><path class="cls-1" d="M276.1,209.7c10-5.6,23,.28,24.68,11.67a33.27,33.27,0,0,1,.33,4.74c0,12.56-6.84,22.51-15.78,23.33-.05.19-.1.38-.16.57-6.41,23.83-22.07,44.12-43,57.16l-5.92,3.69a44.76,44.76,0,0,1-47.3,0L183,307.17c-20.94-13-36.61-33.33-43-57.16-.05-.19-.11-.38-.16-.57-8.94-.82-15.78-10.77-15.78-23.33a33.54,33.54,0,0,1,.34-4.76C126,210,139,204.09,149,209.67l6,3.31a24.86,24.86,0,0,0,6,16.55c5,5.62,10.95,6.71,18.59,6.71a33.19,33.19,0,0,0,16-3.82h0a41,41,0,0,1,34.12,0h0a33.23,33.23,0,0,0,16,3.82c7.63,0,13.58-1.09,18.58-6.71a24.87,24.87,0,0,0,6-16.55Z"/><path class="cls-2" d="M429.56,256.71H334.12a16.78,16.78,0,0,0-16.76,16.76V394.15A35.92,35.92,0,0,0,353.25,430h70.66a4.87,4.87,0,1,0,0-9.73H353.25a26.18,26.18,0,0,1-26.15-26.15V273.47a7,7,0,0,1,7-7h95.44a7,7,0,0,1,7,7V443.94a9.08,9.08,0,0,1-9.06,9.06H92.2a28.78,28.78,0,0,1-28.49-32.81l14-55.68A34.63,34.63,0,0,1,101.47,341l47.41-8.18.12,0a34.63,34.63,0,0,0,26.32-23.49l2.56-8a4.87,4.87,0,1,0-9.28-3L166,306.33a24.91,24.91,0,0,1-18.87,16.87l-47.6,8.22-.49.11a44.3,44.3,0,0,0-30.75,30.31L54.2,418.06l-.09.47a38.5,38.5,0,0,0,38.09,44.2H427.52a18.81,18.81,0,0,0,18.79-18.79V273.47A16.77,16.77,0,0,0,429.56,256.71Z"/><path class="cls-2" d="M249.57,309.28a34.63,34.63,0,0,0,26.32,23.49l27.94,4.82a4.73,4.73,0,0,0,.83.07,4.87,4.87,0,0,0,.83-9.67l-27.77-4.79a24.9,24.9,0,0,1-18.88-16.87l-2.56-8.05a4.87,4.87,0,0,0-9.28,3Z"/><path class="cls-2" d="M305.6,220.68A20.57,20.57,0,0,0,295,205.46c6.82-25.47-1.12-45-1.48-45.83a4.87,4.87,0,1,0-9,3.75c.07.18,7,17.15,1.11,39.36a21.78,21.78,0,0,0-11.95,2.71l-8.37,4.67V213a19.91,19.91,0,0,1-4.74,13.32c-3.38,3.79-7.15,5.08-14.94,5.08a28.38,28.38,0,0,1-13.82-3.31l-.17-.08a45.81,45.81,0,0,0-38.16,0l-.17.08a28.33,28.33,0,0,1-13.81,3.31c-7.8,0-11.57-1.29-15-5.08A20,20,0,0,1,159.86,213v-2.87l-8.45-4.69a21.88,21.88,0,0,0-17.13-1.75c-6.23-22.43.73-40,.86-40.3a4.87,4.87,0,0,0-9-3.74c-.38.9-9,22.06-.52,49.13a20.48,20.48,0,0,0-6.06,11.89,37.94,37.94,0,0,0-.39,5.46c0,13.47,7,24.61,16.77,27.52,7,23.72,22.74,44.13,44.49,57.67l5.92,3.69a49.3,49.3,0,0,0,52.44,0l5.92-3.69c21.75-13.54,37.47-33.95,44.49-57.67,9.77-2.91,16.77-14,16.77-27.52A39,39,0,0,0,305.6,220.68Zm-20.72,23.91-3.39.31-1,3.85c-6,22.33-20.53,41.61-40.89,54.29l-5.92,3.68a39.59,39.59,0,0,1-42.15,0L185.58,303c-20.35-12.68-34.88-32-40.89-54.29l-1-3.85-3.4-.31c-6.37-.58-11.36-8.7-11.36-18.48a28.67,28.67,0,0,1,.29-4.07,11,11,0,0,1,6.15-8.35,12.17,12.17,0,0,1,11.32.24l3.58,2a29.1,29.1,0,0,0,7.07,16.85c6.52,7.33,14.53,8.34,22.22,8.34a37.8,37.8,0,0,0,18.11-4.3,36.11,36.11,0,0,1,29.9,0,38,38,0,0,0,18.12,4.3c7.68,0,15.69-1,22.22-8.34A29.15,29.15,0,0,0,275,215.91l3.51-1.95h0a12.07,12.07,0,0,1,8.1-1.31,4.64,4.64,0,0,0,1,.44,5.13,5.13,0,0,0,1.38.24c.3.12.6.23.89.37a11,11,0,0,1,6.16,8.36,28.5,28.5,0,0,1,.28,4.05C296.24,235.89,291.25,244,284.88,244.59Z"/><path class="cls-3" d="M283.07,132.08a167.07,167.07,0,0,0-18.8-61.32c-17.14-32-41.51-7.15-54.34-7.15-15.38,0-37.2-24.86-54.33,7.15a166.88,166.88,0,0,0-18.8,61.32"/><path class="cls-2" d="M283.06,137a4.86,4.86,0,0,1-4.83-4.37A163.18,163.18,0,0,0,260,73.06c-10.4-19.43-22.63-14.27-35.57-8.81-5.15,2.18-10,4.23-14.48,4.23-5.39,0-10.78-2.23-16.48-4.6-13.09-5.43-23.44-9.73-33.56,9.18a163.18,163.18,0,0,0-18.25,59.52,4.87,4.87,0,0,1-9.68-1,172.6,172.6,0,0,1,19.35-63.11c14.28-26.7,33.29-18.8,45.87-13.58,4.78,2,9.3,3.86,12.75,3.86,2.49,0,6.48-1.69,10.7-3.47C233.1,50,254,41.21,268.56,68.47a172.79,172.79,0,0,1,19.35,63.11,4.86,4.86,0,0,1-4.34,5.34A4.36,4.36,0,0,1,283.06,137Z"/><path class="cls-2" d="M384,355.39c-9.27-3-10.46-6.5-10.46-9.19a9,9,0,0,1,8.24-8.91,4.23,4.23,0,0,0,1.42,0,9,9,0,0,1,8.24,8.91,4.87,4.87,0,1,0,9.73,0,18.7,18.7,0,0,0-13.81-18v-3.5a4.87,4.87,0,0,0-9.74,0v3.5a18.7,18.7,0,0,0-13.81,18c0,8.53,5.77,14.73,17.17,18.45,8.75,2.85,10.46,5.53,10.46,9.19a9,9,0,0,1-17.9,0,4.87,4.87,0,1,0-9.73,0,18.71,18.71,0,0,0,13.81,18v3.59a4.87,4.87,0,1,0,9.74,0v-3.59a18.71,18.71,0,0,0,13.81-18C401.18,361,389.15,357.07,384,355.39Z"/><path class="cls-2" d="M424.92,303.12H343.26a4.87,4.87,0,0,1,0-9.74h81.66a4.87,4.87,0,1,1,0,9.74Z"/><path class="cls-2" d="M382.5,449.55a6.86,6.86,0,1,1,6.86-6.86A6.87,6.87,0,0,1,382.5,449.55Z"/><path class="cls-2" d="M394.31,285H370.69a4.87,4.87,0,1,1,0-9.73h23.62a4.87,4.87,0,1,1,0,9.73Z"/><path class="cls-2" d="M281.48,326.19A4.86,4.86,0,0,0,274.7,325l-59.29,41.56-64-41.66a4.87,4.87,0,0,0-5.31,8.16l64.58,42V440.7a4.87,4.87,0,1,0,9.74,0V375l59.91-42A4.87,4.87,0,0,0,281.48,326.19Z"/><path class="cls-4" d="M241.65,72c-2.49,0-6.1,1.38-12.3,4S217,81.18,209.93,81.18c-7.93,0-15.06-3-21.35-5.57C183,73.28,179.82,72,177.66,72c-2.78,0-3.94,2.16-6.57,7.08a149.31,149.31,0,0,0-10.64,25.37,98.77,98.77,0,0,0,99,0,149.31,149.31,0,0,0-10.64-25.37C246.2,74.23,244.85,72,241.65,72Z"/><rect class="cls-5" width="500" height="500"/></g></svg>