<svg xmlns="http://www.w3.org/2000/svg" viewBox="0 0 500 500"><defs><style>.cls-1{fill:none;}.cls-2{fill:#cccbcb;}.cls-3{fill:#f5f6f6;}.cls-4{fill:#353535;}.cls-5{fill:#005a72;}.cls-6{fill:#a29482;}</style></defs><g id="Layer_1" data-name="Layer 1"><rect class="cls-1" width="500" height="500"/><path class="cls-2" d="M167.53,199.66,136.3,274.59l35.4,25.57s27.07,20.44,44.51,37.95,24.6,30.44,31.41,31.46,15.66-4.42,17.36-8.17c0,0,12.25,3.75,17.7,0s9.53-8.85,11.23-12.93c0,0,10.56,1,16-2.39a23.19,23.19,0,0,0,9.88-13.61s10.55-.69,14.3-5.11,4.62-12.24,1.74-16.34-29.16-38.52-29.16-38.52-44.11-65.89-73.37-70S167.53,199.66,167.53,199.66Z"/><polygon class="cls-3" points="376.9 191.87 334.08 209.91 371.43 300.16 414.5 283.68 376.9 191.87"/><path class="cls-3" d="M160.75,293.79l-3.94,4.4a10.13,10.13,0,0,0,1.13,14.59h0a11.25,11.25,0,0,0,15.55-1.25l3.84-4.34"/><path class="cls-3" d="M197.67,324.6,189,334a12.57,12.57,0,0,1-17.5,1h0a12.57,12.57,0,0,1-1.27-17.75l8-9.27"/><path class="cls-3" d="M197.67,324.6l-5.58,6.09a12.5,12.5,0,0,0,.69,17.58h0a12.49,12.49,0,0,0,17.6-.58l5.83-6.19"/><path class="cls-3" d="M233.3,357.9,230.23,361a11.8,11.8,0,0,1-16.59.29h0a11.8,11.8,0,0,1-.44-16.63l2.21-2.34"/><path class="cls-4" d="M236.8,354.33a5,5,0,0,0-7.07.08l-3.07,3.14a6.8,6.8,0,0,1-9.82-9.42l.09-.1,2.12-2.24h0l.8-.85a5,5,0,1,0-7.27-6.86l-2.16,2.29-.86.91h0l-2.81,3a7.49,7.49,0,0,1-11-10.19l5.59-6.09a5,5,0,0,0-.31-7.06,4.91,4.91,0,0,0-3.4-1.3,1.21,1.21,0,0,0-.19,0,4.82,4.82,0,0,0-.75.1l-.2,0a4.39,4.39,0,0,0-.61.21l-.31.1-.45.27c-.13.08-.27.14-.4.23a4.74,4.74,0,0,0-.75.67l-8.63,9.41a7.58,7.58,0,0,1-11.31-10.09l8-9.26a5,5,0,0,0-.5-7,3.86,3.86,0,0,0-.62-.44,2.5,2.5,0,0,0-.31-.34,5,5,0,0,0-7.06.43l-3.84,4.34a6.23,6.23,0,0,1-8.64.69,5.14,5.14,0,0,1-.58-7.38l3.94-4.4a5,5,0,0,0-7.45-6.67l-3.94,4.4a15.12,15.12,0,0,0,1.7,21.78A16.15,16.15,0,0,0,163,320.2a17.62,17.62,0,0,0,16.76,22.92,17.72,17.72,0,0,0,4.4-.58,17.37,17.37,0,0,0,17.11,14.06,17.88,17.88,0,0,0,4.05-.49,16.81,16.81,0,0,0,28.47,8.43l3.07-3.14A5,5,0,0,0,236.8,354.33Z"/><path class="cls-3" d="M354.93,261.68c-50.06,33.6-87.4-21.75-87.4-21.75-17.69-24.19-30.35.81-30.35.81-9.31,22.61-22.73,20.56-30.64,16.68a9.25,9.25,0,0,1-4.63-10.89l6-20.51a31.66,31.66,0,0,1,17.66-20.13L248.12,196c8.07-3.55,15.52-2.74,25.48-.71l58.87,13.94Z"/><path class="cls-3" d="M367.36,290.74l-38.77,12.32-24.28-33.84s28.35,11.74,50.62-7.54Z"/><polyline class="cls-3" points="123.59 181.16 167.53 199.66 128.57 290.74 85.57 274.01"/><polyline class="cls-3" points="32.47 306 66.88 319.63 128.57 168.98 32.47 130.02"/><path class="cls-4" d="M338.76,307.79l-33.42-41.92a5,5,0,0,0-7.82,6.24L330.94,314a6.9,6.9,0,0,1,1.12,6.6,8.59,8.59,0,0,1-14.35,3L271.82,275a5,5,0,0,0-7.28,6.86l45.89,48.69a18.92,18.92,0,0,0,4.34,3.42,14.57,14.57,0,0,1-10.27,8.58,15.06,15.06,0,0,1-14.38-4.29L251.5,297.84a5,5,0,1,0-7.23,6.91l38.63,40.39a25.08,25.08,0,0,0,6.37,4.85c-4,5.4-8.64,8-13.94,7.71A15.29,15.29,0,0,1,265,352.4L233.1,316.93a5,5,0,1,0-7.43,6.7l31.93,35.46c.51.56,1,1.09,1.56,1.6a7.64,7.64,0,0,1-4.72,4.34,8.19,8.19,0,0,1-8.41-1.84L231.1,348.85A823.93,823.93,0,0,0,142,273.35l29.49-68.93c9.5-.51,36.4-1.36,58.78,3.77a4.9,4.9,0,0,0,1.13.13,5,5,0,0,0,1.11-9.88c-25.16-5.76-54.56-4.46-63-3.93L130.74,178.2l2.92-7.13a5.51,5.51,0,0,0-3-7.19L34.53,124.93a5.5,5.5,0,0,0-4.13,10.19l91,36.89-2.87,7h0v0L63.85,312.51,34.49,300.88a5.5,5.5,0,1,0-4.05,10.23l34.42,13.63a5.33,5.33,0,0,0,2,.39A5.5,5.5,0,0,0,72,321.72l16.64-40.63,38,14.77a5.37,5.37,0,0,0,2,.38,5.51,5.51,0,0,0,5.06-3.34L138,282.77A819.55,819.55,0,0,1,224.14,356l15,14.37a18.19,18.19,0,0,0,12.63,5.08,18.45,18.45,0,0,0,5.89-1,17.47,17.47,0,0,0,10-8.38,23.06,23.06,0,0,0,7.14,1.55c.44,0,.9,0,1.36,0,6.76,0,15.83-2.77,23.22-14.86.54,0,1.08.06,1.61.06a25.78,25.78,0,0,0,5.76-.66,24.46,24.46,0,0,0,17.81-15.93,18.2,18.2,0,0,0,3.26-.37,18.48,18.48,0,0,0,13.68-12A16.81,16.81,0,0,0,338.76,307.79ZM125.61,283.68,92.78,270.91l33.79-82.53,33.73,14.21Z"/><polyline class="cls-3" points="467.53 315.52 433.12 329.15 371.43 178.5 467.53 139.54"/><path class="cls-4" d="M465.51,310.4,436.15,322,378.61,181.52l91-36.88a5.5,5.5,0,0,0-4.13-10.19l-96.11,39a5.51,5.51,0,0,0-3,7.19l2.92,7.13-38.05,16-56.45-13.37-.16,0c-9.77-2-18.66-3.3-28.5,1l-22.58,9.93a36.6,36.6,0,0,0-20.44,23.32l-6,20.5a14.19,14.19,0,0,0,7.22,16.78c6.71,3.28,13.42,3.82,19.42,1.55,7.41-2.81,13.45-9.74,18-20.62,1.18-2.23,5.21-8.06,9.88-8.44,4.45-.38,8.87,4.36,11.85,8.41a95.56,95.56,0,0,0,26.38,24.85,71.86,71.86,0,0,0,11.27,5.67L324.53,306a5,5,0,0,0,5.58,1.85l34-10.79,2.3,5.39a5.51,5.51,0,0,0,5.06,3.34,5.33,5.33,0,0,0,2-.38l38-14.77L428,331.23a5.49,5.49,0,0,0,5.09,3.42,5.42,5.42,0,0,0,2-.39l34.41-13.63a5.5,5.5,0,1,0-4.05-10.23ZM295.34,259.3a86.43,86.43,0,0,1-23.66-22.17l-.11-.16c-6.12-8.36-12.65-12.59-19.44-12.59-.45,0-.9,0-1.34.05-11.11.91-17.39,12.7-18.07,14a3.78,3.78,0,0,0-.17.35c-3.43,8.33-7.58,13.47-12.34,15.28-3.4,1.28-7.25.89-11.47-1.18a4.26,4.26,0,0,1-2-5l6-20.5a26.59,26.59,0,0,1,14.87-16.95l22.58-9.94c6.51-2.86,12.66-2.39,22.4-.4l55.73,13.19,20,46.66C330.6,270.23,312.83,270,295.34,259.3Zm35.2,37.89-14.3-19.92c9.79,1.27,23.4.76,36.17-7.48l7.71,18Zm43.85-4L339.7,212.1l33.73-14.2,33.79,82.53Z"/><path class="cls-5" d="M57.13,161.67h0A129.45,129.45,0,0,1,70,228.86l-3,37.46L102.37,180Z"/><path class="cls-6" d="M442.1,167.86h0a129.44,129.44,0,0,0-12.85,67.19l2.95,37.45-35.34-86.3Z"/></g></svg>