<svg xmlns="http://www.w3.org/2000/svg" viewBox="0 0 500 500"><defs><style>.cls-1{fill:#f5f6f6;}.cls-2{fill:#353535;}.cls-3{fill:#a29482;}.cls-4{fill:#cccbcb;}.cls-5{fill:#005a72;}</style></defs><g id="Layer_1" data-name="Layer 1"><path class="cls-1" d="M449.54,189.73,250,56.42,50.46,189.73V410.37a31.16,31.16,0,0,0,31.16,31.16H418.38a31.16,31.16,0,0,0,31.16-31.16Z"/><path class="cls-2" d="M418.38,447.53H81.62a37.2,37.2,0,0,1-37.16-37.16V189.73a6,6,0,0,1,2.67-5L246.67,51.43a6,6,0,0,1,6.66,0L452.87,184.74a6,6,0,0,1,2.67,5V410.37A37.2,37.2,0,0,1,418.38,447.53ZM56.46,192.94V410.37a25.19,25.19,0,0,0,25.16,25.16H418.38a25.19,25.19,0,0,0,25.16-25.16V192.94L250,63.64Z"/><path class="cls-3" d="M250,329a29.5,29.5,0,0,1-13.38-3.23l-49.7-25.44a6,6,0,1,1,5.47-10.68l49.7,25.44a17.65,17.65,0,0,0,15.82,0l49.7-25.44a6,6,0,1,1,5.47,10.68l-49.7,25.44A29.5,29.5,0,0,1,250,329Z"/><polygon class="cls-4" points="138.15 234.62 138.15 179.4 361.85 179.4 361.85 234.62 250 292.69 138.15 234.62"/><path class="cls-2" d="M361.85,240.62a6,6,0,0,1-6-6V185.4H144.15v49.22a6,6,0,0,1-12,0V179.4a6,6,0,0,1,6-6h223.7a6,6,0,0,1,6,6v55.22A6,6,0,0,1,361.85,240.62Z"/><path class="cls-2" d="M190.69,239.54a7.61,7.61,0,1,1,7.6-7.61A7.61,7.61,0,0,1,190.69,239.54Z"/><path class="cls-2" d="M309.31,224.32a7.61,7.61,0,1,0,7.61,7.61A7.62,7.62,0,0,0,309.31,224.32Z"/><path class="cls-2" d="M251.86,227.78c-10.73-3.5-10.73-7.46-10.73-9.16a8.88,8.88,0,0,1,8.06-8.82,5.5,5.5,0,0,0,1.62,0,8.88,8.88,0,0,1,8.06,8.82,6,6,0,0,0,12,0,20.88,20.88,0,0,0-14.87-20v-3.18a6,6,0,0,0-12,0v3.18a20.88,20.88,0,0,0-14.87,20c0,9.54,6.4,16.46,19,20.57,9.9,3.24,10.73,6.18,10.73,9.16a8.87,8.87,0,0,1-17.74,0,6,6,0,0,0-12,0,20.9,20.9,0,0,0,14.87,20v3.28a6,6,0,0,0,12,0v-3.28a20.9,20.9,0,0,0,14.87-20C270.87,234,257.06,229.48,251.86,227.78Z"/><path class="cls-5" d="M69,378.78v31.59A12.62,12.62,0,0,0,81.62,423H418.38a12.62,12.62,0,0,0,12.6-12.6V378.78Z"/><path class="cls-2" d="M250,297.88a5.94,5.94,0,0,1-2.73-.66L47.73,195.07a6,6,0,1,1,5.47-10.68L250,285.14,446.8,184.39a6,6,0,1,1,5.47,10.68L252.73,297.22A5.94,5.94,0,0,1,250,297.88Z"/></g></svg>