<?xml version="1.0" encoding="UTF-8"?><svg id="Layer_1" xmlns="http://www.w3.org/2000/svg" viewBox="0 0 180 75.298"><g><path d="M1.952,14.824H0V.402H1.952V14.824Z" fill="#fff"/><path d="M6.753,6.109c.222-.248,.456-.473,.705-.674,.248-.201,.512-.374,.79-.518,.278-.144,.573-.255,.886-.333,.312-.077,.649-.116,1.011-.116,.557,0,1.048,.093,1.474,.277,.426,.185,.782,.447,1.067,.785,.285,.339,.502,.746,.649,1.223,.147,.476,.222,1.003,.222,1.58v6.491h-1.802v-6.491c0-.771-.176-1.37-.528-1.796-.353-.426-.888-.639-1.605-.639-.53,0-1.025,.127-1.485,.382-.46,.255-.884,.601-1.273,1.037v7.507h-1.801V4.629h1.077c.255,0,.413,.124,.473,.372l.141,1.107Z" fill="#fff"/><path d="M22.231,6.31c-.081,.147-.205,.221-.372,.221-.101,0-.215-.037-.342-.111-.127-.074-.283-.156-.468-.246s-.404-.175-.659-.252-.557-.116-.906-.116c-.302,0-.574,.039-.815,.116-.242,.077-.448,.183-.619,.317-.171,.134-.302,.29-.393,.468-.09,.177-.135,.371-.135,.578,0,.262,.075,.48,.226,.655,.151,.174,.351,.325,.599,.453,.248,.128,.53,.24,.845,.337,.316,.098,.639,.201,.971,.312s.656,.233,.971,.367c.315,.134,.597,.302,.845,.503,.248,.201,.448,.448,.599,.74,.151,.292,.226,.643,.226,1.052,0,.47-.084,.904-.251,1.303-.168,.399-.416,.745-.745,1.037-.329,.292-.732,.521-1.208,.689-.477,.168-1.026,.252-1.651,.252-.711,0-1.355-.116-1.932-.347s-1.067-.529-1.469-.891l.423-.685c.054-.087,.117-.154,.191-.201s.168-.07,.282-.07c.121,0,.248,.047,.383,.141,.134,.094,.297,.198,.488,.312s.424,.218,.699,.312c.275,.094,.617,.141,1.026,.141,.349,0,.654-.045,.916-.136s.48-.213,.654-.367c.175-.155,.304-.332,.388-.533,.084-.201,.126-.416,.126-.644,0-.282-.075-.514-.226-.699-.151-.184-.351-.342-.599-.473-.248-.13-.532-.245-.851-.342-.318-.097-.644-.199-.976-.307-.332-.107-.657-.229-.976-.367-.319-.138-.603-.311-.851-.519-.248-.207-.448-.464-.599-.77-.151-.305-.226-.676-.226-1.112,0-.389,.08-.763,.241-1.122,.161-.359,.396-.674,.704-.946,.308-.272,.688-.488,1.137-.649s.963-.242,1.54-.242c.671,0,1.273,.106,1.807,.317s.994,.502,1.384,.87l-.402,.655Z" fill="#fff"/><path d="M33.392,4.629V14.824h-1.067c-.255,0-.416-.124-.483-.372l-.141-1.097c-.443,.49-.939,.884-1.489,1.183-.55,.298-1.181,.448-1.892,.448-.557,0-1.048-.092-1.474-.277-.426-.185-.784-.444-1.072-.78-.289-.336-.505-.741-.649-1.218-.145-.476-.216-1.003-.216-1.58V4.629h1.791v6.501c0,.772,.176,1.369,.529,1.791s.891,.634,1.616,.634c.53,0,1.024-.126,1.484-.378,.46-.251,.884-.598,1.273-1.041V4.629h1.791Z" fill="#fff"/><path d="M37.93,6.672c.322-.698,.718-1.243,1.188-1.635s1.043-.589,1.721-.589c.215,0,.421,.023,.619,.07,.198,.047,.374,.121,.529,.221l-.131,1.339c-.04,.168-.141,.251-.302,.251-.094,0-.231-.02-.412-.06s-.386-.061-.614-.061c-.322,0-.609,.047-.86,.141-.251,.094-.476,.233-.674,.418-.198,.185-.376,.413-.533,.685-.158,.271-.3,.582-.428,.931v6.441h-1.801V4.629h1.026c.194,0,.329,.037,.402,.111s.124,.201,.151,.383l.121,1.55Z" fill="#fff"/><path d="M51.416,13.395c-.221,.268-.486,.501-.795,.699-.308,.198-.639,.36-.992,.488-.352,.127-.716,.223-1.092,.287s-.748,.096-1.117,.096c-.705,0-1.354-.119-1.948-.357-.594-.238-1.107-.587-1.54-1.047-.433-.46-.77-1.028-1.012-1.706-.241-.678-.362-1.456-.362-2.335,0-.711,.109-1.375,.327-1.992,.218-.618,.532-1.153,.941-1.605,.409-.453,.909-.809,1.5-1.067,.59-.258,1.254-.388,1.992-.388,.61,0,1.176,.103,1.696,.307s.97,.5,1.349,.886c.379,.385,.676,.862,.891,1.429,.215,.567,.322,1.213,.322,1.937,0,.282-.03,.47-.091,.563-.061,.094-.175,.141-.342,.141h-6.813c.02,.644,.109,1.204,.266,1.681,.158,.476,.378,.874,.66,1.192s.617,.557,1.006,.714c.389,.158,.825,.237,1.308,.237,.449,0,.837-.052,1.162-.156,.325-.104,.606-.216,.84-.337,.235-.121,.431-.233,.589-.337,.158-.104,.294-.156,.408-.156,.147,0,.262,.057,.342,.171l.503,.654Zm-1.449-4.781c0-.416-.059-.797-.176-1.142-.117-.345-.288-.644-.513-.895s-.498-.446-.82-.584-.688-.206-1.097-.206c-.859,0-1.538,.25-2.038,.75-.5,.5-.81,1.192-.931,2.078h5.576Z" fill="#fff"/><path d="M62.205,0V14.824h-1.067c-.255,0-.416-.124-.483-.372l-.161-1.238c-.436,.523-.933,.946-1.489,1.268-.557,.322-1.201,.483-1.932,.483-.584,0-1.114-.112-1.59-.337-.476-.225-.882-.555-1.218-.992-.336-.436-.593-.98-.775-1.63s-.272-1.399-.272-2.244c0-.751,.1-1.451,.302-2.098s.49-1.209,.865-1.686c.376-.476,.837-.85,1.384-1.122,.547-.272,1.162-.407,1.847-.407,.624,0,1.159,.105,1.605,.317,.446,.211,.844,.505,1.192,.881V0h1.791Zm-1.791,7.054c-.336-.449-.698-.763-1.087-.941-.389-.177-.825-.266-1.308-.266-.946,0-1.674,.339-2.184,1.016-.51,.678-.764,1.644-.764,2.899,0,.664,.057,1.233,.171,1.706s.282,.862,.503,1.167c.221,.305,.493,.529,.815,.669,.322,.141,.687,.211,1.097,.211,.59,0,1.105-.134,1.545-.402,.44-.269,.844-.648,1.213-1.137V7.054Z" fill="#fff"/><path d="M71.996,6.098c.429-.496,.914-.892,1.455-1.188,.54-.295,1.162-.443,1.867-.443,.597,0,1.135,.115,1.615,.342,.48,.228,.887,.559,1.223,.992,.335,.432,.592,.958,.77,1.575,.177,.618,.266,1.312,.266,2.084,0,.825-.1,1.577-.302,2.254-.201,.678-.491,1.256-.87,1.736-.379,.48-.84,.852-1.384,1.117-.543,.265-1.154,.397-1.831,.397-.671,0-1.236-.126-1.696-.377s-.86-.609-1.203-1.072l-.091,.926c-.054,.255-.208,.382-.462,.382h-1.158V0h1.801V6.098Zm0,6.27c.329,.443,.69,.755,1.082,.936s.823,.271,1.293,.271c.959,0,1.694-.339,2.204-1.016,.509-.678,.765-1.687,.765-3.029,0-1.248-.227-2.165-.68-2.752-.453-.587-1.099-.881-1.937-.881-.584,0-1.092,.134-1.524,.402-.433,.269-.834,.648-1.203,1.137v4.931Z" fill="#fff"/><path d="M90,4.629l-5.686,13.204c-.06,.134-.135,.242-.226,.322s-.23,.121-.418,.121h-1.328l1.862-4.045-4.207-9.601h1.55c.154,0,.276,.039,.367,.116,.091,.078,.153,.163,.186,.257l2.727,6.421c.108,.282,.198,.577,.272,.886,.094-.315,.194-.614,.302-.895l2.647-6.411c.04-.107,.109-.196,.206-.266,.097-.07,.206-.106,.327-.106h1.418Z" fill="#fff"/></g><g><path d="M40.653,28.22v46.567h-5.625c-.831,0-1.529-.133-2.094-.399-.565-.266-1.124-.73-1.678-1.39L9.301,45.223c.085,.831,.143,1.636,.176,2.413,.032,.778,.048,1.508,.048,2.189v24.961H0V28.22H5.689c.468,0,.863,.021,1.183,.064,.319,.043,.607,.123,.863,.24,.256,.117,.5,.282,.735,.495,.234,.214,.5,.501,.799,.863l22.148,27.965c-.107-.895-.181-1.763-.223-2.605-.043-.842-.064-1.635-.064-2.381V28.22h9.524Z" fill="#fff"/><path d="M81.051,62.737c.256,0,.512,.048,.767,.144,.256,.096,.5,.261,.735,.495l4.283,4.506c-1.875,2.451-4.224,4.299-7.047,5.545s-6.163,1.87-10.019,1.87c-3.537,0-6.707-.602-9.508-1.806-2.802-1.204-5.178-2.866-7.127-4.986-1.949-2.12-3.446-4.634-4.491-7.542-1.044-2.909-1.566-6.067-1.566-9.477,0-3.473,.564-6.664,1.694-9.572,1.129-2.909,2.716-5.417,4.762-7.527,2.046-2.109,4.495-3.75,7.351-4.922,2.855-1.171,5.997-1.758,9.428-1.758,1.747,0,3.393,.155,4.938,.464,1.544,.309,2.988,.735,4.331,1.278,1.343,.543,2.578,1.199,3.707,1.966s2.131,1.598,3.005,2.493l-3.643,4.89c-.235,.299-.512,.571-.831,.815-.32,.245-.767,.367-1.343,.367-.383,0-.746-.085-1.087-.256-.341-.17-.703-.378-1.087-.623-.384-.245-.805-.512-1.263-.799-.458-.288-1.002-.554-1.63-.799-.629-.245-1.364-.452-2.205-.623-.842-.17-1.827-.256-2.956-.256-1.79,0-3.425,.331-4.906,.991-1.481,.66-2.76,1.625-3.835,2.892-1.076,1.268-1.907,2.823-2.493,4.666-.586,1.843-.879,3.947-.879,6.312,0,2.387,.324,4.507,.974,6.36s1.534,3.415,2.653,4.682c1.119,1.268,2.423,2.232,3.915,2.892,1.491,.661,3.089,.991,4.794,.991,.98,0,1.875-.048,2.685-.144,.809-.096,1.566-.256,2.269-.479,.703-.224,1.363-.522,1.981-.895,.618-.373,1.247-.847,1.885-1.423,.256-.213,.533-.388,.831-.527,.298-.139,.608-.208,.927-.208Z" fill="#fff"/><path d="M110.997,66.253c1.449,0,2.743-.24,3.883-.719,1.14-.479,2.104-1.167,2.892-2.061,.788-.895,1.39-1.986,1.806-3.276,.416-1.289,.623-2.754,.623-4.394V28.22h10.803v27.582c0,2.855-.463,5.476-1.39,7.862-.927,2.387-2.253,4.443-3.979,6.169s-3.825,3.068-6.296,4.027c-2.472,.959-5.252,1.439-8.342,1.439-3.111,0-5.902-.479-8.373-1.439-2.472-.959-4.571-2.301-6.296-4.027s-3.047-3.782-3.963-6.169c-.916-2.386-1.374-5.007-1.374-7.862V28.22h10.803v27.55c0,1.641,.208,3.106,.623,4.394,.416,1.289,1.017,2.387,1.806,3.292,.788,.906,1.752,1.598,2.892,2.078,1.14,.479,2.434,.719,3.883,.719Z" fill="#fff"/><path d="M180,74.786h-8.373c-.938,0-1.694-.218-2.269-.655-.575-.436-1.012-.996-1.31-1.678l-2.749-8.118h-17.706l-2.749,8.118c-.235,.597-.655,1.134-1.263,1.614s-1.358,.719-2.253,.719h-8.438l18.026-46.567h11.059l18.026,46.567Zm-17.163-17.802l-4.314-12.752c-.319-.81-.661-1.763-1.023-2.861-.363-1.097-.725-2.285-1.087-3.563-.32,1.3-.661,2.504-1.023,3.611-.362,1.108-.703,2.067-1.023,2.877l-4.283,12.688h12.752Z" fill="#fff"/></g></svg>