<svg xmlns="http://www.w3.org/2000/svg" viewBox="0 0 500 500"><defs><style>.cls-1{fill:#f5f6f6;}.cls-2{fill:#353535;}.cls-3{fill:#6e883e;}.cls-4{fill:#005a72;}.cls-5{fill:none;}</style></defs><g id="Layer_1" data-name="Layer 1"><path class="cls-1" d="M423.48,418.56H71.63a27.81,27.81,0,0,1-27.8-27.81V103.59A22.15,22.15,0,0,1,66,81.44H434a22.15,22.15,0,0,1,22.15,22.15V385.86A32.7,32.7,0,0,1,423.48,418.56Z"/><path class="cls-2" d="M423.48,424.34H71.63a33.62,33.62,0,0,1-33.58-33.59V103.59A28,28,0,0,1,66,75.66H434A28,28,0,0,1,462,103.59V385.86A38.52,38.52,0,0,1,423.48,424.34ZM66,87.22a16.38,16.38,0,0,0-16.37,16.37V390.75a22,22,0,0,0,22,22H423.48a26.94,26.94,0,0,0,26.91-26.92V103.59A16.38,16.38,0,0,0,434,87.22Z"/><path class="cls-3" d="M331.52,362.39A83.79,83.79,0,1,1,415.3,278.6,83.88,83.88,0,0,1,331.52,362.39Zm0-154.45a70.67,70.67,0,1,0,70.67,70.66A70.74,70.74,0,0,0,331.52,207.94Z"/><path class="cls-2" d="M326.36,305.49a5.73,5.73,0,0,1-4.08-1.7l-27-27a5.78,5.78,0,0,1,8.17-8.18l22.9,22.9,38.12-38.12a5.78,5.78,0,1,1,8.18,8.18l-42.21,42.2A5.77,5.77,0,0,1,326.36,305.49Z"/><path class="cls-2" d="M95.37,135.64A9.66,9.66,0,1,1,105,126,9.67,9.67,0,0,1,95.37,135.64Z"/><path class="cls-2" d="M139.6,135.64a9.66,9.66,0,1,1,9.65-9.66A9.67,9.67,0,0,1,139.6,135.64Z"/><path class="cls-2" d="M183.82,135.64a9.66,9.66,0,1,1,9.66-9.66A9.68,9.68,0,0,1,183.82,135.64Z"/><path class="cls-2" d="M456.17,175.47H43.83a5.78,5.78,0,1,1,0-11.56H456.17a5.78,5.78,0,0,1,0,11.56Z"/><path class="cls-4" d="M186.17,259.66a5.77,5.77,0,0,1-5.77-5.78v-34.5H91v34.5a5.78,5.78,0,0,1-11.56,0V213.6a5.78,5.78,0,0,1,5.78-5.78H186.17A5.78,5.78,0,0,1,192,213.6v40.28A5.78,5.78,0,0,1,186.17,259.66Z"/><path class="cls-2" d="M186.17,292.52H85.26a5.78,5.78,0,1,1,0-11.55H186.17a5.78,5.78,0,1,1,0,11.55Z"/><path class="cls-2" d="M186.17,318.94H85.26a5.78,5.78,0,0,1,0-11.56H186.17a5.78,5.78,0,0,1,0,11.56Z"/><path class="cls-2" d="M186.17,345.35H85.26a5.78,5.78,0,0,1,0-11.56H186.17a5.78,5.78,0,0,1,0,11.56Z"/><rect class="cls-5" width="500" height="500"/></g></svg>