<svg id="Layer_1" data-name="Layer 1" xmlns="http://www.w3.org/2000/svg" viewBox="0 0 640 640"><defs><style>.cls-1,.cls-4{fill:#fff;}.cls-1,.cls-2,.cls-3{fill-rule:evenodd;}.cls-2{fill:#bf2134;}.cls-3{fill:#223165;}.cls-5{fill:#353535;}</style></defs><path class="cls-1" d="M183.06,286l-145.89.22c-.11,1.62-.38,6,.06,7A4.83,4.83,0,0,0,39,295.34c1.81,1.34.67-.1,2.27,2.11,3.22,4.42,4.23-2.43,8.53,7.37,2.14,4.89,4.51,8.92,9.28,11,1.57.7,1.93.25,3.48.93,2.6,1.13,1,2.24,4.35,4.42,2.34,1.52,2.41,2,3.88,4.38,1.25,2,2.13,2.36,4.55,3.79,5,2.92,3,4,5.79,6.75,1,1,1.08,1,2.17,2.23,1.3,1.44.87.81,2.12,1.73,3.13,2.31,2,3.62,7.78,5.44a7.83,7.83,0,0,1,2.71,1.12c.24.14,2.4,1.47,2.69,1.7,1,.83,1.2,1.59,2.06,2.29,1.5,1.21,1.28.35,3.1,1.49,1,2.28-.3,1.24,1.51,2.78,1.4,1.2,1.28,0,2.4,2.5,1.3,2.89.5,5.51,1.87,8.06l5.89,8.43c2.28,4.75-1.47,11.57,2,16.07,1.43,1.86.69,1,1.76,3.14,2.88,5.65,2.5,8.34,7.38,11.87,3.31,2.39,1.12,2.05,5.93,3.38,4,1.11,2.82,4.46,7.13,7.17,4.67,2.93,3.63,3.33,10.17,4.57,2.76.51,3.51,2.23,5.46,4,2.76,2.46,4.28,1.49,7.41,2.54,2.52.85,3,3.56,5,4.89,3.38,2.32,3.62-.13,6.25,3.71,7.88-2,4.9,3.47,8.48-4.23,1.19-2.55,1.22-.89,2.57-3,.62-.95.33-1.08.91-1.85.9-1.18.32-.51,1.67-1.1l3.72-2.11c-.12-2.42-2.05-3.61.33-6.41,3.33-3.91,1-1.41,1.92-5.67.92-4,3.62-6.84,4.95-10.54,1.23-3.39,1.43-1.65,6.32-3.62,1.95-.78-.8-.93,3.14-.8,1.71.06,1.23.51,3,.33,2.33-2.85-.42-2.34,3.12-5a29.41,29.41,0,0,1,6.63,3.13c2.83,1.9,4.54.31,8,.66,2.61.25,5.15,0,8.14.72s6.4,2,7.74-1l1.88,1.85,1.63-1.19,1.78,1.64c1.33,1.13.48-.05,1.54,1.8,2.49,4.35,1.07,1.21,3.66,3.24-.62,2.23-1.46,2.1.18,3.7,2.26-1,.48-.25,1.64-2.46.79,2,0,2.7-.09,4.95,6.49.3.87,1.65,7.73,2.71,2.62,5.57,3.33,4.18,6.72,7.53,1.72,1.7,3.85,2.31,4.77,4.64s-.32,1.4,1.58,3.3c2.89,2.9,2.88.79,3.58,6.16.81,6.21,1,5.45,4.22,10.24a3.62,3.62,0,0,1,.22.32,3.87,3.87,0,0,1,.21.34l1.06,2.74c1.31,6.26.35,2.42,3.37,6.57,1.76,2.42-.16,4,3.65,5.11-1.15,3.49,1.27,7,2.24,10.52.79,2.85.89,1.81,2.53,3.43l.27.29c.08.08.17.22.25.3s.16.22.24.31c.78.87,4,2,5.05,3.14l2.94,4.75c1,2.31,2,2,3.23,4.38a8.84,8.84,0,0,1,1.39,3.42,10.33,10.33,0,0,0,3.53,6.54l.29.26.3.26c2.58,2.18,2.4,3.55,6,5.07l2.35,1c1.42.67,2.13.49,2.77,1.64,1.53,2.9-.55,0,.14,3.16.81,3.64.9-1,1.27,3.08s-.57,3.85-1.54,7c1.55,1.32.77.81,1.57,1.74l2.12,1.55c0,2.1.44,2.66.4,4.95,0,2-.39,3.47-.4,5.5.58,2.15,1.82.71,2.31,2.81,0,.07.08,1.82.1,2.13,3.72.57,1,.37,3.74,3.38,1.47,1.61,1.87,4.07,2.79,6A27.81,27.81,0,0,1,342,554.82c4.64,2.71,2.16,1.26,2.49,6.32,2.3.72,2.45-.36,5.05.8l.75.37.37.19,4.39,1c3.13.44,1.16.15,2.69.9l3.67,3.87.31.29,1,.95c3.28-.56,1.35-1,3.53,0,1.08.51,5.13,1,6,1.71l8.31,6.51c1.5.71,2,.61,3.88.6,3.86,0,0,.06,3,1.11,2.38-1.16,4.64-1.19,7.67-.88,3.24.34,3.14,1.43,7.71,1.42l1,1.47c1.36,1.76,5.72,4.51,7.77,5.92s.54,1.84,3.86,1.63c1.3-1.71,1.18-1.5.91-3.9,3.58,0,3.24-1.88,9-2,.28-34-21.4-44.21-.46-85.27a78,78,0,0,1,13.37-19.24,5.24,5.24,0,0,0-.53-1.82h0l-2-1.72c1.52-1.84,1.71-2.21,3-3a16.7,16.7,0,0,1,1.31-1.18c-.51-3.12-.07-2.75-.33-5-.37-3.14-1.92-1.27-2.45-4.17,2.6-.3.42.63,3.57,1-.6-4.23-1.3-.34-2.09-3.42,1.59.28,3.35,2.54,4.05,4.1.61,1.37.13.79.51,1.71.48,1.17,0,.48.76,1l2.8,1c2-2.88,4.78-4.07,8-5.52.29-.18.6-.35.93-.52-1.14-3-4.46-4.93-6.64-7.34-1.68.49-2.08,1.36-3.09,0,0,0,1.91.82.94-2.23-.56-1.77-1.26-1.63-1.72-3.93l3.35-.58.54,3.44c.88.55,1.12.51,1.78,1l.3.24.29.25c2.83,2.35-2.05-.63.79.72a6.55,6.55,0,0,0,.89-3l.8,3c-.19.11-.39.07-.43.23-.23.85-1.35.56-1.5,1.8,2.16-.18,2.77-.94,3.89-2.16-.2-1-.42-1.85-.74-3.15l-1.21-3.48c2.82,2.18,1.24-.6,2.26,2.84.39,1.3.45,2.45,2.36,2.88a10.54,10.54,0,0,0,2.71-4.22l.36,2.06c3.4-2,1.32-3.6,4.27-4.49-.61,1.21-.78,1.18-1.32,2.42-.67,1.53-1.88,2.92-1.85,4.52,0,.06,0,.21,0,.27v.26c0,.93-.52.34.08,1.78,3-1.18,6.17-3.41,9.63-3.53a3.38,3.38,0,0,0,.47,0l1.31-.52a4.29,4.29,0,0,1,2.62-2.58,12.32,12.32,0,0,1,3.95-1.1c1.48-1.06,3.5-.81,5.69-.55l.37,0,9.35-5.93c1.9-1.32,3.14-1.52,4.45-2.67s1.63-2,2.77-3.12a7.57,7.57,0,0,1,1.42-3.88c.61-1.31,1.32-2.21,1.67-3.19,1.28-3.63-.86-2-1.71-4.38.8.25,3.44,1.86,4.42,2.18,2.35-2,1.95-.57,3.46-3.68.76-1.54,0-.61,1.18-1.3,0,0,.21-.08.27-.12l1.4-1.64c1.08,1.8.07,1.06,1.07,1.08l.92-3.06a22.65,22.65,0,0,0,.08-3.68c-3.09-1.86.47,1-2.07,0-.22-4.43-.36-.27,1-3.3-2.25-1.35-2-.37-3.82-2.19,0-2.87.64-1.27.74-2.86.14-2.43-1,.61-.56-3.11,1.59.55.44-.41,1.46,1.55.64-1,.41-1.91,1.25-2.75.7,1.45.05,1.27,1.91,1.41,1.19-1.25,3.11-7.8,7-5.43.38.23,1,.66,1.1.74-.29,9.84-2.95,8.2-3.81,10.78,1.89,1.1,6.89-.95,9-2,1.1.55,1.83.89,2.29,1.09a5,5,0,0,1,.67,0c-.13-.19-.22-.38.74,0l-.09.14a7,7,0,0,1,2.08.81l12.11-5.68c6.28-3,8.38-.32,12.13-1.6-.05-3.76-2.85-2-2.85-7.38,2.24-2.89,2.26-.4,4.07-5.64,1-2.72,2.36-3.72,4.59-5.39-.78-1.85-.61-1.11-.1-3.3.64-2.72.15-.79-.25-3.5-.33-2.18.51-1.82.08-3.86-.61-2.87-.54-.52-2.15-3.08.42-5.24,1.43-2.43,2.2-5.08.53-1.81-.6-4.33-.88-6.16,1.46-1.38.88-.26,1.45-1.6,1.16-2.71-.32-1.07,2.1-4.43l2.88-7.49c.24-3.87-1-1.18,1.33-4.91-1.2-2.49-.52-.09-1.65-2.2.54-1.72.82-.5,2-2.2-.63-3.18-1.38-3.39-.64-7.14-2.82-1.54.44.92-1.92-.16-.81-.37-.32,1.13-1.09-2.56-.64-3-1.82-2.18-3.1-4.43.9-1.64.61-1.06,2-2.2-.09-.1-.24-.39-.28-.3l-1.69-2.26c-1-1.93.1-1.9-2.5-2.35.81-2.08.82-.54.87-2.58-6.37-2.93-3-3.56-3.23-9l-1.23-4.68c-.46-.74-2.71-4.28-3-4.68-2.57-3-5.37-3.44-5.43-8.75-.14-11.75,1.07-70.74-.56-73-.61-.86-3.18-.4-5-1.62-1,1.42,0,1.27-1.35,1.65-1,.28-1.16-.71-2-1a5.37,5.37,0,0,0-4.86,1.24c-.92-2.73-3.15-.57-3.37-4.23-2.7.28-.47.67-2.06.29l-1.47-1.1c-2.34-1.75-2.67-.57-4.25-1.06l-.74-.37-.28-.11c-2.23-.76-2.3-1.55-3.76-3.53-1.24.52-2.59,2.7-5.81-1.48-2.44-3.17-1-3.43-5.69-3.72-1.21-3.51-1.23-2-3.71-3.31a4.38,4.38,0,0,0-1.1-.57,8.88,8.88,0,0,0-2.9-.88c-2.09,3.52.71,3.29-4.14,4.07-4.37.71-4.32-.24-8.49-.56-.87-2.31.21-.86-1.38-2.64-1.75.57-1.71.95-3.47,1.9-1.34.74-1.45.92-3.39.28l-1.1,2.35c-1.64-1-1.46-.08-3.29.56-1.59-1.23-.95-1.31-2.75-2.27-3.73,2-4.58,1.42-8.68,2.31-1.21,1.89-1.49,3.07-2.43,4.66-2.82-.24-1.76-1.09-4.27-1.37-1.1,2-.19,2.17-1.64,3.86-3.67-2-1.16-4.79-6.59-4.05l-3.5-2.54c-2.13-1-.83-1.77-.29-3.52-3.47-.16-1-.89-3.69-.79-.68,1.84-.27,3.12-1.69,3.95-2.23,1.29-2-.49-2.74-2-3.85.16-.37.41-3.25,1-1.2-2.11-1.21-3.59-2.06-5-2,.12-.69.45-3.31.15.44,2.95.84,2.26-.13,4.76-2.22.69-1.19.28-3.35-.05.62,2.67,1-.14.36,2.47,0,.1-.09.25-.12.37s-.09.28-.12.41c-.32,1.25.3,2.16-.91,3.2-2.29,1-3.85-1.75-3.91-3.47-.12-3.16.63,0,1.17-2.73.36-1.78-.58-2.36-1.56-2.95-2.3.62-.79.46-2.19,2.33-5.58-2.34-2.91,4.45-6.8,2.1-2.8-1.69.78-1.71-1.47-4.09-1.58-1.66-2.94,0-4.2.32-1.83-2.43-1.74-6.8-5.71-3.11-5.47,5.09-5.17,7.05-10.93,3.36.43-1.68,1.2-3.38.84-5.22-3-.47-4.13,1.5-5.54-1s.31-4.41-.72-6.42c-2.33-.74-1.11,2.26-4.55,1.72-2.45-.38-4.63-1.32-7.16-1.19-2.18,7.79-5.94,1-10.13-1-3.74,1.38-2.52,3.23-10.43.34-2-.74-1.16-.89-2.94-2.27-4.15-.32-6.92,1.17-9.43-1.39-2.09-3.42,2.25-3.17-4.81-9.42l-.28-.26a3.57,3.57,0,0,1-.28-.27c-1-.9-.68-1.15-2.05-1.39l-.9,4c-3.8.32-4.3-3.29-7.07-1.67-1.06.63-.79.83-1.3,1.61a2.4,2.4,0,0,1-.23.38c-6.63-.51-7.3-4.91-11.24-8.63-1.95-1.83-2-1.18-4.47-.94l-.35-94.67L184,65.28l-1,220.69Z"/><path class="cls-2" d="M308.25,482.25a11.34,11.34,0,0,1,2.29,2.84,8.84,8.84,0,0,1,1.39,3.42,10.33,10.33,0,0,0,3.53,6.54l.29.26.3.26c2.58,2.18,2.4,3.55,6,5.07l2.35,1c1.42.67,2.13.49,2.77,1.64,1.53,2.9-.55,0,.14,3.16.81,3.64.9-1,1.27,3.08s-.57,3.85-1.54,7c1.55,1.32.77.81,1.57,1.74l2.12,1.55c0,2.1.44,2.66.4,4.95,0,2-.39,3.47-.4,5.5.58,2.15,1.82.71,2.31,2.81,0,.07.08,1.82.1,2.13,3.72.57,1,.37,3.74,3.38,1.47,1.61,1.87,4.07,2.79,6A27.81,27.81,0,0,1,342,554.82c4.64,2.71,2.16,1.26,2.49,6.32,2.3.72,2.45-.36,5.05.8l.75.37.37.19,4.39,1c3.13.44,1.16.15,2.69.9l3.67,3.87.31.29,1,.95c3.28-.56,1.35-1,3.53,0,1.08.51,5.13,1,6,1.71l8.31,6.51c1.5.71,2,.61,3.88.6,3.86,0,0,.06,3,1.11,2.38-1.16,4.64-1.19,7.67-.88,3.24.34,3.14,1.43,7.71,1.42l1,1.47c1.36,1.76,5.72,4.51,7.77,5.92s.54,1.84,3.86,1.63c1.3-1.71,1.18-1.5.91-3.9,3.58,0,3.24-1.88,9-2,.28-34-21.4-44.21-.46-85.27a78,78,0,0,1,13.37-19.24,5.24,5.24,0,0,0-.53-1.82h0l-2-1.72c1.52-1.84,1.71-2.21,3-3a16.7,16.7,0,0,1,1.31-1.18c-.51-3.12-.07-2.75-.33-5-.37-3.14-1.92-1.27-2.45-4.17,2.6-.3.42.63,3.57,1-.6-4.23-1.3-.34-2.09-3.42,1.59.28,3.35,2.54,4.05,4.1.61,1.37.13.79.51,1.71.48,1.17,0,.48.76,1l2.8,1c2-2.88,4.78-4.07,8-5.52.29-.18.6-.35.93-.52-1.14-3-4.46-4.93-6.64-7.34-1.68.49-2.08,1.36-3.09,0,0,0,1.91.82.94-2.23-.56-1.77-1.26-1.63-1.72-3.93l3.35-.58.54,3.44c.88.55,1.12.51,1.78,1l.3.24.29.25c2.83,2.35-2.05-.63.79.72a6.55,6.55,0,0,0,.89-3l.8,3c-.19.11-.39.07-.43.23-.23.85-1.35.56-1.5,1.8,2.16-.18,2.77-.94,3.89-2.16-.2-1-.42-1.85-.74-3.15l-1.21-3.48c2.82,2.18,1.24-.6,2.26,2.84.39,1.3.45,2.45,2.36,2.88a10.54,10.54,0,0,0,2.71-4.22l.36,2.06c3.4-2,1.32-3.6,4.27-4.49-.61,1.21-.78,1.18-1.32,2.42-.67,1.53-1.88,2.92-1.85,4.52,0,.06,0,.21,0,.27v.26c0,.93-.52.34.08,1.78,3-1.18,6.17-3.41,9.63-3.53a3.38,3.38,0,0,0,.47,0l1.31-.52a4.29,4.29,0,0,1,2.62-2.58,12.32,12.32,0,0,1,3.95-1.1c1.48-1.06,3.5-.81,5.69-.55l.37,0,9.35-5.93c1.9-1.32,3.14-1.52,4.45-2.67s1.63-2,2.77-3.12a7.57,7.57,0,0,1,1.42-3.88c.61-1.31,1.32-2.21,1.67-3.19,1.28-3.63-.86-2-1.71-4.38.8.25,3.44,1.86,4.42,2.18,2.35-2,1.95-.57,3.46-3.68.76-1.54,0-.61,1.18-1.3,0,0,.21-.08.27-.12l1.4-1.64c1.08,1.8.07,1.06,1.07,1.08l.92-3.06a22.65,22.65,0,0,0,.08-3.68c-3.09-1.86.47,1-2.07,0-.22-4.43-.36-.27,1-3.3-2.25-1.35-2-.37-3.82-2.19,0-2.87.64-1.27.74-2.86.14-2.43-1,.61-.56-3.11,1.59.55.44-.41,1.46,1.55.64-1,.41-1.91,1.25-2.75.7,1.45.05,1.27,1.91,1.41,1.19-1.25,3.11-7.8,7-5.43.38.23,1,.66,1.1.74-.29,9.84-2.95,8.2-3.81,10.78,1.89,1.1,6.89-.95,9-2,1.1.55,1.83.89,2.29,1.09a5,5,0,0,1,.67,0c-.13-.19-.22-.38.74,0l-.09.14a7,7,0,0,1,2.08.81l12.11-5.68c6.28-3,8.38-.32,12.13-1.6-.05-3.76-2.85-2-2.85-7.38,2.24-2.89,2.26-.4,4.07-5.64,1-2.72,2.36-3.72,4.59-5.39-.78-1.85-.61-1.11-.1-3.3.64-2.72.15-.79-.25-3.5-.33-2.18.51-1.82.08-3.86-.61-2.87-.54-.52-2.15-3.08.42-5.24,1.43-2.43,2.2-5.08.53-1.81-.6-4.33-.88-6.16,1.46-1.38.88-.26,1.45-1.6,1.16-2.71-.32-1.07,2.1-4.43l2.88-7.49c.24-3.87-1-1.18,1.33-4.91-1.2-2.49-.52-.09-1.65-2.2.44-1.38.7-.87,1.39-1.48H308.25V482.25Z"/><path class="cls-3" d="M183.06,286l-145.89.22c-.11,1.62-.38,6,.06,7A4.83,4.83,0,0,0,39,295.34c1.81,1.34.67-.1,2.27,2.11,3.22,4.42,4.23-2.43,8.53,7.37,2.14,4.89,4.51,8.92,9.28,11,1.57.7,1.93.25,3.48.93,2.6,1.13,1,2.24,4.35,4.42,2.34,1.52,2.41,2,3.88,4.38,1.25,2,2.13,2.36,4.55,3.79,5,2.92,3,4,5.79,6.75,1,1,1.08,1,2.17,2.23,1.3,1.44.87.81,2.12,1.73,3.13,2.31,2,3.62,7.78,5.44a7.83,7.83,0,0,1,2.71,1.12c.24.14,2.4,1.47,2.69,1.7,1,.83,1.2,1.59,2.06,2.29,1.5,1.21,1.28.35,3.1,1.49,1,2.28-.3,1.24,1.51,2.78,1.4,1.2,1.28,0,2.4,2.5,1.3,2.89.5,5.51,1.87,8.06l5.89,8.43c2.28,4.75-1.47,11.57,2,16.07,1.43,1.86.69,1,1.76,3.14,2.88,5.65,2.5,8.34,7.38,11.87,3.31,2.39,1.12,2.05,5.93,3.38,4,1.11,2.82,4.46,7.13,7.17,4.67,2.93,3.63,3.33,10.17,4.57,2.76.51,3.51,2.23,5.46,4,2.76,2.46,4.28,1.49,7.41,2.54,2.52.85,3,3.56,5,4.89,3.38,2.32,3.62-.13,6.25,3.71,7.88-2,4.9,3.47,8.48-4.23,1.19-2.55,1.22-.89,2.57-3,.62-.95.33-1.08.91-1.85.9-1.18.32-.51,1.67-1.1l3.72-2.11c-.12-2.42-2.05-3.61.33-6.41,3.33-3.91,1-1.41,1.92-5.67.92-4,3.62-6.84,4.95-10.54,1.23-3.39,1.43-1.65,6.32-3.62,1.95-.78-.8-.93,3.14-.8,1.71.06,1.23.51,3,.33,2.33-2.85-.42-2.34,3.12-5a29.41,29.41,0,0,1,6.63,3.13c2.83,1.9,4.54.31,8,.66,2.61.25,5.15,0,8.14.72s6.4,2,7.74-1l1.88,1.85,1.63-1.19,1.78,1.64c1.33,1.13.48-.05,1.54,1.8,2.49,4.35,1.07,1.21,3.66,3.24-.62,2.23-1.46,2.1.18,3.7,2.26-1,.48-.25,1.64-2.46.79,2,0,2.7-.09,4.95,6.49.3.87,1.65,7.73,2.71,2.62,5.57,3.33,4.18,6.72,7.53,1.72,1.7,3.85,2.31,4.77,4.64s-.32,1.4,1.58,3.3c2.89,2.9,2.88.79,3.58,6.16.81,6.21,1,5.45,4.22,10.24a3.62,3.62,0,0,1,.22.32,3.87,3.87,0,0,1,.21.34l1.06,2.74c1.31,6.26.35,2.42,3.37,6.57,1.76,2.42-.16,4,3.65,5.11-1.15,3.49,1.27,7,2.24,10.52.79,2.85.89,1.81,2.53,3.43l.27.29c.08.08.17.22.25.3s.16.22.24.31c.78.87,4,2,5.05,3.14l2.94,4.75a6.8,6.8,0,0,0,.94,1.54V65.49H184l-1,220.48Z"/><polygon class="cls-4" points="178.19 307.96 215.49 307.96 229.16 268.81 244.3 307.96 281.24 307.96 253.16 333.63 263.51 372.6 229.71 350.81 198.13 372.6 207.37 333.63 178.19 307.96 178.19 307.96"/><path class="cls-5" d="M414.25,594.05a6.27,6.27,0,0,1-5.44-2.53l0,0-1.11-.75c-3.18-2.12-5.94-4-7.52-5.89a15.77,15.77,0,0,1-3.8-.89,6.43,6.43,0,0,0-1.74-.43c-2.58-.26-3.78-.17-5,.41a5,5,0,0,1-3.85.22,9,9,0,0,1-1.84-.83h-.06a10.65,10.65,0,0,1-5.43-1.09,4.87,4.87,0,0,1-1-.59l-7.87-6.16c-.49-.14-1.36-.32-1.92-.44a22.41,22.41,0,0,1-3.1-.81c-.31.07-.65.13-1,.2a5,5,0,0,1-4.3-1.31L358.07,572l-.28-.27-3-3.21-.25,0-.13,0a3.1,3.1,0,0,1-.42-.08l-4.4-1a5,5,0,0,1-1.12-.41l-1-.49-.28-.11H347a10.36,10.36,0,0,1-4-.47,5,5,0,0,1-3.49-4.45,17.88,17.88,0,0,1,0-2.31,5.07,5.07,0,0,1-2.47-4,23.16,23.16,0,0,0-1.93-8.53,24.53,24.53,0,0,1-1-2.56,9.46,9.46,0,0,0-1-2.2,13.15,13.15,0,0,1-1.52-2,5,5,0,0,1-3.52-4.48s0-.16,0-.29a6.92,6.92,0,0,1-2.22-3.66,4.74,4.74,0,0,1-.18-1.3,33.08,33.08,0,0,1,.23-3.36,18.58,18.58,0,0,0,.17-2.19,9.65,9.65,0,0,0-.14-1.89c0-.1,0-.2-.05-.3l-.29-.22a5.43,5.43,0,0,1-.83-.76c-.32-.38-.54-.68-.72-.94l-.31-.28a5,5,0,0,1-1.52-5.3,19.9,19.9,0,0,1,1.11-2.79,2.23,2.23,0,0,0,.28-1.48,8.82,8.82,0,0,1-1.23-3.17,10,10,0,0,1-.23-1.38l-2.06-.85a13.66,13.66,0,0,1-5.85-4.38,11.09,11.09,0,0,0-1.43-1.5l-.2-.17-.12-.1-.22-.2a15.22,15.22,0,0,1-5.28-9.56,2.77,2.77,0,0,0-.1-.47c0-.08-.19-.37-.32-.6s-.29-.53-.46-.87a3,3,0,0,0-.71-.91,11,11,0,0,1-2.5-3.41l-2.34-3.77c-.37-.22-.94-.51-1.32-.7a12,12,0,0,1-3.65-2.46c-.13-.15-.27-.31-.4-.49l-.13-.16a1.84,1.84,0,0,0-.46-.38c-2-1.34-2.7-2.78-3.4-5.31-.21-.77-.56-1.64-.92-2.56a21.68,21.68,0,0,1-1.78-6.49,7.6,7.6,0,0,1-2.37-4.64,4.18,4.18,0,0,0-.08-.41,5.07,5.07,0,0,0-1-1.14c-2-1.53-2.28-2.95-2.92-6.06l-.17-.81-.73-1.89,0,0-.09-.14c-.54-.8-1-1.44-1.37-2-2.36-3.38-2.89-4.55-3.65-10.38-.08-.66-.16-1.19-.22-1.58a17.81,17.81,0,0,1-1.95-1.71,7.22,7.22,0,0,1-2.62-4.81,1.77,1.77,0,0,0-.06-.17,7.32,7.32,0,0,0-1.14-.91,19.58,19.58,0,0,1-2.49-2,14.13,14.13,0,0,0-2.06-1.68,13.27,13.27,0,0,1-4.5-5,8.36,8.36,0,0,1-3.9-2.09l-.72-.05a5,5,0,0,1-4.6-3.71l-.21-.19a7,7,0,0,1-2.44-4.74,16,16,0,0,1-2.12-3.08,4.91,4.91,0,0,1-2.75-.38c-2.86.9-6,.11-7.74-.32l-1-.24a23.87,23.87,0,0,0-4.48-.44c-1,0-2-.07-3-.18a8.76,8.76,0,0,0-2.14.12,10.64,10.64,0,0,1-8.15-1.6,19.09,19.09,0,0,0-1.81-1,11.22,11.22,0,0,1-1.29,1.9,5,5,0,0,1-3.36,1.82,8,8,0,0,1-3.55-.31h-.24a6.83,6.83,0,0,1-.94.44,23.92,23.92,0,0,1-3.67,1.17,34,34,0,0,1-2.42,4.76,17.42,17.42,0,0,0-2.17,4.69c-.06.28-.09.47-.11.59.67,2.93-.72,4.68-2.67,7a11.79,11.79,0,0,1,.65,3.17,5,5,0,0,1-2.54,4.6l-3.72,2.1-.17.09a9.39,9.39,0,0,1-.68,1.24,8.61,8.61,0,0,1-2.28,2.45l-.52,1.12c-1.42,3.09-3.38,7.32-8.6,5.5-.22-.08-.73-.26-2.6.22a5,5,0,0,1-5.37-2l-.32-.45a11.16,11.16,0,0,1-4.62-2,12.39,12.39,0,0,1-3.2-3.4,11.15,11.15,0,0,0-.69-.91,9.09,9.09,0,0,0-1.77-.34,12,12,0,0,1-7.23-3.17c-.7-.63-1.27-1.24-1.72-1.73-.94-1-1-1-1.33-1.07-5.53-1-6.85-1.74-9.51-3.63-.64-.45-1.36-1-2.41-1.62a14.56,14.56,0,0,1-5.25-5.78c-.15-.26-.34-.6-.46-.78l-.08,0c-3.37-.93-4.59-1.37-6.21-3a8.19,8.19,0,0,0-1.32-1.12c-4.6-3.33-5.85-6.44-7.17-9.72-.49-1.21-1-2.46-1.74-3.93a18.93,18.93,0,0,1-.8-1.75l-.47-.62c-3-4-2.68-8.51-2.38-12.15a14.32,14.32,0,0,0,0-4.54l-5.58-8a5.19,5.19,0,0,1-.31-.5,14.77,14.77,0,0,1-1.54-5.86,8.5,8.5,0,0,0-.45-2.43,10.28,10.28,0,0,1-1.12-.83,7.83,7.83,0,0,1-2.38-2.85,9,9,0,0,1-2.13-1.34,9.76,9.76,0,0,1-1.82-2l-.19-.26c-.51-.33-1.85-1.16-2.15-1.34l-.51-.3-.25-.07-.9-.28c-4.76-1.5-6.33-3-7.89-4.86a7.07,7.07,0,0,0-1.35-1.32l-.34-.23a9.14,9.14,0,0,1-2.53-2.18c-.63-.71-.8-.87-1.18-1.24l-.81-.8a12.32,12.32,0,0,1-2.82-4.21c-.25-.58-.35-.81-2-1.76l-.78-.46a13,13,0,0,1-5.49-5l-.51-.85a4,4,0,0,0-1.84-1.95,11,11,0,0,1-4-4.11h0a10.49,10.49,0,0,1-3.15-.85c-6.41-2.83-9.48-8.21-11.84-13.59a20.05,20.05,0,0,0-1.36-2.69c-2,0-4.4-.68-6.63-3.75l-.29-.4c-.28-.18-.58-.39-.91-.63a9.81,9.81,0,0,1-3.42-4.22c-.48-1.16-.88-2.75-.43-9.29a5,5,0,0,1,5-4.66L178.08,281,179,65.26a5,5,0,0,1,5-5h0l124.22.21a5,5,0,0,1,5,5l.33,89.94a10.36,10.36,0,0,1,2.92,2.05,30.56,30.56,0,0,1,3.46,4,10.48,10.48,0,0,0,2.37,2.61,7.74,7.74,0,0,1,1-.66,7,7,0,0,1,6.27-.67,5,5,0,0,1,5.08-2.23,6.66,6.66,0,0,1,4.41,2.44,1.72,1.72,0,0,0,.2.22l.26.26.21.19c4.21,3.73,5.9,6.4,5.93,9.67l1-.06a28.84,28.84,0,0,1,4.35-.06,5.08,5.08,0,0,1,2.69,1,12.63,12.63,0,0,1,1.67,1.56,24.14,24.14,0,0,0,3.82,1.16l.11-.07a16.27,16.27,0,0,1,3-1.46,5,5,0,0,1,3.88.18,20.11,20.11,0,0,1,3.9,2.62,5,5,0,0,1,3.82-2.08,20.09,20.09,0,0,1,6.09.79l1,.24a6.23,6.23,0,0,1,6.35-1.33,5,5,0,0,1,2.93,2.48,8.69,8.69,0,0,1,.88,4.67,11.92,11.92,0,0,1,1.71.13,5,5,0,0,1,4.13,4c0,.26.09.52.12.77.49-.49,1-1,1.66-1.61.89-.83,3.6-3.36,7.13-2.64a6.69,6.69,0,0,1,4.46,3.38,6.72,6.72,0,0,1,5.34,2.27l.29.31a7.24,7.24,0,0,1,1.81-.35,7.82,7.82,0,0,1,3.44-1.69,5,5,0,0,1,3.87.54,10.93,10.93,0,0,1,1.22.84,4.91,4.91,0,0,1,1.19-2,5,5,0,0,1,4.16-1.48l.6.06a11.37,11.37,0,0,1,1.84-.24,5,5,0,0,1,4.6,2.46,10.42,10.42,0,0,1,.79,1.62h0c.23,0,.45,0,.66,0a5,5,0,0,1,3.82-2,7.25,7.25,0,0,1,4,.79h.06a5,5,0,0,1,4.72,5.72l.32.23a8.21,8.21,0,0,1,4.2,1,5,5,0,0,1,3.11-.67,12.21,12.21,0,0,1,1.21.2c.2-.38.44-.78.71-1.21a5,5,0,0,1,3.15-2.19c1.51-.33,2.63-.48,3.53-.61a8.6,8.6,0,0,0,3.85-1.22,5,5,0,0,1,4.74,0c.35.19.67.37.95.55a5,5,0,0,1,5.11-1.61c.28-.16.47-.3.71-.46a11.49,11.49,0,0,1,3.31-1.64,5,5,0,0,1,5.29,1.42c.24.27.41.46.54.59s.44.49.68.82l.79.17a6.57,6.57,0,0,0,3.08,0,13.26,13.26,0,0,1,.87-1.72,5,5,0,0,1,5-2.4,13.49,13.49,0,0,1,3.95,1.13l.24.11a9.06,9.06,0,0,1,1.59.81,1.68,1.68,0,0,0,.48.16,6.35,6.35,0,0,1,4.14,2.84,7.11,7.11,0,0,1,5.31,3.89,13.32,13.32,0,0,0,.89,1.35,5,5,0,0,1,5.95,1.65c.35.49.64.91.89,1.28.1.14.21.3.29.43l.17.06.41.15.33.14a8.25,8.25,0,0,1,5.72,1.84l.21,0a5,5,0,0,1,5.14,3.08,9.78,9.78,0,0,1,4.38-.08,5,5,0,0,1,5.32.09,8.68,8.68,0,0,0,1.11.22,7.18,7.18,0,0,1,5.22,2.7c1.49,2.1,2.11,3,1.59,57.35-.08,8.2-.15,15.29-.11,18.52,0,1.58.08,1.63,1.57,2.93a24.26,24.26,0,0,1,2.68,2.65c.73.87,3.44,5.23,3.47,5.27a5.12,5.12,0,0,1,.58,1.36l1.23,4.67a4.59,4.59,0,0,1,.16,1,17.33,17.33,0,0,1-.34,4.37l.67.32a5,5,0,0,1,2.91,4.66v.11a6.51,6.51,0,0,1,1,2.12.43.43,0,0,0,0,.05l1,1.31a5.52,5.52,0,0,1,.63.77,5,5,0,0,1,1,3.44,5.11,5.11,0,0,1-.41,1.59,8.87,8.87,0,0,1,1.16,2.56c.25.11.5.24.76.38a5,5,0,0,1,2.51,5.35,4.13,4.13,0,0,0,0,2.72c.17.6.4,1.41.62,2.49a5,5,0,0,1-.6,3.51,5,5,0,0,1-.4,4.5c-.21.34-.4.63-.56.88a16.94,16.94,0,0,1,0,1.7,4.68,4.68,0,0,1-.33,1.48l-2.87,7.49a4.94,4.94,0,0,1-.61,1.13c-.39.54-.63.89-.78,1.11a12,12,0,0,1-.78,2.36l-.14.34a6.6,6.6,0,0,1-.4.83,11.39,11.39,0,0,1,.17,6,8.07,8.07,0,0,1-1.16,2.49,9,9,0,0,1,1.2,3.23,8.44,8.44,0,0,1,0,4.1.43.43,0,0,0,0,.05c0,.1,0,.18,0,.24.92,1.84.56,3.38.14,5.15q0,.21-.09.39a5,5,0,0,1-1.69,5.78l-.17.13c-2,1.5-2.29,1.76-2.68,2.89-.92,2.66-1.68,4.32-3,5.59a8.27,8.27,0,0,1,2.1,5.72,5,5,0,0,1-3.38,4.8,13.78,13.78,0,0,1-6.25.5,8.23,8.23,0,0,0-5.36.89L538.58,412a5,5,0,0,1-4.66-.22,2.5,2.5,0,0,0-.58-.23h-.29a5,5,0,0,1-2-.42l-.37-.17a19.33,19.33,0,0,1-8.1,1.77,26.92,26.92,0,0,1-.12,4.1,5.4,5.4,0,0,1-.18.89l-.92,3.05a5,5,0,0,1-3.81,3.46,5.08,5.08,0,0,1-.86.19,7.86,7.86,0,0,1-3.36,3.74,5.64,5.64,0,0,0-.93.66,4.89,4.89,0,0,1-1.55.88c-.28.61-.59,1.14-.87,1.63s-.46.78-.64,1.16a4.63,4.63,0,0,1-.36.65,2.84,2.84,0,0,0-.59,1.29,5,5,0,0,1-1.49,3.39,9,9,0,0,0-.8.94,15.92,15.92,0,0,1-2.18,2.37,14.38,14.38,0,0,1-3.21,2.07,12,12,0,0,0-1.68,1l-.18.12-9.36,5.93a5,5,0,0,1-3.29.74l-.36-.05a16.19,16.19,0,0,0-2.41-.18,4.89,4.89,0,0,1-2.13.74,7.33,7.33,0,0,0-2.37.66l-.14.07a6.88,6.88,0,0,1-.55.91,5,5,0,0,1-2.14,1.69l-1.39.56a5,5,0,0,1-1.38.32,7,7,0,0,1-.84.05,14.45,14.45,0,0,0-4.74,1.75c-1,.5-2,1-3.14,1.44a5,5,0,0,1-4.78-.61c.18.35.34.71.49,1.09a5,5,0,0,1-2.33,6.2l-.75.41a3.68,3.68,0,0,1-.44.23l-.42.2c-2.88,1.31-4.43,2.07-5.51,3.62a5,5,0,0,1-5.84,1.85l-.18-.07a5,5,0,0,1-1.74,2.95l-.6.51a9.15,9.15,0,0,1,.72,3,5,5,0,0,1-1.4,3.79,73.9,73.9,0,0,0-12.5,18c-12.51,24.53-8.94,36.49-4.41,51.63,2.59,8.66,5.52,18.47,5.41,31.41a5,5,0,0,1-4.88,5,7.28,7.28,0,0,0-3.61.75c-.2.1-.43.2-.67.3a10.44,10.44,0,0,1-1.67,2.81,5.18,5.18,0,0,1-3.72,2C415.28,594,414.77,594.05,414.25,594.05Zm-6.42-15.58a38,38,0,0,0,4.66,3.47,1.68,1.68,0,0,1,.18-.21,4.86,4.86,0,0,1,3.76-1.63,2,2,0,0,0,1.19-.33,16.8,16.8,0,0,1,2.61-1c-.48-9.38-2.72-16.89-4.9-24.19-4.76-15.9-9.25-30.93,5.08-59a87.83,87.83,0,0,1,11.38-17.33,5,5,0,0,1,0-6.36l.58-.71a15.64,15.64,0,0,1,2.29-2.43c0-.39,0-.73,0-1.08,0-.17,0-.3,0-.44a7.47,7.47,0,0,1-2.46-4.57,5,5,0,0,1,1.57-4.6,5,5,0,0,1,5.7-3.62,7.28,7.28,0,0,1,1.53.45,5,5,0,0,1,.3-3.08,10.91,10.91,0,0,1-1.1-3.18,5,5,0,0,1,4-5.91l3.34-.58a5,5,0,0,1,2.7.28,4.87,4.87,0,0,1,.64-.55,5,5,0,0,1,6,.11l.11.08a5.08,5.08,0,0,1,1.83,1,5,5,0,0,1,1.8-.55,7.81,7.81,0,0,1,3.72-2.25,5,5,0,0,1,6.36,5.65l.2,0a9.83,9.83,0,0,1,3.72-2.76,16.77,16.77,0,0,1,4.41-1.39,11.78,11.78,0,0,1,6.53-.86l7.78-4.94a23.43,23.43,0,0,1,2.79-1.61,5,5,0,0,0,1.12-.65,6.2,6.2,0,0,0,.9-1l.44-.55a13.43,13.43,0,0,1,1.78-4.11c.26-.52.51-1,.74-1.36a7.6,7.6,0,0,1-1.12-2.07,5,5,0,0,1,6.18-6.47,12.76,12.76,0,0,1,2,.89,2.08,2.08,0,0,0,.12-.27,5.09,5.09,0,0,1,2.66-2.86l.33-.39a5.1,5.1,0,0,1-.85-2.56c0-.41,0-.75-.06-1a15,15,0,0,1-1.35-1.22,5,5,0,0,1-1.44-3.52,10.14,10.14,0,0,1,.3-2.81,9.73,9.73,0,0,1-.09-3.74,5,5,0,0,1,2.31-3.64,4.94,4.94,0,0,1,2.08-.73,5,5,0,0,1,3.22-1.24,9.74,9.74,0,0,1,5.41-4.28,7.7,7.7,0,0,1,6.16,1c.35.21.83.55,1.13.76l.14.09a5.09,5.09,0,0,1,2.21,4.3c0,1.38-.13,2.6-.26,3.69a5.06,5.06,0,0,1,2.7.48c.3.16.58.29.83.41a7.21,7.21,0,0,1,2.32.45l.36.14,10-4.68a19.1,19.1,0,0,1,6.6-1.89,15.12,15.12,0,0,1-.2-2.56,5,5,0,0,1,1-3.06,11.18,11.18,0,0,1,2.69-2.59c.12-.29.32-.8.61-1.62a13.11,13.11,0,0,1,3.81-5.77,7.72,7.72,0,0,1,.31-1.55c.05-.21.13-.48.22-.87h0a11.9,11.9,0,0,1-.34-1.63,9.47,9.47,0,0,1,0-3.22,10.52,10.52,0,0,1-1.36-1.77,5,5,0,0,1-.76-3.08c.19-2.35.54-4.74,2.22-6.46-.09-.4-.22-.88-.31-1.22a23.3,23.3,0,0,1-.54-2.39,5,5,0,0,1,1.51-4.41c.16-.15.32-.3.48-.43a9.22,9.22,0,0,1,2.06-4.35l2.35-6.11a2.17,2.17,0,0,0,0-.24,5.57,5.57,0,0,1,.31-3.4l-.06-.12a5,5,0,0,1-.36-3.84,7.69,7.69,0,0,1,1.18-2.37,13.65,13.65,0,0,1-.28-1.47,5.68,5.68,0,0,1-2.35-4c-.07-.37-.17-.9-.33-1.66a10,10,0,0,1-2.56-3,5,5,0,0,1,0-4.87l0-.06,0-.06a4.92,4.92,0,0,1-2.39-2.14,5,5,0,0,1-.64-2.66c-2.49-1.92-3.61-4.43-2.66-8.55a9.41,9.41,0,0,0,.31-2.11l-.89-3.37c-.71-1.14-1.93-3-2.3-3.56a16.61,16.61,0,0,0-1.53-1.47c-2.08-1.81-4.92-4.29-5-10.35,0-3.33,0-10.12.11-18.72.14-14.73.38-40.4-.09-49.7l-.52.16a5.87,5.87,0,0,1-5-.75,5,5,0,0,1-4.48,1.07,5,5,0,0,1-3-2.14,6.57,6.57,0,0,1-2.44-1.8,5.11,5.11,0,0,1-1.78-.84l-1.41-1.06a7.88,7.88,0,0,1-2.79-.33,5.32,5.32,0,0,1-.78-.32l-.5-.25A9.22,9.22,0,0,1,520.8,206c-2.42.25-5.21-.73-8.06-4.42-.52-.67-.9-1.25-1.2-1.72l-.82-.06a5,5,0,0,1-4.38-3.25l-.26-.1c-1.49,1.86-4,2.27-6.12,2.61a16.36,16.36,0,0,1-7-.11,19,19,0,0,0-2.68-.41,5.07,5.07,0,0,1-2.65-1,8.51,8.51,0,0,1-2.24.84,5,5,0,0,1-2.61,1.87,5,5,0,0,1-2.25.15c-.25.11-.53.23-.84.34a5.35,5.35,0,0,1-5.19-1.16,18.42,18.42,0,0,1-4.07.9l-.58.08c0,.1-.09.2-.14.3a24.17,24.17,0,0,1-1.23,2.41,5,5,0,0,1-4.71,2.43c-.36,0-.7-.07-1-.12-.2.29-.44.58-.7.89a5,5,0,0,1-6.18,1.13,10,10,0,0,1-3.76-3.46,5,5,0,0,1-3.38-.94l-3.16-2.29-.56-.33a6.6,6.6,0,0,1-5.85.74,5.83,5.83,0,0,1-1.85-1.15,5,5,0,0,1-3.66-.84,5.23,5.23,0,0,1-1,.48,7.15,7.15,0,0,1-2.52,5.46,5,5,0,0,1-1.28.8,7.16,7.16,0,0,1-6.78-.48,9,9,0,0,1-3.54-4.52,5.61,5.61,0,0,1-1.81.93,6.87,6.87,0,0,1-5.74-.95,7.33,7.33,0,0,1-3-3.05,5,5,0,0,1-4.12-2l-.33-.47-.38.39c-4.51,4.65-7.7,6-14.63,1.52A5,5,0,0,1,386.3,193a7.07,7.07,0,0,1-4.08-3.6,9.31,9.31,0,0,1-.85-2.08c-.27,0-.55-.06-.83-.1-1.06-.17-2-.41-2.91-.62l-.43-.1a7.23,7.23,0,0,1-3.81,2.93c-3.88,1.22-6.93-1.29-9.15-3.12l-.55-.45c-3.16,1.65-5.83,1.43-11.81-.75a8.11,8.11,0,0,1-3.32-2l-1.16.07c-2.56.18-6.43.46-9.74-2.94a5.35,5.35,0,0,1-.69-.88,8.61,8.61,0,0,1-1.32-5.7l-.06-.07a4.92,4.92,0,0,1-2.26.77,9.78,9.78,0,0,1-5.5-1.12,5,5,0,0,1-3.9,1.43c-6.9-.52-9.82-4.38-11.95-7.2a25,25,0,0,0-2-2.47l-.86.1a5,5,0,0,1-3.83-1.27,5,5,0,0,1-1.65-3.69l-.33-89.7L189,70.29,188.06,286a5,5,0,0,1-5,5L42,291.19a.61.61,0,0,0,0,.14l.18.14a6.22,6.22,0,0,1,2.7,2.43l.16.22c4.63.12,7,3.44,9.34,8.69,1.89,4.31,3.59,7.08,6.72,8.46l.14.05a1.6,1.6,0,0,0,.23,0,10.3,10.3,0,0,1,3.09.84,8,8,0,0,1,4.34,4.12c0,.07.07.15.12.23h0a5,5,0,0,0,.62.46,12.91,12.91,0,0,1,5,5.19l.47.77c.43.7.43.7,2,1.59l.85.5c4.08,2.4,5.19,4.39,6.06,6.39a2.86,2.86,0,0,0,.72,1.14l.7.68c.51.5.84.82,1.66,1.74l.31.33c.29.18.62.4,1.06.71a16.71,16.71,0,0,1,3,2.89c.62.72.9,1.05,3.3,1.81l.72.22a10.79,10.79,0,0,1,3,1.38s2.57,1.53,3.27,2.1a11,11,0,0,1,2,2.19l0,0a9.81,9.81,0,0,1,2.61,1.2,4.91,4.91,0,0,1,1.92,2.21c.18.4.32.76.43,1.08a7.53,7.53,0,0,1,3.46,4.17,16.85,16.85,0,0,1,1.32,5.63,8.41,8.41,0,0,0,.32,2l5.67,8.1a4.86,4.86,0,0,1,.4.7c1.63,3.39,1.35,6.87,1.1,9.94-.19,2.23-.36,4.34.35,5.26a10.9,10.9,0,0,1,1.8,2.94,7.25,7.25,0,0,0,.44,1c.95,1.87,1.59,3.46,2.11,4.74,1.08,2.7,1.49,3.71,3.75,5.35a18.93,18.93,0,0,1,2.45,2.06c.31.1.88.27,1.89.55a10.25,10.25,0,0,1,6.59,5.56,4.9,4.9,0,0,0,1.86,2.19c1.28.81,2.2,1.46,2.87,1.94,1.54,1.09,1.73,1.23,5.57,2a11.57,11.57,0,0,1,6.78,4.08c.37.39.71.76,1.08,1.08.62.56.65.56,1.86.72a18.92,18.92,0,0,1,3.82.82,10.89,10.89,0,0,1,5.53,4.6,9.69,9.69,0,0,0,.71.94,1.6,1.6,0,0,0,.9.36,7.92,7.92,0,0,1,4.41,2,13.18,13.18,0,0,1,1.62-.07l.4-.85a8.06,8.06,0,0,1,2.91-3.68,7.7,7.7,0,0,1,1.12-2l.17-.22a5.78,5.78,0,0,1,3.36-2.4l.09,0a8.57,8.57,0,0,1,2.27-7.16l.48-.56a13.19,13.19,0,0,1,.38-3,26.07,26.07,0,0,1,3.27-7.51,23.09,23.09,0,0,0,1.85-3.63c1.29-3.56,2.95-5.06,6.32-5.72a12.84,12.84,0,0,0,2-.54l.09-.08c1.52-1.43,3-1.46,5.42-1.39a10.3,10.3,0,0,1,3.36-3.66,5,5,0,0,1,4.37-.8,34.26,34.26,0,0,1,8.05,3.79,1.07,1.07,0,0,0,.2.11c.11,0,.65-.07,1.05-.12a17.8,17.8,0,0,1,4.46-.16c.75.08,1.55.1,2.41.13a32.54,32.54,0,0,1,6.34.7c.39.08.77.18,1.16.28s1.12.27,1.65.37a5.06,5.06,0,0,1,2.91-1.69,5,5,0,0,1,3.53.66,5,5,0,0,1,4.28,1.24l1.7,1.57,0,0a5.43,5.43,0,0,1,2.12,2.29c.08.15.2.38.42.75l.27.47a9.85,9.85,0,0,1,2.14,1.32,5.35,5.35,0,0,1,.55.51,5,5,0,0,1,2.83,2.82,9.31,9.31,0,0,1,.67,2.8,6.07,6.07,0,0,1,2,1.56l1.12.2a5,5,0,0,1,3.76,2.81c1.17,2.5,1.45,2.7,2.38,3.35a23.07,23.07,0,0,1,3.32,2.75,11.15,11.15,0,0,0,1.27,1,11.81,11.81,0,0,1,4.64,5.39,11,11,0,0,1,.53,1.66,7.37,7.37,0,0,0,1.16,1c2.88,2,3.26,4,3.78,8s.51,3.9,1.93,5.93l1.44,2.1a5.62,5.62,0,0,1,.34.5l.32.52a5.42,5.42,0,0,1,.32.69l1.07,2.74a5,5,0,0,1,.22.78l.26,1.22c.07.36.14.7.21,1a18.18,18.18,0,0,1,2.05,2.43,9.72,9.72,0,0,1,1.6,3.47,5,5,0,0,1,2.76,6.16c-.25.75.44,2.49,1,4a37.13,37.13,0,0,1,1.26,3.57.84.84,0,0,0,0,.17,11.75,11.75,0,0,1,1.17,1,4.1,4.1,0,0,1,.35.36q.22.24.42.48c.28.16.67.36,1,.51a14.32,14.32,0,0,1,4.29,2.9,5.08,5.08,0,0,1,.52.7l2.95,4.75c.12.19.22.39.32.59a1.57,1.57,0,0,0,.51.69,12.44,12.44,0,0,1,2.58,3.41l.39.73a11.53,11.53,0,0,1,1.49,4.17,5.27,5.27,0,0,0,1.82,3.56l.27.23.31.28a20.34,20.34,0,0,1,2.68,2.75,4.06,4.06,0,0,0,2,1.56l2.29.94.24.1a4.46,4.46,0,0,0,.6.23,7.33,7.33,0,0,1,4.41,3.52,7.45,7.45,0,0,1,1.15,4.51,10,10,0,0,1,.86,3.7,12.62,12.62,0,0,1-.6,6.13l.72.53a5,5,0,0,1,2,4,9.84,9.84,0,0,0,.16,1.59,19.34,19.34,0,0,1,.25,3.5,29.88,29.88,0,0,1-.23,3.17l0,.32a6.66,6.66,0,0,1,1.91,3.1,5.36,5.36,0,0,1,2.46,3.39l.33.4a15.41,15.41,0,0,1,3,5.62c.22.61.42,1.19.61,1.6a30.54,30.54,0,0,1,2.63,9.53c1.7,1.18,3,2.59,3.1,4.86a13.51,13.51,0,0,1,1.73.64l.15.07.64.31,3.59.83c1.75.24,3.32.48,4.51,1.64a4.61,4.61,0,0,1,.9.74l2.83,3a5.39,5.39,0,0,1,3.53.69l.5.26c.33.09,1.07.25,1.57.36,2.23.48,4.16.89,5.59,2l7.69,6h1.38a10.23,10.23,0,0,1,3.89.5,21.18,21.18,0,0,1,7.27-.24,16.51,16.51,0,0,1,4,.92,7.62,7.62,0,0,0,3.15.47h.05a5,5,0,0,1,4.14,2.2Zm-38.62-3.31a.1.1,0,0,1,.05,0Zm-29.08-40.53Zm-44.9-58.93a1.22,1.22,0,0,0,.15.17Zm-.08-.11.05.06Zm151-16.12c.19.28.35.55.5.81.36-.25.73-.49,1.1-.72l-.11-.1A5.73,5.73,0,0,1,446.18,459.47Zm32.33-7.16Zm5.14-1.78h0ZM169.12,437.21Zm350.74-14.53Zm0,0Zm0,0Zm0,0h0Zm0,0h0Zm0,0Zm0,0h0Zm-8.83-2.46h0ZM195.19,420Zm-63.87-6.8Zm387.36-12.84s0,0,0,0v0Zm-318.12-4.49h0Zm52.36-2.63.05,0h0Zm315.87-32.85-.13.06.13-.06Zm3.75-29.2h0Zm0-17,.16.2Zm-527-19.49ZM42,291.92Zm0-.53.09,0-.09,0ZM183.06,286h0Zm344.5-87.25Zm-17.72-11.49.16.11Zm-140.9-6.31Z"/></svg>