<?xml version="1.0" encoding="utf-8"?>
<!-- Generator: Adobe Illustrator 20.1.0, SVG Export Plug-In . SVG Version: 6.00 Build 0)  -->
<svg version="1.1" id="Layer_1" xmlns="http://www.w3.org/2000/svg" xmlns:xlink="http://www.w3.org/1999/xlink" x="0px" y="0px"
	 width="58" height="44" viewBox="0 0 58 44" style="enable-background:new 0 0 58 44;" xml:space="preserve">
<style type="text/css">
	.st0{fill:#808080;}
</style>
<g>
	<g>
		<path class="st0" d="M13.5,44h-1.4C6.6,44,2.1,39.5,2,34L2,8.2C2,3.7,5.7,0,10.2,0h37.7C52.3,0,56,3.7,56,8.2v21.7
			c0,4.5-3.7,8.1-8.1,8.1H13.5V44z M10.2,2.8c-2.9,0-5.3,2.4-5.3,5.3l0,25.8c0,3.5,2.6,6.4,5.9,7v-5.9h37.2c2.9,0,5.3-2.4,5.3-5.3
			V8.2c0-2.9-2.4-5.3-5.3-5.3H10.2z"/>
	</g>
	<g>
		<g>
			<path class="st0" d="M47.6,15.9c-0.1,0-12.3,0-12.3,0c-0.1,0-0.1-0.1-0.1-0.1l0-2.3c0-0.5-0.5-0.5-0.5-0.5c0,0-11.1,0-11.5,0
				c-0.5,0-0.5,0.4-0.5,0.4s0,2.3,0,2.3c0,0.2-0.1,0.1-0.1,0.1s-8.3,0-8.4,0c-0.6,0-0.8,0.3-0.8,0.4c0,0-3.2,6.4-3.2,6.5
				c-0.1,0.4,0.2,0.4,0.2,0.4c0,0,12.2,0,12.2,0c0.1,0,0.1,0.1,0.1,0.1s0,2.1,0,2.1c0,0.5,0.5,0.5,0.5,0.5c0,0,11.2,0,11.5,0
				c0.5,0,0.5-0.5,0.5-0.5s0-2.1,0-2.2c0-0.1,0.1-0.1,0.1-0.1s8.4,0,8.7,0c0.5,0,0.7-0.5,0.7-0.5c0,0,3.2-6.4,3.2-6.4
				C48.1,16,47.7,15.9,47.6,15.9z"/>
		</g>
	</g>
</g>
</svg>
