<svg xmlns="http://www.w3.org/2000/svg" xmlns:xlink="http://www.w3.org/1999/xlink" preserveAspectRatio="xMidYMid" width="58" height="44" viewBox="0 0 58 44">
  <defs>
    <style>

      .cls-2 {
        fill: #808080;
      }
    </style>
  </defs>
  <path d="M-0.001,44.011 C-0.001,44.011 14.637,27.926 14.637,27.926 C14.637,27.926 18.725,27.926 18.725,27.926 C18.725,27.926 18.725,30.900 18.725,30.900 C18.725,30.900 15.977,30.900 15.977,30.900 C15.977,30.900 6.751,41.037 6.751,41.037 C6.751,41.037 51.243,41.037 51.243,41.037 C51.243,41.037 42.017,30.900 42.017,30.900 C42.017,30.900 39.270,30.900 39.270,30.900 C39.270,30.900 39.270,27.926 39.270,27.926 C39.270,27.926 43.357,27.926 43.357,27.926 C43.357,27.926 57.994,44.011 57.994,44.011 C57.994,44.011 -0.001,44.011 -0.001,44.011 ZM28.997,37.669 C28.997,37.669 23.557,30.694 19.705,23.541 C17.595,19.624 15.960,15.654 15.960,12.747 C15.960,5.881 21.793,-0.007 28.997,-0.007 C36.201,-0.007 42.034,5.708 42.034,12.747 C42.034,15.581 40.362,19.577 38.218,23.541 C34.370,30.657 28.997,37.669 28.997,37.669 ZM28.950,9.419 C26.789,9.419 25.036,11.135 25.036,13.249 C25.036,15.364 26.789,17.080 28.950,17.080 C31.114,17.080 32.866,15.364 32.866,13.249 C32.866,11.135 31.114,9.419 28.950,9.419 Z" id="path-1" class="cls-2" fill-rule="evenodd"/>
</svg>
