<svg id="Layer_1" data-name="Layer 1" xmlns="http://www.w3.org/2000/svg" viewBox="0 0 100 100"><defs><style>.cls-1{fill:#d8d8d8;}.cls-2{fill:#6e6e6e;}</style></defs><title>2_currentoffers</title><path class="cls-1" d="M50,1A49,49,0,1,1,1,50,49.05,49.05,0,0,1,50,1m0-1a50,50,0,1,0,50,50A50,50,0,0,0,50,0Z"/><path class="cls-2" d="M65.92,25H52.83L25,52.83,47.17,75,75,47.17V34.08ZM72,45.92,47.17,70.75,29.25,52.83,54.08,28H64.67L72,35.33Z"/><path class="cls-2" d="M61.89,35.37A2.39,2.39,0,1,0,64.28,33,2.4,2.4,0,0,0,61.89,35.37Z"/><path class="cls-2" d="M60.4,38.39,58,40.79c-3-2.48-6.67-2.83-9.36-.14-3.14,3.14-2,6.39-.29,10.48.79,1.86.94,3.06-.37,4.37a2.21,2.21,0,0,1-3.39.07c-1.54-1.54-1.12-3.29.44-4.85L41.2,46.88c-3,3-3.42,6.85-.36,10.62l-2.3,2.3,1.81,1.81,2.28-2.29c2.95,2.43,6.47,2.73,9.2,0,3.08-3.08,2-6.49.36-10.5a6.57,6.57,0,0,1-.59-2.48,2.61,2.61,0,0,1,.86-1.81c1.06-1.07,2.31-1.23,3.35-.19,1.3,1.3.6,2.89-.7,4.2L59,52.38c2.93-2.93,3.15-6.59.82-9.74l2.44-2.44Z"/></svg>