<svg id="Layer_1" data-name="Layer 1" xmlns="http://www.w3.org/2000/svg" viewBox="0 0 1020.2 32.2"><defs><style>.cls-1{fill:#fff;}.cls-2{fill:#cd9834;}</style></defs><title>Artboard 1</title><rect class="cls-1" y="10.6" width="465.1" height="8.4"/><rect class="cls-1" x="555.1" y="10.6" width="465.1" height="8.4"/><path class="cls-2" d="M495.63,32.18A10.1,10.1,0,0,1,486.07,26a13,13,0,0,1-.76-4.8V11a13,13,0,0,1,.76-4.81A10.11,10.11,0,0,1,495.63,0h.46a10.12,10.12,0,0,1,9.53,6.14,12.36,12.36,0,0,1,.8,4.81V21.23a12.31,12.31,0,0,1-.8,4.8,10.13,10.13,0,0,1-9.53,6.15Zm.46-5.81a4,4,0,0,0,3.76-2.21,7.41,7.41,0,0,0,.46-3V11a7.38,7.38,0,0,0-.46-3,4,4,0,0,0-3.76-2.21h-.46A4,4,0,0,0,491.87,8a6.9,6.9,0,0,0-.46,3V21.15a6.93,6.93,0,0,0,.46,3,4,4,0,0,0,3.76,2.21Z"/><path class="cls-2" d="M528.37,31.76A6.62,6.62,0,0,1,527.12,28l-.42-4.93c-.25-3-1.67-4.1-4.85-4.1h-2.8V31.76H513V.42h9.66a18.27,18.27,0,0,1,3.67.33c4.1.92,6.73,3.6,6.73,8a7.65,7.65,0,0,1-4.76,7.19v0c2.71,1,4.13,2.72,4.38,5.94l.46,5.6a5.39,5.39,0,0,0,1.76,4v.25Zm-5.93-18.35c2.88,0,4.47-1.63,4.47-3.92a2.92,2.92,0,0,0-2.51-3,9.61,9.61,0,0,0-2.13-.21h-3.22v7.18Z"/></svg>