<svg id="No_Locator" data-name="No Locator" xmlns="http://www.w3.org/2000/svg" viewBox="0 0 327.9 71.46"><defs><style>.cls-1{fill:#bb9468;}.cls-2{fill:#fff;}</style></defs><path class="cls-1" d="M62.58,63.06s-1.5,1.46-5.29,1.65c-3.14.15-9.43-2.61-9.49-9.44a9.51,9.51,0,0,1,9.42-9.48,9.16,9.16,0,0,1,7.65,4.43l1.18,0V44.91S70,39,64.83,31.52c0,0-5.85-8.09-2.81-12.13,0,0-5.39,1.62-1.93,10.61,0,0,3.7,7.9-1.82,12.22,0,0,1.26-6.35-7.87-11.48,0,0-7.22-3.65-7.47-8.79,0,0-3.93,4.52,3.88,10.8,0,0,5.66,4.32,3.5,11.12,0,0-1.81-4.63-12.15-4.8,0,0-9,0-10.59-4.08,0,0-1.66,5.25,7.82,7.65,0,0,8.48,1.54,9.19,6.51,0,0-5.31-2.89-13.86,3.53,0,0-6,3.88-10,1.71,0,0,1.42,5.29,11.66,1.68,0,0,8.21-3.06,12.13,1.1,0,0-5.4-.46-10.15,11.13,0,0-2,6.17-6.35,6,0,0,3.88,3.82,8.92-3.9,0,0,4.83-7.23,11.43-5.92,0,0-4.07,2.69-2.25,13.33,0,0,1.74,7-3.19,9.17,0,0,5.17,1.87,6.46-8.12,0,0,.69-9.65,7.48-10.47,0,0-1.14,5,2.82,11.09,0,0,5,6.16,1.14,11.39,0,0,6.33-1.18,2.71-11.78,0,0-2.63-7.75,2.58-12V58.51L68.29,57v-.52H58.77v.56l3.81,1.48v4.56" transform="translate(-20.71 -19.39)"/><path class="cls-2" d="M96.71,53.32a.33.33,0,0,1-.31-.23l-.63-2.5c-.45-1.67-1.68-2.27-4.64-2.27-4.83,0-8.36,3.35-8.36,8a7.8,7.8,0,0,0,7.51,8.06c3.33,0,4.61-.68,4.61-2.44V60.36c0-.77-.17-1-1-1.22L92,58.51a.32.32,0,0,1-.22-.31c0-.17.14-.28.34-.28l7.56,0c.23,0,.35.09.35.29a.25.25,0,0,1-.15.25l-1.7.74c-.6.26-.69.46-.69,1.53v.86a17.77,17.77,0,0,0,.18,3,15,15,0,0,1-7.12,1.71c-6,0-10.72-4.46-10.72-10.08s4.92-9.85,11.66-9.85a16.06,16.06,0,0,1,6.18,1.22l-.77,5.45C96.94,53.23,96.85,53.32,96.71,53.32Z" transform="translate(-20.71 -19.39)"/><path class="cls-2" d="M108.83,58.31l-1.76,4.77-.2.63a.51.51,0,0,0-.06.28c0,.17.06.17.15.2l.42.23,1.74.76c.17.09.23.17.23.29s-.12.28-.35.28h-7.11c-.2,0-.34-.11-.34-.28s.09-.2.26-.29l1.62-.74c.68-.31.74-.37,1-.85l.39-.91.46-1.1,3.7-9.45a53.81,53.81,0,0,0,1.79-5.25l.11-.4h2.08l.09.31a32.5,32.5,0,0,0,1.42,4.2L118,60c.68,1.73,1.42,3.4,1.68,3.91.17.32.23.35.85.63l1.48.65c.17.09.23.17.23.29s-.11.28-.34.28h-7.51c-.26,0-.37-.11-.37-.28s.06-.2.23-.29L116,64.5c.54-.2.6-.28.6-.51a3.64,3.64,0,0,0-.2-.85l-1.85-4.8c-1.28-.08-2.22-.11-2.87-.11S110.11,58.26,108.83,58.31Zm.74-2c1.2,0,1.8.08,2.39.08.43,0,1.06,0,1.85-.06L111.65,51Z" transform="translate(-20.71 -19.39)"/><path class="cls-2" d="M133.58,63.22v.54c0,.37.11.49.59.66l2.45.88c.17.11.23.11.23.22s-.12.23-.32.23h-8.87c-.2,0-.31-.09-.31-.23s.08-.17.22-.22l2.28-.86c.82-.28.88-.34.91-.88a3.63,3.63,0,0,0,0-.56s0-.2,0-.51l.05-5.79a43.63,43.63,0,0,0-4.12-7,7.24,7.24,0,0,0-3-2.35l-.32-.09-.31-.14c-.31-.11-.37-.17-.37-.37s.26-.42.83-.42a9,9,0,0,1,4.15,1,11.59,11.59,0,0,1,3.5,4.29l1.05,1.87.28.54,2.76-4.6a3.42,3.42,0,0,0,.54-1c0-.08-.11-.2-.31-.34l-1.31-.74c-.14-.08-.2-.17-.2-.25s.12-.29.34-.29h7.31c.23,0,.37.09.37.29s-.08.2-.25.25l-2.25.88-.4.15c-.48.19-.88.62-1.7,1.93l-3.9,6.15,0,6.19Z" transform="translate(-20.71 -19.39)"/><path class="cls-2" d="M147.83,48.64c-.06-.2-.2-.32-.66-.52l-2.1-.82c-.14-.14-.2-.11-.2-.25s.08-.23.28-.23l8.42-.09a.29.29,0,0,1,.32.29c0,.14-.06.2-.23.25l-2.25.85c-.6.23-.68.29-.71.71v1c0,.68,0,1.22,0,1.7v1.42l.06,6.22c0,.73,0,1.36,0,1.9,0,.85,0,1.33,0,1.47,0,.83.05,1.08.14,1.2s.28.17.71.17l3,0h.09c1.31,0,1.56-.16,1.93-.82l1.11-2.1a.36.36,0,0,1,.29-.17c.17,0,.22.09.22.29L158.12,65a.65.65,0,0,1-.68.71H145.38c-.2,0-.31-.09-.31-.23s.08-.17.23-.22l2-.83a1.09,1.09,0,0,0,.56-.34c.15-.23.15-.39.17-1.59v-3.4l-.08-6V51.33A25.48,25.48,0,0,0,147.83,48.64Z" transform="translate(-20.71 -19.39)"/><path class="cls-2" d="M160.7,56.36a9.06,9.06,0,0,1,3.7-7.58,12.21,12.21,0,0,1,7.25-2.39,9.93,9.93,0,0,1,10.3,10c0,5.67-4.67,10-10.78,10S160.7,62.15,160.7,56.36Zm2.82-.34a8.19,8.19,0,0,0,8.07,8.42,7.48,7.48,0,0,0,7.54-7.72,8.08,8.08,0,0,0-7.91-8.4A7.56,7.56,0,0,0,163.52,56Z" transform="translate(-20.71 -19.39)"/><path class="cls-2" d="M189.71,63.71a1.46,1.46,0,0,0,.66.36l2.13.74a.3.3,0,0,1,.2.29c0,.17-.14.28-.34.28h-8.22c-.2,0-.31-.08-.31-.23s.08-.17.22-.22l2.22-.94c.43-.17.46-.2.51-.31a.42.42,0,0,0,.09-.29c0-.2,0-.51,0-1l0-1.33V59.22l-.06-7.75,0-1,0-1.19a5.24,5.24,0,0,0,0-.85.57.57,0,0,0-.08-.34,1.22,1.22,0,0,0-.57-.28L184.05,47a.25.25,0,0,1-.2-.26c0-.17.12-.28.32-.28l6.74-.09c2.22,0,3.44.32,4.55,1.14a5.23,5.23,0,0,1,2,4.2c0,2.53-1.8,4.51-4.67,5.14l4.72,5.08c1.65,1.76,2.48,2.38,3.73,2.84.54.19.65.28.65.54s-.28.45-1.22.45a7.4,7.4,0,0,1-2.79-.45c-.82-.4-1.33-.86-3-2.67l-5.2-5.54-.15,0,.06,5.87C189.63,63.54,189.63,63.59,189.71,63.71Zm5-12.15a3.51,3.51,0,0,0-3.67-3.46c-1.34,0-1.54.14-1.54,1v6.24h.63C193,55.33,194.72,53.94,194.72,51.56Z" transform="translate(-20.71 -19.39)"/><path class="cls-2" d="M207.69,63.62c0-.25,0-.51.05-.74s0-.65,0-1.53c0-1.11,0-1.76,0-2l0-6.1c0-1.82-.06-3.63-.11-4.46-.06-.48-.14-.56-.74-.79l-2.08-.82c-.14-.12-.2-.12-.2-.23s.09-.23.32-.23h4.77l1.37,0,1.45,0a7.13,7.13,0,0,1,.8,0,14.4,14.4,0,0,1,5.43.76,9.35,9.35,0,0,1,5.89,8.63A9.74,9.74,0,0,1,218,65.21a10.81,10.81,0,0,1-4,.54h-1.48l-1.57-.06-1.59,0h-4.07c-.2,0-.31-.08-.31-.25a.32.32,0,0,1,.2-.28l1.7-.63C207.57,64.22,207.66,64.13,207.69,63.62Zm6,.4c4.8,0,8.27-3.21,8.27-7.66s-3.49-7.87-8.33-7.87c-2.56,0-3.21.32-3.21,1.39l.08,13C210.5,63.79,211.07,64,213.69,64Z" transform="translate(-20.71 -19.39)"/><path class="cls-2" d="M246.63,63.74c.09.17.2.26.63.43l2.19.85c.17.11.23.11.23.23s-.12.22-.32.22h-8.53c-.23,0-.34-.08-.34-.22s.09-.17.23-.23l2.39-.94c.42-.14.51-.2.57-.34a.81.81,0,0,0,.08-.34c0-.06,0-.31,0-.74l0-.88,0-13.45h-3.47c-.77,0-.91.09-1.11.63l-1.14,2.86c-.06.2-.11.2-.23.2s-.23-.11-.23-.28l-.08-5.68c0-.23.11-.37.26-.37a.21.21,0,0,1,.17.06l.19.11.29.28c.34.26,1.05.32,3.21.32l6.8,0c2.19,0,2.7-.09,3.44-.63l.2-.14s.09,0,.17,0,.26.09.26.37l0,5.71c0,.19-.06.28-.23.28s-.17-.06-.23-.2l-1.08-2.61c-.34-.77-.51-.85-1.85-.88l-2.76-.06,0,13.17A12.18,12.18,0,0,0,246.63,63.74Z" transform="translate(-20.71 -19.39)"/><path class="cls-2" d="M261.59,54.77c.6,0,1.46.06,2.05.06,2.05,0,2.39-.11,2.85-.79l.57-.91c.11-.2.14-.2.22-.2s.2.11.2.31l0,5.88c0,.19-.09.28-.23.28s-.17-.06-.22-.2l-.72-1.56c-.39-.88-.48-1-1.19-1a4.46,4.46,0,0,1-.46,0c-.14,0-.65,0-1.45,0h-2v4.82c0,1.48.06,2,.26,2.08a15.88,15.88,0,0,0,3.33.17c2.53,0,2.81-.12,3.3-1.22l.71-1.56c.06-.2.11-.2.23-.2s.25.08.25.28l-.08,3c0,1.3-.17,1.5-1.25,1.5H255.76c-.22,0-.31-.08-.31-.22s.06-.17.2-.26l1.54-.54c1.11-.42,1.33-.62,1.33-1.28l0-1.27V60.22l0-2.27V54.4l-.06-2.12,0-2.25c-.05-1.56-.05-1.73-.17-1.9a.61.61,0,0,0-.28-.23,5.16,5.16,0,0,0-.83-.34L255.62,47c-.14-.12-.2-.12-.2-.23s.09-.25.49-.25a2.75,2.75,0,0,1,.39,0H258l2.08,0c1.68,0,3.84,0,5.83-.17,1.25,0,1.62-.08,2.65-.2l.05,4.72c0,.19-.08.31-.22.31s-.18-.06-.23-.2l-.57-1.42a2.17,2.17,0,0,0-.83-1.11c-.37-.2-.88-.22-3.27-.22h-2.27l.05,6.52Z" transform="translate(-20.71 -19.39)"/><path class="cls-2" d="M287.25,62.72c.62,1,.82,1.25,1.53,1.53l1.77.68a.27.27,0,0,1,.22.29c0,.17-.11.25-.34.25h-7.7c-.26,0-.4-.08-.4-.25s.08-.23.25-.29l1.51-.65c.37-.14.51-.28.51-.45a1.08,1.08,0,0,0-.17-.51l-3.18-5.43-3.19,5.57c-.14.23-.17.31-.17.39s.14.23.43.37l1.59.71c.17.06.26.15.26.29s-.15.25-.37.25h-7.43c-.2,0-.31-.08-.31-.25a.28.28,0,0,1,.23-.29l1.93-.79c.91-.37,1.28-.77,2.5-2.81L280,55.85l-2.67-4.45c-1.08-1.85-1.82-3-2-3.13a3.43,3.43,0,0,0-.94-.51l-2-.74c-.17-.08-.26-.17-.26-.28s.15-.28.37-.28l7.91,0c.23,0,.34.08.34.25s-.06.2-.23.28l-1.45.66c-.37.17-.48.25-.48.45s.06.23.28.63l.4.71,2.25,3.91,2.3-4c.34-.65.69-1.28.69-1.36s-.06-.2-.35-.32L282.61,47c-.17-.08-.25-.17-.25-.28s.11-.25.37-.25l7.59-.06c.23,0,.34.08.34.28s-.08.2-.26.26l-2.27.85a2,2,0,0,0-1.28,1l-4,6.56,4,6.58Z" transform="translate(-20.71 -19.39)"/><path class="cls-2" d="M300.88,58l-1.76,4.77-.2.62a.62.62,0,0,0-.05.28c0,.17.05.17.14.2l.42.23,1.74.77c.17.08.23.17.23.28s-.12.28-.34.28h-7.12a.3.3,0,0,1-.34-.28c0-.11.09-.2.26-.28l1.62-.74c.68-.32.74-.37,1-.85l.4-.91.45-1.11,3.7-9.45a52.92,52.92,0,0,0,1.79-5.25l.11-.4H305l.09.31a34.79,34.79,0,0,0,1.42,4.21l3.58,9c.68,1.73,1.42,3.41,1.68,3.92.17.31.23.34.85.62l1.48.66c.17.08.23.17.23.28s-.11.28-.34.28h-7.51c-.26,0-.37-.11-.37-.28s.06-.2.23-.28l1.73-.69c.54-.19.6-.28.6-.51a3.64,3.64,0,0,0-.2-.85l-1.85-4.79c-1.28-.09-2.22-.12-2.87-.12S302.17,58,300.88,58Zm.74-2c1.2.06,1.8.08,2.39.08.43,0,1.06,0,1.85,0l-2.16-5.39Z" transform="translate(-20.71 -19.39)"/><path class="cls-2" d="M322.5,52.3v1.45l.06,6.93v1.13c0,1.17,0,1.39.08,1.51s.23.2.6.34l2.28.9a.33.33,0,0,1,.2.26c0,.17-.12.26-.32.26h-7.93c-.23,0-.31-.09-.31-.26s0-.17.19-.23l1.94-.85c.71-.31.82-.45.85-1.05l.06-1.33c0-.23,0-.8,0-1.71l0-1.76,0-5.47c0-1.76-.08-4.77-.17-6.25l0-.36h2.07a10,10,0,0,0,1,1.19l.91,1.1,1.16,1.31,6.6,7.12L333,57.75l1.14,1.2,1.19,1.24.46.52v-3l-.06-8.4,0-.88c0-.51-.11-.6-.71-.85l-2.33-.91a.27.27,0,0,1-.2-.26c0-.14.08-.23.31-.23h8c.2,0,.32.09.32.23s-.06.17-.2.23l-2.11,1c-.6.29-.65.34-.65.83l0,.82L338,58.49v.26c0,.31,0,1.08,0,2.24s0,1.87.06,2.21l.06,1.88,0,.39h-2l-.34-.37-1-1.1-1-1.19-1.25-1.45-7.31-8-.74-.82c-.6-.65-1.59-1.68-2.05-2.13l0,.57Z" transform="translate(-20.71 -19.39)"/><path class="cls-2" d="M348.61,46.71a2.83,2.83,0,1,1-2.82-2.79A2.81,2.81,0,0,1,348.61,46.71Zm-5.06,0a2.23,2.23,0,1,0,2.24-2.22A2.23,2.23,0,0,0,343.55,46.71ZM346,45.29c.68,0,1.05.28,1.05.81a.67.67,0,0,1-.26.55l-.07.11s0,.06.12.14.17.35.2.78a1,1,0,0,1,0,.14,1.27,1.27,0,0,1,0,.14s0,0,0,.1h-.59a.65.65,0,0,1-.1-.42c0-.57-.13-.67-.61-.67h-.52v1.09h-.62V45.29Zm-.7,1.23h.54c.42,0,.6-.12.6-.38s-.16-.36-.55-.36h-.59Z" transform="translate(-20.71 -19.39)"/></svg>