<svg xmlns="http://www.w3.org/2000/svg" width="45" height="45" viewBox="0 0 45 45"><defs><style>.a,.d{fill:none;}.a{stroke:#00204c;stroke-width:2px;}.b{fill:#00204c;}.c{stroke:none;}</style></defs><g transform="translate(-197 -5115)"><g class="a" transform="translate(197 5115)"><circle class="c" cx="22.5" cy="22.5" r="22.5"/><circle class="d" cx="22.5" cy="22.5" r="21.5"/></g><path class="b" d="M.126-26.25H-8.631a5.168,5.168,0,0,0-3.789,1.58A5.168,5.168,0,0,0-14-20.881v8.758a5.168,5.168,0,0,0,1.58,3.789,5.168,5.168,0,0,0,3.789,1.58H.126a5.168,5.168,0,0,0,3.789-1.58A5.168,5.168,0,0,0,5.5-12.124v-8.758a5.168,5.168,0,0,0-1.58-3.789A5.168,5.168,0,0,0,.126-26.25ZM3.782-12.124A3.513,3.513,0,0,1,2.7-9.553,3.513,3.513,0,0,1,.126-8.468H-8.631A3.513,3.513,0,0,1-11.2-9.553a3.513,3.513,0,0,1-1.085-2.57v-8.758a3.513,3.513,0,0,1,1.085-2.57,3.513,3.513,0,0,1,2.57-1.085H.126A3.513,3.513,0,0,1,2.7-23.451a3.513,3.513,0,0,1,1.085,2.57Zm-8.034-9.4a4.847,4.847,0,0,0-3.56,1.466A4.847,4.847,0,0,0-9.279-16.5a4.847,4.847,0,0,0,1.466,3.56,4.847,4.847,0,0,0,3.56,1.466,4.847,4.847,0,0,0,3.56-1.466A4.847,4.847,0,0,0,.774-16.5a4.847,4.847,0,0,0-1.466-3.56A4.847,4.847,0,0,0-4.252-21.529Zm0,8.3a3.224,3.224,0,0,1-2.342-.952A3.129,3.129,0,0,1-7.565-16.5a3.191,3.191,0,0,1,.971-2.342,3.191,3.191,0,0,1,2.342-.971,3.191,3.191,0,0,1,2.342.971A3.191,3.191,0,0,1-.94-16.5a3.129,3.129,0,0,1-.971,2.323A3.224,3.224,0,0,1-4.252-13.228ZM.964-22.975a1.18,1.18,0,0,0-.457.1,1.735,1.735,0,0,0-.419.247,1.3,1.3,0,0,0-.286.419,1.274,1.274,0,0,0-.1.495,1.324,1.324,0,0,0,.1.476.925.925,0,0,0,.286.4,1.3,1.3,0,0,0,.419.286,1.18,1.18,0,0,0,.457.1,1.274,1.274,0,0,0,.495-.1,1.3,1.3,0,0,0,.419-.286.925.925,0,0,0,.286-.4,1.324,1.324,0,0,0,.1-.476,1.274,1.274,0,0,0-.1-.495,1.3,1.3,0,0,0-.286-.419,1.735,1.735,0,0,0-.419-.247A1.274,1.274,0,0,0,.964-22.975Z" transform="translate(224 5154.25)"/></g></svg>