<svg xmlns="http://www.w3.org/2000/svg" width="415.835" height="78.883" viewBox="0 0 415.835 78.883">
    <defs>
        <style>
            .cls-1{fill:#005596}.cls-3{fill:#8cb2d0}
        </style>
    </defs>
    <g id="Logo_Standard_Version" transform="translate(-85.464 -344.449)">
        <g id="Group_63" transform="translate(85.464 344.449)">
            <path id="Path_371" d="M85.464 391.836v-2.486c1.158-.207 2.271-.694 2.464-2.042v-38.333c-.193-1.347-1.306-1.834-2.464-2.042v-2.483h16.8v2.486c-1.194.208-2.543.444-2.543 2.145v38.872s7.925.65 10.812-8.908l2.915 1.088-3.18 11.7z" class="cls-1" transform="translate(-85.464 -344.449)"/>
            <path id="Path_372" d="M184.708 344.45h-9.554v2.486c1.207.116 2.6-.033 2.377 2.079l-4.243 23.193-3.758-23.193c-.215-2.013.919-1.963 2.126-2.079v-2.487h-24.7v2.484c1.158.207 2.31.537 2.179 2.033l-4.2 23.086-5.352-27.6H132.7l-4.928 27.966-4.082-23.109c-.066-1.97 1.691-2.255 2.9-2.371v-2.488h-17.15v2.484c1.158.207 2.271.694 2.464 2.042l8.986 42.859h7.885l5.088-22.113 3.574 22.111h9.07l8.123-43.124a1.882 1.882 0 0 1 3.68-.026l7.96 43.148h8.51l7.849-42.723c.265-2.161 2.8-2.176 2.8-2.176v-2.486h-4.689" class="cls-1" transform="translate(-87.069 -344.449)"/>
            <path id="Path_373" fill="#be0f34" d="M200.778 388.259a2.563 2.563 0 0 0 1.273-1.087c.264-.363.529.207.9.1.954-.569 2.173-.362 3.021-1.139a3.718 3.718 0 0 0 2.544-1.346l-1.378-.1c-.318-.207-.848-.518-.635-1.036.847-.207.954-1.088 1.749-1.346-6.73.673-13.09 2.589-19.555 3.625l-12.985 2.952-2.65.776c-.795.621-2.014.1-2.7.985-1.378-.468-1.961.829-3.181.724-.265-.108-.476.092-.662.3l-.874-.141v.361c-4.717 1.555-9.487 2.952-14.1 4.817a53.531 53.531 0 0 1-6.89 2.9c-2.438.519-4.4 2.382-7 2.693-3.339 1.346-6.307 3.367-9.752 4.351-1.378 1.449-3.5 1.191-4.876 2.641-2.067-.155-3.073 2.175-5.087 2.227a98.007 98.007 0 0 0-8.9 5.593c-.424.364-1.166.724-1.484 1.346.795.415.848 1.087 1.272 1.657-.318 1.4 1.961 1.555 1.112 2.953 2.438-.052-.423 2.744 2.279 2.225.531.883 2.068.571 2.809.26 2.544-1.244 4.663-3.419 7.367-4.352 1.485-.93 2.862-2.123 4.61-2.484 2.6-2.022 5.777-3.368 8.745-4.817.9-1.191 2.384-.88 3.339-1.864 2.385-1.4 5.247-1.761 7.632-3.262.795.362 1.008-.57 1.642-.622 4.4-1.554 8.48-3.781 13.091-4.816 3.763-1.813 7.95-2.486 11.712-4.247 1.8-.518 3.551-.983 5.352-1.5 1.591-.156 3.392-1.087 5.088-1.087.742-.622 1.8-.364 2.65-.622l2.438-.622.105-.258c3.074-.776 6.678-.932 9.7-2.227h-1.8a2.714 2.714 0 0 1 1.8-.881c2.6-.052 4.822-1.241 7.207-1.863l-6.571.466-.425-.362c1.113-.829 2.7-.414 3.976-.881.9-.984 2.066-.31 2.914-1.243-1.643.829-3.71.518-5.617.776l-.213-.258c.16-.471.637-.161 1.008-.265zm6.789-.083c-.592.049-.7.031-1.06.277a.943.943 0 0 0-.421.546 10.346 10.346 0 0 0 2.793-.742 5.96 5.96 0 0 0-1.312-.081z" transform="translate(-86.943 -346.983)"/>
        </g>
        <path id="Path_374" d="M206.888 366.2v-15.89h2.523v13.748h7.47v2.14z" class="cls-1" transform="translate(-8.127 -0.392)"/>
        <path id="Path_375" d="M219.5 366.2v-15.89h10v2.14h-7.47v4.309h6.15v2.141h-6.15v5.16h7.47v2.14z" class="cls-1" transform="translate(-8.971 -0.392)"/>
        <path id="Path_376" d="M245.092 366.2l-1.9-4.333h-6.7l-1.9 4.333h-2.508l6.991-15.888h1.64l6.992 15.888zm-2.792-6.422l-2.458-5.649-2.459 5.649z" class="cls-1" transform="translate(-9.813 -0.392)"/>
        <path id="Path_377" d="M257.018 366.613a8.228 8.228 0 0 1-8.625-8.383c0-4.8 3.628-8.279 8.625-8.279a10.009 10.009 0 0 1 5.613 1.666l.083.062v2.7a8.793 8.793 0 0 0-5.7-2.286A5.758 5.758 0 0 0 251 358.23a5.87 5.87 0 0 0 6.023 6.242 8.368 8.368 0 0 0 3.833-.818v-3.181h-3.246v-2.14h5.769v6.585l-.127.053c-.116.048-.257.111-.423.187a13.923 13.923 0 0 1-5.811 1.455z" class="cls-1" transform="translate(-10.904 -0.368)"/>
        <path id="Path_378" d="M274.459 366.519c-4.558 0-7.068-2.767-7.068-7.788v-8.538h2.574v8.562c0 3.629 1.572 5.547 4.547 5.547s4.544-1.918 4.544-5.547v-8.562h2.471v8.538c0 5.021-2.511 7.788-7.068 7.788z" class="cls-1" transform="translate(-12.176 -0.384)"/>
        <path id="Path_379" d="M285.644 366.2v-15.89h9.992v2.14h-7.47v4.309h6.151v2.141h-6.151v5.16h7.47v2.14z" class="cls-1" transform="translate(-13.398 -0.392)"/>
        <path id="Path_380" d="M310.236 366.858a6.625 6.625 0 1 1 6.793-6.623 6.5 6.5 0 0 1-6.793 6.623zm0-11.478a4.565 4.565 0 0 0-4.683 4.855 4.676 4.676 0 1 0 9.345 0 4.556 4.556 0 0 0-4.662-4.855z" class="cls-1" transform="translate(-14.588 -0.613)"/>
        <path id="Path_381" d="M319.981 366.538v-12.556h7.931v1.768h-5.861v3.293h4.826v1.767h-4.826v5.729z" class="cls-1" transform="translate(-15.696 -0.638)"/>
        <g id="Group_64" transform="translate(316.737 349.766)">
            <path id="Path_382" d="M392.731 366.5v-10.924l-5.1 10.924h-1.686s-5.06-10.807-5.1-10.9v10.9h-2.336v-15.88h2.391l5.991 12.568 5.99-12.568h2.288v15.88z" class="cls-1" transform="translate(-336.35 -350.178)"/>
            <path id="Path_383" d="M366.042 366.9c-5 0-8.622-3.523-8.622-8.378a8.612 8.612 0 1 1 8.622 8.378zm0-14.617a5.867 5.867 0 0 0-6.02 6.239 6.011 6.011 0 1 0 12.014 0c0-3.67-2.466-6.235-5.994-6.235z" class="cls-1" transform="translate(-334.939 -350.147)"/>
            <path id="Path_384" d="M348.272 366.5l-3.866-10.941-3.864 10.941h-1.61l-5.606-15.88h2.6l3.883 11.7 3.84-11.7h1.617l3.836 11.69c.014-.049 3.886-11.69 3.886-11.69h2.5l-5.606 15.88z" class="cls-1" transform="translate(-333.326 -350.178)"/>
            <path id="Path_385" d="M399.828 366.5v-15.88h9.988v2.139h-7.466v4.307h6.15v2.134h-6.15v5.157h7.466v2.143z" class="cls-1" transform="translate(-337.777 -350.178)"/>
            <path id="Path_386" d="M424.907 366.5l-9.115-11.153V366.5h-2.337v-15.88h1.517l9.116 11.155v-11.158h2.337V366.5z" class="cls-1" transform="translate(-338.689 -350.178)"/>
            <path id="Path_387" d="M440.992 366.5l-6.987-15.88h2.612l5.248 12.015 5.248-12.015h2.507l-6.987 15.88z" class="cls-1" transform="translate(-340.064 -350.178)"/>
            <path id="Path_388" d="M459.255 366.9a8.381 8.381 0 1 1 8.6-8.378 8.223 8.223 0 0 1-8.6 8.378zm0-14.617a5.867 5.867 0 0 0-6.02 6.239 6.011 6.011 0 1 0 12.014 0c0-3.67-2.465-6.235-5.994-6.235z" class="cls-1" transform="translate(-341.177 -350.147)"/>
            <path id="Path_389" d="M474.63 366.5v-13.744h-5.62v-2.139h13.76v2.139h-5.619V366.5z" class="cls-1" transform="translate(-342.407 -350.178)"/>
            <path id="Path_390" d="M485.832 366.5v-15.88h9.989v2.139h-7.466v4.307h6.145v2.134h-6.146v5.157h7.466v2.143z" class="cls-1" transform="translate(-343.533 -350.178)"/>
            <path id="Path_391" d="M509.746 366.678a5.073 5.073 0 0 1-4.584-2.992l-2.026-3.582h-1.969v6.396h-2.524v-15.88h5.43c3.367 0 5.376 1.774 5.376 4.744a4.373 4.373 0 0 1-3.7 4.563l1.743 2.884c.973 1.614 1.8 1.938 2.8 1.938a3.96 3.96 0 0 0 1.1-.159v1.864a5.727 5.727 0 0 1-1.646.224zm-5.672-8.713c2.381 0 2.88-1.416 2.88-2.6s-.5-2.6-2.88-2.6h-2.907v5.208z" class="cls-1" transform="translate(-344.39 -350.178)"/>
            <path id="Path_392" d="M518.941 366.809a7.56 7.56 0 0 1-5.423-1.943l-.081-.083.594-2.384a6.576 6.576 0 0 0 4.91 2.322c1.865 0 3.118-1.006 3.118-2.5 0-1.352-.572-2.234-3.592-3.024-2.982-.774-4.56-2.4-4.56-4.71 0-2.489 2.179-4.227 5.3-4.227a7.125 7.125 0 0 1 4.535 1.5l-.591 2.087a7.349 7.349 0 0 0-3.944-1.5c-1.82 0-2.907.8-2.907 2.141 0 .788.345 1.782 3.039 2.483 3.535.911 5.112 2.474 5.112 5.071-.002 3.275-2.857 4.767-5.51 4.767z" class="cls-1" transform="translate(-345.38 -350.155)"/>
        </g>
        <g id="Group_65" transform="translate(497.042 349.863)">
            <path id="Path_393" d="M528.689 354.4a2.076 2.076 0 1 1 2.132-2.075 2.1 2.1 0 0 1-2.132 2.075zm0-3.881a1.806 1.806 0 1 0 1.856 1.805 1.828 1.828 0 0 0-1.856-1.803zm.523 3.018l-.588-.952h-.239v.952h-.653v-2.462h1.122c.616 0 .873.36.873.755a.692.692 0 0 1-.469.683l.717 1.024zm-.827-2.048v.682h.313c.258 0 .377-.116.377-.332s-.119-.35-.377-.35z" class="cls-1" transform="translate(-526.564 -350.251)"/>
        </g>
        <g id="Group_66" transform="translate(222.271 371.161)">
            <path id="Path_394" d="M232.084 381.409a8.372 8.372 0 1 1 8.384 8.332 8.092 8.092 0 0 1-8.384-8.332zm14.561 0c0-3.838-2.575-6.571-6.177-6.571-3.627 0-6.2 2.733-6.2 6.571 0 3.811 2.575 6.572 6.2 6.572 3.601 0 6.177-2.761 6.177-6.572z" class="cls-3" transform="translate(-232.084 -373.077)"/>
            <path id="Path_395" d="M252.3 373.556h9.541v1.762h-7.438v4.81h6.125v1.761h-6.125v7.438h-2.1z" class="cls-3" transform="translate(-233.437 -373.109)"/>
            <path id="Path_396" d="M272.236 375.318h-5.6v-1.762h13.3v1.762h-5.6v14.009h-2.1z" class="cls-3" transform="translate(-234.397 -373.109)"/>
            <path id="Path_397" d="M282.436 373.556h2.1v6.572h8.7v-6.572h2.1v15.771h-2.1v-7.438h-8.7v7.438h-2.1z" class="cls-3" transform="translate(-235.454 -373.109)"/>
            <path id="Path_398" d="M299.362 373.556h9.538v1.762h-7.438v4.81h6.125v1.761h-6.125v5.678h7.438v1.761h-9.541z" class="cls-3" transform="translate(-236.587 -373.109)"/>
            <path id="Path_399" d="M316.286 382.046v-8.49h2.155v8.516c0 4.075 1.84 5.862 4.731 5.862s4.732-1.787 4.732-5.862v-8.516h2.05v8.49c0 5.336-2.76 7.728-6.834 7.728s-6.834-2.392-6.834-7.728z" class="cls-3" transform="translate(-237.719 -373.109)"/>
            <path id="Path_400" d="M334.029 373.556h1.208l9.384 11.749v-11.749h1.918v15.771h-1.209l-9.383-11.749v11.749h-1.918z" class="cls-3" transform="translate(-238.907 -373.109)"/>
            <path id="Path_401" d="M350.531 373.556h2.1v15.771h-2.1z" class="cls-3" transform="translate(-240.011 -373.109)"/>
            <path id="Path_402" d="M359.9 375.318h-5.6v-1.762h13.3v1.762H362v14.009h-2.1z" class="cls-3" transform="translate(-240.264 -373.109)"/>
            <path id="Path_403" d="M370.1 373.556h9.542v1.762h-7.439v4.81h6.125v1.761h-6.125v5.678h7.439v1.761H370.1z" class="cls-3" transform="translate(-241.321 -373.109)"/>
            <path id="Path_404" d="M382.888 373.556h4.889c6.124 0 8.779 3.549 8.779 7.885s-2.655 7.885-8.779 7.885h-4.889zm4.915 13.931c5.124 0 6.571-2.892 6.571-6.045s-1.446-6.044-6.571-6.044h-2.813v12.09z" class="cls-3" transform="translate(-242.177 -373.109)"/>
            <path id="Path_405" d="M403.08 387.725l.473-1.945a6.429 6.429 0 0 0 4.783 2.155c1.866 0 3.312-1.051 3.312-2.759 0-1.6-.789-2.5-3.732-3.286-2.97-.788-4.389-2.391-4.389-4.6 0-2.234 1.839-4.1 5.073-4.1a7.093 7.093 0 0 1 4.284 1.393l-.473 1.708a7.032 7.032 0 0 0-3.811-1.391c-1.972 0-3.1.919-3.1 2.391 0 1.131.709 2.077 3.18 2.734 3.39.894 4.942 2.366 4.942 4.968 0 3.075-2.577 4.652-5.284 4.652a7.386 7.386 0 0 1-5.258-1.92z" class="cls-3" transform="translate(-243.528 -373.085)"/>
            <path id="Path_406" d="M420.112 375.318h-5.6v-1.762h13.3v1.762h-5.6v14.009h-2.1z" class="cls-3" transform="translate(-244.294 -373.109)"/>
            <path id="Path_407" d="M433.208 373.556h1.367l6.781 15.771H439.2l-1.892-4.415h-6.939l-1.893 4.415h-2.05zm3.39 9.646l-2.759-6.491-2.76 6.491z" class="cls-3" transform="translate(-245.091 -373.109)"/>
            <path id="Path_408" d="M445.655 375.318h-5.6v-1.762h13.3v1.762h-5.6v14.009h-2.1z" class="cls-3" transform="translate(-246.003 -373.109)"/>
            <path id="Path_409" d="M455.855 373.556h9.545v1.762h-7.439v4.81h6.125v1.761h-6.125v5.678h7.439v1.761h-9.542z" class="cls-3" transform="translate(-247.06 -373.109)"/>
            <path id="Path_410" d="M467.768 387.725l.473-1.945a6.429 6.429 0 0 0 4.783 2.155c1.866 0 3.311-1.051 3.311-2.759 0-1.6-.788-2.5-3.731-3.286-2.97-.788-4.39-2.391-4.39-4.6 0-2.234 1.84-4.1 5.073-4.1a7.1 7.1 0 0 1 4.285 1.393l-.473 1.708a7.035 7.035 0 0 0-3.812-1.392c-1.971 0-3.1.919-3.1 2.391 0 1.131.709 2.077 3.181 2.734 3.39.894 4.941 2.366 4.941 4.968 0 3.075-2.576 4.652-5.283 4.652a7.386 7.386 0 0 1-5.258-1.919z" class="cls-3" transform="translate(-247.858 -373.085)"/>
        </g>
    </g>
</svg>
