<?xml version="1.0" encoding="utf-8"?>
<!-- Generator: Adobe Illustrator 25.1.0, SVG Export Plug-In . SVG Version: 6.00 Build 0)  -->
<svg version="1.1" id="Layer_1" xmlns="http://www.w3.org/2000/svg" xmlns:xlink="http://www.w3.org/1999/xlink" x="0px" y="0px"
	 viewBox="0 0 1020.2 32.2" style="enable-background:new 0 0 1020.2 32.2;" xml:space="preserve">
<style type="text/css">
	.st0{fill:#FCFCFC;}
	.st1{fill:#FFFFFF;}
	.st2{fill:#CD9834;}
</style>
<rect y="12.9" class="st0" width="425.1" height="3.8"/>
<rect x="595.1" y="12.9" class="st1" width="425.1" height="3.8"/>
<path class="st2" d="M461,31.8V0.4h10.2c1.7-0.1,3.3,0.2,4.9,0.7c3.8,1.5,6.3,5.2,6.1,9.3c0.1,4.1-2.3,7.8-6.1,9.2
	c-1.5,0.5-3.1,0.7-4.7,0.7h-4.3v11.5C467.1,31.8,461,31.8,461,31.8z M471.1,14.5c1,0.1,2-0.1,2.9-0.6c2-1.1,2.6-3.6,1.5-5.6
	c-0.4-0.6-0.9-1.2-1.5-1.5c-0.9-0.5-1.9-0.6-2.9-0.5h-4v8.2C467.1,14.5,471.1,14.5,471.1,14.5z"/>
<path class="st2" d="M488,31.8V0.4h6.1v25.5h13.1v5.9H488z"/>
<path class="st2" d="M521.5,32.2c-4.1,0.1-7.9-2.3-9.5-6.1c-0.6-1.5-0.8-3.2-0.8-4.8V0.4h6.1v20.8c-0.1,1,0.1,2,0.5,3
	c0.7,1.4,2.2,2.3,3.8,2.2h0.4c1.6,0.1,3.1-0.8,3.8-2.2c0.4-1,0.5-2,0.5-3V0.4h6.1v20.8c0.1,1.6-0.2,3.3-0.8,4.8
	c-1.6,3.8-5.4,6.2-9.5,6.1h-0.6V32.2z"/>
<path class="st2" d="M552.9,9.9c0.2-2.2-1.5-4.1-3.7-4.3l0,0c-0.2,0-0.4,0-0.7,0c-2.5,0-3.8,1.3-3.8,3c0,1.9,1.3,2.9,3.3,3.6
	l2.7,0.9c4.9,1.7,8.5,4.5,8.5,9.7c0,5.6-4.4,9.3-10.5,9.3c-6.9,0-10.8-4.2-11-10.2h6c0,2.6,2.2,4.6,4.7,4.6l0,0h0.1
	c2.5,0,4.5-1.3,4.5-3.6c0-2.1-1.9-3.3-4.1-4.1l-2.6-1c-4.3-1.6-7.7-3.6-7.7-9.3c0-5.5,4.5-8.7,10.1-8.7c5.8,0,10.4,3,10.1,9.9
	L552.9,9.9z"/>
</svg>
