<svg id="Layer_1" data-name="Layer 1" xmlns="http://www.w3.org/2000/svg" viewBox="0 0 1020.21 32.22"><defs><style>.cls-1{fill:#fff;}.cls-2{fill:#b5842d;}</style></defs><title>Artboard 1</title><rect class="cls-1" y="10.65" width="425.07" height="8.45"/><rect class="cls-1" x="595.14" y="10.65" width="425.07" height="8.45"/><path class="cls-2" d="M461,31.78V.4h10.17a14.5,14.5,0,0,1,4.94.71,9.5,9.5,0,0,1,6.1,9.29,9.5,9.5,0,0,1-6.1,9.2,13.55,13.55,0,0,1-4.73.67h-4.27V31.78Zm10.1-17.32a5.69,5.69,0,0,0,2.93-.55,4.09,4.09,0,0,0,0-7.11,5.4,5.4,0,0,0-2.93-.54h-4v8.2Z"/><path class="cls-2" d="M488,31.78V.4h6.11V25.92h13.13v5.86Z"/><path class="cls-2" d="M521.55,32.19A10.12,10.12,0,0,1,512,26.05a13.16,13.16,0,0,1-.76-4.82V.4h6.11V21.15a6.69,6.69,0,0,0,.46,3,4,4,0,0,0,3.77,2.22H522a4,4,0,0,0,3.76-2.22,7.32,7.32,0,0,0,.46-3V.4h6.11V21.23a12.22,12.22,0,0,1-.8,4.82A10.13,10.13,0,0,1,522,32.19Z"/><path class="cls-2" d="M552.88,9.86a4,4,0,0,0-3.7-4.28,4.68,4.68,0,0,0-.65,0c-2.51,0-3.77,1.3-3.77,3,0,1.88,1.26,2.93,3.26,3.64l2.68.92c4.9,1.67,8.54,4.48,8.54,9.75,0,5.56-4.44,9.28-10.46,9.28-6.9,0-10.79-4.22-11-10.16h6a4.67,4.67,0,0,0,4.74,4.6h.07c2.55,0,4.48-1.3,4.48-3.64,0-2.09-1.93-3.3-4.1-4.1l-2.64-1c-4.31-1.59-7.74-3.56-7.74-9.29,0-5.48,4.52-8.66,10.13-8.66,5.85,0,10.37,3,10.08,9.88Z"/></svg>