<?xml version="1.0" encoding="utf-8"?>
<!-- Generator: Adobe Illustrator 19.2.1, SVG Export Plug-In . SVG Version: 6.00 Build 0)  -->
<svg version="1.1" id="Layer_1" xmlns="http://www.w3.org/2000/svg" xmlns:xlink="http://www.w3.org/1999/xlink" x="0px" y="0px"
	 width="44px" height="44px" viewBox="0 0 44 44" style="enable-background:new 0 0 44 44;" xml:space="preserve">
<style type="text/css">
	.st0{fill:#808080;}
	.st1{fill:#808080;stroke:#FFFFFF;stroke-miterlimit:10;}
</style>
<g>
	<g>
		<path class="st0" d="M24.6,2.2C13.9,2.2,5.2,11,5.2,21.7c0,10.7,8.7,19.4,19.4,19.4c10.7,0,19.4-8.7,19.4-19.4
			C44.1,11,35.4,2.2,24.6,2.2z M29.4,36l1.1-6.5c-1.6,1.2-3.7,2-5.9,2c-2.2,0-4.3-0.7-5.9-2l1.1,6.5c-5.7-1.9-10-7.2-10.3-13.5
			l5.7,2.2c-0.3-0.9-0.5-1.9-0.5-3c0-2.5,0.9-4.8,2.4-6.5H11c2.4-5.1,7.6-8.6,13.7-8.6c6,0,11.2,3.5,13.7,8.6H32
			c1.5,1.7,2.4,4,2.4,6.5c0,1-0.2,2-0.5,3l5.7-2.1C39.4,28.8,35.2,34.1,29.4,36z"/>
	</g>
	<circle class="st0" cx="24.7" cy="21.9" r="8.4"/>
	<g>
		<g>
			<path class="st1" d="M19.4,25.8C14,26.7,8.6,27.5,3.2,28.3c1.3,1.1,2.7,2.2,4,3.3c-2.3,1.4-4.6,2.9-6.8,4.3
				c0.6,0.9,1.1,1.8,1.6,2.6c2.3-1.4,4.5-2.8,6.8-4.3c0.4,1.7,0.8,3.4,1.3,5.1L19.4,25.8z"/>
		</g>
	</g>
</g>
</svg>
