<svg xmlns="http://www.w3.org/2000/svg" viewBox="0 0 180 59" enable-background="new 0 0 180 59"><path d="m175.39 42.954c0-1.266 1.031-2.303 2.309-2.303 1.266 0 2.303 1.037 2.303 2.303 0 1.272-1.037 2.309-2.303 2.309-1.279 0-2.309-1.037-2.309-2.309m4.177 0c0-1.036-.832-1.868-1.869-1.868-1.043 0-1.875.832-1.875 1.868 0 1.043.832 1.875 1.875 1.875 1.038 0 1.869-.832 1.869-1.875zm-.723 1.254h-.567l-.554-1.049h-.488v1.049h-.489v-2.484h1.206c.21 0 .488.006.675.114.223.145.289.386.289.645 0 .458-.235.645-.675.676l.603 1.049m-.88-1.423c.277.006.47-.06.47-.374 0-.331-.356-.331-.596-.331h-.603v.705h.729"/><g fill="#009641"><path d="m172.86 48.808v1.982c-.162-.523-.611-1.055-1.125-1.274-.567-.198-1.257-.154-1.868-.088l-.014 3.82c.862.074 1.697-.022 2.229-.739l.197-.325v2.676c-.128-.439-.549-.91-1-1.042-.444-.092-.928-.087-1.411-.083l-.014 3.973c.756.18 1.733.185 2.426-.123.523-.303 1.01-.839 1.161-1.406-.066.796-.224 1.556-.462 2.281h-5.537c.848-.72.523-1.925.641-2.945.022-1.977.136-4.078-.18-5.959 0-.242-.228-.391-.316-.603l2.637-.167c.875-.039 1.772-.017 2.638.022"/><path d="m70.24 51.03c-.246-.65-.896-1.294-1.635-1.334-.224-.018-.44-.062-.677-.044v6.116c.066.923-.255 2.061.518 2.69h-3.081c.532-.198.68-.774.69-1.288v-2.887l-.013-4.633c-.87-.013-1.714.234-2.205 1.025-.11.158-.207.32-.273.497.062-.774.093-1.556.198-2.312l2.808.061c1.248 0 2.453-.022 3.67-.106v2.215"/><path d="m12.941 56.32c.061.748.046 1.535.424 2.15h-2.668c.29-.567.381-1.244.416-1.908v-5.476c-.026-.774-.011-1.569-.513-2.149h2.778c-.541.989-.371 2.272-.437 3.459v.776h3.229c.044-1.01.018-1.984 0-2.982-.057-.444-.163-.914-.419-1.253h2.699c-.158.233-.171.527-.233.8l-.086.875v6.29c.031.562.113 1.107.381 1.569h-2.699c.299-.352.331-.809.357-1.275v-3.318h-3.229v2.442"/><path d="m42.86 51.31l1.424 2.479 1.173 1.907.04.061v-.07l.052-3.652c-.004-.756-.013-1.516-.114-2.237-.075-.347-.413-.585-.655-.861h2.215c-.725.817-.452 2.075-.558 3.121l-.061 4.04.018 2.373h-1.674l-4.092-7.151-.035-.053v2.501l.088 2.488c.07.576-.005 1.213.303 1.687.114.189.325.334.422.527-.799-.048-1.652-.04-2.457-.009.963-.681.646-1.947.8-2.984.052-1.692.052-3.402-.04-5.077.005-.492-.163-.91-.54-1.243l-.145-.167 2.193-.053h.378l1.265 2.374"/><path d="m76.859 48.921c-.206.418-.268.896-.294 1.393l.013 3.956c.031.773.049 1.56.146 2.308.105.492.492.931.962 1.121.484.206 1.055.053 1.433-.277.4-.316.602-.752.602-1.252l.075-2.615c-.018-1.31.048-2.677-.14-3.925-.058-.25-.119-.501-.304-.699h2.721c-.18.255-.286.536-.325.844l-.139 2.145v1.991l.072 2.448c.057.76.022 1.582.603 2.11h-2.352l-.202-.716c-.852.777-1.951 1.288-3.142.936-.532-.154-.999-.461-1.424-.861-.316-.413-.382-.927-.43-1.446-.154-2.149.185-4.369-.127-6.466-.088-.356-.154-.716-.435-.993h2.687"/><path d="m130.32 49.08v2.044c-.219-.695-.914-1.38-1.604-1.613-.414-.084-.892-.061-1.183.264-.361.461-.44 1.226-.136 1.741.866 1.578 3.217 2.254 3.283 4.233.062.932-.329 1.723-1.09 2.268-.927.606-2.259.932-3.353.452-.343-.145-.677-.334-.971-.571l-.061-2.352c.224.835.54 1.837 1.476 2.171.405.18.993.264 1.394.013.413-.277.628-.716.619-1.204-.167-1.266-1.556-1.908-2.404-2.765-.769-.717-1.051-1.696-.936-2.774.096-.769.659-1.547 1.402-1.846 1.129-.509 2.351.084 3.564-.061"/><path d="m112.91 48.961c-.497.427-.675.989-.649 1.635v7.213c.902.106 1.835-.026 2.38-.822.25-.352.435-.765.58-1.129-.084.901-.247 1.767-.466 2.606l-5.169.009c.655-.343.69-1.051.716-1.705l.081-2.637v-2.532c-.109-.919.187-2.026-.714-2.598l-.039-.04h3.28"/><path d="m141.35 51.03c-.247-.65-.897-1.294-1.635-1.334-.224-.018-.44-.062-.677-.044v6.116c.066.923-.255 2.061.519 2.69h-3.081c.532-.198.65-.774.659-1.288v-2.887l.018-4.633c-.87-.013-1.714.234-2.206 1.025-.11.158-.207.32-.273.497.062-.774.093-1.556.198-2.312l2.808.061c1.248 0 2.453-.022 3.671-.106v2.215"/><path d="m28.15 48.825v1.982c-.163-.523-.611-1.055-1.125-1.275-.567-.198-1.257-.154-1.868-.088l-.013 3.82c.861.075 1.696-.022 2.228-.739l.198-.325v2.677c-.127-.439-.55-.91-1-1.042-.444-.093-.927-.088-1.411-.084l-.013 3.973c.756.18 1.731.185 2.426-.123.523-.303 1.01-.84 1.16-1.406-.066.795-.224 1.555-.461 2.28h-5.538c.848-.72.523-1.925.642-2.944.022-1.978.136-4.079-.18-5.96 0-.242-.228-.391-.316-.602l2.637-.167c.874-.038 1.77-.017 2.636.023"/><path d="m6.676 51.04c-.247-.651-.897-1.295-1.635-1.334-.224-.017-.44-.061-.677-.044v6.116c.066.923-.255 2.061.519 2.69h-3.081c.532-.198.651-.773.66-1.288v-2.888l.017-4.632c-.87-.014-1.714.233-2.206 1.024-.111.158-.207.321-.273.496.061-.774.092-1.556.197-2.312l2.809.061c1.248 0 2.453-.021 3.67-.105v2.216"/><path d="m92.22 49.624c.444.783.427 1.961-.145 2.677-.351.479-.831.765-1.309 1.025.277.615.628 1.23.962 1.837.673 1.133 1.222 2.333 2.255 3.3-1.12.255-2.351.08-3.02-.949-.756-1.029-1.182-2.194-1.771-3.292-.105-.211-.317-.427-.572-.422v3.512c.039.435.22.809.497 1.143h-2.985c.484-.281.633-.809.642-1.34l.075-2.65c.039-1.604-.014-3.196-.158-4.734-.08-.299-.185-.602-.475-.792.611-.048 1.257 0 1.885 0 1.332-.043 2.751-.403 3.851.392l.263.293m-3.604-.307v4c.778.092 1.547-.141 1.916-.844.321-.717.325-1.749-.083-2.426-.405-.607-1.103-.805-1.833-.73z"/><path d="m151.23 52.23l.988 2.932.76 2.048c.189.44.337.877.714 1.242h-2.365l-1.237-3.871-.035-.017h-2.51c-.294.905-.541 1.828-.641 2.813-.009.405.013.809.303 1.077h-2.338c.628-.633.852-1.437 1.212-2.184.423-1.051.792-2.127 1.125-3.217l.857-3.059c.084-.378.009-.774-.224-1.064h2.365l1.026 3.3m-1.415 1.544l-1.085-3.253-.906 3.253h1.991z"/><path d="m163.82 51.03c-.245-.651-.896-1.295-1.635-1.334-.224-.017-.44-.061-.677-.044v6.116c.066.923-.255 2.061.518 2.69h-3.08c.532-.198.65-.773.659-1.288v-2.888l.018-4.632c-.871-.014-1.715.233-2.207 1.024-.11.158-.206.321-.272.497.061-.773.092-1.556.198-2.312l2.809.062c1.248 0 2.452-.022 3.669-.105v2.214"/><path d="m57.757 52.23l.989 2.932.76 2.048c.189.44.336.877.715 1.242h-2.364l-1.238-3.871-.035-.017h-2.51c-.294.905-.54 1.828-.642 2.813-.009.405.013.809.303 1.077h-2.338c.629-.633.853-1.437 1.213-2.184.422-1.051.791-2.127 1.125-3.217l.857-3.059c.084-.378.009-.774-.224-1.064h2.364l1.025 3.3m-1.415 1.544l-1.085-3.253-.906 3.253h1.991z"/><path d="m103.69 52.23l.988 2.932.761 2.048c.189.44.336.877.714 1.242h-2.365l-1.238-3.871-.035-.017h-2.509c-.295.905-.541 1.828-.642 2.813-.009.405.013.809.303 1.077h-2.338c.628-.633.853-1.437 1.213-2.184.422-1.051.791-2.127 1.125-3.217l.857-3.059c.084-.378.009-.774-.224-1.064h2.365l1.025 3.3m-1.415 1.544l-1.086-3.253-.905 3.253h1.991z"/></g><path d="m19.404 8.497c.934 3.109 1.651 5.05 2.655 8.161.933 3.108 1.723 5.05 2.799 8.096h-11.912l6.458-16.257m12.777 36.401h6.03c-2.8-5.959-4.45-9.65-6.747-15.739-3.516-9.261-6.889-20.661-7.823-24.483-1.148.129-2.081.129-3.301.129-1.364 0-3.02.299-4.388.105 0 .13 1.086.867 1.086 1.903 0 .388-.072.712-.143.907-1.148 3.562-10.335 27.07-13.564 32.13-1.291 2.01-2.01 3.109-3.301 5.05h6.674c0-1.489 0-1.878 0-2.331 0-1.296.215-2.396 1.436-5.894 1.363-3.822 3.588-8.939 4.09-9.781h13.206c1.148 3.368 1.938 5.376 3.158 8.744 1.291 3.562 2.224 5.765 3.589 9.262z"/><path d="m75.908 31.17c1.866-1.101 5.095-2.01 5.885-2.01.215 1.684.215 2.85.215 4.534 0 2.915-.072 4.858-1.507 6.866-.574.843-2.368 1.491-4.091 1.491-1.723 0-3.517-.583-4.091-1.943-.502-1.102-.718-2.138-.718-3.045.001-2.527 1.795-4.405 4.307-5.895m-9.329 8.161c.574 3.563 4.02 5.894 8.04 5.894 3.516 0 6.315-1.749 7.607-4.728l.646 4.534 5.095-.259c-.143-1.166-1.219-.648-1.435-13.667 0-3.433.431-6.153.431-8.679 0-2.073-.287-3.951-1.22-5.506-1.076-1.684-4.02-2.01-6.818-2.137-3.01 0-7.249.258-9.689 2.267-1 .907-1.722 2.526-1.722 3.627 0 .518.072.906.359 1.166.431.453 1 .648 1.651.648 1.077 0 2.152-.648 2.655-1.814.861-2.526 2.225-4.858 5.239-4.987 2.512 0 4.88 2.202 4.952 5.959 0 2.331-.215 4.081-.574 4.728-.862 1.489-4.378 2.72-7.177 4.21-3.231 1.814-8.04 4.146-8.04 8.744z"/><path d="m90.55 42.24c.287-1.554.646-14.249.646-20.791 0-1.943-.072-3.368-.144-3.692-.216-1.166-1.435-2.401-1.435-2.401l5.669-.32.288 4.728c1.507-3.238 5.526-5.505 9.258-5.505 1.579 0 3.086.389 4.378 1.295 2.727 1.879 2.871 8.097 2.871 13.343 0 2.461-.144 4.922-.144 7.449 0 2.073.071 4.145.431 6.283.072.841.431 1.489.646 2.266 0 0-1.794.13-3.373.13-1.22 0-2.225-.065-2.225-.324 0-1.62.215-6.671.215-13.02 0-2.849 0-5.958-.215-9.196-.144-3.628-2.871-4.728-5.02-4.728-3.803 0-6.316.906-7.03 5.635-.215 1.036-.288 2.785-.288 4.987 0 4.34.288 10.235.288 14.25 0 1.555.287 2.201.287 2.266h-6.244c0-.066.861-.907 1.148-2.656"/><path d="m114.16 41.66c0-1.231.072-2.137.359-3.368.072.388 1.148 2.655 2.368 3.627 1.507 1.23 3.086 1.489 5.168 1.489 2.655-.065 5.885-.648 6.172-5.117 0-4.728-3.516-6.218-6.101-7.838-3.66-2.267-7.248-4.145-7.248-8.226.143-5.441 4.377-7.643 10.334-7.643 2.225.065 5.382.453 5.741.584.071.583.143 1.101.143 1.748 0 .972-.072 1.619-.143 2.526-.789-1.295-1.938-2.137-3.302-2.656-1-.388-2.153-.648-3.157-.648-2.01 0-4.02.778-4.737 2.527-.287.518-.359 1.1-.359 1.619 0 2.332 2.153 4.469 4.45 6.089 3.516 2.591 9.33 4.34 9.33 9.65 0 .454 0 .972-.144 1.49-.646 3.627-3.516 6.347-6.961 7.448-1.148.324-2.512.518-3.876.518-3.517 0-7.177-.971-7.679-1.295-.215-.905-.358-1.552-.358-2.524"/><path d="m142.23 31.17c1.866-1.101 5.095-2.01 5.885-2.01.215 1.684.215 2.85.215 4.534 0 2.915-.071 4.858-1.507 6.866-.574.843-2.368 1.491-4.091 1.491-1.722 0-3.516-.583-4.09-1.943-.503-1.102-.718-2.138-.718-3.045 0-2.527 1.795-4.405 4.306-5.895m-9.329 8.161c.574 3.563 4.02 5.894 8.04 5.894 3.516 0 6.316-1.749 7.607-4.728l.646 4.534 5.095-.259c-.144-1.166-1.22-.648-1.435-13.667 0-3.433.43-6.153.43-8.679 0-2.073-.287-3.951-1.219-5.506-1.077-1.684-4.02-2.01-6.818-2.137-3.01 0-7.249.258-9.689 2.267-1 .907-1.723 2.526-1.723 3.627 0 .518.071.906.358 1.166.431.453 1 .648 1.651.648 1.077 0 2.153-.648 2.655-1.814.862-2.526 2.225-4.858 5.239-4.987 2.512 0 4.881 2.202 4.952 5.959 0 2.331-.215 4.081-.574 4.728-.861 1.489-4.378 2.72-7.177 4.21-3.228 1.814-8.04 4.146-8.04 8.744z"/><path d="m155 41.66c0-1.231.073-2.137.359-3.368.072.388 1.148 2.655 2.368 3.627 1.507 1.23 3.086 1.489 5.167 1.489 2.656-.065 5.885-.648 6.172-5.117 0-4.728-3.516-6.218-6.1-7.838-3.66-2.267-7.248-4.145-7.248-8.226.144-5.441 4.378-7.643 10.334-7.643 2.225.065 5.383.453 5.741.584.072.583.144 1.101.144 1.748 0 .972-.072 1.619-.144 2.526-.789-1.295-1.937-2.137-3.301-2.656-1-.388-2.153-.648-3.158-.648-2.01 0-4.02.778-4.737 2.527-.287.518-.359 1.1-.359 1.619 0 2.332 2.153 4.469 4.45 6.089 3.516 2.591 9.33 4.34 9.33 9.65 0 .454 0 .972-.144 1.49-.646 3.627-3.516 6.347-6.961 7.448-1.148.324-2.512.518-3.875.518-3.516 0-7.177-.971-7.679-1.295-.215-.905-.359-1.552-.359-2.524"/><path fill="#009641" d="m43.43 19.711c.717 0 1.447.186 2.172.553.653.331 1.302.499 1.929.499 2.219 0 3.508-2 3.85-2.617.618-1.108 1-2.162 1.23-2.927-.762.39-1.974.766-3.808.766-.349 0-.716-.013-1.089-.041-3.255-.236-5.124 2.413-5.993 4.135.467-.208 1.041-.368 1.709-.368"/><path d="m49.34 15.05c2.777-.126 3.642-1.215 3.651-1.227.127-.167.355-.229.549-.147.056.024.102.059.143.099l.108-13.578c-1 0-1.722 0-2.655 0-1.292.066-2.727.26-3.588.26.43.906 1.22 1.489 1.292 2.461.172 1.278.369 6.127.5 12.13"/><path d="m42.23 30.778c0-.582 0-1.23 0-1.813 0-2.369.091-5.618.157-8.158-.851.292-1.344.846-1.351.854-.09.103-.218.159-.348.159-.075 0-.152-.019-.222-.057-.19-.105-.281-.328-.219-.535.044-.147.685-2.205 2.208-3.914-.001-.181-.004-.316-.011-.395 0-.648.148-1.23.076-1.813-1.508 0-2.374 0-3.091.065-.933.064-2.01-.134-2.875.06.358.971 1.296 1.947 1.368 2.983.072 1.36.144 3.303.144 5.635 0 6.153-.358 14.573-.718 18.14-.143 1.165-.574 1.878-.933 2.914h6.531c-.717-4.404-.717-7.513-.717-11.528.001-.844.001-1.686.001-2.593"/><path d="m69.15 43.668c-2.225-2.397-9.832-14.12-11.483-16.581-.143-.259-.861-.518-.861-.518.072-.13 1.938-1.554 5.383-5.311 2.01-2.137 3.374-3.497 5.239-5.765h-5.598c0 0 .431.906.431 1.814 0 .323-.072.648-.215.971-2.296 4.599-8.325 8.809-8.468 8.809l.098-12.25c-.196.797-.627 2.216-1.486 3.758-.693 1.241-1.657 2.159-2.745 2.659.027 2.236.042 4.516.042 6.74 0 6.865-.143 12.954-.502 15.03-.286 1.36-.789 1.813-.789 1.878h6.602c-.287-.518-.718-.906-.789-1.489-.288-2.267-.359-8.227-.359-13.407 0-.843.071-1.101.431-1.101.431 0 .574.194.79.454.431.648 9.617 15.35 9.617 15.544h5.956c-.433-.326-.935-.779-1.294-1.232"/></svg>