<svg xmlns="http://www.w3.org/2000/svg" viewBox="0 0 169.67 30.697"><path fill-rule="evenodd" fill="#00598e" d="m30.22 27.499c0-.328.041-.656.041-1.025 0-.41-.164-.779-.164-.902-.082-.697.246-1.968.246-3.239 0-1.025-.328-2.091-.328-3.116 0-.574.041-1.148.041-1.681 0-1.722.082-3.198-.123-5.084-.164-1.681-.451-3.444-.451-5.248 0-1.517.205-3.362.205-4.961 0-.943-.533-1.599-1.476-1.599-.205.041-.451.041-.656.041-1.886 0-1.23 1.476-2.132 3.28 0 .287-1.476 1.927-1.968 3.239-.82 1.353-1.23 2.255-1.722 3.526-.492 1.353-1.763 2.706-2.665 4.346-.41.697-1.148 3.526-3.157 5.535-.246.41-.369.82-.574 1.148-.492-.738-.615-1.681-1.148-2.378-.861-1.066-1.312-1.886-2.091-3.239-.205-.369-.984-2.091-1.681-2.706-.205-.205-1.148-1.312-1.435-2.747-.574-1.394-1.64-2.583-2.173-3.649.041.123-1.066-1.927-1.681-2.501-.328-1.558-.738-1.763-.984-2.255-.246-.246-.328-1.394-1.435-1.394-.123 0-.246.04-.369.04-.287 0-.574-.123-.779-.123-.943 0-1.025 1.066-1.025 1.722 0 .738.164 1.23.164 1.886 0 1.763-.369 4.223-.369 6.273 0 1.968.287 2.993.287 4.428 0 .533-.082 1.025-.082 1.517 0 .205.041.369.041.533-.082 1.23-.41 2.255-.41 3.854 0 2.624-.287 3.198-.287 6.232 0 .615.164 1.148.164 1.804 0 .247-.041.37-.041.493.082.451.533.984 1.271.984.205 0 .451-.041.656-.123.82-.164 3.403.287 3.403-.82 0-.984-.041-1.968-.041-2.952 0-1.763.164-3.239.164-4.838 0-.697-.123-1.599-.123-2.419 0-1.394.041-3.321.164-4.92.656.533 1.148 1.763 1.558 2.747.123.164 1.845 2.911 2.132 4.059 1.066 2.132 1.763 3.608 2.829 5.207.205.328.738.943.984 1.517.164.369.697 2.665 1.968 2.665 1.804 0 1.64-1.271 2.091-1.927.574-1.189 1.066-2.214 1.517-3.444.082-.287 1.025-2.501 2.419-3.895.041-.041 1.066-1.435 1.517-2.583.41-2.01 1.066-2.665 1.435-3.034.205-.205.369-.697.779-1.107 0-.041 0-.082.041-.082v.123c.082-.041.164-.041.246-.041v3.362c0 .492-.164.861-.164 1.23 0 1.066.164 2.132.164 3.198 0 1.476-.246 2.665-.246 3.854v.492c0 .287-.041.533-.082.82 0 2.624 1.148 2.87 3.157 2.87.41 0 .779-.123 1.066-.123.246 0 .451.082.697.082.492 0 .615-.205.779-.656-.041-.082-.041-.123-.041-.205 0-.328.205-.574.205-.902 0-.533-.328-.82-.328-1.189m22.55-2.214c-1.148 0-1.804.328-2.706.328-1.025 0-2.952-.369-3.977-.369-.943.205-1.64.287-2.87.287-.943 0-1.681-.328-1.681-1.394 0-.861.287-1.722.287-2.624 0-.492-.164-.943-.164-1.476.082-.451.287-.984.287-1.312v-.082c1.271.082 2.46.123 3.731.123 1.517 0 2.829-.287 4.428-.287 1.312 0 2.091.123 3.157.123.574 0 .656-.041.656-.492 0-.123-.041-.287-.041-.41 0-.779.205-1.23.205-1.968 0-1.23.205-2.05-1.107-2.05-.902 0-1.927.205-2.583.205-.943 0-1.968-.082-2.911-.082-.492 0-.984.082-1.394.082-.615 0-1.189-.123-1.845-.123-.533 0-1.025.041-1.517.041-.287 0-.533-.041-.779-.041.123-.328.123-.656.123-.984-.041-.246-.082-.492-.082-.738 0-.451.164-.82.164-1.189 0-1.312-.246-1.763-.287-2.01-.082-.451-.082-1.025-.082-1.558 0-1.599.574-1.64.615-1.64.369 0 .697.164.984.246.779.082 1.64.164 2.501.164 1.066 0 .984-.246 2.214-.246.492 0 .984.205 1.394.205.082 0 .205-.082.328-.082.861 0 1.927.164 2.952.164h.205c.615 0 1.148-.041 1.763-.041s.533-.082.533-.738c0-.287.082-.533 0-.779 0-.943.041-1.23.041-1.23.123-.164 0-.697 0-.82 0-1.681-.738-1.476-3.567-1.476-1.189 0-2.378.246-3.526.246-3.075 0-6.03-.492-9.266-.492-.41 0-.861.041-1.189.205-.164-.042-.287-.082-.451-.082-.738.082-.861.943-.861 1.763 0 .738.123 1.476.123 1.968 0 .328-.041.656-.041.943 0 .451.082.861.082 1.353 0 1.271-.287 2.255-.287 3.403 0 .697.287 1.886.287 3.239 0 1.312-.164 2.542-.164 3.895 0 .697.164 1.271.164 1.968 0 1.517-.164 3.403-.164 5.084 0 1.681.123 3.157.123 3.116 0 .123.082.246.123.369 0 .41-.164.697-.164 1.025 0 1.23 1.271.902 2.583.902 1.23 0 2.624-.205 2.911-.205 2.214 0 4.879.205 7.175.205.656 0 1.517-.164 2.091-.164.369 0 .697.082 1.025.082.738 0 1.23.041 2.173.041.082 0 .205.041.287.082.984 0 .656-.492.656-3.239 0-1.271-.615-1.435-2.665-1.435m33.784.656c.041-.082.041-.164.041-.246 0-.492-.451-.738-.451-1.189v-.41c0-.451-.205-.779-.205-1.23 0-.205.041-.451.041-.697 0-.328-.082-.615-.082-.861 0-.369.123-.738.123-1.107 0-1.927-.328-3.854-.328-4.428 0-.984.164-2.05.164-3.157 0-.984-.205-1.681-.205-2.993 0-.164.041-.328.041-.492 0-.123-.041-.287-.041-.451 0-.205.246-.902.369-1.394 0-.943-.246-1.599-.246-2.46 0-.123.041-.287.041-.451v-.82c0-.451.287-.451.287-1.517 0-.861-.697-1.476-1.804-1.476-.656 0-1.476.246-2.583.246-.205 0-.41-.082-.656-.082-.328 0-.533.287-.533.615s.082.779.082 1.107c0 1.845-.205 3.485-.205 5.248 0 .779.164 2.091.164 3.649v1.394c0 .779.287.943.287 1.353 0 1.025-.369 2.01-.369 3.034 0 .164.041.328.041.451l-.123 1.271c-.492-.451-.943-.697-1.476-1.271-.082-.082-1.763-1.476-2.091-2.05-.41-.738-1.271-1.23-1.476-1.681-.779-1.107-1.968-2.378-3.034-3.403-.574-.533-1.025-1.312-1.476-1.763-1.312-1.763-1.968-2.173-2.87-3.116-.369-.287-1.763-.82-2.214-2.091-.205-.41-.656-.574-.82-.902-.205-.615-1.845-1.968-2.501-1.968h-.205c-.164 0-.287-.082-.451-.082-.738.082-.779 1.476-.779 2.214 0 .533.123.902.123 1.517 0 .779-.082 1.558-.082 2.337 0 1.681.246 2.993.246 4.633-.164 1.435-.451 2.46-.451 3.813 0 1.968.287 3.362.287 4.551 0 .902-.287 1.599-.287 2.583v.861c0 1.066-.123 2.05-.123 3.116 0 .738.041 1.476.041 2.173 0 .287-.082.533-.082.779 0 .574.615 1.066 1.312 1.066.328 0 .574-.328.779-.328.574.205 1.353.164 2.214.164 1.476 0 1.558-.697 1.558-1.968 0-.656-.205-1.066-.205-1.722v-1.189c0-.615.123-1.148.123-1.763 0-1.189-.164-2.46-.164-3.649 0-1.804.041-3.526.123-5.412 0-.533-.041-1.025-.041-1.558 0-.287.041-.533.041-.82.492.328.697.738 1.271.984.328.82.943 1.107 1.271 1.804.902 1.23 1.476 1.394 2.214 2.378.82 1.107 3.034 3.075 4.141 4.182.205.328 1.804 1.517 2.255 2.337.779 1.517 1.435.984 2.378 1.927.738.943.779 1.107 1.025 1.558.328.615.902.902 1.353 1.394.369.41 1.722 1.927 2.747 1.927.328 0 1.189-.246 1.189-.984 0-.246-.041-.492-.041-.656 0-.738.451-1.271.451-2.01 0-.287-.041-.574-.123-.82m30.3-11.931c0-.451-.205-.574-.205-1.025 0-.492.205-.861.205-1.394 0-.82-.246-1.599-.246-2.829 0-2.173.287-5.084.287-6.601 0-.861-.943-1.312-1.64-1.312-.287 0-.574.164-.861.164-.943 0-1.476-.246-2.173-.246-.738 0-.902 1.23-.902 2.665 0 .328.041.615.041.902v.164c0 .943.164 2.542.287 3.198 0 .943-.287-.082-.287 5.699 0 .164.041.328.041.492 0 .328-.041.656-.041.943 0 1.476.164 3.116.164 4.633 0 .779-.533 1.845-.738 2.87-.082.369-.287 1.066-1.927 2.337.041-.041-.861.861-1.435.861-.328 0-.615-.123-.943-.164-.902 0-1.763.533-2.46.533-.205 0-.328-.041-.492-.082-2.46-.615-2.583-.902-3.731-1.64-.082-.041-.902-.287-1.189-1.763-.123-.328-1.066-1.968-1.066-4.182 0-.492.205-.779.205-1.353v-.533c.082-.369.246-1.394.246-2.829 0-1.312-.287-2.911-.287-3.731 0-.041.041-.123.041-.205 0-.123-.041-.287-.041-.451 0-.246.123-.492.123-.779v-.656c0-1.517.123-2.583.123-3.731 0-.41-.164-.738-.164-1.066 0-.369.123-.656.123-.943 0-.697-.738-1.189-1.681-1.189-.451 0-.984 0-1.353.041h-.205c-.328 0-.615-.041-.943-.041-.533 0-1.025.246-1.148.369-.656.287-.533 1.927-.533 3.198 0 1.312.451 2.214.451 3.772-.041.369-.041.697-.041 1.025 0 .164 0 .328.041.492 0 .984-.082 1.968-.082 2.952 0 .328.041.697.041 1.025 0 1.476-.205 2.993-.205 4.387 0 1.066.328 1.886.328 2.624.287 2.952 1.189 3.854 1.804 5.084.369.943.697 1.025 1.599 1.599.164.123.779 1.189 1.23 1.599.328.164 1.845 1.476 4.305 1.476.861 0 1.476.328 2.542.328 1.886 0 2.87-.533 3.772-.533.492 0 .861.041 1.353.123 1.189 0 2.05-.328 3.485-1.517 1.148-.943 1.64-1.722 2.337-2.665.533-.369.697-1.271.861-2.01.123-.697.533-1.148.697-1.845 0-1.189.574-1.763.574-2.665v-.41c0-.369.041-.615.082-.902 0-1.599-.451-2.788-.451-3.649 0-.164.082-.369.082-.615m49.82-2.01h-35c-1.657 0-3 1.343-3 3 0 1.657 1.343 3 3 3h35c1.657 0 3-1.343 3-3 0-1.657-1.343-3-3-3m0 12h-35c-1.657 0-3 1.343-3 3 0 1.657 1.343 3 3 3h35c1.657 0 3-1.343 3-3 0-1.657-1.343-3-3-3m-35-18h35c1.657 0 3-1.343 3-3 0-1.657-1.343-3-3-3h-35c-1.657 0-3 1.343-3 3 0 1.657 1.343 3 3 3"/></svg>