<svg xmlns="http://www.w3.org/2000/svg" viewBox="0 0 180 59" enable-background="new 0 0 180 59"><path d="m175.4 43c0-1.3 1-2.3 2.3-2.3 1.3 0 2.3 1 2.3 2.3 0 1.3-1 2.3-2.3 2.3-1.3 0-2.3-1.1-2.3-2.3m4.2 0c0-1-.8-1.9-1.9-1.9-1 0-1.9.8-1.9 1.9 0 1 .8 1.9 1.9 1.9 1-.1 1.9-.9 1.9-1.9zm-.8 1.2h-.6l-.6-1h-.5v1h-.5v-2.5h1.2c.2 0 .5 0 .7.1.2.1.3.4.3.6 0 .5-.2.6-.7.7l.7 1.1m-.8-1.4c.3 0 .5-.1.5-.4 0-.3-.4-.3-.6-.3h-.6v.7h.7"/><path d="m19.4 8.5c.9 3.1 1.7 5.1 2.7 8.2.9 3.1 1.7 5 2.8 8.1h-12l6.5-16.3m12.8 36.4h6c-2.8-6-4.5-9.7-6.7-15.7-3.5-9.3-6.9-20.7-7.8-24.5-1.1.1-2.1.1-3.3.1-1.4 0-3 .3-4.4.1 0 .1 1 .9 1 1.9 0 .4-.1.7-.1.9-1.2 3.6-10.3 27.1-13.6 32.2-1.3 2-2 3.1-3.3 5h6.7c0-1.5 0-1.9 0-2.3 0-1.3.2-2.4 1.4-5.9 1.4-3.8 3.6-8.9 4.1-9.8h13.2c1.1 3.4 1.9 5.4 3.2 8.7 1.3 3.6 2.2 5.8 3.6 9.3z"/><path d="m75.9 31.2c1.9-1.1 5.1-2 5.9-2 .2 1.6.2 2.8.2 4.5 0 2.9-.1 4.9-1.5 6.9-.6.8-2.4 1.5-4.1 1.5-1.7 0-3.5-.6-4.1-1.9-.5-1.1-.7-2.1-.7-3 0-2.7 1.8-4.5 4.3-6m-9.3 8.1c.6 3.6 4 5.9 8 5.9 3.5 0 6.3-1.7 7.6-4.7l.6 4.5 5.1-.3c-.1-1.2-1.2-.6-1.4-13.7 0-3.4.4-6.2.4-8.7 0-2.1-.3-4-1.2-5.5-1.1-1.7-4-2-6.8-2.1-3 0-7.2.3-9.7 2.3-1 .9-1.7 2.5-1.7 3.6 0 .5.1.9.4 1.2.4.5 1 .6 1.7.6 1.1 0 2.2-.6 2.7-1.8.9-2.5 2.2-4.9 5.2-5 2.5 0 4.9 2.2 5 6 0 2.3-.2 4.1-.6 4.7-.9 1.5-4.4 2.7-7.2 4.2-3.3 1.9-8.1 4.2-8.1 8.8z"/><path d="m90.6 42.2c.3-1.6.6-14.2.6-20.8 0-1.9-.1-3.4-.1-3.7-.2-1.2-1.4-2.4-1.4-2.4l5.7-.3.3 4.7c1.5-3.2 5.5-5.5 9.3-5.5 1.6 0 3.1.4 4.4 1.3 2.7 1.9 2.9 8.1 2.9 13.3 0 2.5-.1 4.9-.1 7.4 0 2.1.1 4.1.4 6.3.1.8.4 1.5.6 2.3 0 0-1.8.1-3.4.1-1.2 0-2.2-.1-2.2-.3 0-1.6.2-6.7.2-13 0-2.8 0-6-.2-9.2-.1-3.6-2.9-4.7-5-4.7-3.8 0-6.3.9-7 5.6-.2 1-.3 2.8-.3 5 0 4.3.3 10.2.3 14.3 0 1.6.3 2.2.3 2.3h-6.2c-.3-.1.6-.9.9-2.7"/><path d="m114.2 41.7c0-1.2.1-2.1.4-3.4.1.4 1.1 2.7 2.4 3.6 1.5 1.2 3.1 1.5 5.2 1.5 2.7-.1 5.9-.6 6.2-5.1 0-4.7-3.5-6.2-6.1-7.8-3.7-2.3-7.2-4.1-7.2-8.2.1-5.4 4.4-7.6 10.3-7.6 2.2.1 5.4.5 5.7.6.1.6.1 1.1.1 1.7 0 1-.1 1.6-.1 2.5-.8-1.3-1.9-2.1-3.3-2.7-1-.4-2.2-.6-3.2-.6-2 0-4 .8-4.7 2.5-.3.5-.4 1.1-.4 1.6 0 2.3 2.2 4.5 4.4 6.1 3.5 2.6 9.3 4.3 9.3 9.6 0 .5 0 1-.1 1.5-.6 3.6-3.5 6.3-7 7.4-1.1.3-2.5.5-3.9.5-3.5 0-7.2-1-7.7-1.3-.2-.8-.3-1.5-.3-2.4"/><path d="m142.2 31.2c1.9-1.1 5.1-2 5.9-2 .2 1.7.2 2.8.2 4.5 0 2.9-.1 4.9-1.5 6.9-.6.8-2.4 1.5-4.1 1.5-1.7 0-3.5-.6-4.1-1.9-.5-1.1-.7-2.1-.7-3 0-2.7 1.8-4.5 4.3-6m-9.3 8.1c.6 3.6 4 5.9 8 5.9 3.5 0 6.3-1.7 7.6-4.7l.6 4.5 5.1-.3c-.1-1.2-1.2-.6-1.4-13.7 0-3.4.4-6.2.4-8.7 0-2.1-.3-4-1.2-5.5-1.1-1.7-4-2-6.8-2.1-3 0-7.2.3-9.7 2.3-1 .9-1.7 2.5-1.7 3.6 0 .5.1.9.4 1.2.4.5 1 .6 1.7.6 1.1 0 2.2-.6 2.7-1.8.9-2.5 2.2-4.9 5.2-5 2.5 0 4.9 2.2 5 6 0 2.3-.2 4.1-.6 4.7-.9 1.5-4.4 2.7-7.2 4.2-3.3 1.9-8.1 4.2-8.1 8.8z"/><path d="m155 41.7c0-1.2.1-2.1.4-3.4.1.4 1.1 2.7 2.4 3.6 1.5 1.2 3.1 1.5 5.2 1.5 2.7-.1 5.9-.6 6.2-5.1 0-4.7-3.5-6.2-6.1-7.8-3.7-2.3-7.2-4.1-7.2-8.2.1-5.4 4.4-7.6 10.3-7.6 2.2.1 5.4.5 5.7.6.1.6.1 1.1.1 1.7 0 1-.1 1.6-.1 2.5-.8-1.3-1.9-2.1-3.3-2.7-1-.4-2.2-.6-3.2-.6-2 0-4 .8-4.7 2.5-.3.5-.4 1.1-.4 1.6 0 2.3 2.2 4.5 4.4 6.1 3.5 2.6 9.3 4.3 9.3 9.6 0 .5 0 1-.1 1.5-.6 3.6-3.5 6.3-7 7.4-1.1.3-2.5.5-3.9.5-3.5 0-7.2-1-7.7-1.3-.2-.8-.3-1.5-.3-2.4"/><path d="m43.4 19.7c.7 0 1.4.2 2.2.6.7.3 1.3.5 1.9.5 2.2 0 3.5-2 3.8-2.6.6-1.1 1-2.2 1.2-2.9-.8.4-2 .8-3.8.8-.3 0-.7 0-1.1 0-3.3-.2-5.1 2.4-6 4.1.6-.3 1.2-.5 1.8-.5" fill="#009641"/><path d="m49.3 15.1c2.8-.1 3.6-1.2 3.7-1.2.1-.2.4-.2.5-.1.1 0 .1.1.1.1l.1-13.6c-1 0-1.7 0-2.7 0-1.3.1-2.7.3-3.6.3.4.9 1.2 1.5 1.3 2.5.3 1.1.5 5.9.6 12"/><path d="m42.2 30.8c0-.6 0-1.2 0-1.8 0-2.4.1-5.6.2-8.2-.9.3-1.3.8-1.4.9-.1.1-.2.2-.3.2-.1 0-.2 0-.2-.1-.2-.1-.3-.3-.2-.5 0-.1.7-2.2 2.2-3.9 0-.2 0-.3 0-.4 0-.6.1-1.2.1-1.8-1.5 0-2.4 0-3.1.1-.9.1-2-.1-2.9.1.4 1 1.3 1.9 1.4 3 .1 1.4.1 3.3.1 5.6 0 6.2-.4 14.6-.7 18.1-.1 1.2-.6 1.9-.9 2.9h6.5c-.7-4.4-.7-7.5-.7-11.5-.1-1-.1-1.8-.1-2.7"/><path d="m69.2 43.7c-2.2-2.4-9.8-14.1-11.5-16.6-.1-.3-.9-.5-.9-.5.1-.1 1.9-1.6 5.4-5.3 2-2.1 3.4-3.5 5.2-5.8h-5.6c0 0 .4.9.4 1.8 0 .3-.1.6-.2 1-2.3 4.6-8.3 8.8-8.5 8.8l.1-12.2c-.2.8-.6 2.2-1.5 3.8-.7 1.2-1.7 2.2-2.7 2.7 0 2.2 0 4.5 0 6.7 0 6.9-.1 13-.5 15-.3 1.4-.8 1.8-.8 1.9h6.6c-.3-.5-.7-.9-.8-1.5-.3-2.3-.4-8.2-.4-13.4 0-.8.1-1.1.4-1.1.4 0 .6.2.8.5.4.6 9.6 15.4 9.6 15.5h6c-.3-.4-.8-.9-1.1-1.3"/><g fill="#009845"><path d="m0 58.6c0-.1.5-.4.6-1.2.1-1.4.2-5.9 0-7.4-.1-.9-.2-.6-.4-1 1-.1 2.5-.2 4.1-.2.5 0 1.1 0 1.3 0v2c-.1-.5-.4-.7-.7-1-.7-.6-2.4-.3-2.4-.3v3.8c0 0 1.1.1 1.6-.2.4-.2.7-.5.9-.9v2.8c-.1-.4-.4-.7-.8-1-.3-.2-1.7-.2-1.7-.2v4c.3.1 2 .3 2.8-.3.5-.4.7-.7.9-1.3 0 .5-.1.8-.2 1.3-.1.4-.2.7-.3 1.1h-5.7"/><path d="m11.1 57.5c.2-1.9.2-4.5.1-7.1 0-1-.7-1.3-.8-1.4h3.4c0 .1-.6.4-.6 1.5 0 2.5 0 7.4 0 7.4.1 0 1 .2 1.9-.3.7-.4 1.2-1.7 1.2-1.8 0 .6-.1.9-.2 1.5-.1.5-.2.8-.3 1.3h-5.3c0-.1.5-.2.6-1.1"/><path d="m26.2 58.6c0-.1.5-.4.6-1.2.1-1.4.2-5.9 0-7.4-.1-.9-.2-.6-.4-1 1-.1 2.5-.2 4.1-.2.5 0 1.1 0 1.3 0v2c-.1-.5-.4-.7-.7-1-.7-.6-2.4-.3-2.4-.3v3.8c0 0 1.1.1 1.6-.2.4-.2.7-.5.9-.9v2.8c-.1-.4-.4-.7-.8-1-.3-.2-1.7-.2-1.7-.2v4c.3.1 2 .3 2.8-.3.5-.4.7-.7.9-1.3 0 .5-.1.8-.2 1.3-.1.4-.2.7-.3 1.1h-5.7"/><path d="m37.1 57.9l-.1-2.4c0 .1.3 1.3.9 1.8.7.6 1.9.9 2.5 0 .4-.7.3-1.4-.6-2.2-1.3-1.3-2.6-1.6-2.6-3.8 0-1.4 1.1-2.5 2.6-2.5.8 0 1.5.2 1.9.2.3 0 .4 0 .6 0v2.2c0-.4-.8-1.5-1.6-1.7-.3-.1-1.2-.2-1.5.7-.3 1.1.3 1.8 1.4 2.8.9.8 2.1 1.6 2 3.2-.1 1.6-1.5 2.4-3.1 2.6-.9 0-1.8-.4-2.4-.9"/><path d="m48.6 58.6c.1-.1.6-.1.7-1.2.1-2.6 0-7.7 0-7.7 0 0-1.1 0-1.6.4-.5.3-.9.9-1 1.2l.2-2.4c1.2 0 1.9.1 3.1.1 1.4 0 2.2 0 3.6-.1v2.3c-.1-.4-.5-.9-1-1.2-.5-.3-1.4-.2-1.4-.2 0 0 0 5.1.1 7.6 0 1.2.5 1.3.5 1.4h-3.2z"/><path d="m55.3 58.6c0 0 .4-.2.8-1.3.9-2 1.7-4.3 2.5-7.3.2-.7-.2-1.1-.2-1.1h2.5c0 0 1.5 5.1 2.9 8.5.3.8.7 1.1.7 1.1h-2.5l-1.3-3.9h-2.6c0 0-.5 1.6-.6 2.7-.1 1 .3 1.2.3 1.2h-2.5zm5.2-4.8l-1.1-3.3-1 3.3h2.1"/><path d="m68 58.6c0 0 .6-.3.6-1.3.1-2.4.1-4 0-6.5 0-1.4-.4-1.8-.4-1.8h2.7c1.4 0 2.4.3 3.3 1.3 1.8 2 1.6 5.3.5 6.9-.9 1.3-2.3 1.5-3.9 1.5h-2.8zm2.6-.7c.8-.1 1.1 0 2-.9 1-1.1.8-5.3-.1-6.4-1-1-1.1-.8-1.8-1v8.3z"/><path d="m84.2 58.8c-2.9 0-4.2-2.4-4.2-4.9 0-2.6 1.4-5.1 4.3-5 3.5.1 4 2.5 4.1 4.8 0 2.5-1.3 5-4.2 5.1m.1-.9c1.7 0 2.1-2.5 2-4.5-.1-1.7-.6-3.8-2.1-3.9-1.5-.1-2.3 2.3-2.3 4.2 0 1.9.8 4.3 2.4 4.2"/><path d="m98.6 58.6c.1-.1.6-.4.6-.8.3-1.4.3-7.1.1-7.8-.1-.4-.4-.6-.6-.9l2.6-.1c.8 1.5 1.3 2.4 2.2 3.8.7 1.2 1.8 2.9 1.9 3 0 0 .2-4.9 0-5.9-.1-.4-.4-.6-.7-1h2.3c-.1.2-.5.4-.5 1.3-.2 3.5-.1 8.3-.1 8.3h-1.7l-4.3-7.3c-.1.1 0 5.1.2 6.2.1.5.5.8.7 1.1-.4 0-.7 0-1.1 0-.7.1-1 .1-1.6.1"/><path d="m110.6 58.6c0 0 .4-.2.8-1.3.9-2 1.7-4.3 2.5-7.3.2-.7-.2-1.1-.2-1.1h2.5c0 0 1.5 5.1 2.9 8.5.3.8.7 1.1.7 1.1h-2.4l-1.3-3.9h-2.6c0 0-.5 1.6-.6 2.7-.1 1 .3 1.2.3 1.2h-2.6zm5.2-4.8l-1.1-3.3-1 3.3h2.1"/><path d="m123.5 58.6c.1-.1.6-.1.7-1.2.1-2.6 0-7.7 0-7.7 0 0-1.1 0-1.6.4-.5.3-.9.9-1 1.2l.2-2.4c1.2 0 1.9.1 3.1.1 1.4 0 2.2 0 3.6-.1v2.3c-.1-.4-.5-.9-1-1.2-.5-.3-1.4-.2-1.4-.2 0 0 0 5.1.1 7.6 0 1.2.5 1.3.5 1.4h-3.2z"/><path d="m140.6 58.6h-2.4l-.2-.7c0 0-.9.8-1.6.9-1.2.3-2.2 0-3.1-.8-.9-.8-.3-4.3-.5-7.1-.1-1.7-.6-1.9-.6-1.9h2.8c0 .1-.3.5-.3 1.6 0 2.4 0 3.8.1 5.8.1.8.8 1.6 1.7 1.5.7 0 1.4-.7 1.5-1.5.1-2.1.1-3.3.1-5.5 0-1.8-.4-1.9-.4-1.9h2.8c0 .1-.3.3-.4 1-.2 2.5-.2 4.3 0 6.9 0 1.4.5 1.7.5 1.7"/><path d="m144.4 58.6c0 0 .6-.2.7-1.4.1-2.6.1-4.6-.1-7.2-.1-.9-.5-1-.5-1.1.7 0 1.2 0 1.9 0 1.2 0 4-.6 4.5 1.1.2.7.2 1.5-.5 2.4-.4.5-1.2.9-1.2.9 0 0 1.2 2.3 2 3.6.9 1.4 1.3 1.6 1.3 1.6-1.2.2-1.7.1-2.2-.2-1.2-.5-2.3-3.7-2.9-4.3-.1-.2-.4-.2-.4-.2 0 0 0 2.1 0 3.4 0 .8.5 1.3.5 1.3h-3.1zm2.5-9.2v4c0 0 2.2.4 2.2-2 .1-2.4-2.1-2-2.2-2"/><path d="m155 58.6c0 0 .4-.2.8-1.3.9-2 1.7-4.3 2.5-7.3.2-.7-.2-1.1-.2-1.1h2.5c0 0 1.5 5.1 2.9 8.5.3.8.7 1.1.7 1.1h-2.4l-1.3-3.9h-2.6c0 0-.5 1.6-.6 2.7-.1 1 .3 1.2.3 1.2h-2.6zm5.2-4.8l-1.1-3.3-1 3.3h2.1"/><path d="m168.3 57.5c.2-1.9.2-4.5.1-7.1 0-1-.7-1.3-.8-1.4h3.4c0 .1-.6.4-.6 1.5 0 2.5 0 7.4 0 7.4.1 0 1 .2 1.9-.3.7-.4 1.2-1.7 1.2-1.8 0 .6-.1.9-.2 1.5-.1.5-.2.8-.3 1.3h-5.3c0-.1.5-.2.6-1.1"/></g></svg>