<svg xmlns="http://www.w3.org/2000/svg" width="197.386" height="96.583" viewBox="0 0 197.386 96.583">
  <defs><style>#gaylord_texan_ver {fill: #a1784c;}</style></defs>  
  <g id="gaylord_texan_ver" data-name="gaylord texan ver" transform="translate(-1707 -946.973)">
    <path id="Path_818" data-name="Path 818" d="M40.839,42.673a8.286,8.286,0,0,1-5.233,1.6A9.245,9.245,0,1,1,34.838,25.8h.8a8.931,8.931,0,0,1,7.466,4.326h1.151V24.9s3.82-5.791-1.186-13.083c0,0-5.722-7.9-2.756-11.845,0,0-5.233,1.587-1.884,10.362,0,0,3.628,7.71-1.744,11.932,0,0,1.221-6.193-7.693-11.2,0,0-6.978-3.489-7.292-8.6,0,0-3.838,4.431,3.785,10.554a10.24,10.24,0,0,1,3.489,10.868s-1.744-4.518-11.862-4.693c0,0-8.722,0-10.344-3.977,0,0-1.622,5.111,7.641,7.466,0,0,8.269,1.5,8.984,6.35,0,0-5.233-2.826-13.537,3.489,0,0-5.826,3.785-9.786,1.657,0,0,1.4,5.233,11.391,1.744,0,0,8.024-3,11.845,1.064,0,0-5.233-.454-9.926,10.868,0,0-1.919,6.018-6.193,5.844,0,0,3.785,3.733,8.722-3.82,0,0,4.71-6.978,11.147-5.774,0,0-3.96,2.634-2.2,13.013,0,0,1.744,6.8-3.105,8.966,0,0,5.041,1.744,6.3-7.937,0,0,.68-9.42,7.309-10.222a15.264,15.264,0,0,0,2.756,10.833s4.867,6.018,1.116,11.112c0,0,6.175-1.151,2.652-11.5,0,0-2.564-7.571,2.512-11.705V38.225l2.146-1.448v-.506h-9.42v.558l3.7,1.43v4.466" transform="translate(1781.929 947.003)" />
    <g id="Group_4104" data-name="Group 4104" transform="translate(227.48 -61.042)">
      <g id="texan" transform="translate(1479.52 1089.799)">
        <path id="Path_802" data-name="Path 802" d="M49.428,20.335c0,.1,0,.159-.159.159a.2.2,0,0,1-.193-.159l-.409-1.569C48.393,17.7,47.619,17.3,45.732,17.3a5.026,5.026,0,0,0-5.288,4.742v.341A4.935,4.935,0,0,0,45.209,27.5h0c2.1,0,2.923-.444,2.923-1.558v-.967c0-.489,0-.625-.625-.785L46.3,23.781a.171.171,0,0,1-.114-.171c0-.136,0-.193.216-.193H51.19c.159,0,.216,0,.216.193a.216.216,0,0,1,0,.171l-1.137.466c-.375.159-.432.3-.432.955v.569a11.179,11.179,0,0,0,.125,1.945,9.746,9.746,0,0,1-4.549,1.137A6.573,6.573,0,0,1,38.59,22.5h0c0-3.639,3.139-6.266,7.426-6.266a10.155,10.155,0,0,1,3.889.751Z" transform="translate(-38.59 -14.058)" fill="#fff"/>
        <path id="Path_803" data-name="Path 803" d="M59.163,23.624H57.354l-1.137,3.014-.114.387a.489.489,0,0,0,0,.182c0,.114,0,.159.375.3l1.137.478s.159.1.159.182,0,.171-.239.171H52.987c-.136,0-.227,0-.227-.171s0-.136.171-.182l1.035-.478c.444-.2.489-.239.614-.534l.262-.58a3.866,3.866,0,0,1,.273-.705l2.377-5.948c.4-1.137.876-2.479,1.137-3.355v-.25h1.228c.273.978.591,1.933.955,2.877l2.274,5.686c.432,1.137.9,2.161,1.058,2.5s.136.227.557.4l.921.409c.091,0,.148.1.148.182s0,.171-.227.171H60.868c-.148,0-.227-.057-.227-.171s0-.136.171-.182l1.069-.421c.353-.136.4-.182.4-.33a1.489,1.489,0,0,0-.136-.546L61,23.647C60.152,23.624,59.572,23.624,59.163,23.624Zm0-4.617-1.308,3.412h2.684Z" transform="translate(-36.646 -14.072)" fill="#fff"/>
        <path id="Path_804" data-name="Path 804" d="M73.082,26.417v.762c0,.227,0,.307.387.409l1.524.557c.114,0,.136,0,.136.136s0,.159-.171.159H69.386A.159.159,0,0,1,69.2,28.3h0s0-.091.136-.136l1.444-.546c.5-.171.546-.2.58-.534a.83.83,0,0,0,0-.375V22.676c-1.831-3.707-3.116-5.39-4.549-5.834H66.44c-.216,0-.25-.1-.25-.239s.159-.273.5-.273c2.274,0,3.525.842,4.89,3.332l.637,1.137.2.341,1.751-2.911a2.831,2.831,0,0,0,.33-.671s0-.148-.216-.2l-.819-.466c-.1,0-.136-.125-.136-.159s0-.193.239-.193H78.2c.136,0,.216,0,.216.171s0,.136-.182.182l-1.422.534h-.227c-.318.125-.546.4-1.069,1.228l-2.479,3.9Z" transform="translate(-34.803 -14.044)" fill="#fff"/>
        <path id="Path_805" data-name="Path 805" d="M84.041,24.241v2.138c0,.512,0,.671.091.739a.591.591,0,0,0,.444.125h1.956c.773,0,.967,0,1.205-.534l.716-1.319a.25.25,0,0,1,.171-.136s.136,0,.136.182h0v2.5a.421.421,0,0,1-.421.432h-7.79c-.114,0-.171,0-.171-.159s0-.091.114-.136l1.308-.523a.489.489,0,0,0,.284-.08V20.352a16.023,16.023,0,0,0,0-2.763c0-.136-.114-.216-.409-.33l-1.319-.534s-.216-.091-.216-.148,0-.136.216-.136h5.311a.171.171,0,0,1,.193.148h0s0,.091-.136.136l-1.41.546c-.409.136-.432.193-.455.444v2.6Z" transform="translate(-32.889 -14.029)" fill="#fff"/>
        <path id="Path_806" data-name="Path 806" d="M98.06,28.786a6.277,6.277,0,0,1-6.63-5.97v-.421a6.5,6.5,0,0,1,6.664-6.334H98.4a6.289,6.289,0,0,1,6.516,6.05v.273A6.482,6.482,0,0,1,98.31,28.74Zm0-11.463a4.822,4.822,0,0,0-4.845,4.731v.159a5.208,5.208,0,0,0,5.106,5.311,4.742,4.742,0,0,0,4.719-4.708v-.2a5.14,5.14,0,0,0-4.981-5.288Z" transform="translate(-31.34 -14.082)" fill="#fff"/>
        <path id="Path_807" data-name="Path 807" d="M110.335,26.852v.466a1.137,1.137,0,0,0,.409.227l1.365.478a.2.2,0,0,1,.114.193.171.171,0,0,1-.171.171h-5.2c-.125,0-.2,0-.2-.159s0-.091.136-.136l1.422-.58c.273-.114.3-.136.33-.216s0-.091,0-.171V17.607a.319.319,0,0,0,0-.2.83.83,0,0,0-.341-.182l-1.342-.489a.182.182,0,0,1-.125-.148.171.171,0,0,1,.159-.193h4.31c2.684,0,4.185,1.205,4.185,3.412a3.412,3.412,0,0,1-2.979,3.275l3.025,3.1a5.891,5.891,0,0,0,2.354,1.831c.353.114.409.171.409.33s-.171.307-.773.307c-1.615,0-1.945-.227-3.7-1.945l-3.264-3.5h-.1Zm.33-4.788c1.831,0,2.923-.91,2.923-2.434a2.274,2.274,0,0,0-2.274-2.195h-.08c-.819,0-.955,0-.955.66V22Z" transform="translate(-29.251 -14.036)" fill="#fff"/>
        <path id="Path_808" data-name="Path 808" d="M120.963,27.7c.489-.216.489-.216.489-.569a3.185,3.185,0,0,0,0-.466v-8.95c0-.5,0-.375-.466-.5l-1.319-.534s-.136-.091-.136-.136,0-.171.193-.171h5.311c4.549,0,7.221,2.218,7.221,5.993a6.323,6.323,0,0,1-6.5,6.186h-5.8c-.114,0-.193,0-.193-.159a.182.182,0,0,1,.136-.171Zm4.378-.216a4.89,4.89,0,0,0,5.3-4.435V22.6a4.958,4.958,0,0,0-4.8-5.095,4.06,4.06,0,0,0-.523,0c-1.626,0-1.945.193-1.945.876v8.256C123.4,27.253,123.669,27.481,125.341,27.481Z" transform="translate(-27.484 -14.039)" fill="#fff"/>
        <path id="Path_809" data-name="Path 809" d="M146.429,25.991a7.424,7.424,0,0,0,0,1.422c0,.114.136.171.409.262l1.376.546a.136.136,0,0,1,.136.136c0,.136,0,.159-.193.159H142.8c-.136,0-.171,0-.171-.159s0-.091.114-.136l1.524-.58c.273-.114.33-.159.353-.227v-9.78h-2.092c-.466,0-.557,0-.694.409l-.728,1.74c0,.091,0,.136-.148.136s-.125,0-.159-.2V16.12c0-.136,0-.216.171-.216h.136l.182.159a5.106,5.106,0,0,0,1.945.216h4.492c1.41,0,1.717,0,2.183-.4l.114-.091h.1c.125,0,.159,0,.159.25v3.741c0,.114,0,.193-.136.193s-.114,0-.159-.136l-.694-1.66c-.193-.489-.318-.546-1.137-.557h-1.74Z" transform="translate(-24.566 -14.118)" fill="#fff"/>
        <path id="Path_810" data-name="Path 810" d="M156.438,21.665H158c1.285,0,1.5,0,1.8-.512l.364-.58c0-.1,0-.114.136-.114a.148.148,0,0,1,.136.171h0v3.753c0,.136,0,.182-.148.182s0,0-.136-.125l-.432-.989c-.25-.557-.33-.6-.762-.625h-2.513v3.082c0,.91,0,1.24.182,1.308a10.951,10.951,0,0,0,2.115.114c1.6,0,1.774,0,2.081-.785l.455-1.012s.091-.114.148-.114.159,0,.159.193v1.945c0,.819-.136.955-.819.955h-7.733c-.136,0-.216,0-.216-.148s0-.125.159-.159l.944-.353c.705-.25.864-.387.864-.8V18.64c0-1,0-1.137-.125-1.205a.182.182,0,0,0-.171-.136,2.184,2.184,0,0,0-.523-.239l-.989-.364a.159.159,0,0,1-.159-.159c0-.159,0-.159.33-.159h2.684c1.751,0,3.5-.068,5.243-.227v3.014c0,.136,0,.193-.159.193s0,0-.136-.136l-.375-.9a1.387,1.387,0,0,0-.5-.694,5.606,5.606,0,0,0-1.945-.136h-1.512Z" transform="translate(-22.918 -14.069)" fill="#fff"/>
        <path id="Path_811" data-name="Path 811" d="M173.471,26.177l.3.466c.444.705.523.785.989.978l1.137.421a.2.2,0,0,1,.148.193c0,.1,0,.159-.227.159h-4.867q-.239,0-.239-.171a.25.25,0,0,1,.136-.182l.978-.409c.216-.091.33-.171.33-.284a.8.8,0,0,0-.136-.318l-1.945-3.412-1.945,3.525v.25c0,.068,0,.159.25.239l1.035.444a.216.216,0,0,1,.136.193c0,.1,0,.159-.216.159h-4.7c-.148,0-.2,0-.2-.171a.159.159,0,0,1,.136-.182l1.24-.5c.569-.239.8-.466,1.558-1.751l2.081-3.468-1.694-2.843a11.872,11.872,0,0,0-1.228-1.945,1.888,1.888,0,0,0-.6-.307l-1.262-.489c-.114,0-.159,0-.159-.182s0-.171.216-.171h5.026c.136,0,.216,0,.216.171a.182.182,0,0,1-.136.182l-.921.432c-.227.091-.307.148-.307.262s0,.159.171.409l.262.455,1.41,2.468,1.444-2.513a4.82,4.82,0,0,0,.432-.876s0-.114-.216-.193l-1.012-.444a.182.182,0,0,1-.136-.182c0-.114,0-.171.216-.171h4.549c.136,0,.193,0,.193.171s0,.136-.159.182l-1.433.523a1.274,1.274,0,0,0-.785.648l-2.57,4.162Z" transform="translate(-21.323 -14.032)" fill="#fff"/>
        <path id="Path_812" data-name="Path 812" d="M183.857,23.624h-1.808l-1.137,3.014-.114.387a.489.489,0,0,0,0,.182c0,.114,0,.159.364.3l1.137.478s.148.1.148.182,0,.171-.227.171h-4.492c-.136,0-.227,0-.227-.171s0-.136.171-.182l1.035-.478c.444-.2.489-.239.625-.534l.25-.58a3.866,3.866,0,0,1,.273-.705l2.274-5.948a33.217,33.217,0,0,0,1.137-3.355v-.25H184.6a22.947,22.947,0,0,0,.932,2.877l2.274,5.686c.421,1.137.9,2.161,1.046,2.5s.136.227.569.4l.91.409s.159.1.159.182,0,.171-.239.171h-4.742q-.239,0-.239-.171c0-.182,0-.136.182-.182l1.069-.421c.353-.136.387-.182.387-.33a1.49,1.49,0,0,0-.136-.546l-1.137-3.059C184.892,23.624,184.266,23.624,183.857,23.624Zm0-4.617-1.3,3.412h2.684Z" transform="translate(-19.53 -14.072)" fill="#fff"/>
        <path id="Path_813" data-name="Path 813" d="M195.483,19.515v7.824c0,.068.136.114.387.2l1.422.569a.216.216,0,0,1,.136.171c0,.1,0,.159-.193.159h-5.061c-.125,0-.193,0-.193-.159s0-.091.148-.136l1.205-.557c.455-.182.546-.273.569-.66V16.24h1.308a6.968,6.968,0,0,0,.637.773l.569.682a11.027,11.027,0,0,0,.762.842l4.162,4.549.739.773.716.739.762.819.307.33v-7.96c0-.33,0-.387-.444-.546l-1.478-.58s-.136-.1-.136-.159,0-.148.193-.148H207.1c.136,0,.193,0,.193.148a.193.193,0,0,1-.125.136l-1.342.625c-.364.193-.409.239-.421.546V28.636H204.16l-.216-.159-.6-.716L202.7,27l-.819-.91L197.245,21l-.466-.489-1.3-1.353Z" transform="translate(-17.543 -14.057)" fill="#fff"/>
        <path id="Path_814" data-name="Path 814" d="M209.856,14.32a3.093,3.093,0,0,1,1.49.387,2.672,2.672,0,0,1,1.137,1.137,3.116,3.116,0,0,1,.409,1.524,2.922,2.922,0,0,1-.409,1.478,2.661,2.661,0,0,1-1.137,1.137,3.025,3.025,0,0,1-2.979,0,2.7,2.7,0,0,1-1.137-1.137,2.809,2.809,0,0,1-.409-1.478,3.116,3.116,0,0,1,.409-1.524,2.706,2.706,0,0,1,1.137-1.137A3.093,3.093,0,0,1,209.856,14.32Zm0,.6a2.274,2.274,0,0,0-1.194.307,2.149,2.149,0,0,0-.9.876,2.456,2.456,0,0,0-.33,1.228,2.422,2.422,0,0,0,.318,1.137,2.115,2.115,0,0,0,.887.9,2.343,2.343,0,0,0,2.4,0,2.138,2.138,0,0,0,.9-.9,2.49,2.49,0,0,0,.33-1.137,2.581,2.581,0,0,0-.33-1.228,2.093,2.093,0,0,0-.9-.876,2.343,2.343,0,0,0-1.137-.307Zm-1.365,4V15.753h1.649a1.012,1.012,0,0,1,.512.136.648.648,0,0,1,.284.3.682.682,0,0,1,.136.466.785.785,0,0,1-.227.58,1.3,1.3,0,0,1-.648.318l.239.114.216.227.227.4.4.637h-.842l-.262-.5a2.649,2.649,0,0,0-.444-.671.762.762,0,0,0-.444-.136h-.182v1.308Zm.637-1.808h.273a3.412,3.412,0,0,0,.682,0,.284.284,0,0,0,.216-.159.387.387,0,0,0,0-.227.466.466,0,0,0,0-.25.3.3,0,0,0-.216-.136,2.274,2.274,0,0,0-.682,0h-.273Z" transform="translate(-15.507 -14.32)" fill="#fff"/>
      </g>
    </g>
  </g>
</svg>
