<svg xmlns="http://www.w3.org/2000/svg" viewBox="0 0 1442.4 18.5"><path d="M1441.36 17.16c-1.18 1.13-1.76-1.41-3.4-1.41s-1.63 2.55-3.27 2.55-1.63-2.57-3.27-2.57-1.63 2.64-3.27 2.64-1.63-2.24-3.27-2.24-1.63.7-3.27.7-1.63.73-3.27.73-1.63-1.09-3.27-1.09-1.63 1.38-3.27 1.38-1.63.54-3.27.54-1.63-.74-3.27-.74-1.63.57-3.27.57-1.63-1.57-3.27-1.57-1.63 1.3-3.27 1.3-1.63-.63-3.27-.63-1.63.38-3.27.38-1.63.47-3.27.47-1.63-1.02-3.27-1.02-1.63.09-3.27.09-1.63-1.09-3.27-1.09-1.63 1.89-3.27 1.89-1.63-1.15-3.27-1.15-1.63-1.03-3.27-1.03-1.63 2.16-3.27 2.16-1.63-1.17-3.27-1.17-1.63-.76-3.27-.76-1.63-.48-3.27-.48-1.63.38-3.27.38-1.63.14-3.27.14-1.64 2.3-3.27 2.3-1.64-.32-3.27-.32-1.64-1.8-3.27-1.8-1.64 1.26-3.27 1.26-1.64-1.68-3.27-1.68-1.64 1.45-3.27 1.45-1.64-.62-3.27-.62-1.64 1.31-3.27 1.31-1.64-.68-3.27-.68-1.64.72-3.27.72-1.64-1.1-3.27-1.1-1.64-.45-3.27-.45-1.64-.64-3.27-.64-1.64.41-3.27.41-1.64.92-3.27.92-1.64-.19-3.27-.19-1.64.74-3.27.74-1.64.34-3.27.34-1.64.27-3.27.27-1.64-.61-3.27-.61-1.64.67-3.27.67-1.64-1.97-3.27-1.97-1.64.52-3.27.52-1.64-.43-3.27-.43-1.64.01-3.27.01-1.64.13-3.27.13-1.64.64-3.27.64-1.64-.16-3.27-.16-1.64.51-3.27.51-1.64-2.01-3.27-2.01-1.64.23-3.27.23-1.64 1.52-3.27 1.52-1.64.33-3.27.33-1.64-.81-3.27-.81-1.64 1.48-3.27 1.48-1.63-2.75-3.27-2.75-1.63.46-3.27.46-1.63-.53-3.27-.53-1.63.11-3.27.11-1.63.91-3.27.91h-3.27c-1.64 0-1.63 1.27-3.27 1.27s-1.63-1.76-3.27-1.76-1.64 2.1-3.27 2.1-1.64-1.26-3.27-1.26-1.64.72-3.27.72-1.64-.19-3.27-.19-1.64.68-3.27.68-1.64-.56-3.27-.56-1.64.36-3.27.36-1.64-1.59-3.27-1.59-1.64-.25-3.27-.25-1.64 2.23-3.27 2.23-1.64-1.72-3.27-1.72-1.64 1.58-3.27 1.58-1.64.19-3.27.19-1.64-1.95-3.27-1.95-1.64-.66-3.27-.66-1.64.82-3.27.82-1.64-1.02-3.27-1.02-1.64 2.45-3.27 2.45-1.64-.8-3.27-.8-1.64.34-3.27.34-1.64-.12-3.27-.12-1.64-1.67-3.27-1.67-1.64 1.3-3.27 1.3-1.64-.61-3.27-.61-1.64 1.33-3.27 1.33-1.64-.9-3.27-.9-1.64.09-3.27.09-1.64 1.06-3.27 1.06-1.64-1.28-3.27-1.28-1.64-.14-3.27-.14-1.64-.58-3.27-.58-1.64-.24-3.27-.24-1.64.74-3.27.74-1.64-.83-3.27-.83-1.64 2.21-3.27 2.21-1.64.21-3.27.21-1.64-1.18-3.27-1.18-1.64.54-3.27.54-1.64-.04-3.27-.04-1.64.05-3.27.05-1.64-1.08-3.27-1.08-1.64.09-3.27.09-1.64-.83-3.27-.83-1.64.3-3.27.3-1.64-.02-3.27-.02-1.64 2.15-3.27 2.15-1.64-2.25-3.27-2.25-1.64 1.78-3.27 1.78-1.64-.74-3.27-.74-1.64.32-3.27.32-1.64.66-3.27.66-1.64-.11-3.27-.11-1.64-1.41-3.27-1.41-1.64-.02-3.27-.02-1.64 2.04-3.27 2.04-1.64-.84-3.27-.84-1.64-.83-3.27-.83-1.64-.13-3.27-.13-1.64.02-3.27.02-1.64-.47-3.27-.47-1.64-.54-3.27-.54-1.64-.05-3.27-.05-1.64.47-3.27.47-1.64 1.62-3.27 1.62-1.64-1.7-3.27-1.7-1.64 2.21-3.27 2.21-1.64-2.1-3.27-2.1-1.64.43-3.27.43-1.64.27-3.27.27-1.64-.38-3.27-.38-1.64-.67-3.27-.67-1.64.04-3.27.04-1.64 2.55-3.27 2.55-1.64-2.49-3.27-2.49-1.64 1.55-3.27 1.55-1.64-1.16-3.27-1.16-1.64.57-3.27.57-1.64-.5-3.27-.5-1.64 1.95-3.27 1.95-1.64-2.11-3.27-2.11-1.64.5-3.27.5-1.64-.9-3.27-.9-1.64 2.43-3.27 2.43-1.64-.83-3.27-.83-1.64.62-3.27.62-1.64-1.48-3.27-1.48-1.64-.02-3.27-.02-1.64.51-3.27.51-1.64-.9-3.27-.9-1.64.8-3.27.8-1.64 1.37-3.27 1.37-1.64-.33-3.27-.33-1.64-1.2-3.27-1.2-1.64-.45-3.27-.45-1.64.72-3.27.72-1.64.2-3.27.2-1.64.18-3.27.18-1.64-1.02-3.27-1.02-1.64.61-3.27.61-1.64-.17-3.27-.17-1.64-.79-3.27-.79-1.64 1.96-3.27 1.96-1.64-1.72-3.27-1.72-1.64.06-3.27.06-1.64 1.51-3.27 1.51-1.64-1.14-3.27-1.14-1.64.15-3.27.15-1.64.46-3.27.46-1.64.39-3.27.39-1.64-1.45-3.27-1.45-1.64.86-3.27.86-1.64-.99-3.27-.99-1.64 2.11-3.27 2.11-1.64-.89-3.27-.89-1.64-1.59-3.27-1.59-1.64 2.41-3.27 2.41-1.64-.04-3.27-.04-1.64-.21-3.27-.21-1.64-.92-3.27-.92-1.64 1.32-3.27 1.32-1.64-2.4-3.27-2.4-1.64 1.03-3.27 1.03-1.64.14-3.27.14-1.64.96-3.27.96-1.64-2.13-3.27-2.13-1.64 1.88-3.27 1.88-1.64-.98-3.27-.98-1.64 1.57-3.27 1.57-1.64-.14-3.27-.14-1.64-1.04-3.27-1.04-1.64-.23-3.27-.23-1.64-1.12-3.27-1.12-1.64.97-3.27.97-1.64-.45-3.27-.45-1.64 2.02-3.27 2.02-1.64-.04-3.27-.04-1.64-2.15-3.27-2.15-1.64.91-3.27.91-1.64.87-3.27.87-1.64-2.05-3.27-2.05-1.64.33-3.27.33-1.64.2-3.27.2-1.64.32-3.27.32-1.64 1.7-3.27 1.7-1.64-2.58-3.27-2.58-1.64 1.7-3.27 1.7-1.64-.55-3.27-.55-1.64.53-3.27.53-1.64-1.11-3.27-1.11-1.64-.83-3.27-.83-1.64.04-3.27.04-1.63.56-3.27.56-1.63-.6-3.27-.6-1.63.77-3.27.77-1.63.59-3.27.59-1.63 1.06-3.27 1.06-1.63.27-3.27.27-1.63-.27-3.27-.27-1.63-.43-3.27-.43-1.63-1.5-3.27-1.5-1.63 2-3.27 2-1.63-1.69-3.27-1.69-1.63 1.72-3.27 1.72-1.63-.88-3.27-.88-1.63-1.01-3.27-1.01-1.63-.15-3.27-.15-1.63 1.01-3.27 1.01-1.63.72-3.27.72-1.63-.98-3.27-.98-1.63 1.54-3.27 1.54-1.63-2.29-3.27-2.29-1.63-.38-3.27-.38-1.63.97-3.27.97-1.63.64-3.27.64-1.63.06-3.27.06-1.64.69-3.27.69-1.64-.45-3.27-.45-1.64.71-3.27.71-1.64-1.24-3.27-1.24-1.64-.06-3.27-.06-1.64-.68-3.27-.68-1.64 1.79-3.27 1.79-1.64-2.53-3.27-2.53-1.64 1.17-3.27 1.17-1.64.26-3.27.26-1.64 1.31-3.27 1.31-1.64-2-3.27-2-1.64 1.59-3.27 1.59-1.64-2.25-3.27-2.25-1.64 1.36-3.27 1.36-1.64.5-3.27.5-1.64-.77-3.27-.77-1.63-.62-3.27-.62-1.63.03-3.27.03-1.63.92-3.27.92-1.63.28-3.27.28-1.63.77-3.27.77-1.63-.14-3.27-.14-1.63-.24-3.27-.24-1.63-1.41-3.27-1.41-1.63.57-3.27.57-1.63-.3-3.27-.3-1.64 1.62-3.27 1.62-1.64-2.46-3.27-2.46-1.64 2.49-3.27 2.49-1.64.04-3.27.04-1.64-.56-3.27-.56-1.64.45-3.27.45-1.64-1.8-3.27-1.8-1.64-.31-3.27-.31-1.64.7-3.27.7-1.64-.54-3.28-.54-1.64-.09-3.28-.09-1.64-.56-3.27-.56h-3.27c-1.63 0-1.64 1.41-3.27 1.41s-1.64 1.32-3.27 1.32-1.64-.74-3.27-.74-1.64-1.2-3.27-1.2-1.64-.48-3.27-.48-1.64 1.84-3.27 1.84-1.64-1.16-3.27-1.16-1.64-.46-3.27-.46-1.64 1.56-3.27 1.56-1.64-1.2-3.27-1.2-1.64-.43-3.27-.43-1.64.11-3.27.11-1.64.3-3.27.3-1.64 1.91-3.27 1.91-1.64-2.31-3.27-2.31-1.64-.49-3.27-.49-1.64 2.46-3.27 2.46-1.64-2.27-3.27-2.27-1.64 1.19-3.27 1.19-1.64.11-3.28.11-1.64-.71-3.28-.71-1.64 1.87-3.27 1.87-1.64-.36-3.27-.36-1.64.37-3.27.37-1.64-2.12-3.27-2.12h-3.27c-1.63 0-1.64.35-3.27.35s-1.64.62-3.27.62-1.64-.98-3.27-.98-1.64 1.85-3.27 1.85-1.64-.61-3.27-.61-1.64-1.36-3.27-1.36-1.64.6-3.27.6-1.64.48-3.27.48-1.64.96-3.27.96-1.64-2.45-3.27-2.45-1.64 1.5-3.28 1.5-1.64.69-3.28.69-1.64-.29-3.28-.29-1.64-.15-3.28-.15-1.64-1.37-3.27-1.37-1.64.96-3.27.96-1.64-.81-3.27-.81-1.64 1.68-3.27 1.68-1.64-1.79-3.27-1.79-1.64.55-3.27.55-1.64 1.14-3.27 1.14-1.64-1.71-3.27-1.71-1.64 2.12-3.27 2.12-1.64-.28-3.27-.28-1.64-1.54-3.28-1.54-1.64.53-3.28.53-1.64-.88-3.28-.88-1.64 1.46-3.28 1.46-1.64-1.1-3.28-1.1-1.64 1.48-3.27 1.48-1.64-.4-3.27-.4-1.64-.27-3.27-.27-1.64-.22-3.27-.22-1.64-.7-3.27-.7-1.64-.38-3.27-.38-1.64.22-3.27.22-1.64 1.37-3.28 1.37-1.64-1.58-3.28-1.58-1.64 2.04-3.28 2.04-1.64-1.83-3.28-1.83-1.64 2.29-3.28 2.29-1.64-.05-3.27-.05-1.64-2-3.27-2-1.64-.64-3.27-.64-1.64 1.09-3.27 1.09-1.64 1.33-3.27 1.33-1.64-.98-3.28-.98-1.64.45-3.28.45-1.64-.6-3.28-.6-1.64-.99-3.28-.99-1.64-.14-3.28-.14-1.64.21-3.28.21-1.64 1.84-3.27 1.84-1.64-.49-3.28-.49-1.64-.05-3.28-.05-1.64 1.04-3.28 1.04-1.64-.52-3.28-.52-1.64-1.67-3.28-1.67-1.64.99-3.28.99-1.64.38-3.28.38-1.64-1.66-3.28-1.66-1.64 1.05-3.28 1.05-1.64-1.07-3.28-1.07-1.64.4-3.28.4-1.64 1.87-3.28 1.87h-3.28c-1.64 0-1.64-2.43-3.28-2.43s-1.64 1.25-3.28 1.25-1.64.41-3.28.41-1.64-1.75-3.28-1.75-1.64 1.46-3.28 1.46-1.64.21-3.27.21-1.64.22-3.27.22-1.64-.17-3.27-.17-1.64.73-3.27.73-1.64-.34-3.27-.34-1.64-1.73-3.27-1.73-1.64.65-3.27.65-1.64.91-3.28.91-1.64.1-3.28.1-1.64-1.14-3.28-1.14-1.64-.49-3.27-.49-1.64.66-3.27.66-1.64 1.18-3.27 1.18-1.64-1.75-3.27-1.75-1.64.47-3.28.47-1.64-.56-3.28-.56-1.64 1.57-3.28 1.57-1.64-1.12-3.28-1.12-1.64.12-3.27.12-1.64 1.31-3.28 1.31-1.64.26-3.28.26-1.64-.44-3.28-.44-1.64-.09-3.28-.09-1.64-1.13-3.28-1.13-1.64 1.82-3.28 1.82-1.64.08-3.28.08-1.64-.09-3.28-.09-1.64-1.08-3.28-1.08-1.64-.73-3.28-.73-1.64 1.26-3.28 1.26-1.64-.43-3.28-.43-1.64-1.44-3.28-1.44-1.64.55-3.28.55-1.64 1.45-3.28 1.45-1.64-.68-3.28-.68-1.64-.55-3.28-.55-1.64.18-3.28.18-1.64-.84-3.28-.84-1.64-.13-3.28-.13-1.64.65-3.27.65-1.64-.46-3.28-.46-1.64.21-3.28.21-1.64 1.62-3.28 1.62h-3.28c-1.64 0-1.64-2.36-3.28-2.36s-1.64 1.41-3.28 1.41-1.64.99-3.28.99-1.64-.62-3.28-.62-1.64.84-3.28.84-1.64-1.88-3.28-1.88-1.64.63-3.28.63-1.64.45-3.28.45-1.64-.48-3.28-.48-1.64-.51-3.28-.51S6.5 17.7 4.85 17.7s-3.07 1.4-4.27.27c-1.13-1.07 1.9-2.59 1.9-4.15s-.47-1.56-.47-3.12S.1 9.23.1 7.67s.75-1.56.75-3.12-.88-2.19.25-3.27S2.86.1 4.5.1s1.63 2.3 3.27 2.3 1.63.13 3.27.13 1.63-1.41 3.27-1.41 1.63.66 3.27.66 1.63-.16 3.27-.16 1.63.62 3.27.62S25.75.23 27.39.23s1.63 1.65 3.27 1.65 1.63-.71 3.27-.71 1.63 1.42 3.27 1.42 1.63-.91 3.27-.91S42.1.25 43.74.25s1.63 2.37 3.27 2.37 1.63-1.22 3.27-1.22 1.63-.67 3.27-.67 1.63-.42 3.27-.42 1.63 2.36 3.27 2.36S61.72.15 63.36.15s1.63 2 3.27 2 1.63.24 3.27.24 1.63.01 3.27.01 1.63.14 3.27.14S78.07.59 79.71.59s1.63.98 3.27.98 1.63.24 3.27.24 1.63-.84 3.27-.84 1.63 1.49 3.27 1.49S94.42.91 96.06.91s1.64 1.44 3.27 1.44 1.64-1.02 3.27-1.02 1.64.62 3.27.62 1.64-1.16 3.27-1.16 1.64.87 3.27.87 1.64-1.48 3.27-1.48 1.64 1.1 3.27 1.1 1.64.13 3.27.13 1.64-.87 3.27-.87 1.64 1.82 3.27 1.82 1.64-.13 3.27-.13 1.64-.15 3.27-.15 1.64-1.63 3.27-1.63 1.64 1.03 3.27 1.03 1.64-.21 3.27-.21 1.64 1.34 3.27 1.34 1.64-2.52 3.27-2.52 1.64-.1 3.27-.1 1.64 2.04 3.27 2.04 1.64.13 3.27.13 1.64-1.04 3.27-1.04 1.64 1.7 3.27 1.7 1.64-.5 3.27-.5 1.64-1.67 3.27-1.67 1.64 2.03 3.27 2.03 1.64-2.07 3.27-2.07 1.64.53 3.27.53 1.64-.11 3.27-.11 1.64-.57 3.27-.57 1.64.1 3.27.1 1.64-.21 3.27-.21h3.27c1.63 0 1.64 1.54 3.27 1.54s1.64.91 3.27.91 1.64-2.75 3.27-2.75 1.63 2.17 3.27 2.17 1.63-1.31 3.27-1.31 1.63-.57 3.27-.57 1.63-.27 3.27-.27 1.63 1.43 3.27 1.43 1.63.41 3.27.41 1.63-.38 3.27-.38 1.63-.69 3.27-.69 1.64 1.58 3.27 1.58 1.64-.73 3.27-.73 1.64-1.43 3.27-1.43 1.64 1.14 3.27 1.14 1.64-.67 3.27-.67 1.64.76 3.27.76 1.64.76 3.27.76 1.64.11 3.27.11 1.64.36 3.27.36 1.64-1.29 3.27-1.29 1.64-.26 3.27-.26 1.64-1.04 3.27-1.04 1.64.09 3.27.09 1.64.25 3.27.25 1.64.84 3.27.84 1.64-.91 3.27-.91 1.64-.05 3.27-.05 1.64-.29 3.27-.29 1.64.55 3.27.55 1.64 1.76 3.27 1.76S303.71.1 305.34.1s1.64.11 3.27.11 1.64 1.93 3.27 1.93 1.64.03 3.27.03 1.64-.22 3.27-.22 1.64-1.38 3.27-1.38 1.64 1.74 3.27 1.74 1.64-.93 3.27-.93 1.64-.69 3.27-.69 1.64.13 3.27.13 1.64-.02 3.27-.02 1.64-.82 3.27-.82 1.64.38 3.27.38 1.64 1.35 3.27 1.35 1.64-.89 3.27-.89 1.64-.79 3.27-.79 1.64-.02 3.27-.02 1.64.82 3.27.82 1.64.53 3.27.53 1.64.82 3.27.82 1.64-.71 3.27-.71 1.64.36 3.27.36h3.27c1.63 0 1.64-.57 3.27-.57s1.64-.29 3.27-.29 1.64 1.37 3.27 1.37 1.64-1.59 3.27-1.59 1.64-.36 3.27-.36S395.27.3 396.9.3s1.64 2.08 3.27 2.08 1.64-2.13 3.27-2.13 1.64.78 3.27.78 1.64 1.44 3.27 1.44 1.64-1.08 3.27-1.08 1.64-.75 3.27-.75 1.64 2.02 3.27 2.02 1.64-1.21 3.27-1.21 1.64 1.04 3.27 1.04 1.64.34 3.27.34 1.64-1.64 3.27-1.64 1.64-1.04 3.27-1.04 1.64.84 3.27.84 1.64-.91 3.27-.91 1.64 2.7 3.27 2.7 1.64-2.67 3.27-2.67 1.64 1.47 3.27 1.47 1.64.9 3.27.9 1.64-.95 3.27-.95 1.64 1 3.27 1 1.64-1.82 3.27-1.82 1.64.18 3.27.18 1.64.28 3.27.28 1.64.62 3.27.62 1.64.12 3.27.12 1.64-1.73 3.27-1.73 1.64.31 3.27.31 1.64 1.86 3.27 1.86S490.1.43 491.73.43s1.64 2.16 3.27 2.16 1.64-.18 3.27-.18 1.64.34 3.27.34 1.64-.75 3.27-.75 1.64-.18 3.27-.18 1.64-.79 3.27-.79 1.64-.34 3.27-.34 1.64.07 3.27.07 1.64.5 3.27.5 1.64-.5 3.27-.5 1.64-.51 3.27-.51 1.64.9 3.27.9 1.64.58 3.27.58 1.64.04 3.27.04S539.15.5 540.78.5s1.64-.29 3.27-.29 1.64.73 3.27.73 1.64-.96 3.27-.96 1.64 1.1 3.27 1.1S555.5.8 557.13.8s1.64 1.1 3.27 1.1 1.64.34 3.27.34 1.64-.95 3.27-.95 1.64-.56 3.27-.56 1.64-.37 3.27-.37 1.64.72 3.27.72 1.64 1.22 3.27 1.22 1.64.35 3.27.35S584.93.6 586.56.6s1.64 1.34 3.27 1.34S591.47.51 593.1.51s1.64.67 3.27.67 1.64-.52 3.27-.52 1.64.51 3.27.51 1.64.7 3.27.7 1.64-1.3 3.27-1.3 1.64 1.59 3.27 1.59 1.64-.24 3.27-.24 1.64.01 3.27.01 1.64.3 3.27.3S624.17.08 625.8.08s1.64.66 3.27.66 1.64 1.09 3.27 1.09 1.64-.72 3.27-.72 1.64.97 3.27.97 1.64-1.71 3.27-1.71 1.64 1.65 3.27 1.65 1.64.05 3.27.05 1.64-1.06 3.27-1.06 1.64.79 3.27.79 1.64-.91 3.27-.91 1.64-.57 3.27-.57 1.64 1.53 3.27 1.53 1.64.22 3.27.22 1.64-1.69 3.27-1.69 1.64.06 3.27.06 1.64.57 3.27.57 1.64-1.03 3.27-1.03 1.64 2.62 3.27 2.62S686.3.58 687.93.58s1.64 1.3 3.27 1.3 1.64-.23 3.27-.23 1.64.99 3.27.99 1.64-.34 3.27-.34 1.64-.28 3.27-.28 1.64.07 3.27.07 1.64-.61 3.27-.61 1.64-.4 3.27-.4 1.64.15 3.27.15 1.64-.22 3.27-.22 1.64.4 3.27.4 1.64-.45 3.27-.45 1.64-.34 3.27-.34 1.63-.38 3.27-.38 1.63 1.7 3.27 1.7 1.63.52 3.27.52 1.63-1.06 3.27-1.06 1.63-.83 3.27-.83 1.63 1.03 3.27 1.03 1.63-.28 3.27-.28 1.63 1.11 3.27 1.11 1.63-2.15 3.27-2.15 1.63.68 3.27.68 1.63 1.42 3.27 1.42 1.63.07 3.27.07 1.63-.93 3.27-.93 1.63-.98 3.27-.98 1.63 1.62 3.27 1.62 1.63-2.13 3.27-2.13 1.63.85 3.27.85 1.63-.45 3.27-.45 1.63 1.83 3.27 1.83S794.2.27 795.84.27s1.63 1.82 3.27 1.82 1.63-1.02 3.27-1.02 1.63.31 3.27.31 1.63-.37 3.27-.37 1.64.11 3.27.11 1.64-.52 3.27-.52 1.64 1.53 3.27 1.53 1.64.04 3.27.04 1.64-.18 3.27-.18 1.64.52 3.27.52 1.64-1.85 3.27-1.85 1.64 1.69 3.27 1.69 1.64-.5 3.27-.5 1.64-1.62 3.27-1.62 1.64.64 3.27.64 1.64-.52 3.27-.52 1.64.45 3.27.45 1.64.61 3.27.61 1.64-.13 3.27-.13 1.64-.88 3.27-.88 1.64.63 3.27.63 1.63-.23 3.27-.23 1.63 1.1 3.27 1.1 1.63-.71 3.27-.71 1.63.53 3.27.53 1.63.35 3.27.35 1.63.3 3.27.3 1.63-.3 3.27-.3 1.63-1.83 3.27-1.83h3.27c1.64 0 1.63.93 3.27.93s1.64-.26 3.27-.26 1.64-.31 3.27-.31 1.64 1.54 3.27 1.54 1.64-.4 3.27-.4 1.64.65 3.27.65 1.64-.3 3.27-.3 1.64.08 3.27.08S921.74.8 923.37.8s1.64 1.83 3.27 1.83 1.64-2.07 3.28-2.07 1.64 1.86 3.28 1.86 1.64-.35 3.27-.35 1.64-1.38 3.27-1.38 1.64.92 3.27.92 1.64-1.4 3.27-1.4 1.64 1.83 3.27 1.83 1.64.72 3.27.72 1.64-2.62 3.27-2.62 1.64.19 3.27.19S961 2.3 962.63 2.3 964.27.49 965.9.49s1.64-.24 3.27-.24 1.64.68 3.27.68h3.27c1.63 0 1.64.65 3.27.65s1.64-.07 3.27-.07 1.64.38 3.27.38 1.64-1.6 3.27-1.6 1.64 1.66 3.27 1.66 1.64.34 3.27.34 1.64-.57 3.27-.57 1.64-.93 3.27-.93 1.64-.24 3.28-.24 1.64.35 3.28.35 1.64-.74 3.27-.74 1.64.66 3.27.66 1.64.24 3.27.24 1.64 1.16 3.27 1.16 1.64-.76 3.27-.76 1.64-.19 3.27-.19 1.64-.73 3.27-.73 1.64 1.15 3.27 1.15 1.64-.9 3.27-.9 1.64-.67 3.27-.67 1.64 1.34 3.27 1.34 1.64-.9 3.27-.9 1.64.14 3.27.14 1.64.83 3.27.83 1.64-.26 3.27-.26 1.64-.01 3.28-.01 1.64 1.35 3.28 1.35 1.64-.76 3.28-.76 1.64-.44 3.28-.44 1.64.63 3.27.63 1.64-1.96 3.27-1.96 1.64.02 3.27.02 1.64 1.68 3.27 1.68 1.64-1.26 3.27-1.26 1.64 1.86 3.27 1.86 1.64-1.42 3.27-1.42 1.64 1.11 3.27 1.11 1.64-.11 3.27-.11 1.64.8 3.27.8 1.64-2.51 3.28-2.51 1.64 1.81 3.28 1.81 1.64-.42 3.28-.42 1.64-1.05 3.28-1.05 1.64 1.18 3.28 1.18 1.64.56 3.27.56 1.64-1.46 3.27-1.46 1.64-.34 3.27-.34 1.64-.06 3.27-.06 1.64 2.28 3.27 2.28 1.64-.39 3.27-.39 1.64.2 3.27.2 1.64-1.41 3.28-1.41 1.64-.52 3.28-.52 1.64 1.11 3.28 1.11 1.64-.34 3.28-.34 1.64.53 3.28.53 1.64-1.72 3.27-1.72 1.64 1.36 3.27 1.36 1.64-1.15 3.27-1.15 1.64-.35 3.27-.35 1.64.53 3.27.53 1.64.32 3.28.32 1.64-.23 3.28-.23 1.64.52 3.28.52 1.64-1.19 3.28-1.19 1.64 1.67 3.28 1.67 1.64.71 3.28.71 1.64-1.92 3.27-1.92 1.64.12 3.28.12 1.64 1.19 3.28 1.19 1.64.26 3.28.26 1.64.72 3.28.72 1.64-.11 3.28-.11 1.64-.7 3.28-.7 1.64.59 3.28.59 1.64-.77 3.28-.77 1.64-.21 3.28-.21 1.64.63 3.28.63 1.64.1 3.28.1 1.64.03 3.28.03 1.64-.44 3.28-.44 1.64-1.81 3.28-1.81 1.64.55 3.28.55 1.64 2.07 3.28 2.07 1.64-1.11 3.28-1.11 1.64.02 3.28.02 1.64-1.46 3.27-1.46 1.64 1.29 3.27 1.29 1.64-.11 3.27-.11 1.64.71 3.27.71 1.64.75 3.27.75h3.27c1.63 0 1.64-2.69 3.27-2.69s1.64 2.06 3.28 2.06 1.64-1.67 3.28-1.67 1.64 1.25 3.28 1.25 1.64-1.09 3.27-1.09 1.64-.62 3.27-.62 1.64.41 3.27.41 1.64.3 3.27.3 1.64-.32 3.28-.32 1.64.37 3.28.37 1.64 1.52 3.28 1.52 1.64-.8 3.28-.8 1.64-1.55 3.27-1.55 1.64 1.78 3.28 1.78 1.64.18 3.28.18 1.64-1 3.28-1 1.64.82 3.28.82 1.64-.69 3.28-.69 1.64 1.11 3.28 1.11 1.64-1.46 3.28-1.46 1.64 1.78 3.28 1.78 1.64-.73 3.28-.73 1.64.2 3.28.2 1.64.36 3.28.36 1.64-1.43 3.28-1.43 1.64.74 3.28.74 1.64-.05 3.28-.05 1.64.97 3.28.97 1.64-1.61 3.28-1.61 1.64.5 3.28.5 1.64-.36 3.28-.36 1.64.33 3.28.33 1.64-.57 3.28-.57 1.64.79 3.27.79 1.64-.5 3.28-.5 1.64-.59 3.28-.59 1.64 2.03 3.28 2.03 1.64.18 3.28.18 1.64-2.4 3.28-2.4 1.64.32 3.28.32 1.64-.32 3.28-.32 1.64-.35 3.28-.35 1.64 1.44 3.28 1.44 1.64 1.05 3.28 1.05 1.64-2.03 3.28-2.03 1.64 1.03 3.28 1.03 1.64 1.29 3.28 1.29 1.64-.72 3.28-.72 1.64-.33 3.29-.33 3-2.42 4.2-1.28c1.13 1.07-1.75 2.52-1.75 4.08s-.06 1.56-.06 3.12 1.66 1.56 1.66 3.12-.18 1.38.18 2.9c.4 1.7.32 2.4-.81 3.48Z" style="fill:#fff"/></svg>