<svg id="a" xmlns="http://www.w3.org/2000/svg" viewBox="0 0 710.59 17.96"><defs><style>.d{fill:#fff}</style></defs><path class="d" d="M96.05 1.99s0-.07-.02-.1l.04.06c.42-.59.27-1.44.88-1.95h-1.71c-.01.75.38 1.32.78 1.89 0 .04 0 .07.02.1ZM449.53 1.8c.22-.3.45-.71.83-.67.88.08 1.04-.56 1.31-1.13h-4.55c.49.59 1.08 1.06 1.41 1.82.27.62.58.56 1.01-.02ZM478.63 1.77c.5-.59 1.05-1.13 1.74-1.49.04-.02 0-.18 0-.27h-4.55c.59.59 1.19 1.17 1.77 1.77.37.38.68.41 1.04 0ZM496.85 1.83c.04.1.16.1.25.04.58-.43 1.02-1.05 1.89-1.07.3 0 .95-.17.98-.79h-5.4c.79.56 1.82.83 2.27 1.82ZM230.71 1.91c.73-.52 1.26-1.22 1.81-1.9h-3.98c.42.65 1.13 1.06 1.39 1.85.12.37.45.29.78.05ZM468.5 2.17c.99-.46 1.03-1.68 1.93-2.17h-3.7c.17 1.09 1.18 1.45 1.77 2.17ZM506.71 1.35c.71-.69 1.59-.35 2.4-.44.52-.06.88-.3.81-.9h-5.4c.45.55 1.11.82 1.69 1.2.16.1.37.27.5.15ZM629.56.31c.78.18 1.2.62 1.18 1.45 0 .19.2.29.43.39.72-.68 1.5-1.33 2.11-2.15h-3.98c.08.11.15.28.26.3ZM325.97 2.24c.21-.99 1.34-1.26 1.48-2.23h-3.41c.66.69 1.06 1.61 1.93 2.23ZM288.7.78c.36-.1.64-.51.96-.77h-4.26c.77.72 1.53 1.44 2.47 2.33 0-.84.12-1.35.84-1.55ZM688.59 2.09c.9-.45 1.18-1.42 1.82-2.09h-3.13c.34.76.23 1.8 1.3 2.09ZM459.18 1.45c.36.18.75-.04.98-.37.23-.34.4-.71.6-1.07h-3.98c.44 1.07 1.57 1.02 2.4 1.44ZM601.67.98c1.03 1.04 1.07 1 2.06-.04.26-.27.54-.52.56-.94h-3.7c.04.67.73.62 1.08.97ZM535.74 1.97c.88-.47 1-1.15.34-1.97h-2.84c.59.59 1.19 1.18 1.78 1.76.2.2.39.38.72.21ZM250.24.98c.29-.3.63-.55.76-.97h-3.41c.11.19.22.39.33.58.87 1.56 1.14 1.6 2.33.39ZM419.82.54c.25-.08.49-.25.73-.25.04 0 .07 0 .11.02.07.01.13.03.2.08.33.26.1.71.16 1.08.04.21.17.33.4.51.82-.6 1.41-1.54 2.4-1.96h-4.83c.16.38.43.67.84.53ZM192.03 2.44c.3-1.23 1.28-1.66 1.84-2.44h-3.7c.79.59 1.35 1.37 1.86 2.44ZM135.35 1.16c.37-.32.7-.57 1.22-.55.36.01.41-.32.45-.6h-3.69c.16.32.3.67.5.96.44.62.92.7 1.52.19ZM200.64 1.55c.1.3.21.67.62.55.32-.1.5-.38.53-.75.04-.39-.21-.87.3-1.13.13.03.26.07.39.1.28.06.11.72.61.46.3-.16.43-.43.43-.77h-4.26c.46.51 1.14.83 1.37 1.55ZM515.91 1.65c-.02.12.15.22.31.21.25-.02.31-.24.3-.4-.08-.78.28-1.02 1-.92.51.07.89-.19 1.23-.53h-4.26c.42.59 1.61.52 1.43 1.65ZM144.2 2.16c.43-.93 1.25-1.47 1.92-2.16h-2.56c.2.71-.35 1.63.64 2.16ZM238.42.57c.43.12.76-.41 1.14-.2.21.46-.05.91.33 1.45.52-.61 1.29-.92 1.44-1.81h-3.41c.03.31.15.47.5.56ZM173.17 1.09c.67-.06 1.17-.28 1.09-1.09h-2.84c.5 1.06.69 1.18 1.75 1.09ZM362.97.55c.66.15.96.64 1.26 1.15.71-.37.98-1.06 1.31-1.7h-3.13c.05.32.32.49.55.55ZM373.77 1.85c.4.28.57-.15.77-.36.44-.46 1.03-.81 1.23-1.48h-2.27c.22.25.67.41.21.87-.3.3-.3.72.06.98ZM582.57 1.1c.24.26.44.71.88.54.47-.18.45-.65.43-1.08 0-.18-.04-.37-.05-.55h-2.27c.21.49.68.73 1.02 1.09ZM355.21.4c.07-.02.07-.26.1-.39h-2.56c.15.58.3 1.17.51 1.93.68-.67 1.2-1.27 1.95-1.54ZM316.6 1.81c-.03-.55-.03-1.05.21-1.39.23-.1.47-.24.7-.42h-3.13c.77.49 1.21 1.38 2.22 1.81ZM184.2 0h-3.13c-.18.54.45.79.42 1.43.85-.76 2.05-.52 2.71-1.43ZM279.99 0h-2.84c-.07.46-.15.91.14 1.44.89-.52 1.93-.7 2.7-1.44ZM343.97.78c.13-.03.24-.07.38-.04q.94.19 1.29-.73h-2.84c.31.98.32.99 1.17.77ZM440.28.25c.67-.03 1.39.29 2.01-.25h-4.83c.9 1.37 1.95 1.46 2.83.25ZM382.47.49c.3-.13.59-.4.71.16.06.3-.08.72.36.79.36.05.55-.29.75-.54.23-.27.61-.45.57-.9h-2.84c-.06.36-.08.7.45.49ZM220.54.89c.82.26 1.22 0 1.75-.88h-3.41c.4.59 1.08.7 1.67.88ZM612.04 1.64c.11-.05.23-.09.34-.15.22-.14.59-.01.67-.43-.12-.44-.69-.58-.8-1.06h-1.71c.29.74 1.31.8 1.5 1.64ZM124.63 1.09c.58.12 1.08 0 1.2-.73.02-.14.26-.24.39-.36h-2.56c-.06.7.41.97.96 1.09ZM269.47.22c.49.03 1.05.49 1.43-.22h-3.41c-.11.92.63 1.36 1.15 2.08 0-.83.08-1.51.83-1.86ZM258.79.95c.59.04.98-.5 1.55-.43.25.07.57.17.7-.08.09-.18-.41-.14-.38-.44h-3.13c.09.75.58.91 1.26.95ZM707.5 1.3c.57.08.88-.83 1.47-1.11.08-.04.14-.12.2-.18h-2.84c.39.46.73 1.23 1.17 1.3ZM335.03 1.05c.56.1 1.04-.32.95-1.04h-2.27c-.04.93.81.95 1.32 1.04ZM650.92.31c.3-.03.66.08.84-.3h-3.41c.7 1.17 1.36 1.24 2.57.3ZM621.63.93c.93 0 1.26-.17 1.42-.92h-1.99c-.08.47-.21.92.57.92ZM114.77.6c.3.12.62 0 .95.17.79.39.85.33 1.12-.76h-2.27c-.05.24-.08.48.2.59ZM164.69.82c.32.11.59-.36.47-.81h-2.84c.51 1.06 1.58.55 2.37.81ZM678.94 1.6c.75.04.58-.77.69-1.27.29-.06.66.07.83-.32h-1.99c-.02.09-.06.18-.05.27.04.5-.23 1.28.52 1.32ZM641.53 0h-2.27c.14.12.28.24.41.36q1.17 1.04 1.86-.36ZM402.27 1.04c.54-.15.48-.62.5-1.03h-1.42c.03.24-.44.38-.08.7.3.28.6.44 1 .33ZM709.81 4.17c0 .48.49.29.78.39V3.42c-.56-.07-.78.33-.78.75ZM709.83 13.31c.01.39.45.35.76.34v-1.14c-.45.08-.78.39-.76.79ZM660 0h-1.42c.74.72.95.72 1.42 0ZM154.36 0h-1.71q.9.7 1.71 0ZM413 .24c.27.04.5.17.75.28.47.21.66-.07.67-.51h-2.84c.35.83.88.56 1.42.23ZM410.73 0h-1.14c.38.33.76.89 1.14 0ZM573.03.29c.5.39.81.81.23 1.39-.37.37-.02.56.22.78.43.38.59-.1.76-.29.26-.3.26-.69-.05-1.01-.44-.45.01-.63.26-.87.38-.08.86.22 1.14-.28h-3.7c.27.54.76.18 1.14.29ZM306.99 0h-.85c.28.88.57.14.85 0ZM563.36.29c.25.15.3.44.16.6-.44.47-.15.77.23.96.46.24.64-.25.88-.49.29-.3-.1-.88.42-1.1.49-.01 1.03.27 1.44-.25h-4.26c.29.47.75.23 1.14.28ZM591.77.31c.27.26.67.48.77.8.18.55.33.44.84.4 1.16-.1.87-.86.95-1.49h-3.41c.18.39.54.26.84.3ZM553.96.32c.18.35-.14.84.31 1.1.2.21.06.66.47.68.04 0 .11-.41.16-.63.55-.49 1.09-.98 1.64-1.47h-3.41c.17.39.54.26.83.31ZM538.35 0h-.85c.28.45.57.45.85 0ZM669.38 0h-.57c.19.1.38.68.57 0ZM209.51.27c.76.43.69 1.56 1.69 1.88.86-.53 1.2-1.75 2.29-2.15h-4.55c.06.37.34.27.57.26ZM299.03 0h-.57c.19.42.38.42.57 0ZM696.95.28c.23.21.67.41.51.75-.32.69.28.71.61 1.18.24-.96 1.29-1.22 1.15-2.2h-2.84c.06.37.34.27.57.27ZM105.48.27c.43.34.86.69 1.42 1.14-.02-.61.15-1.07.56-1.4h-2.56c.1.29.32.31.58.26ZM430.35.27c.18.2.47.37.54.6.18.63.39.62.97.35.65-.3 1.09-.81 1.62-1.22h-3.69c.06.38.34.27.57.27ZM543.47.28c.3.29.6.58.91.86.4.35.96.44 1.26.08.51-.59 1.31-.66 1.81-1.21h-4.55c.06.37.34.27.57.27ZM391.69.28c.66 1.1 1.27 1.31 2.06.65-.48-.24-1.19-.18-1.21-.93h-1.42c.06.37.34.27.57.28ZM486.36.26c.43.26.37.58.1.92-.16.2-.22.4-.03.62.75.81 1.71.69 2.21-.3.24-.48.52-.85 1.07-.98.26-.06.53-.17.6-.5h-4.55c.1.3.33.31.59.25ZM372.93 0h-.57c.23.39.34.39.57 0ZM585.45.19s.06-.12.08-.19h-.28c.02.12.06.23.2.19ZM357.22.19s.06-.12.08-.19h-.28c.02.12.06.23.2.19ZM490.02 3.38c-.96.27-1.13.68-.37 1.22 1.07.77 1.82 1.8 2.72 2.71.03.03.08.03.06.02 1.4-1.05 2.02-2.8 3.74-3.63-.82-.52-1.58-.9-1.89-1.73-.08-.23-.24-.3-.42-.3-.81.05-1.09-.58-1.46-1.1-.41.1-.58.48-.88.69-.56.39-1.2.69-.99 1.59.08.32-.2.43-.52.52ZM497.52 5.83c-.28-.1-.45-.08-.6.09-.9 1.08-2.57 1.31-3.08 2.86.64.95 1.6.9 2.68.49.06.49-.12.66-.3.81-.36.32-.21.58.09.8.83.62 1.23.61 1.91-.06.3-.3.62-.51 1.02-.7.91-.44 1.33-1.84.67-2.43-.74-.67-1.38-1.5-2.4-1.86ZM212.73 3.9c.6.08.94.54 1.39.87.75.55.81 1.6 1.62 2.07.06.17-.12.51.23.46.2-.03.09-.3.05-.47.04-.47.39-.84.73-.97 1.05-.38 1.55-1.3 2.27-1.96-.46-.8-1.43-1.12-1.62-2.1-.15-.78-.79-1.41-1.39-1.3-.6.12-1.07.56-1.06 1.27.02.56-.33.62-.73.83-.55.29-1.42.33-1.49 1.3ZM517.95 7.07c-.49-.74-1.1-.98-1.93-1.07-1.02-.11-1.35.51-1.78 1.23-.62 1.02-.67.96.33 1.6.56.36 1.19.73.53 1.54-.16.2-.15.54.05.63.93.39 1.52 1.61 2.79 1.19-.11-.4-.13-2.37-.12-2.66.01-.64.26-.92.86-.59.35.19.52.03.71-.18.26-.29.04-.5-.13-.74-.34-.48-1.04-.54-1.32-.96ZM489 6.64c-.93-.27-1.31-.65-1.31-1.64-.7.29-1.08.62-1.02 1.29.06.71-.27 1.15-.89 1.42-.17.07-.35.15-.49.26-.82.62-.8.89.09 1.36.96.51 1.66 1.24 1.95 2.49.49-.8 1.45-.77 1.82-1.47.43-.82 1.14-1.27 1.96-1.67-.59-.82-1.22-1.78-2.09-2.03ZM222.94 4.48c.3.29.58.71.95.82.89.26 1.26.97 1.66 1.65 1.42-.54 1.81-2.01 2.88-2.82.29-.22.21-.62-.01-.9s-.49-.42-.85-.17c-.54.36-.71-.02-.67-.45.1-1.01-.5-1.52-1.2-1.97-.45.25-.26.76-.6 1-.41.28-.05.83-.37 1.15-.57.09-.25-.85-.92-.71-.23.49-.35 1.3-.77 1.5-.75.36-.47.57-.11.91ZM230.87 6.14c-.56-.44-1.14-.3-1.57.34-.28.41-.61.61-1.13.71-.8.15-1.07 1.29-.57 1.91.64.79 1.56 1.12 2.39 1.62.76.45 1.17.28 1.69-.27.62-.66 1.22-1.35 2.07-1.92-1 .04-1.46-.47-1.8-1.3-.18-.44-.67-.78-1.08-1.09ZM479.4 6.09c-.49-.08-.76-.5-1.14-.7-1.13 1.05-1.76 2.56-3.32 2.98.17.96.87 1.34 1.5 1.75.22.14.5.14.7.4.51.64 1.44.76 2 .25.69-.63 1.32-1.32 2.03-2.04-1.53-.33-1.65-.47-1.45-1.98.05-.37-.06-.62-.32-.66ZM591.5 6.64c-.34.82-.75 1.52-1.57 1.93-.1.05-.12.24-.22.45 1.18.2 2 .74 2.15 2.01.05.44.41.72.95.86.15-.55.37-1.15.94-1.28 1.09-.24.94-1.47 1.7-1.94.06-.04.04-.27 0-.39-.4-.98-.98-1.81-1.97-2.27-.77-.36-1.66-.13-1.98.63ZM599.22 12.73c-.23-.74-.86-1.09-1.3-1.63-.46-.57-.87-.57-1.24.07-.19.34-.36.67-.74.8-.81.28-1.21.96-1.83 1.62 1.11.71 1.56 2.13 3.06 2.19.08 0 .19.1.21.18.23.72.66.39.83.06.57-1.08 1.48-1.89 2.29-2.79-.42-.36-1.13.03-1.29-.5ZM166.89 15.25c.96.06 1.13.56 1.14 1.33.39-.22.36-.61.79-.8.81-.35 1.37-1.13 1.91-1.82.6-.76.44-1.02-.4-1.55-.52-.33-1.18-.48-1.28-1.4-.09-.84-.74-.87-1.43-.25-.5.45-.52 1.5-1.57 1.27-.05-.01-.16.09-.2.17-.41.65.3 3 1.05 3.05ZM206.32 10.48c-.12.1-.27.21-.4.34-.37.36-.73.74-1.1 1.1-1.3 1.3-1.28 1.29-.43 2.93.15.29.26.51.58.46.76-.14 1.22.28 1.7.77.27.28.59.25.76-.19.23-.6.44-1.19.91-1.68.89-.93.85-1.25.07-2.3-.47-.64-1.31-.73-1.8-1.32-.05-.06-.16-.06-.3-.1ZM470.92 4.64c.58.82 1.71 1.08 2.11 2.08.04.1.37.41.46-.05.05-.26.17-.35.41-.47.81-.4 1.4-1.01 1.76-1.88.38-.9.43-.99-.45-1.42-.61-.3-1.07-.72-1.32-1.35-.1-.27.13-.7-.41-.74-.41-.04-.86.05-.97.41-.36 1.22-1.74 1.55-2.18 2.75.07.23.38.4.57.66ZM519.01 4.79c.93.09 1.16.49 1.14 1.35-.02.53.69.67 1.17.4.67-.38.99-1.12 1.73-1.45.6-.27.66-.98.38-1.48-.59-1.08-.94-2.37-2.27-3.06-.52 1.22-2.07 1.59-2.31 2.97 0 .04-.07.06-.1.1-.4.53-.33 1.11.25 1.17ZM239.27 6.53c-.16.21-.36.26-.56.36-.81.44-1.61.92-2.4 1.39-.42.25-.39.56.03.85.56.39 1.19.14 1.78.2.71.07.81.18.56.88-.08.21-.27.38-.02.96.56-.72 1.27-.62 1.96-.59.43.02.72-.18.96-.47.42-.5.99-.86 1.36-1.58-.93-.56-1.68-1.34-2.37-2.2-.5-.63-.78-.54-1.31.2ZM684.53 8.58c.39.35 1.04.41 1.47.47.98.14 1.15.62 1.05 1.42-.08.64.17 1.14.75 1.36.62.24 1.15 0 1.64-.49.41-.42.49-.87.47-1.41-.02-.42-.1-.93.39-1.1.42-.15.49-.39.44-.74-.07-.5-.47-.33-.77-.37-.19-.02-.4.01-.55-.07-.19-.1-.43-.33-.1-.51.27-.15.71-.12.52-.61-.15-.39-.5-.49-.91-.53-.59-.06-.97.21-1.35.6-.83.87-1.6 1.86-3 1.74 0 0-.01.08-.03.23ZM616.7 10.28c-.24-.02-.37.15-.43.49-.18.96-.31 1.94-1.73 1.82-.59-.05-.66.61-.6 1.04.07.49.27 1.03.86 1.18.46.12.99.37 1.21.63.74.87 1.46.24 2.14.11.35-.07.62-.54.92-.84.46-.46.97-1.05.76-1.66-.21-.63-1.04-.69-1.64-.9-.08-.03-.19 0-.28 0-1.09-.13-1.11-.15-.68-1.22.17-.44 0-.61-.53-.64ZM588.2 10.55c-.23.35-.1.85-.5 1.1-.23.14-.4.46-.71.22-.66-.51-.95 0-1.17.46-.13.28-.2.49-.53.54-.28.04-.38.25-.31.52.06.25.29.22.46.21.57-.05.82.22.7.74-.18.82.44 1.21.9 1.62.35.31.88.46 1.13-.21.2-.53.8-.69 1.12-.73 1.18-.14 1.39-1.13 2-1.78-1.16-.81-2.18-1.62-3.09-2.69ZM441.43 3.69c-.02.21.13.33.26.47.15.16.33.11.51.12.76.04 1.36.14 1.49 1.17.14 1.04 1.28 1.4 1.78.6.46-.73 1.21-.92 1.74-1.45.54-.54.71-.77.26-1.31-.45-.54-.91-1.14-1.51-1.47-.42-.23-.79-.68-1.36-.63-.66 0-1.27.54-1.42 1.47-.09.55-.3.74-.82.71-.19-.01-.38 0-.57 0-.21 0-.37.08-.39.31ZM273.22 6.55c.72-.31.91-1.08 1.57-1.16.5-.06.9-.03.91-.74 0-.61.1-.61-.44-1.09-.26-.23-.39-.48-.46-.84-.19-.93-.6-1.74-1.43-2.23-.74 1.41-2.23 2.19-3.05 3.45.71 1.26 2.15 1.51 2.89 2.61ZM275.2 12.32c-.06-1.09-.99-1.47-1.77-2.13-.26.67-.42 1.26-1.11 1.45-.74.2-1.34.57-1.34 1.48 0 .19-.23.39-.54.86 1.1-.16 1.49.35 1.77 1.06.11.29.19.61.43.88.59.66 1.28.64 1.7-.17.17-.32.41-.59.54-.96.17-.48 1.07-.41 1.13-1.05.06-.61-.78-.77-.82-1.42ZM244.58 9.96c-.07.48-.24.74-.49.98-.38.35-.77.66-1.26.83-.51.17-.27.92-.93 1.13-.56.18-.47.95.09 1.06.7.13 1.09.52 1.3 1.13.11.34.4.52.61.76.32.37.56.45 1.04.08.76-.59 1.56-1.1 1.98-2.02.12-.27.61-.44.34-.82-.23-.32-.59-.21-.91-.07-.19.09-.35.34-.58.17-.32-.67.28-1.21.23-1.71-.06-.61-.78-1-1.41-1.52ZM527.83 3.69c-.21.02-.47-.08-.55.23-.02.07.04.17.09.24.22.34.44.16.66 0 .11-.08.24-.11.37-.17.49.04.97.08.9.77-.04.36.13.78.42.82.91.12.86.91 1.09 1.57.52-.27.94-.5.94-1.05 0-.67.34-1.02.94-1.23.54-.19.8-.59.79-1.19-.01-.58-.15-1.03-.78-1.15-.41-.08-.78-.38-.85-.67-.16-.66-.65-.96-1.09-1.41-.44 1.39-1.81 2-2.4 3.21-.18.01-.36.02-.54.04ZM462.8 5.46c.15.35.48.34.72.26.87-.31 1.79-.5 2.57-1.02.78-.52.82-1 .04-1.49-.88-.56-1.74-1.01-1.85-2.25-.05-.53-.57-.49-1.07-.1-.4.31-.28.96-.77 1.13-.96.33-1.4 1.21-2.23 1.89 1.14.37 2.13.56 2.59 1.59ZM499.42 4.16c.2.43.5.81.71 1.26.18.4.85.79 1.32 1.16.34.27.71.38 1.08-.08.42-.51.93-.93 1.4-1.4.19-.2.48-.44.34-.72-.4-.81-.09-2.05-1.36-2.37-.34-.09-.51-.4-.76-.61-.19-.16-.41-.23-.65-.21-.21 0-.43.08-.39.29.13.81-.51.97-1 1.29-.48.32-.97.78-.69 1.38ZM253.87 11.01c-1.01.42-1.31 1.49-2.21 2-.35.19-.23.86.18 1.25.64.62 1.26 1.27 1.91 1.89.13.12.47.24.48.23.36-.69 1.64-.81 1.54-1.41-.16-1.01.73-.91 1.08-1.53-.84-.59-1.16-1.52-1.79-2.2-.34-.38-.6-.47-1.19-.23ZM481.17 4.89c.73-.02.75.43.56.94-.08.2-.31.35-.22.62 1.24.21 1.24.22 1.95-.81.12-.17.25-.22.44-.28 1.01-.33 1.73-1.11 2.62-1.53-.02-.36-.22-.38-.39-.45-.89-.39-1.84-.78-2.24-1.74-.24-.57-.75-.61-1.12-.62-.32 0-.38.53-.5.9-.18.61-.21 1.43-1.29 1.33-.28-.03-.88.5-.79 1.02.07.41.49.64.97.63ZM682.42 6.07c.43.23.76.39.92.92.13.45.6.62 1.02.26.31-.26.7-.44.13-1.01-.67-.67-.32-1.33.65-1.33.65 0 1.01-.33 1.44-.72.44-.41.4-.79-.05-1-.7-.33-1.23-.83-1.76-1.35-.23-.23-.52-.16-.8-.18-.66 0-1.41.51-1.53 1.18-.09.5-.1.83-.73.98-.47.11-.54.54-.24 1.09.26.47.52.93.95 1.16ZM244.19 6.5c.07.16.23.34.39.38.36.09 1.5-.65 1.51-1.06.02-.79.34-1.2 1.11-1.4.26-.07.6-.35.58-.72-.02-.35-.36-.7-.61-.7-1.06.02-1.42-.71-1.84-1.46-.15-.27-.46-.45-.8-.77-.61 1.16-1.69 1.83-2.56 2.7q1.4 1.06 2.23 3.03ZM483.43 10.48c-.48-.4-1.01-.24-1.08.39-.07.55-.39.63-.76.85-.98.61-1.15 1.26-.51 2.15.44.6 1 1.12 1.57 1.6.43.37.99.36 1.41-.05.69-.67 1.52-1.25 1.74-2.38-.54-.29-.98-.69-1.24-1.34-.19-.48-.7-.87-1.13-1.23ZM290.6 12.85c-.37.04-.5.38-.72.67.52.55 1.02 1.1 1.56 1.63.87.85 2.04.84 2.61-.21.37-.69 1.02-.89 1.54-1.47-.89-.89-1.78-1.79-2.68-2.69-.16-.16-.43-.41-.59-.21-.45.55-1.63.54-1.31 1.69.08.3-.04.55-.42.59ZM261.12 13.99c.4.74 1.02.2 1.62.17v1.08c0 .2.08.35.28.43.69.31 1.9-.02 2.2-.71.31-.73.86-1.15 1.51-1.51-.64-1.21-1.88-1.77-2.89-2.57-.35-.27-.77-.23-1.16.31-.46.65-.6 1.57-1.51 1.91-.34.13-.21.56-.05.87ZM471.62 11.42c-1.06.75-1.16 1.21-.77 2.32.32.9 1.07 1.41 1.65 2.08.38.43.73.56 1.16.06.16-.19.29-.39.65-.42 1.1-.08 1.31-.43.99-1.42-.09-.28-.18-.6-.07-.83.41-.84-.17-1.24-.73-1.53-.34-.18-.63-.39-.94-.6-.07-.35.11-.74-.23-1.07-.18.37-.18.72-.07 1.08-.03.33-.02.67-.09.98-.1.42-.47.39-.8.4-.33 0-.54-.08-.57-.45-.02-.2.1-.47-.18-.6ZM510.49 1.41c.82.27.64.83.18 1.13-.76.5-1.21 1.57-2.7 1.17 1.53 1.01 3.41 1.05 3.48 3.32.56-.46 1.13-.69 1.04-1.2-.18-1.04.5-1.45 1.22-1.7.79-.28.57-.65.19-.98-.71-.63-1.05-1.53-1.66-2.23-.2-.23-.22-.6-.66-.57-.41.03-.85-.11-1.16.33-.21.3-.46.56.07.74ZM574.8 6.8c-.17-.43-.5-.95-.81-.8-.44.21-1.15.09-1.31.82-.1.48-.46.73-.93.94-.54.23-.54.57-.1 1.13.13.16.24.34.18.5-.36.85-.08 1.23.82 1.19.2 0 .36.08.48.23.62.75 1.14.28 1.72-.1.75-.5.8-1.47 1.68-2.09-1.01-.38-1.43-1.07-1.73-1.82ZM210.12 10.02c.11 1.34.11 1.27 1.39 1.06.71-.12 1.03-.63 1.44-1.04.91-.88.88-1.67.06-2.63-.48-.56-1.18-.93-1.37-1.75-.06-.28-.46-.24-.53 0-.26.94-.94 1.51-1.67 2.05-.25.19-.53.41-.54.82.09.38.37.65.73.76.42.12.46.37.49.72ZM568.13 5.68c.26.19.59.45.96.51.27.04.69.14.76-.14.34-1.34 1.83-1.31 2.52-2.26-.14-.27-.37-.45-.74-.41-.6.05-.86-.22-.83-.83.02-.57-.31-.85-.87-.88-.23-.01-.49 0-.66-.18-.54-.57-.89-.13-1.29.21-.42.35-.41.81-.41 1.28 0 .5-.2.79-.76.77-.26 0-.55-.08-1.01.23.89.56 1.59 1.16 2.32 1.69ZM468.67 5.74c-.41-.31-.76-.21-.74.34.02.56-.25 1.01-.66 1.14-.65.2-.9.82-.77 1.13.22.56-.09 1.34.31 1.6.73.47.88 1.43 1.76 1.77.96-.67 1.28-1.77 2.07-2.52.41-.39.47-1.4.03-1.7-.76-.52-1.29-1.23-2-1.77ZM535.54 5.33c-.41.27-.69.59-1.02.64-.6.09-.39.71-.73.93-.19.13-.36.3-.55.42-.55.36-.78 1.01-.33 1.43.61.56.74 1.84 2.06 1.48.18-.05.45.28.69.42.45.26 1.69-.34 1.76-.85.02-.14-.06-.23-.18-.33-.77-.63-.77-.65.09-1.25.35-.24.39-.49.08-.78-.3-.29-.57-.73-.93-.84-.64-.2-.88-.62-.94-1.27ZM321.03 6.43c.55.14.86-.47 1.27-.79.45-.36.71-.82 1.08-1.21.69-.74.67-.77-.06-1.52l-.9-.9c-.13-.13-.3-.31-.48-.19-.54.35-1.06.28-1.52.04-.24-.11-.35.01-.42.11-.37.52-.84 1.02-1.04 1.61-.17.5.24 1.05.39 1.55.21.7.97 1.14 1.68 1.32ZM576.19 12.5c-.4 1 .37 1.68.8 2.27.32.45.88.96 1.54 1.29.89-.39 1-1.35 1.58-1.97.34-.37 1.13-.32 1.07-.93-.05-.57-.72-.83-1.07-1.27-.26-.33-.59-.61-.89-.91-.18-.18-.46-.34-.62-.18-.55.55-1.24.77-1.94 1.01-.24.09-.35.4-.47.67ZM440.96 6.76c-.17-.39-.72-.7-1.07-.34-.83.84-2.07 1.16-2.69 2.31.57.52.86 1.25 1.18 1.97.38.85 1.11.99 1.8.38.66-.58 1.2-1.3 2.07-1.64.39-.16.48-.55.09-.92-.54-.52-1.06-1.04-1.38-1.76ZM216.22 10.94c-.6-.22-.96-.36-1.25.21-.21.4-.42.74-.87.83-.3.06-.35.25-.4.48-.24.97.65 1.53.85 2.33.96-.12.75.97 1.36 1.28 1.35-.61 1.92-2.04 3.06-3.03-1.38-.2-1.62-1.69-2.74-2.11ZM195.84 15.37c.04.55.83.71.99.22.28-.82.85-.69 1.44-.78 1.16-.17 1.57-.96 1.03-1.98-.21-.4-.32-1.03-1.07-.87-.26.06-.33-.23-.45-.44-.51-.88-.52-.84-1.49-.41-.63.28-1.11.69-1.34 1.34-.1.28-.29.47-.49.67-.24.09-.69.08-.66.36.04.35.41.17.66.13.65.44 1.31.82 1.38 1.76ZM586.66 4.93c1.02 1.55 1.35 2.21 3.1.43.86-.87 1.01-1.55.54-2.32-.69-1.11-1.44-1.3-2.61-1.12-.96.15-1.67.3-1.75 1.43-.01.15-.24.28-.45.5.55.3.88.62 1.18 1.07ZM528.38 7.61c-1.04-.36-1.61-1.29-2.48-2.23.02 1.01-.94 1.25-.94 2 0 .61-.41.69-.79.96-.36.27-.91.04-1.17.44.3.63 1.21.51 1.25 1.33.02.3.4.24.69.14.76-.24.85.29.9.84-.04.17-.14.43.05.47.35.06.18-.29.25-.45 1.1-.26 1.61-1.23 2.33-1.94.32-.32.15-.81.12-1.22 0-.12-.11-.31-.22-.34ZM562.66 10.16c.7-.08 1.12.37 1.57.77.12.1.38.15.53.09.54-.21 1.09-.62 1.13-1.13.05-.59.69-1.17-.07-1.89s-1.81-1.39-1.62-2.83c-.51.28-.73.65-1.15.81-.77.28-.98 1.07-1.15 1.79-.18.8.44 1.48.53 2.25 0 .06.15.15.22.14ZM267.03 8.45c-.27.67.14.81.66.88.22.03.48-.06.61.22.02.34-.25.5-.46.66-.43.32-.36.63 0 .91.27.21.41.72.9.49.39-.18.81-.26.83-.92.02-.46.23-1.1.82-1.28.81-.25 1.11-.74.66-1.35-.32-.42-.76-.75-1.13-1.1-.27.21-.16.61-.43.61-.4 0-.34-.36-.29-.63.02-.13.16-.26.16-.38.02-.75-.68-1.21-1.31-.82-.52.32-.99.75-1.29 1.28-.23.41-.03.81.24 1.17.05.06.06.18.04.25ZM311.63 9.95c-.84.96-1.74 1.78-2.67 2.56-.04.03-.07.06-.1.1-.53.84-.34 1.3.66 1.36.89.05 1.43.38 1.51 1.31.02.18.1.36.2.51.23.35.61.39.76.02.22-.53.44-.89 1.09-.86.25.01.41-.22.4-.49-.03-.72.6-1.21.68-1.89-.68-.31-1.27.12-1.86.2-.23-.54-.13-1.02-.13-1.49 0-.5-.48-.77-.54-1.32ZM611.44 10.79c.5.26.96.54 1.15-.3.05-.22.24-.23.41-.32.67-.36 1.16-.9 1.61-1.56-.12-.1-.22-.23-.34-.28-.52-.22-1.17-.34-.42-1.08.13-.13.16-.57-.05-.62-.58-.14-1.1-.53-1.65-.55-.42-.02-.89.49-.99.91-.13.58-.6.61-.91.9-.4.39-1.01.14-1.38.51.87 1.27 1.55 1.87 2.56 2.4ZM520.62 11.03c-.45-.26-.69-.02-.71.25-.06.78-.49 1.27-1.01 1.77-.64.63-.62.69.06 1.32.24.22.45.5.83.47.59-.05.82.3.96.81.08.27.3.5.47.77.47-.33.62-.83.76-1.22.39-1.05.93-1.76 2.15-1.71.06 0 .13-.13.23-.24-.45-.64-.93-1.43-1.68-1.56-.74-.13-1.45-.3-2.07-.65ZM597.77 6.16c.64-.39 1.14-.99 1.99-.86.05 0 .16-.13.17-.2.04-.56.26-1.19-.13-1.64-.72-.84-1.12-1.97-2.18-2.52-.74.41-1.21 1.15-1.28 1.88-.09.89-.51.98-1.27.93.28.62.66 1.1.96 1.59.35.57 1.01 1.26 1.73.82ZM691.03 4.27c.94.42 1.54 1.08 1.98 1.98.17.35.57.5.92.1.57-.66 1.28-1.18 1.74-1.98.4-.7.36-1.1-.27-1.48-.57-.35-1.13-.71-1.4-1.37-.06-.15-.22-.31-.45-.29-.08.03-.18.05-.24.11-.78.65-1.4 1.47-2.36 1.94-.53.26-.33.82.07 1Zm3.19-.59c.14.02.26.1.21.28-.04.12-.05.3-.26.21-.13-.05-.24-.14-.24-.3.04-.16.15-.22.29-.19ZM581.3 10.14c.45.06.41-.42.56-.68.03-.05.15-.05.26-.08.88.47.48 1.67 1.37 2.34.39-1.05 1.19-1.7 1.91-2.42.2-.2.39-.41.6-.6.43-.36.24-.78-.11-.86-.36-.09-.66-.53-1.13-.25-.44.26-.79.18-.92-.42-.09-.39-.38-.73-.79-.67-1.4.22-2.63 1.43-2.4 2.82.06.38.24.76.64.81ZM465.94 12.54c-.68-.62-1.61-.92-2.16-1.69-.94.99-2.7 1.01-2.94 2.69.74.33 1.7.5 1.51 1.75-.07.49.34.57.76.58.5.01.75-.33 1.07-.6.53-.45.9-1.04 1.6-1.33.9-.37.92-.72.16-1.41ZM250.16 7.23c-.12-.33-.54-.51-.65-.9-.13-.44-.59-.4-.82-.27-.38.21-1.21.43-1.05.7.59.97-.27 1.24-.67 1.69-.33.37-.37.72.03.94.74.41 1.35.87 1.71 1.7.21.49.82.46.98-.03.28-.85 1-1.02 1.63-1.31.52-.23.84-.55 1.04-1.07-.94-.19-1.81-.41-2.19-1.44ZM179.22 11.98c-.02-.47-.87-.92-1.5-1.53-.45 1.36-1.88 1.82-2.66 3 1.47.54 1.71 2.13 2.76 2.97.88-.45 1.03-1.25.94-2.35 1.08.78 1.5.02 2-.58-.6-.43-1.49-.38-1.53-1.51ZM551.7 12.79c-1.05-.03-1.09-.04-1.36-1.15-.08-.34-.23-.76-.53-.67-.36.11-1.04.02-.96.77.06.56-.24.75-.76.72-.24-.02-.53.03-.56.3-.04.47-.44.69-.62 1.04.04.04.07.08.1.11.74.93 1.7 1.57 2.74 2.11.05.03.19 0 .23-.05.63-.91 1.92-1.13 2.33-2.29.25-.71.18-.86-.62-.89ZM372.62 9.94c.03.65.66.59.98.88.58.54.78-.18 1.14-.37.12-.06.25-.24.34-.22 1.44.29.94-1.13 1.47-1.69.07-.23-.18-.35-.33-.52-.71-.87-1.81-1.11-2.71-1.67-.74-.45-.99-.26-1.19.65-.05.23-.04.44-.19.66-.65.95-.64.96.14 1.85.12.14.34.28.34.43ZM315.95 5.93c-.88.77-1.29 2.03-2.76 2.4.6.41.8 1.02 1.4.99.59-.03.64.25.72.74.1.62.54 1.15 1.19 1.21.66.06 1.32-.76 1.34-1.52.02-1.26.11-2.52-.74-3.64-.56-.74-.46-.79-1.14-.18ZM175.41 4.33c.69.1.81.71 1.07 1.17.6 1.04 1.83 1.2 2.46.24.38-.57.69-1.21.95-1.85.29-.69-.27-1.61-1.02-1.61-.29 0-.51.08-.7-.16-.53-.66-1.01-.52-1.49.06-.11.13-.32.31-.46.29-1.18-.15-.73.94-1.09 1.39 0 .22.13.43.28.45ZM451.27 4.12c.24.3.52.74.84.71 1.12-.09 1.34.8 1.8 1.46.04.22.05.63.13.64.35.06.29-.35.45-.53.03-.03.02-.09.04-.13.31-.21.55-.49.95-.59.34-.09.59-.4.48-.75-.15-.46-.57-.87-.09-1.39.04-.04-.2-.52-.35-.54-1.04-.17-.84-.83-.58-1.46.14-.33.34-.56-.14-.76-.37-.16-.66-.51-1.05.02-.27.37-.66.63-.61 1.19.04.43-.28.75-.64.83-.39.09-.63.42-.98.51-.56.15-.54.4-.23.79ZM529.34 11.59c-.61.41-.78.85-.49 1.6.36.91.96 1.62 1.61 2.27.42.43.99.31 1.51-.11.49-.41.55-1.1 1.02-1.46.69-.52.37-.86-.05-1.34-.62-.72-1.65-1.03-2-2.02-.02-.18.15-.49-.18-.49-.21 0-.12.28-.12.45-.61.16-.83.78-1.3 1.1ZM281.1 4.76c.57.28 1.38.4 1.6.94.35.83.63.52.97.13.75-.85 1.68-1.46 2.67-1.91-.4-.9-1.18-1.07-1.85-1.38-.72-.34-1.42.52-2.18.23 0-.52.38-.64.56-.91.11-.16.24-.36.1-.51-.11-.11-.33-.13-.51-.16-.25-.03-.41.04-.55.31-.3.58-.49 1.15-1.16 1.58-.79.5-.56 1.24.33 1.68ZM555.8 7.4c-.55.64-.86.19-1.25-.18-.43-.4.1-.53.18-.79.11-.33.15-.68-.19-.88-.35-.2-.56.17-.64.36-.46 1.18-1.63 1.77-2.31 2.87.53.46 1.29.51 1.34 1.28.01.14.23.36.41.28.72-.34.96.2 1.14.67.18.47.45.5.71.18.82-1.01 1.64-2.05 1.3-3.5-.08-.36-.22-.86-.69-.3ZM320.67 15.65c.27.4.81.29 1.01-.15.8-1.69.97-1.82 2.45-2.03-.7-1.43-2.37-1.79-3.3-3.13-.73.48-1.04.96-.4 1.66.17.18.21.44.05.65-.16.2-.45.28-.64.14-1-.74-1.21.21-1.59.58.72.94 1.79 1.34 2.42 2.28ZM545.34 5.94c-.36.08-.37.35-.41.64-.21 1.52-.23 1.54-1.82 1.62-.38.02-.85-.03-.96.39-.11.39.32.62.59.87.18.17.39.24.64.24.69-.02.92.49 1.2.99.24.44.36.93.58 1.45.49-1.55 1.56-2.54 2.81-3.49-.52-.83-1.39-1.31-1.68-2.26-.1-.33-.51-.53-.94-.44ZM275.41 7.64c-.02.37-.42.51-.47.95.08.06.12.1.16.11.87.28 1.95.25 2.05 1.59.03.36 1.06.54 1.35.27.38-.35.93-.68 1.04-1.11.17-.64.6-.69 1.06-.74-.03-.42-.42-.53-.47-.78-.2-1.04-1.07-1.37-1.83-1.78-.72-.38-.97-.24-1.21.6-.18.63-.41 1.05-1.16.63-.21-.12-.5-.08-.52.25ZM233.91 5.78c.35.51 1.02.79 1.7.8.69.02.78-.55.98-1.02.3-.69.78-1.26 1.27-1.8-.87-1-2.12-1.1-2.97-1.91-.51.39-.9.91-1.54 1.18-.65.28-.79.9-.41 1.4.34.44.66.89.97 1.34ZM451.27 7.64c-.53-.72-.77-1.69-1.83-2.31-.1 1.01-.25 1.96-1.23 1.96-.86 0-.8.69-1.1 1.06-.67.82.21.8.64 1.07.2.12.24.48.37.72.58 1.13.73 1.17 1.71.42.15-.11.28-.28.45-.33.54-.17.81-.34.73-1.08-.04-.4.57-1.11.27-1.52ZM558.41 6.19c.31.39.55.43.91.36 1.27-.25 1.7-1.4 2.3-2.29.52-.8-.6-1.15-.79-1.81-.17-.58-.98-.49-1.28-1.01-.03-.04-.31-.02-.37.05-.45.51-1.22.8-1.17 1.67.02.3-.04.56-.43.6-.09 0-.33-.04-.2.2.26.79.49 1.55 1.03 2.23ZM571.3 12.71c-1.18-.83-2.38-1.71-3.82-.46-.07.06-.17.17-.23.16-1.11-.4-1.2.58-1.75 1.16.3.02.44.04.58.04.61-.04 1.05-.01 1.06.85 0 .7.33.75 1.02.3.16-.1.29-.23.5-.16.3.41.03.92.31 1.63.91-.96 1.68-1.77 2.46-2.57.37-.38.19-.72-.14-.95ZM607.33 10.09c-.52.69-.79 1.47-1.6 1.82-.31.13-.38.43-.17.83.35.67.87 1.3.55 2.19-.08.22.11.92.74.75 1.03-.27 2.08-.48 2.77-1.44.46-.64.47-.8-.21-1.29-.41-.3-.69-.78-1.26-.87-.13-.02-.42-.19-.25-.4.72-.87-.17-1.08-.56-1.59ZM99.43 4.5c.44 0 .73.1.69.62-.06.77 1 .69 1.1 1.4.02.12.71.17 1.03-.11.4-.35.02-.57-.18-.81-.11-.14-.29-.25-.12-.55.58-.25 1.47-.16 1.81-1.15-.66-.97-1.8-1.51-2.21-2.69-.14-.4-.62-.4-.85.06-.43.87-.94 1.67-1.56 2.42-.32.39-.48.81.3.81ZM301.62 5.42c1.03.45 2.63-.08 3.06-1.05.15-.34.18-.73-.11-1.05-.34-.37-.62-.84-1.23-.81-.38.02-.59-.12-.68-.52-.08-.38-.4-.61-.89-.86-.35.81-.98 1.31-1.54 1.86-.38.38-.43.7-.17 1.23.35.71.95.93 1.57 1.2ZM185.94 5.2c.18.6.99.59 1.45.97.1.08.34.03.35-.11.08-.84.92-.78 1.38-1.15.51-.41.96-1.2.69-1.58-.36-.49-.75-1.09-1.32-1.2-.66-.13-1.17-.31-1.4-1.06-.09.05-.18.11-.26.16-.04.18-.11.36-.1.54.02.66.03 1.18-.92 1.18-.43 0-1.01.3-1.35.86.71.31 1.26.62 1.49 1.39ZM629.04 8.85c.66.66 1.33 1.33 1.98 2 .28.28.47.14.71-.07.32-.27.42-.6.38-1-.05-.45.11-.78.41-1.14.67-.8.63-.98-.12-1.77-.45-.47-.97-.89-1.3-1.47-.26.11-.67.16-.75.34-.28.63-.82 1.02-1.24 1.51.56.56-.63 1.04-.07 1.6ZM541.49 11.98c-.17.68-.43.35-.78.13-.37-.23-.16-.88-.73-.95-.45.41-.85.96-1.37 1.2-.61.28-.91.73-.78 1.24.14.57.3 1.36 1.23 1.24.45-.06.6.41.95.53.14.34-.04.74.24 1.13.39-.17.68-.42.85-.82-.24-.14-.45-.25-.65-.36-.05-.32-.18-.69.27-.83.28-.09.56-.04.71.28.07.14.05.4.33.3.15-.05.24-.19.19-.33-.26-.78 0-.68.53-.36.29.18.53-.07.72-.28.16-.18.32-.44.1-.62-.52-.44-.68-1.11-1.12-1.59-.25-.27-.56-.46-.7.1ZM172.84 6s-.08-.04-.13-.05c-.09.03-.2.03-.26.09-.45.45-1.02.77-1.02 1.58 0 .96.38 1.7.96 2.38.28.33.63.63.2 1.07-.26.27-.02.41.12.56.24.25.37.03.54-.14.69-.7 1.38-1.4 2.1-2.07.29-.27.2-.51.15-.86-.23-1.57-2.26-1.2-2.66-2.55ZM104.16 9.17c.15.1.37.1.52.2.46.32 1 .57.53 1.32-.26.43.17.89.44 1.13.3.28.54-.23.77-.43.21-.18.42-.36.52-.65.33-.92.85-1.74 1.58-2.37-.21-.52-.55-.97-1-.99-.73-.04-1.03-.27-.98-1.01.02-.36-.29-.43-.6-.44-.25 0-.5.04-.5.35 0 .84-.52 1.2-1.23 1.51-.76.34-.75.87-.06 1.35ZM706.33 10.18c.09.85.66.97 1.53.53.25-.13.57-.15.76-.33.33-.31.95-.6.83-1.06-.26-1.03-.05-2.26-1.04-3.05-.25-.2-.41-.61-.78-.52-.41.1-.54.47-.51.88.02.3-.06.68-.38.65-1.25-.13-1.29.97-1.96 1.83.97-.02 1.45.16 1.54 1.06ZM342.4 12.95c-.67-.22-.97-.63-1.22-1.23-.13-.33-.5-.55-.8-.86-.84.52-1.47 1.03-1.92 1.81-.42.73-.13 1.33.05 1.96.15.57.72.35 1.1.34.64-.02.47.76 1.13.94.56-.6 1.13-1.28 1.79-1.89.52-.48.36-.91-.13-1.07ZM338.39 4.51c.33-.01.73-.07.85.32.27.81.98.66 1.38.45.55-.29 1.26-.41 1.59-1.05.13-.05.26-.09.39-.15.12-.06.32-.12.32-.19 0-.27-.24-.16-.39-.2-.08-.03-.18-.01-.27-.02-.14-.45-.84-.13-.93-.72-.07-.46.54-.69.3-1.16-.22-.1-.45-.16-.62-.3-1.15-.87-1.46-.85-2.1.38-.34.65-.77 1.19-1.42 1.47-.59.26-.42.49-.13.82.28.32.63.37 1.03.35ZM196.26 6.46c.1.21.38.64.66.29.7-.88 1.63-1.59 2.03-2.69.06-.16.24-.26.21-.48-.17-.93-2.13-2.15-3.06-1.9-.56.15-.74.54-.51 1.13.31.79.28.84-.54.94-.21.03-.44-.08-.64.09 1.01.86.99.87 1.85 2.62ZM261.79 3.76c.64.54.59 1.18.37 1.93.22.02.4.05.58.04.3-.01.94-.85.7.37-.09.48.54.6 1.05.24.95-.65 1.27-1.67 1.6-2.68.07-.23.04-.51-.15-.66-.22-.17-.44-.03-.61.15-.22.23-.51.33-.75.12-.29-.25-.27-.66-.01-.88.46-.4.17-.63-.09-.91-.19-.21-.37-.43-.7-.82.09 1.43-.83 1.8-1.69 2.16-.57.24-.88.46-.3.95ZM153.51 10.72c.11.15.33.19.49.01.33-.37.89-.6.88-1.21 0-.45.13-.72.64-.67.3.03.58-.03.58-.42 0-.26.04-.51-.27-.72-.57-.38-1.14-.81-1.61-1.31-.5-.55-.82-.36-1.28.03-.84.71-1.22 1.74-2.01 2.57.92.56 1.94.86 2.58 1.71ZM226.71 11.67c-.55-.1-.75-.67-1.42-.82-.4.46-.85.95-1.28 1.45-.34.39-.6.83-.52 1.35.18 1.11.48 2.16 1.87 2.31.02.17-.07.45.13.46.32.02.17-.31.22-.48.68-.78.72-2.05 1.9-2.46.06-.02.13-.3.07-.38-.34-.48-.31-1.3-.99-1.43ZM678.56 11.36c0 .08.31.41.39.21.27-.67 1.25-.58 1.38-1.24.14-.69.75-.94 1.05-1.46.21 0 .54.04.54-.2 0-.22-.33-.15-.53-.13-.04 0-.08.03-.12.05-.56-.05-.45-.48-.48-.85-.09-1.07-.41-1.4-1.4-1.21-.87.16-1.53.8-2.18 1.36-.24.21-.04.6.02.92.21.98 1.26 1.51 1.33 2.56ZM509.44 14.33c1.06.32 1.39 1.26 1.92 2.04.29.43.6.35.89-.01.23-.3.52-.5-.1-.81-.71-.36-.63-.7.11-1.09.33-.17.6-.43.98-.53.31-.08.64-.33.58-.7-.05-.32-.33-.66-.65-.65-.94.02-1.12-.47-1.01-1.25.04-.31-.1-.58-.36-.71-.44-.21-.36.28-.52.45-.19.2-.45.35-.63.54-.54.57-1.49.88-1.34 1.93.02.28-.1.72.13.79ZM614.32 4.43c.76.28 1.15.87 1.61 1.47.32.41.8.76 1.29.95.23.09.63-.27.92-.41.04-.65-.75-.79-.69-1.35.25-.28.54-.16.8-.2.3-.05.7.15.83-.3.09-.33.04-.68-.27-.89-.48-.31-.65-.79-.71-1.35q-1.12.65-1.37-.83c-.44.04-.59.57-1.08.57-.28 0-.58.4-.47.6.62 1.08-.13.99-.82 1.11-.31.05-.37.52-.05.64ZM202.91 7.01c-.21-1.11-1.6-1.49-2.02-.67-.48.94-1.34 1.53-1.94 2.41.54.4.73 1.34 1.72.69.3-.19.66.32.77.66.12.34.08.74.12 1.11.09.04.18.08.26.13.28-1.43 1.6-1.68 2.71-2.44-.91-.44-1.42-.91-1.61-1.88ZM698 6.03c-.66.13-1.18.59-1.23 1.18-.05.65-.48.99-.87 1.61.89.33 1.42.92 2.02 1.43.38.32.84.82 1.46.3.69-.58 1.27-1.86.88-2.3-.4-.46-.62-1.02-1-1.48-.32-.38-.63-.86-1.26-.74ZM220.09 6.21c-.41.36-.57.76-.24 1.23.35.49.08.64-.33.79-.29.11-.52.29-.89.1-.24-.13-.46.18-.47.39-.07.91 1.03 1.62 1.87 1.21.17-.08.31-.2.5 0 .19.37.04.81.16 1.29.62-.11.98-.41 1.3-.93.16-.26.93-.28.84-.75-.08-.39-.04-.9-.26-1.19-.57-.72-.92-1.59-1.64-2.2-.34-.29-.54-.2-.83.05ZM359.66 4.99c-.18.39-.34.62-.39.88-.05.25-.15.59.24.69.31.08.54-.1.72-.34.19-.24.17-.54.15-.81-.06-.67.33-1.07.85-1.32.3-.14.61-.21.79-.58-.4-.67-1.04-1.17-1.61-1.72-.86-.86-1.28-.86-2.06.11-.52.64-.89 1.4-1.6 2.02 1.16.06 1.69 1.25 2.91 1.08ZM235.26 9.63q-.62.81-.71 1.6c-.03.26.06.72-.28.69-1.19-.12-1.2.95-1.73 1.52.52.29 1.11.52 1.11 1.16 0 .85.59.76 1.07.67.45-.08.86-.33 1.28-.54 1.15-.57 1.2-1.17.13-1.87-.24-.16-.46-.12-.28-.54.42-.97-.06-1.8-.59-2.7ZM685.26 11.87c-.36-.21-.5-.7-1-.73-.62-.04-.56.53-.8.83-.08.1-.23.16-.36.21-.86.29-1.56.93-2.67.98.74.86 1.21 1.77 2.44 1.32.25-.09.57 0 .72.31-.05.52-.09 1.03.1 1.66.23-.36.47-.52.47-.81.05-.57.05-1.11.82-1.28.44-.09.66-.61 1.13-.81.51-.21.53-.75.1-1.11-.28-.24-.63-.39-.95-.57ZM283.94 12.08c-.95-1.69-1.34-1.71-2.54-.2-.93 1.15-.71 2.25.57 3.04.31.19.56.49.84.73-.06.19-.03.45.15.45.17 0 .17-.28.14-.47.68-.71 1.35-1.41 1.99-2.07-.18-.69-.84-.93-1.14-1.47ZM287.89 6.9c.01-.24.17-.57-.3-.76-.87.78-1.63 1.75-2.72 2.43.21.12.29.21.36.21.97-.1 1.63.14 1.65 1.29 0 .22.2.5.32.75.22.46.54.59.96.15.68-.72 1.39-1.41 2.09-2.11.16-.01.44.05.44-.13 0-.3-.3-.15-.47-.18-.4-.47-.77-.95-1.51-.83-.61.1-.85-.21-.82-.81ZM147.31 14.38c.22.54.74.92 1.37 1.13.34.11.64.08.72-.17.34-1 1.08-1.54 1.96-2.02.44-.24.18-.52-.12-.73-.31-.21-.64-.07-.96-.09-.49-.03-1.02.18-1.51-.21.15-.37.37-.35.52-.44.27-.16.65-.32.43-.73-.2-.39-.6-.46-.98-.32-.25.1-.43.34-.66.5-.76.54-.91 1.55-1.82 2.01.47.38.84.57 1.04 1.06ZM325.45 6.9c-.57.6-1.16 1.18-1.81 1.84 1.19.8 1.52 2.06 2.22 3.07 1.16-.68 1.38-1.83 1.74-2.92.48-1.46.21-1.88-1.31-2.19-.38-.08-.59-.06-.84.2ZM426.38 6.03c.06-1.18.89-1.41 1.81-1.51.32-.04.66.03.93-.24.19-.2.47-.38.37-.7-.09-.29-.38-.19-.6-.21-1.14-.13-1.62-.5-1.89-1.65-.08-.34-.33-.56-.41-.88-.05-.21-.22-.33-.42-.28-.19.05-.28.22-.32.42-.1.58.14 1.21-.23 1.86-.43-.2-.84-.51-1.25-.25-.07 1.54.42 2.75 2 3.43ZM190.49 10.13c.73.21.91.82 1.34 1.37 1.01-.79 1.98-1.51 1.76-2.96.39-.13.65.6 1.11.18-.23-.52-.62-.6-1.11-.44-.73-.42-1.01-1.05-.91-1.88.02-.2-.09-.37-.3-.42-.14-.03-.32 0-.35.16-.12.67-.62.67-1.14.77-.39.08-.88.43-.61.9.25.42.07.64-.04.99-.15.45-.36 1.16.26 1.33ZM385.53 9.1c.24-.1.34-.68-.16-.89-.6-.26-.93-.69-1.15-1.31-.13-.35-.5-.66-.91-.8-1.04.63-1.42 1.77-2.16 2.64.68.91 1.67 1.47 2.13 2.9.73-1.14 1.19-2.12 2.26-2.55ZM548.39 5.75c.04.59.47.67 1.1.5.72-.19 1.03-1.12 1.96-.98.24.04.32-.45 0-.63-1.12-.61-1.27-1.53-.94-2.65.14-.46-.38-1.15-.88-1.18-.42.1-.86.39-.64.84.32.66.03.76-.48.98-.32.14-.55.5-.81.77-.19.2-.22.43 0 .6.59.45.65 1.06.69 1.74ZM163.17 11.16c.08.37.42.3.68.14.24-.15.49-.36.48-.66-.02-.64.2-.98.89-.94.26.02.41-.17.45-.44.05-.42-.65-1.86-1.01-1.84-.81.06-1.22-.58-1.75-.9-.4.24-.21.56-.28.81-.06.19-.09.35-.35.21-.97-.51-.83.2-.87.77-.04.56.15.96.56 1.36.45.44 1.05.77 1.21 1.49ZM390.18 12.53c-.95-.18-1.78-.67-2.7-.9-.3-.07-.72-.11-.82.31-.16.71-.89.95-1.17 1.55.16.31.45.42.76.54.35.14.81.47.76.74-.17.96.73 1.04 1.13 1.57.24-.49-.18-1.21.39-1.34.94-.21.99-1.28 1.8-1.62.32-.13.32-.77-.15-.87ZM379.55 10.93c-.35-.26-.72-.14-1.08-.16-.48-.04-.41.42-.59.66-.2.26-.46.42-.75.59-.92.56-1.06 1.87-.18 2.37.65.37.95.94 1.36 1.65.55-.57 1-1.04 1.45-1.5.3.08.47.49.87.34.35-.13 1.11-1.33 1.04-1.72-.05-.3-.29-.4-.51-.22-.28.23-.6.45-.65.88-.06.46-.43.42-.76.4-.27-.52-.34-.96.07-1.53.44-.62.2-1.4-.28-1.75Zm-.99 1c-.16.02-.26-.06-.2-.23.02-.06.11-.16.15-.16.14.02.25.1.24.27-.06.04-.12.11-.2.12ZM156.52 13.68c.38.48.71 1.28 1.64.98.18-.05.19.26.22.44.06.3-.13.64.25 1 .76-.64 1.13-1.69 2.09-2.11.18-.08.18-.32.2-.51.05-.54-.09-.96-.48-1.4-.89-.98-.9-1.06-1.74-.18-.65.69-1.26.68-2.11.17.26.6-.44 1.14-.08 1.6ZM102.9 12.22c-.07-.36-.44-.52-.84-.63-1.02-.26-1.81.43-2.71.62-.6.13-.54.95-.42 1.48.11.49.5.26.79.1.3-.17.41.09.58.22.45.37.73.79.73 1.43 0 .42.37.5.69.18.16-.16.31-.35.4-.56.3-.72.77-1.15 1.6-1.11.21.01.33-.16.42-.42-.5-.32-1.08-.6-1.23-1.32ZM310.16 3.93c-.04.86.28 1.53 1.05 1.95.31.17.26.9.75.64.31-.16.46-.67.64-1.04.07-.16.02-.37.04-.56.09-.92.29-1.15 1.12-.79.74.32.87-.07 1.18-.52-.98-.51-1.87-.97-2.76-1.44-.36-.19-.8-.27-1.06-.02-.42.41-1 .24-1.67.67.51.31.74.65.72 1.1ZM377.01 4.84c.61.32.96.86 1.52 1.3.62-.57 1.13-1.13 1.72-1.58.69-.52.75-.73.33-1.37-.36-.54-1.1-.55-1.44-1.04-.45-.65-.95-.27-1.31-.06-.54.31-.97.74-1.24 1.41-.27.68.02 1.12.41 1.33ZM599.58 8.47c.26.3.46.94 1.09.44.05-.04.3.16.46.25-.27.81.46.95.87 1.33.35.32.67.75 1.19.49.45-.22.63-.66.58-1.18-.04-.38 0-.72.39-.98.84-.56.83-.58.19-1.28-.22-.24-.51-.43-.58-.78-.1-.49-.46-.64-.88-.8-.68-.24-.91-.2-.9.46.01.86-.41 1.49-.82 2.16-.41.02-.75-.04-.81-.55-.04-.31-.25-.38-.51-.22-.24.15-.52.38-.27.67ZM625.98 5.44c.38.27.97.57.32 1.17-.12.11-.06.27.07.36.07.05.18.09.26.07.57-.16 1.71-1.74 1.48-2.2-.28-.53-.18-.88 0-1.41.26-.76-.95-.45-1.03-1.08-.03-.23-.05-.47-.1-.69-.07-.33-.29-.47-.67-.46-.21-.03-.42.07-.44.35-.03.33-.3.46-.47.68-.78 1.04-.51 2.43.59 3.22ZM429.43 8.58c-.6.09-.72.34-.32.81.3.34.55.73 1.08.84.5.11.74.54.83 1.08.86-.21.61-1.32 1.3-1.45.73-.13.69-.81 1.04-1.19.21-.23.41-.94-.5-.7-.26.07-.6-.28-.54-.52.23-.86-.34-1.04-.92-1.26-.21-.08-.1-.66-.54-.36-.26.18-.3.43-.22.74.4 1.57.27 1.77-1.21 2ZM406.48 3.75c.39.27.04.79.31 1.02.32.28.12.88.68.97.6.1.98-.24 1.32-.64.38-.45.44-1.79.05-2.24-.45-.52-.99-.97-1.2-1.67-.03-.08-.44-.44-.49-.12-.1.66-.71.52-1.01.84-.98 1.02-1.48 1.08-.92 2.57.59.06.69-.75 1.26-.72ZM113.8 9.19c.32-.25.56-.27.84.05.28.32.38.63.1 1-.08.11-.14.23-.19.31.02.45.81.78 1.3.58.91-.37 1.15-1.38 1.84-1.97.12-.1.03-.34-.03-.53-.28-.87-1.11-1.19-1.75-1.66-.5-.37-.74.36-1.11.59-.18.12-.45.14-.67.14-.38 0-.61.22-.83.47-.16.19-.54.34-.28.67.18.23.38.65.78.33ZM139.68 5.5c.42-.54.97-.62 1.62-.64.67-.02.82-.38.43-.89-.24-.31-.35-.62-.43-1-.18-.85-1.5-1.59-2.02-1.14-.81.69-2 1.06-2.15 2.45.74.18 1.15.96 1.95 1.17.21.05.38.32.59.04ZM424.63 13.9c.61.16.81.49.87 1.09.04.42.35.82.64 1.45.36-.66.5-1.23 1.05-1.36.44-.11.58-.32.72-.72.13-.39.45-.71.92-.77.23-.03.35-.2.3-.39-.04-.17-.2-.36-.41-.33-.66.07-.95-.19-.92-.87.01-.29-.19-.2-.37-.11-.39.2-.72.13-.97-.26-.06-.09-.16-.28-.32-.12-.58.55-1.55.63-1.78 1.64-.09.41-.07.67.28.76ZM653.96 4.9c.41-.03.57.24.6.63.01.25-.08.57.43.66.05-1.2.81-1.63 1.89-1.68.05 0 .1 0 .14-.02.56-.21.63-.56.26-1.03-.6-.76-1.36-1.13-2.41-.94 0-.3-.04-.41 0-.47.28-.41.38-.88-.16-1.03-.34-.1-.69.28-.63.74.06.5-.24.78-.56 1.08-.37.34-.71.71-1.06 1.07.42.55.76 1.05 1.5 1.01ZM134.1 10.87c.3.24.48.46.96.26.42-.18.65-.36.59-.8-.08-.61.18-.89.74-1.15.59-.27.52-.64-.13-.96-.66-.33-1.32-.61-1.88-1.15-.41-.4-.86-.32-1.22.31-.27.47-.26 1.25-1.09 1.27.52.95 1.26 1.6 2.04 2.22ZM435.02 6.47c1.08-.04.27-1.33 1.09-1.58.72-.21 1.05-.89 1.56-1.34-.47-.98-1.63-1.23-2.1-2.19-.16-.34-.52-.17-.75.21-.47.79-1 1.55-1.52 2.33.57.86 1.15 1.74 1.71 2.56ZM364.86 7.94c-.03-.08-.09-.2-.12-.33-.21-1.19-.27-1.23-1.18-.57-.24.17-.5.24-.75.36-1.12.54-1.05.62-.56 1.78.25.6.8.55 1.13.92.18.21.6.11.7.55.15.7.56.38.77.06.43-.66.84-1.32 1.42-1.87.27-.26.24-.64.1-.93-.19-.37-.57-.19-.88-.14-.2.03-.29.4-.63.16ZM559.04 15.6c.01.07.43.05.67.06.04 0 .1-.02.13-.05.86-.67 1.62-1.42 1.86-2.54.05-.22 0-.61-.26-.56-.9.18-1.57-.56-2.66-.55-.31-.05-.73.04-.87.73-.08.39-.36.74-.57 1.11-.1.17-.2.34-.12.53.34.79 1.61.26 1.83 1.28ZM540.24 6.21c.34-1.63 1.38-2.59 2.83-2.45-.76-1.13-1.91-1.56-2.47-2.59-.22-.4-.79-.19-.82.41-.04.72-.49 1.08-.89 1.52-.24.27-.59.45-.71.89.75.66.81 1.97 2.07 2.22ZM256.86 8.87c.13 0 .27-.04.4-.07.57.04.84.32.8.92-.05.78.31 1.4.89 2.04.44-.71.79-1.35 1.56-1.59.66-.21.3-.92.54-1.36.19-.36-.22-.54-.55-.6-.45-.08-.45-.39-.45-.74.02-1.26-.39-1.56-1.58-1.19.45.97.45.96-.48 1.62-.27.19-.49.44-.73.67-.14 0-.28-.04-.41-.02-.15.02-.38-.06-.35.21 0 .06.23.11.35.12ZM110.56 12.47c-.53-.01-1.09.06-1.06-.74.02-.4-.17-.62-.59-.58-.41.04-.55.29-.55.67 0 .55.08 1.12-.19 1.64 1.47.38 2.26 1.23 2.42 2.62.03.23-.03.5.25.6.33.11.48-.19.69-.37.4-.33.28-.79.24-1.18-.06-.7.2-1.17.79-1.5.25.05.51.14.75-.13-.26-.14-.49-.27-.73-.41-.48-.82-1.29-.6-2.02-.62ZM94.88 9.73c.42.16 1.05.32 1.17.64.38 1.01 1.14.14 1.15.11.28-.78.94-1.09 1.59-1.46.22-.12.51-.39.29-.69-.19-.26-.38-.7-.87-.32-.44.34-.73.15-.72-.36 0-.72-.39-.88-1-.86-.18.03-.41 0-.55.09-.79.55-1.25 1.34-1.5 2.24-.08.3.11.49.43.61ZM455.64 12.73c-.6-.33-1.14-.84-2.01-.74-.89-.34-1.16.87-1.98.96-.24.02-.54.33-.47.62.06.27.36.37.67.41 1.12.15 1.14.16 1.27 1.21.05.37.13.64.55.67.33.02.51-.12.62-.44.07-.22.27-.39.34-.6.23-.71.5-1.1 1.27-.49.41.32.7-.06.86-.41.14-.3.04-.53-.34-.61-.34-.07-.5-.43-.78-.58ZM290.68 4.33c.98.6 1.46 1.55 1.95 2.5.95-.57.93-1.65 1.23-2.52.51-1.47-1.06-2.02-1.62-3.36-.42 1.06-1.09 1.57-1.66 2.17-.54.57-.55.82.09 1.21ZM252.67 3.98c.33.05.3-.27.4-.46.14-.28.4-.44.7-.27.39.22.09.45-.04.68-.16.28-.32.57-.43.87-.19.51-.09.83.51 1.04.75.27 1.2-.13 1.66-.53.91-.79.85-1.19-.2-1.84.14-.45.71-.63.8-1.33-.67-.11-1.36-.11-1.73-.77-.09-.17-.31-.2-.51-.14-.54.17-1.47 1.49-1.45 2.08 0 .26-.11.61.3.67ZM329.21 4.78c-.04.43.22.59.61.58.42 0 .85.03 1.28 0 .76-.06 1.46-.81 1.52-1.57.08-.96-.26-1.51-1.2-1.7-.55-.11-1.13-.05-1.7-.03-.32.01-.55.23-.51.56.1.77-.5.75-1.01.9.56.3 1.06.57 1 1.28ZM142.75 9.45c-.06.62.45.89.8 1.26.15.17.33.37.6.24.27-.12.18-.4.22-.62.07-.33-.21-.92.31-.94.79-.03 1.3-.78 2.13-.57-.26-.9-.76-1.51-1.37-2.04-.45-.4-.93-.45-1.4-.09-.55.42-.94 1.02-1.67 1.24-.23.07-.4.4-.08.68.25.22.5.45.46.83ZM701.03 4.61c.19.45.53.79 1.09.75.39-.03.55.23.77.5.68.83.98.79 1.43-.13.19-.37.33-.79.58-1.1.28-.35.37-.61.05-.98-.2-.23-.3-.55-.45-.83-.49.14-.61.74-1.14.87-.6-.23-.16-.95-.65-1.2q-.73.99-1.87.55s-.07-.08-.11-.09c-.53-.08-.81.28-.92.67-.12.41.29.4.56.4.42 0 .53.24.67.58ZM137.64 13.88c.46.21.79.37.83.97.05.59.79.88 1.28.53.34-.24.54-.36.98-.14.52.26.92-.1.7-.65-.26-.66.15-.96.46-1.37-.95-.72-1.76-.25-2.61.12.42-1.69.23-1.92-1.24-1.71-.35.05-.5.18-.5.52 0 .23.06.5-.14.67-.61.52-.17.87.24 1.06ZM148.63 5.9c.23.05.28.35.28.6-.17.15-.46.35-.3.53.19.21.52.17.61-.22.15-.18.35-.33.35-.59-.01-.85-.04-1.63.72-2.32.34-.31.3-1.06-.15-1.55-.34-.37-.69-.73-.98-1.04-.54.14-.69.63-1.15.73-.78.16-.98.81-.78 1.41.29.89.05 2.13 1.4 2.45ZM618.43 8.37c-.43.32-.11.54.08.79.86 1.15 1.93 1.73 3.4 1.35.42.08.87.27 1.15-.26.42-.38.49-.98.94-1.36.39-.33.31-.67-.29-.69-.47 0-.9.02-1.29-.39-.3-.31-.66-1.28-1.24-.18 0 .01-.25-.06-.35-.14-.21-.16-.44-.15-.67-.14-.18.01-.37 0-.5.2-.22.33.1.34.26.48.35.31.35.69-.05.93-.35.22-.64.02-.74-.37-.12-.48-.36-.49-.71-.23Zm3.39.46c.72.28 1.01.71.88 1.4h-.04c-.22.02-.43.03-.65.04h-.11c-.38-.45-.26-.9-.08-1.45ZM109.07 4.41c.77.24.82.98 1.24 1.44.89.96.84 1.03 1.48-.16.06-.12.17-.22.26-.33.39-.48.09-.67-.35-.76-.23-.05-.46-.04-.85-.06 1.41-1.73 1.39-1.94-.28-3.32-.46.51-.95 1.02-1.41 1.56-.42.5-.52 1.49-.09 1.63ZM694.84 12.8c-.76-.23-.92-.98-1.44-1.46-.2.41-.42.75-.73 1.02-.44.39-.76-.03-1.14-.15-.36-.11-.45.13-.52.46-.16.75.52 1.23.55 1.97.03.85 1.21 1.34 2.02 1.03.13-.05.28-.12.26-.28-.08-.84.57-1.24 1.06-1.7.42-.38.29-.79-.07-.89ZM391.52 9.92c.1.5.64.62 1.08.78.2.07.39.11.45-.11.16-.65.76-.74 1.22-1.04.81-.52.88-1.03.35-1.83-.67-.99-1.07-1.03-2.2-.53-.73.33-1.19.88-1.72 1.45.21.48.7.74.82 1.29ZM604.53 4.31c.29.21.28.74.49.81.81.27 1.52.64 2.11 1.27.17.18.33-.06.45-.18.28-.26.16-.63.19-.94.06-.6.8.03.79-.43-.02-.87.61-.81 1.18-.85-.49-1.28-1.7-1.33-2.56-1.89-.12-.08-.27-.03-.38.08-.17.16-.17.32-.01.48.61.63-.15 1.07-.36 1.43-.25.44-.73-.01-1.03-.32-.53-.55-1.03-.59-1.55.05.23.17.46.33.68.49ZM624.79 13.56c-.59-.72-1.05-.34-1.57.12q1.15.87 2.1.24c.29.42 1.21.56.57 1.4-.18.24.06.62.33.66.41.06.74-.3.72-.64-.04-.86.55-1.26 1.09-1.68.19-.15.58-.04.61-.44-.23-.27-.72-.2-.82-.68-.13-.65-.77-.91-1.14-1.38-.32-.41-.6-.46-1.03-.07-1.29 1.15-1.32 1.2-.35 2.54-.18.01-.37.12-.52-.06ZM344.18 6.48c-.32.71-.83 1.21-1.33 1.76-.26.28-.61.61.17.64.62.02.9.41.96.98.03.28-.01.56.34.69.78.29 2.21-.7 2.23-1.66 0-.08.04-.32-.06-.44-.49-.57-.74-1.21-.97-1.93-.24-.74-1.01-.76-1.35-.03ZM402.07 6.38c-.2 1.04-1.08 1.33-1.83 1.75-.3.17-.6.22-.54.66.05.42.37.42.66.58.74.42 1.57-.1 2.31.31.23.13.57.55.99.14.39-.37.27-1 .74-1.19 0-.15.02-.22 0-.24-.66-.65-.93-1.6-1.66-2.21-.33-.28-.63-.01-.67.2ZM348.39 3.53c-.2.15-.45.24-.67.35.46 1.27 2.01.83 2.63 1.89.5-.65.7-1.33 1.05-1.92.24-.41.08-.75-.15-.81-1.16-.29-1.01-1.43-1.49-2.15-.2.24-.48.24-.76.3-1.05.21-1.21.6-.51 1.43.36.43.23.66-.11.91ZM205.82 4.99c.29-.23.55-.44.96-.51.82-.14 1.2-1.52.47-1.81-1.1-.45-.69-1.29-.93-2.22-.45.45-.89.68-1.01 1.16-.11.41-.36.76-.69.82-.62.12-.43.61-.61.94-.29.51-.08.92.11 1.31.38.78.99.88 1.71.31ZM578.92 6.07c.34-.06 1.08-.48.66-1.25-.14-.26-.05-.54.16-.77.33-.37-.02-.96.46-1.32-.11-.31-.25-.61-.61-.67-.37-.06-.8.06-1.11-.09-.76-.37-.92.06-.95.63-.03.52-.03.99-.45 1.41-.44.43-.35 1.29.21 1.76.44.37 1.14.4 1.63.3ZM386.18 4.24c.06-.07.11-.15.17-.22.52 0 .81.24.74.78-.08.63.14 1.1.67 1.44.2.2.02.65.49.72.02-.33.04-.64.06-.96.87-.76 2.09-1.16 2.7-2.73-.87.75-1.32.44-1.74-.06-.18-.21-.4-.4-.6-.6-.46-.45-.92-1-1.28.09-.03.09-.23.2-.33.18-.74-.16-.79.48-1.05.88-.31-.03-.58.03-.62.39-.01.11.08.3.18.34.25.11.44-.06.6-.24ZM360.56 11.21c-.54.14-1.37.19-1.61.59-.37.62-.91 1.05-1.29 1.62-.24.35-.22.8.1 1.18.28.33.57.49.95.14.22-.2.39-.1.6.07.25.19.58.27.97.44.16-.22.79-.37.52-.72-.54-.71-.02-.95.32-1.38.5-.64.04-2.09-.57-1.94ZM632.95 13.52c0 .23.33.15.52.14.04 0 .08-.03.12-.05.41.2.94.3 1.22.61.53.61.94.53 1.67.32.7-.2 1.18-.53 1.56-1.04.34-.45.08-.87-.49-.95-.35-.05-.75.11-1.06-.29.13-.24.3-.47.38-.72.09-.26.12-.6-.22-.71-.3-.1-.66-.21-.84.21-.45 1.09-1.38 1.69-2.33 2.28-.21 0-.55-.04-.54.2ZM370.03 12.73c-.08.03-.18.03-.34.05-.24-.4.04-1.04-.49-1.35-.2-.12-.38-.38-.61-.2-.4.32-.74.73-1.12 1.07-.35.31-.05.6 0 .89.09.55-.06 1.02-.49 1.47.47.34.84.43 1.17.15.54-.46 1.18-.47 1.72-.2.51.25.47-.06.66-.31.21-.27.32-.55.44-.86.12-.33.5-.6.1-.99-.52-.5-.7.16-1.03.3ZM396.63 4c.86 0 1.05.47.98 1.19-.06.6.34.56.73.54.43-.03.67-.36.87-.65.41-.6.81-1.19 1.77-1.52-1.41-.51-2.33-1.34-3.17-2.29-.57.68-.79 1.53-1.42 2.13-.22.21-.18.6.23.6ZM118.92 4.63c.81-.38 1.52.06 2.09.64.51.53 1.02.54 1.12-.09.09-.68.32-1.17.97-1.41-.14-.18-.18-.29-.25-.3-1.01-.22-1-.23-1.66-1.28-.19-.31-.47-.57-.69-.83-.64.51-.77 1.19-1.08 1.75-.19.34-.28.69-.77.66-.36-.02-.72.07-.56.54.12.35.3.59.84.34ZM351.05 11.93c.21-.28-.48-1.11-.91-1.14-.49-.03-.45.35-.49.68-.06.6-.42.91-1 .98-.27.03-.58-.01-.67.36.86.64.87.65.77 1.09q-.27 1.21 1 1.89c.29-.26.18-.6.2-.92.03-.49.06-.91.73-.46.35.23.62-.06.83-.32.25-.32.14-.6-.11-.87-.33-.36-.84-.64-.35-1.29ZM331.29 11.83c0-.19-.43-.29-.7-.06-.45.39-1 .19-1.5.21-.55.02-.77.26-.71 1.09-.01-.07-.05.29.08.37.64.41.69 1.2 1.18 1.7.8.82.85.82 1.84.26.36-.21.36-.46.12-.65-.74-.58-.66-1.06 0-1.67.49-.45-.33-.77-.31-1.25ZM639.85 9.96s.14.09.22.14c.34-.06.5-.39.75-.59.32-.25.5-.17.62.16.13.39.33.63.67.23.32-.38 1.19-.57.7-1.28-.42-.6-1.01-1.06-1.33-1.77-.12-.27-.41-.7-.86-.6-.46.09-.49.5-.5.89 0 .18-.09.35-.15.52-.23.62-1.33.35-1.29 1.07.03.56 1.14.43 1.16 1.22ZM643.5 13.56c1.07.04 1.48.62 1.55 1.6.01.21.22.44.5.4.25-.04.38-.25.46-.48.19-.51-.26-.87-.31-1.32 1.29-.69.74.81 1.25 1.09.42-.25.57-.67.73-1.02.26-.57-.25-1.42-.7-1.22-1.02.45-1.19-.19-1.49-.85-.13-.28-.35-.54-.8-.58-.07.85-.86 1.15-1.31 1.74-.21.28-.23.62.13.64ZM672.84 5.23c-.18.18-.04.44.25.5.29.07.47.29.69.46.41.31 1 .04 1.35-.34.65-.72-.34-1.1-.33-1.61.26-.22.5-.19.74-.2.23 0 .46-.03.99-.06-1.12-.96-1.88-1.89-3.27-1.46-.71.22-.78.34-.55 1.07.16.53.77 1.02.13 1.65ZM658.91 10.09c-.05.5.36.44.65.54.53.18.36-.24.4-.45.04-.25.14-.47.35-.58.83-.43.5-1.36.87-1.99.11-.62-.2-1.19-.59-1.49-.48-.37-.94.1-1.31.49-.29.3-.54.65-.98.77-.32.09-.3.3-.14.53.46.66.85 1.34.75 2.19ZM633.82 4.03c.59.63 1.3 1.19 1.25 2.17 1.03-.08.89-1.07 1.42-1.5.6-.5.64-1.13.22-1.76-.25-.37-.3-.66 0-1.01.17-.21.41-.5 0-.68-.29-.12-.7-.19-.85.23-.15.42-.4.97-.75.93-1.09-.11-.92.79-1.24 1.31-.18.02-.47-.12-.47.19 0 .21.27.12.43.13ZM158.58 6.18c.23-.26.47-.41.52-.61.21-.77-.33-1.81.86-2.21.05-.02.06-.28.03-.4-.16-.64-.62-1.06-1.2-1.26-.69-.23-1.59.5-1.65 1.22-.1 1.3.27 2.39 1.43 3.27ZM333.5 9.28c1.19-.11 2.06.18 2.34 1.62.01-.91.62-1.27 1.05-1.74.6-.65.57-.73 0-1.37-.54-.6-1.35-.55-2-.89-.42-.22-.79.54-1.16.87-.31.28-.68.52-.82.94.15.25.35.59.6.56ZM503.88 12.67c-.26-.23-.42-.48-.49-.82-.05-.23-.27-.21-.45-.24-1.05-.18-1.32.02-1.49 1.11-.04.29-.07.58-.41.64-.4.07-.61-.15-.7-.52-.04-.17 0-.36-.28-.54-.09.4-.87.42-.42 1.13.22.35.18.81-.13 1.19-.16.2-.21.45.02.61.13.09.41.13.52.05.57-.42 1.49-.38 1.68-1.32.08-.38.42-.63.76-.79.38-.18.57.24.85.35.37.14.76.12 1.15.02-.1-.47-.38-.67-.62-.88ZM420.07 3.61c-.42-.37-.9-.09-1.18-.35-.57-.53-1.03-.38-1.63 0-.55.35-1.17.7-1.96.39.79.85 1.28 1.77 1.48 3 1.01-1.2 2.56-1.59 3.29-3.03ZM301.6 14.55c.32-.25.62.02.76.38.11.29-.08.67.27.89 1.5-1.02 1.58-1.57.43-2.73-.2-.2-.41-.38-.62-.56-.18-.23-.1-.61-.44-.77-.22.33-.07.7-.16 1.02-.38.02-.75.08-1.13.05-.7-.04-1.17.2-1.37.94.25.15.52.25.72.44.45.44.84.89 1.54.34ZM434.77 15.18c.25 1.17.77.64 1.17.14.23-.3.73-.22.82-.63-.11-.38-.76-.47-.55-.91.2-.43.69-.47 1.12-.31.03-.13.06-.19.04-.22-.21-.41-.42-.81-.7-1.34-1.09.87-2.56.5-3.47 1.59.68.43.72 1.41 1.57 1.68ZM504.58 9.15c.31.26.72.41 1.1.54.64.22 1.2-.15 1.74-.39.5-.22.31-.77.26-1.15-.07-.58.32-.95.51-1.43-.29-.2-.56-.38-.83-.55-.24-.15-.35-.67-.77-.34-.32.25 0 .48.06.74.23.85.04 1.1-.85 1.15-.33.02-.67-.01-.99.04-.35.06-.59.35-.72.64-.18.4.28.58.49.76ZM367.36 4.04c.13.02.27.02.41.03.21.51.96.66.92 1.31-.02.27-.51.57.03.78.45.18.8-.06 1.12-.4.27-.28.25-.68.51-.99.72-.86.71-.92-.22-1.57-.47-.33-.47-.91-.84-1.27-.41-.41-.76-.35-.83.22-.07.59-.5 1-.63 1.54-.14 0-.3-.05-.4 0-.28.15-.59-.59-.74-.04-.12.47.4.32.68.36ZM295.04 8.79c.45-.3.36-1.16 1.14-1.1.66.85.65.96.08 1.49-.19.18-.4.22-.62.29-.29.1-.26.35-.26.59 0 .27.12.45.39.51.23.05.53-.01.68.11.72.62 1.02.13 1.4-.42.83-1.21-.06-2.31-.22-3.43-.06-.42-.6-.77-1.04-.11-.1.15-.26.27-.39.4-.75.01-1.12.55-1.5 1.08-.17.14-.49.29-.38.51.14.29.47.18.74.09ZM644.13 4.38c-.02.91.14 1.06.88.98.66-.07.97-.45 1.03-1.23.07-.82-.2-1.67.3-2.46.18-.27-.06-.58-.42-.48-.65.18-1.29.42-1.9.69-.23.1-.53.44-.29.67.61.59.73 1.21.4 1.82ZM673.73 14.51c.3.04.33.42.37.7.05.31-.11.67.38 1.04.24-.49.44-.89.63-1.29.26-.52.75-.97.27-1.64-.35-.48-.52-1.09-1.05-1.46-.26-.18-.49-.3-.74-.02-.37.42-1.1.35-1.29.98-.02.07.03.22.08.24.68.27.48 1.33 1.35 1.45ZM663.88 5.14c.24-.18.42-.15.62.02.37.31.78.23 1.31.12-.17-.46-.28-.85-.01-1.18.34-.43.18-.91.22-1.36.05-.57-.26-.72-.78-.71-.42 0-.82.12-.96.47-.27.69-.77.96-1.49.97.05.52.42.82.4 1.28-.02.45.2.77.7.39ZM396.27 14.22c.05.21-.05.56.26.56.48 0 .93.52 1.27.33.42-.23.88-.51 1.22-.85.31-.31.07-.78-.19-1.16-.1-.14-.07-.36-.09-.55-.04-.51-.38-.59-.84-.57-.5-.19-.79.33-1.22.46-1.01.3-1 .31-.61 1.25.07.17.15.34.2.51ZM701.07 12.27c-.47.26-.59.66-.42 1.09.16.4.56.25.86.2.3-.05.55.06.81.17-.08.25-.16.5-.23.75.83-.05 1.77.21 2.29-.78.09 0 .19.01.28 0 .17-.04.3.29.45.07.13-.18 0-.35-.13-.49-.09-.09-.21-.17-.31-.25-.08-.16-.28-.38-.23-.46.5-.87.07-1.04-.7-.96-.37.04-.57-.24-.85-.37-.67-.31-1-.01-1.04.75-.03.52.43.81.48 1.27-1.2.69-.83-.67-1.24-.99ZM129.96 5.38c0 .14 0 .28-.03.41-.03.15-.25.34.04.43.16.06.38.06.47-.16.1-.23.08-.46 0-.68.56-.67.87-1.63 1.95-1.71 0-.08 0-.24-.02-.24-.56-.06-1.21.07-1.65-.18-.55-.31-.18-1.04-.27-1.58-.04-.25-.08-.48-.39-.47-.3.01-.37.24-.37.49 0 .39-.01.7-.54.82-.8.19-.94.6-.41 1.18.47.52.97 1.01 1.23 1.68ZM671.9 8.41c.16-.04.33-.17.27-.58-1.05-.27-2.71.3-2.86-1.67-1.23 1.25-1.12 2.47.34 4.19.53-.93 1.19-1.68 2.25-1.94ZM354.49 6.6c-.25.19-.52.4-.63.73-.41.62-.13 1.44-.57 2.07-.06.09.19.38.3.59.5-.2.26-.63.3-.98 0-.04.01-.08.03-.11.2 0 .46-.12.5.23.11.27.1.55.02.82.08.26-.21.36-.24.57.09.1.17.2.26.3-.02.33-.12.67.13.98.34-.18.32-.48.42-.72.32-.34.31-.87.73-1.17.52-.36.44-.76-.04-1.11-.45-.33-.44-.64-.01-1 .31-.27.69-.55.19-1.02-.44-.42-.88-.55-1.37-.17ZM662.67 13.57c.82-.07 1.03.38 1.02 1.06.45 0 .54-.44.99-.54.44.18.57.68 1.12 1.01.4-1.1.2-2.16.17-3.19 0-.21-.24-.24-.43-.25-.81-.05-.81.85-1.24 1.08-.44.24-1.18-.49-1.74.14-.03.04-.06.07-.08.11-.18.28-.2.62.2.59ZM129.68 10.81c-.42-.03-.38.32-.38.59-.02.92.18 1.89-.77 2.54-.16.11-.07.34.03.52.29.53.97.55 1.33 1.1.16.24.48-.49.67-.84.08-.13.31-.18.47-.26.36-.17.24-.59.45-.83 0-.27-.26-.2-.38-.32-.55-.55-1.31-.97-1.15-1.95.04-.22.03-.52-.28-.55ZM651.44 7.41c-.49-.24-.59-.5-.59-.95 0-.18-.04-.38-.28-.42-.29-.05-.35.17-.5.35-.64.79-.88 1.77-1.29 2.63.98.6 1.89-.55 3.1.05-.36-.65.17-1.36-.45-1.66ZM421.73 6.82c.01-.07-.04-.21-.08-.22-.19-.02-.34.06-.39.26-.31.44-.61.87-.92 1.31-.44.42-.19.87-.17 1.54.27-.42.41-.64.55-.86.57.03.95.21.62.87-.12.23-.14.4.07.61.81.81.83-1.16 1.63-.46.06.05.3-.28.2-.42-.31-.43-.25-1.13-.97-1.26-.56-.1-.84-.52-1.01-1.03.25.01.43-.08.47-.34ZM118.88 13.26c.05.34.24.58.51.65.4.11.88.22 1.2-.14.35-.39.43-1.03 1.06-1.19.02 0 .04-.33-.03-.37-.38-.26-.85-.39-1.15-.77-.11-.14-.26-.06-.37.01-.71.41-.8 1.23-1.22 1.81ZM407.7 11.59c-.33-.17-.57-.35-.82.03-.24.38-.37.91.08 1.08.45.17.51.44.68.77.17.32.5.55.76.82.19.2.41.21.64.08.25-.15.45-.35.5-.65-.03-.09-.04-.2-.09-.26-.59-.61-.92-1.46-1.75-1.87ZM306.16 10.78c.47.39.73.23 1.01-.19.24-.35.28-.8.08-1.06-.4-.51-.2-1.08-.37-1.66-.45.09-.6.34-.8.53-1.03 1.01-.99 1.49.08 2.38ZM167.52 4.31c.04-.23.32-.04.49-.05.97.33 1.58.1 1.32-.47-.26-.56-.18-1.08-.22-1.62-.02-.34-.16-.51-.5-.51-.27 0-.66-.03-.62.35.06.67-.57 1.05-.56 1.67q-1.29.16-1.02 1.54c.39-.28 1-.25 1.12-.9ZM124.89 8.21c-.53.06-.81.44-.84.95-.03.48.33.83.68.97.47.19.82-.26.91-.65.1-.41.61-.63.45-1.16-.37-.22-.79-.17-1.2-.12ZM333.94 13.98c.4-.01.45-.3.27-.59-.51-.85-1.15-.72-1.91.46.6.23 1.13.14 1.64.13ZM124.57 16.77c-.02.36.88 1.21 1.25 1.19.29-.02.39-.22.37-.42-.03-.64-.52-1.11-1.11-1.1-.23 0-.5 0-.51.33ZM309.19 9.34c.4-.05.6-.4.81-.68.18-.23.02-.42-.37-.49-.28-.11-.45.3-.77.35-.3.05-.56.13-.47.5.11.44.49.35.8.32ZM415.88 13.89c-.18.3 0 .52.22.73.2.19.36.44.86.59v-.89c0-.32-.13-.56-.45-.62-.23-.05-.49-.05-.63.19ZM502.6 16.49c-.02-.23-.06-.48-.36-.51-.29-.03-.81.54-.78.85.12.24.26.53.58.48.42-.07.59-.4.55-.82ZM407.05 15.29c.61-.25.27-.83.28-1.45-.35.46-1.1.15-1.05.83.03.35.41.77.77.62ZM666.76 8.23c-.01.41.17.59.58.55.39-.04.4-.31.4-.59 0-.33-.15-.52-.5-.48-.38-.01-.48.21-.49.52ZM167.5 6.27c-.07.21.13.31.33.32.5.02.73-.26.8-.71-.07-.18-.05-.44-.3-.4-.44.07-.7.4-.83.79ZM696.88 11.66c.48-.37.57-.81.09-1.35-.07.45-.74.72-.33 1.27.04.06.2.11.24.08ZM357.65 12.61c0-.1-.12-.25-.23-.32-.33-.2-.5.08-.69.27-.13.12-.28.24-.27.5.16.02.34.07.52.07.35 0 .63-.14.67-.52ZM122.61 8.49c-.05.05-.04.17-.07.32.5.08.9.19.89-.42 0-.25.08-.63-.33-.63-.47 0-.27.52-.49.73ZM417.21 1.94c.16 0 .37.07.43-.18-.05-.31-.25-.48-.54-.54-.21-.04-.36.06-.39.27-.05.38.21.46.5.45ZM297.59 1.48c.26.01.57.05.61-.34.03-.33-.23-.32-.45-.34-.25.03-.58-.06-.62.31-.03.29.24.35.47.37ZM648.15 9.12l.27-.12c-.4-.44-.75-.55-1.16-.26-.05.04-.08.22-.04.25.27.26.61.15.93.12ZM326.06 15.94c.03-.06-.02-.21-.07-.24-.47-.24-.77-.05-.96.43.38.14.78.36 1.03-.19ZM135.67 6.52c-.15 0-.27.09-.28.24-.02.24.17.35.35.35.18 0 .35-.12.35-.33-.05-.26-.24-.27-.43-.26ZM417.59 13.11c-.1.21.02.38.18.45.19.08.35-.02.37-.25.01-.19-.04-.35-.25-.41-.17-.03-.25.09-.3.21ZM704.23 2.05c.22-.16.2-.54 0-.76-.18-.21-.4-.21-.47.14 0 .09 0 .18.01.27 0 .3.26.48.44.35ZM506.83 10.9c.03-.21.06-.44-.18-.57-.16-.03-.28.06-.32.19-.07.23-.03.44.23.55.18.08.26-.05.27-.17ZM127.96 5.34c.14-.02.26-.1.27-.27 0-.21-.07-.37-.28-.42-.28-.06-.27.18-.35.36.07.16.1.37.36.33ZM647.58 4.34c.17.03.2-.12.2-.25 0-.19-.05-.36-.29-.37-.13.03-.28.03-.24.23.04.19.14.35.33.39Z"/><path class="d" d="M267.08 10.21c.12 0 .2-.15.16-.3-.06-.24-.24-.36-.46-.43-.02 0-.11.21-.15.29.04.31.2.45.45.44ZM187.65 10.78c-.16-.25-.15-.61-.48-.77-.23.34-.07.72-.16 1.06-1.03.7-2.12 1.33-2.83 2.47.63.52.99 1.39 2 1.39.23 0 .38.18.52.4.55.85.59.86 1.13-.02.14-.23.28-.35.5-.42.52-.17.8-.64 1.19-.97.49-.41.54-.83.04-1.29-.65-.6-1.28-1.24-1.91-1.86ZM667.06 3.64c-.55.31-.62.66-.39 1.11.25-.27.51-.53.39-1.11ZM653.85 15.23c.33.27 1.22.04 1.26-.36.06-.57.23-.89.84-.88.27 0 .49-.11.48-.39 0-.73.26-1.56-.67-1.97-.11-.07-.22-.18-.34-.21-.22-.06-.22-.49-.46-.35-.17.1-.13.41-.03.63-.1 1.06-.22 2.12-1.05 2.92-.17.16-.25.42-.02.61ZM208.71 4c.32.08.5-.14.65-.37.12-.18-.05-.23-.17-.24-.32-.03-.45.24-.63.43.05.07.09.17.14.18ZM442.15 13.55c.62.16 1.22-.11 1.72.22.18.47-.47.57-.39 1 .4.1.77.27 1.13.5.52.32.99.05 1.36-.39.42-.48 1.09-.83.88-1.65-.05-.19-.16-.31-.36-.38-.75-.26-1.15-.95-1.69-1.46.01-.32.12-.65-.12-.94-.32.26-.18.59-.17.9-.77.74-1.97 1.02-2.37 2.2ZM145.64 3.84c-.04.14.13.2.27.2.17 0 .42.04.4-.2 0-.15-.2-.29-.34-.48-.14.19-.3.32-.34.48Z"/><g style="opacity:.7"><path class="d" d="M87.33.14s-.03-.09-.04-.13h-1.42c-.05.91.66 1.45.96 2.22q1.07-.96.51-2.09ZM78.19 0h-1.14c.03.27.06.54.1.92.46-.27.85-.47 1.03-.92ZM76.2 0h-.85c.28.38.57.36.85 0ZM91.53 15.67c.79-1.16 1.18-1.48 2.31-1.91-.85-2.17-3.62-2.65-4.85-.24.66.95 1.86 1.22 2.54 2.15ZM83.55 12.48c-1.14.06-1.38-.69-1.43-1.7-1.12.66-1.32 1.92-2.43 2.66.46.18.72.24.91.48.39.47.54 1.05.8 1.58.14.29.35.74.78.52.38-.19.65-.51.21-.99-.42-.46-.09-.83.28-1.2s.65-.17.98.04c.31.19.64.14.88-.15.34-.42-.15-.55-.32-.76-.17-.21-.34-.5-.66-.48ZM90.02 4.87c.53-.02.89.21 1.23.55.05.13.09.26.16.38.08.13.09.39.33.3.07-.03.08-.25.11-.38.02-.09.01-.18.02-.27.3-.13.44-.45.79-.56.6-.19.47-.84.17-.96-.69-.29-.64-.77-.69-1.34-.05-.54-.19-.88-.99-.66-.85.23-1.45.5-1.71 1.38-.09.31-.7.46-.29.92.25.27.46.67.87.66ZM85.57 10.12c.15.07.27.06.39-.03.13-.09.15-.24.11-.38-.02-.09-.06-.2-.12-.24-.36-.25-.18-.46.02-.67.13-.13.27-.29.48-.2.27.12.2.39.21.61.01.24-.01.47 0 .71.04.57.42.82.93.63.39-.15.6-.45.59-.87-.02-.93.09-1.87-.11-2.95-.58.28-1.05.4-1.38.68-.43.35-.89.23-1.34.27-.22.02-.28.17-.39.33-.56.84-.33 1.65.62 2.12ZM81.05 3.75c.24-.21.43-.51.82-.33-.01.18.05.43-.05.54-.7.82-.67 1.59.09 2.35.06.05.09.12.14.18.39-.24.8-.35.46-.96-.48-.87-.43-.92.6-1 .49-.04.95-.03 1.03-.67q-1.3-.22-1.93-.84c.09-.1.2-.2.28-.31.22-.28.3-.63.07-.9-.27-.31-.56-.1-.86.08-.43.26-.93.4-1.37.64-.47.26-.94.71-.62 1.23.31.5.89.36 1.32-.02ZM75.6 7.77c-.49.29-.8.54-.95.95q1 .15.95-.95ZM76.3 9.18c.16.14.41-.09.52-.31.2-.15.35-.36.15-.55-.22-.22-.39.01-.53.18-.31.18-.36.5-.14.69ZM77.35 10.25c-.36.1-.41.44-.22.61.28.25.42-.08.54-.3.43-.42.89-.81 1.28-1.26.22-.26.29-.63-.19-.73-.25-.05-.44-.33-.77-.2-.21.62-.42 1.25-.63 1.88Z"/></g><path class="d" d="M552.23 3.98c.15 0 .24-.1.27-.25.04-.18-.09-.25-.21-.3-.16-.07-.29.05-.31.17-.03.17-.02.39.25.38ZM180.41 8.99c.22.23.09.54.18.8.22.6 1.43 1.17 1.91.87.89-.56 1.76-1.15 2.58-1.83.19.06.46.04.45-.14 0-.17-.28-.17-.47-.14-.89-.74-1.21-1.98-2.24-2.59-.12-.27-.16-.58-.5-.79-.06.28-.1.52-.15.76-.51.31-.82.84-1.46 1.03-.61.19-.69.96-.93 1.48-.19.4.44.33.64.54ZM652.82 13.14c-.17 0-.23.13-.31.24-.08.11-.07.17.06.21.21.06.37.03.37-.23 0-.07-.08-.15-.12-.22ZM664.32 15.79c.02.11.14.21.24.28.21.14.2-.07.23-.17.05-.17-.1-.21-.12-.22-.26-.11-.37-.02-.35.12ZM650.38 10.67c-.03-.17-.03-.37-.28-.38-.08.04-.16.08-.24.11.08.15.1.37.33.38.06 0 .2-.09.19-.12ZM492.45 9.63c-.19-.04-.18.33-.18.55-.29.15-.24.5-.41.71-.29.36-.89.75-.84 1.05.21 1.45-.71 1.53-1.7 1.63-.02 0-.03.08-.05.17.24.52 1.08-.03 1.24.6.24.94 1.05 1.23 1.77 1.62 0 .18.03.34.17.47.06-.16.11-.31.17-.47.46-.55 1.14-.78 1.75-1.08.36-.17.8-.33.76-.69-.06-.56-.22-1.45-.56-1.58-1.17-.43-1.26-1.64-2-2.34.05-.24.17-.58-.11-.64ZM127.96 12.73c-.04.06-.12.16-.19.27.08.03.17.09.25.09.16-.01.22-.13.19-.28-.03-.12-.1-.16-.25-.08ZM235.25.8c.1-.06.2-.18.22-.29.03-.15-.11-.19-.25-.18-.13.05-.23.13-.2.28.02.11.03.3.22.19ZM296.45 15.94c.05-.14.02-.25-.12-.32-.08.02-.22.02-.25.07-.06.14.06.22.16.3.1.08.16.07.21-.06ZM575.63 4.04c.12 0 .24-.09.36-.15-.05-.06-.1-.12-.16-.18-.14-.05-.29-.04-.37.08-.12.18.06.25.17.24ZM653.6 12.56s-.09-.03-.12-.01c-.05.03-.09.09-.13.14.09.02.18.07.25.05.14-.04.14-.12 0-.18ZM170.7 8.66s-.14-.07-.21-.1c-.06.05-.13.09-.19.14.06.05.12.12.19.13.12.02.25-.02.21-.18ZM120.5 6.75c0-.07-.08-.13-.13-.2-.05.06-.13.11-.15.18-.03.12.01.25.17.22.05 0 .11-.13.1-.21ZM113.14 4.02c.08-.02.14-.09.21-.14l-.21-.15c-.11-.04-.2-.01-.22.1-.03.16.06.24.22.19ZM435.01 10.86c-.04.11-.1.23-.12.34 0 .04.11.09.21.16.04-.14.08-.25.09-.37 0-.04-.11-.08-.18-.13ZM525.97 2.17c.17 0 .17-.28.14-.47.86-.56 1.72-1.13 2.58-1.69h-5.12c.68.67 1.4 1.28 2.25 1.72-.06.19-.03.45.15.44ZM405.58 13.49l-.21-.14c-.08.03-.21.05-.22.1-.04.16.09.2.22.18.08-.02.14-.09.21-.13ZM457.85 6.9c-.56.31-.6.9-.19 1.45.29.38.42.71.06 1.12-.23.26-.19.62.13.67.5.09.52.44.68.78.16.35.57.52.73.13.29-.71 1.33-.89 1.22-1.85-.03-.22.19-.33.39-.22.34.19.56.06.63-.25.05-.24-.18-.42-.4-.49-.98-.35-1.55-1.13-2.05-1.97.04-.17.14-.44-.06-.47-.35-.06-.17.29-.24.46-.33.18-.56.47-.9.65ZM580.96 4.01c.08-.02.14-.09.21-.14-.07-.05-.14-.1-.2-.14-.12-.05-.21-.02-.22.09-.03.15.05.24.21.19ZM369.02 15.74s-.1.13-.09.2c0 .07.08.13.13.2.05-.06.12-.12.14-.19.04-.14-.03-.24-.18-.21ZM702.05 14.51h.03v-.03h-.03v.03ZM701.79 14.65s.11.14.15.13c.13-.04.14-.14.12-.26-.12-.02-.23 0-.26.13Z"/><g style="opacity:.26"><path class="d" d="M37.86.57c-.19.8.44.95.93 1.12.55.19.69-.27.83-.69.12-.35.49-.58.48-.99h-2.27c.01.19.07.39.03.56ZM47.86 1.14c.6.55.85.48 1.36-.23.24-.33.55-.6.82-.91H47.2c-.17.6.34.84.66 1.13ZM43.55 6.65c.33-.02.52-.22.48-.56-.07-.69.33-.77.87-.74.28.02.57.05.85 0 .85-.17.72-.93.95-1.52.24-.64-.15-.77-.51-.91-.61-.24-1.04-.65-1.26-1.23-.48-1.23-.77-1.27-1.79-.4-.84.71-1.3 1.7-2.02 2.53.56.83 1.15 1.55 1.57 2.36.23.45.5.49.88.46ZM51.62 5.24c-.06.13.25.49.47.39.45-.21.79-.66 1.37-.53.33-.96.94-.65 1.54-.33.22.12.53.18.59-.08.1-.45.07-.93.08-1.39 0-.5-.48-.35-.72-.52-.45-.33-1.15-.41-1.01-1.26.06-.35-.34-.5-.76-.65.08.7-.12 1.33-.75 1.54-.79.26-1.17.9-1.73 1.39.4.43 1.33.48.91 1.43ZM50.82 8.31c-.6-.15-1.08-.26-1.42-.92-.23-.45-1.08-.12-1.53-.79-.47.68-1.17.91-1.64 1.39-.26.27-.09.74.39.85.22.05.47.01.7.03 1.08.05 1.24.26.92 1.25-.04.13-.16.23-.2.36-.06.19-.04.43.13.51.24.12.4-.02.52-.29.22-.54.6-.87 1.2-1.06.32-.1.7-.24.99-.47.37-.29.37-.75-.07-.86ZM40.82 13.41c1.03.3 1.44 1.32 1.95 1.28.9-.06.73.47.89.89.01.04.07.05.25.18 1.01-1.25.3-2.67.6-4.23-1.28.72-2.31 1.35-3.69 1.89ZM53.55 15.04c.55-.3.44-.84.83-1.1.65-.43.5-.9-.03-1.35-.25-.21-.45-.48-.71-.69-.47-.39-.82.11-1.21.23-.2.06-.3 1.45-.14 1.48.76.16.83.94 1.27 1.42ZM45.36 12.85c-.37-.07-.48.19-.5.48-.01.21-.07.53.21.55.33.03.57-.21.67-.54-.02-.27-.13-.45-.39-.49Z"/></g><g style="opacity:.5"><path class="d" d="M67.08.84c.56.72 1.11.4 1.65 0 .34-.25.62-.56.93-.85h-3.69c.07.69.83.46 1.12.84ZM71.35 5.61c.22.54.39 1.33.87 1.42.58.1.91-.71 1.37-1.09.15-.12.32-.25.39-.41.25-.64.76-1.24.45-2.01-.28-.69-1.09-.95-1.33-1.68-.07-.22-.46-.27-.63-.13-.87.67-2.23.58-2.74 1.79-.05.12-.18.21-.31.36.7.43 1.78 1.35 1.95 1.75ZM65.35 8.27c.05.67.44 1 1.08 1.07.32.04.65-.08.98.14-.12.45-.49.95.1 1.36.32.22.72.33.73-.15 0-.9.71-1.27 1.17-1.83.17 0 .44.06.44-.13 0-.31-.29-.17-.47-.2-.66-.4-1.52-.46-1.85-1.39-.16-.44-1.21-.49-1.65-.23-.52.31-.57.82-.53 1.36ZM71.72 11.98c-.41.41-1.06.41-1.38.94.21.32.57.46.75.89.67 1.59.73 1.57 2.15.66.04-.03.08-.05.12-.08.73-.52.74-1.53.05-2.48-.33-.45-1.12-.49-1.68.07ZM57.99 1.05C58.32.11 59.26.51 59.72 0h-3.13c.49.98 1.27 1.42 1.4 1.05ZM62.14 14.54c.27.11.52.13.63.45.14.4-.32 1.11.36 1.17.46.05.39-.78.83-1.01.08-.04.15-.13.19-.21.3-.57.58-1.12.16-1.79-.13-.21-.4-.46-.12-.86.37-.53-.11-.92-.52-1.11-.37-.17-.87-.2-.92.47-.01.15-.14.26-.29.24-.26-.04-.47-.44-.75-.22-.23.18.21.5-.11.82-.46.46-.96.29-1.46.32-.98.07-1.2.28-1.29 1.34 1.11-.01 2.21-.07 3.27.36ZM58.86 14.22v-.04h-.05v.06c.01 0 .02 0 .04-.01ZM61.94 5.71c.44.43.74.76 1.41.25.37-.28.81-.64 1.39-.62.24 0 .98-1.56.9-1.81-.16-.5-.67-.67-1.2-.39-.29.15-.57.29-.86.44-.44.24-.82.31-.96-.32-.1-.49-.48-.33-.78-.37-.91 0-1.52.63-1.05 1.1.51.52.66 1.22 1.17 1.72ZM57.88 11.17c.58.46 1.17.28 1.9.1-.65-1.11-1.9-1.26-2.42-2.22-.46.3-.87.53-.93 1.07.68.08.99.67 1.45 1.05ZM57.53 8c-.03.29.17.43.42.45.22.02.35-.16.36-.35 0-.19-.12-.35-.35-.36-.19 0-.4.02-.43.26ZM59.48 8.67c0 .13.14.2.29.16.15-.03.23-.12.25-.27.01-.14-.03-.25-.2-.27-.18.07-.33.19-.34.38ZM55.94 13.49l-.1-.01.04.09.06-.08z"/></g><g style="opacity:.12"><path class="d" d="M28.39.78c-.06.36.11.62.37.86.47.44.86.39.83-.18-.05-.77.52-.75.89-1.04.25-.19.72.08.8-.4h-3.41c.19.25.59.34.52.77ZM37.04 9.83c.29.4 2.11.99 2.39.66.67-.78 1.77-1.02 2.44-2.02-.67-.46-1.19-.81-1.54-1.51-.75-1.5-1.33-1.5-2.54-.29-.13.13-.27.26-.4.4-1.14 1.14-1.19 1.58-.34 2.76ZM31.66 13.52c.41.08.88.3.94.68.14.83.96.8 1.37 1.26.12.13.27.28.46.09.6-.59 1.5-.77 1.99-1.52.11-.16.28-.34.13-.49-.82-.78-.73-2.16-1.86-2.73-.16-.08-.28-.25-.45-.4-.39.53-.75 1.05-.64 1.76.07.47-.14.7-.64.67-.53-.04-1.07-.05-1.3.68ZM32.39 5.33c.69-.09 1.27-.13 1.88.35.36.29.49-.28.63-.54.36-.67.69-1.34 1.65-1.13.19.04.39-.04.42-.26.05-.32-.2-.4-.44-.38-.77.04-1.42.01-1.35-1.07.02-.38-.36-.64-.86-.66-.94.55-2.14.82-2.85 1.82-.35.5.35 1.94.92 1.87ZM29.15 9.67c.14.04.33.08.37-.06.23-.7.98-1.3.4-2.25-.47.26-.96.55-.84.95.13.43.27.76-.02 1.15-.07.1-.04.18.09.21ZM27.02 4.01c.17.04.27-.08.31-.18.06-.18 0-.37-.2-.42-.18-.04-.34.04-.4.25-.01.21.08.32.29.36ZM32.53 7.75c-.26.32-.23.61.05 1.09.14-.47.23-.77-.05-1.09ZM29.62 6.86c.07-.19.01-.34-.18-.41-.02 0-.11.13-.13.21-.03.14 0 .27.14.35.06-.05.15-.09.18-.15ZM19.87 1.5c0-.71.64-.97.9-1.5h-1.99c0 .69.17 1.28 1.08 1.5ZM17.81 9.24c.38.15 1.02-.05 1.22.18.73.84 1.26.23 1.88-.08.44-.22.81-.56 1.4-.63-.32-.74-.76-1.33-1.36-1.49-.89-.23-.12-1.37-.98-1.49h-.22c-.06.68-.16 1.3-1.04 1.53-.43.11-.73.69-1.11 1.04-.51.46-.18.78.22.94ZM24.96 5.29c.41.5.87.49 1.07-.05.18-.48.28-1.05-.1-1.47-.34-.39-.35-.78-.18-1.16.14-.32.25-.5-.03-.83-.29-.34-.69-.26-.96-.43-.2-.08-.31.03-.39.13-.35.48-.89.76-1.14 1.39-.22.56-.17.82.23 1.26.45.49 1.09.67 1.5 1.17ZM24.44 15.81c.29.08.52-.22.64-.45.28-.52.65-1.02.58-1.69v-.25c-.03-.23-.02-.5-.32-.54-.34-.05-.3.25-.39.46-.16.41-.44.71-.89.82-.43.11-.44.43-.4.77.05.47.36.77.77.89ZM24.54 10.76c-.48 1.01-.68 2.05-1.56 2.7 1.64.05 2.12-.76 1.56-2.7Z"/></g><g style="opacity:.05"><path class="d" d="M.03.58c1.41.75 1.61.7 2.27-.58C1.64 0 .97.02.31 0-.25-.02.14.4.03.58ZM.91 6.98c-.45-.07-.57.37-.89.41v.57c.55-.11.88-.38.89-.98ZM10.83 0h-.57c.19.42.38.42.57 0ZM14.8 5.86c.03.09.28.18.35.14.44-.24 1.1-.23 1.3-.76.35-.91.89-1.7 1.6-2.63-.7-.08-1.13-.06-1.53-.18-.6-.19-.18-.86-.48-1.22-.12-.14-.27-.28-.31-.45-.18-.77-.6-.5-.86-.14-.38.52-.79 1.04-1.1 1.59-.29.52-.45 1.33-.25 1.85.24.65 1 1.08 1.28 1.8ZM15.12 14.47c.68.08 1.12-.23 1.56-.71.34-.36.5-.74.24-1.11-.24-.34-.67-.26-1.02-.05-.62.36-1.07.4-1.09-.51 0-.26-.1-.47-.39-.46-.37.01-.43.3-.43.6 0 .69.08 1.39-.65 2.24.86 0 1.32-.04 1.78 0ZM8.92 8.79c-.07.26.02.48.3.52.41.06.83.04 1.18.36.06.05.36-.04.37-.08.05-.77 1-.63 1.23-1.29-.55-.1-1.05-.24-1.21-.92-.09-.36-.5-.84-.94-.43-.3.28-1.37.17-.75 1.1.21.32-.11.5-.18.75ZM5.38 5.43c.26.53.65.36.79 0 .17-.42.44-.7.71-1.01.08-.1.12-.23.16-.31-.21-.68-.89-.68-1.29-1.03-.32-.28-.59-.2-.85.06-.27.27-.52.5-.21.95.29.4.46.88.68 1.33ZM4.33 13.66c.27.03.54-.02.81-.03.26.28.5.56.77.82.28.28.57.5.9.02.29-.43.15-.57-.29-.81-1.05-.58-1.03-.68-.26-1.64.07-.09.21-.21-.06-.39-.92-.04-1.43.5-1.66 1.4-.11.08-.21.18-.34.23-.25.09-.64.1-.49.47.18.47.39-.09.62-.06ZM5.45.86c-.08.47-.19.88.05 1.31q.76-.64-.05-1.31ZM2.11 9.6c.09-.06.17-.3.13-.35-.29-.31-.64-.27-1.04-.06.25.46.5.7.91.41ZM10.55 17.24c-.03-.12.05-.4-.23-.3-.07.02-.11.22-.11.34 0 .2.15.28.33.33 0-.12.04-.25.01-.37ZM10.77 17.74c-.07-.03-.13-.05-.2-.08.03.07.06.13.08.2l.12-.12ZM10.57 17.66s0-.03-.01-.04h-.02v.03l.03.02Z"/></g><path class="d" d="m394.15.39-.1.04.09.05.01-.09zM278.2 2.16l-.08-.06-.01.09.09-.03zM276.5 3.55s-.04-.06-.06-.08c-.03.02-.07.04-.08.07 0 .03.04.06.06.09.03-.02.07-.04.08-.07ZM268.44 15.23l.09.01-.03-.09-.06.08zM122.47 13.51l-.09-.05-.01.09.1-.04zM127.22 4.49s.07-.05.1-.07c-.03-.03-.06-.06-.08-.1-.03.03-.06.05-.1.08.03.03.05.09.08.09ZM96.08 1.98v-.02.01h.02Z"/><path class="d" d="M96.27 2.06c-.06-.03-.13-.06-.19-.09.03.06.07.13.1.19.03-.03.06-.07.09-.1ZM409.91 8.77c.08.11.16.22.24.34q1 1.52 2.45.43c.37-.28.58-.57.21-1.06-.3-.4-.48-.9-.71-1.35.1-.3.19-.61.29-.91.07-.21 0-.28-.22-.23-.59.24-.16.75-.3 1.11-.19 0-.28.09-.31.27-.58.43-1.41.55-1.65 1.4Z"/></svg>