<svg id="a" xmlns="http://www.w3.org/2000/svg" viewBox="0 0 221 155.07"><defs><style>.b{fill:#fff}</style></defs><path class="b" d="M105.88 39.67c1.4.38 3.11-.26 3.77-1.5.36-.68.73-1.44.75-2.18.09-2.96.26-5.94-.03-8.87-.25-2.58-1.08-3.74-3.83-3.69-1.22.02-1.62.4-1.63 1.59-.01 2.18 0 4.37 0 6.55v6.64c0 .7.21 1.25.97 1.46ZM110.94 46.87c-.3-.9-.88-1.7-1.95-1.9-.8-.15-1.63-.14-2.45-.15-1.28-.01-1.62.33-1.63 1.56v6.65c0 2.34-.01 4.67 0 7.01 0 1.11.32 1.39 1.47 1.4.63 0 1.27-.01 1.9 0 1.02.02 1.86-.38 2.22-1.25.43-1.04.85-2.15.91-3.24.13-2.51.09-5.03.02-7.55-.02-.85-.23-1.72-.5-2.54ZM107.11 79.82h-1.03c-1.36.02-1.73.36-1.74 1.66V95.22c0 2.5.05 2.49 2.7 2.52 2.07.02 3-1.01 3.29-2.84.65-4.1.7-8.24-.02-12.33-.33-1.91-1.25-2.73-3.2-2.75Z"/><path class="b" d="M217.12 0H3.88C1.74 0 0 1.74 0 3.88v130.14c0 2.14 1.74 3.88 3.88 3.88h213.24c2.14 0 3.88-1.73 3.88-3.88V3.88c0-2.14-1.74-3.88-3.88-3.88ZM43.85 62.58c.33-.25.71-.42 1.13-.5.84-.16 1.61.52 1.79 1.24.14.57.04 1.08-.32 1.54-.41.54-.97.86-1.62 1.03-.39.08-.77.06-1.14-.06-.52-.18-.83-.6-.87-1.15-.07-.9.33-1.58 1.03-2.1Zm-2.59 9.41c.24-.91.52-1.8.77-2.71.08-.28.24-.46.48-.58.43-.21.86-.42 1.31-.6.59-.24 1.18-.46 1.81-.56.18-.03.37-.05.55-.07.22-.02.28.05.26.26-.03.26-.08.52-.13.77-.69 3.36-1.56 6.67-2.43 9.99-.21.8-.4 1.61-.55 2.43-.07.4-.07.83-.05 1.24.02.4.22.49.54.27.27-.18.54-.38.75-.63.46-.53.9-1.07 1.3-1.64 1.2-1.72 2.12-3.59 2.93-5.52 1.02-2.45 1.81-4.96 2.32-7.56.04-.22.04-.42-.03-.64-.27-.91-.32-1.82-.02-2.74.53-1.59 2.06-2.76 3.74-2.83.38-.01.76.02 1.14.06.16.02.32.09.46.16.25.13.25.19.04.37l-.03.02c-1.02.7-1.67 2.32-1.08 3.85.3.78.64 1.53 1.04 2.26.63 1.16 1.25 2.33 1.86 3.5.85 1.63 1.37 3.37 1.68 5.18.19 1.14.27 2.28.07 3.42-.39 2.35-1.53 4.25-3.43 5.69-1.33 1.01-2.84 1.27-4.44.92-1.5-.32-2.53-1.24-3.04-2.69-.27-.76-.13-1.52.26-2.21.14-.26.41-.44.63-.65.1-.09.26-.04.32.1.05.13.08.27.09.41.1 1.3 1.23 2.24 2.52 2.1.44-.05.81-.25 1.14-.53.77-.64 1.32-1.43 1.61-2.38.47-1.5.48-3.04.13-4.56-.24-1.03-.64-2-1.16-2.91-.71-1.27-1.44-2.52-2.17-3.77-.04-.06-.08-.12-.15-.21-.04.11-.07.18-.09.25-.62 2.58-1.59 5.04-2.63 7.47-.6 1.4-1.19 2.79-1.94 4.12-.84 1.49-1.79 2.9-2.96 4.16-.7.75-1.49 1.38-2.45 1.77-.32.13-.67.18-1.02.21-.39.04-.72-.13-1-.4-.31-.29-.51-.65-.63-1.05-.25-.82-.31-1.67-.32-2.53-.02-1.73.24-3.44.56-5.13.37-1.98.9-3.91 1.41-5.86ZM30.01 93.06c-.43.63-.89 1.24-1.37 1.84-.4.5-.87.95-1.42 1.3-.04.02-.09.04-.1.08-.15.33-.44.28-.7.24-.58-.1-1.06-.39-1.47-.8-.51-.51-.9-1.12-1.26-1.75-.64-1.1-1.12-2.27-1.56-3.46-.91-2.44-1.53-4.97-1.96-7.54-.29-1.73-.51-3.48-.7-5.23-.41-3.67-.57-7.35-.71-11.04-.03-.82-.03-1.64-.04-2.45 0-.07-.01-.15-.03-.27-1.68.69-3.28 1.44-4.81 2.33l-1.05.6c-.15.09-.3.13-.46.02-.15-.1-.16-.27-.12-.41.06-.25.13-.51.24-.74.27-.57.69-1.03 1.15-1.45.86-.79 1.84-1.39 2.85-1.96 1.6-.9 3.28-1.64 5.04-2.18.89-.27 1.78-.52 2.67-.77.46-.13.7.02.75.5.06.54.07 1.09.07 1.63 0 3.12.05 6.24.22 9.36.1 1.88.26 3.77.4 5.65.1 1.29.21 2.59.34 3.88.2 1.9.54 3.78 1.14 5.61.25.75.55 1.47.98 2.14.23.35.56.54.93.69.09.04.25.01.33-.05.23-.19.48-.39.65-.63.34-.5.65-1.01.92-1.55 1.17-2.33 2.1-4.76 2.82-7.26 1.18-4.04 2.2-8.11 3.04-12.23.39-1.92.63-3.85.65-5.81 0-.81 0-1.62-.2-2.41-.16-.62-.41-1.2-.95-1.6-.15-.11-.16-.27-.14-.44.12-.86 1.06-1.39 1.86-1.03.35.16.61.42.84.72.48.64.69 1.39.78 2.16.21 1.67.1 3.33-.14 4.99-.63 4.38-1.56 8.7-2.79 12.95-.95 3.26-1.99 6.49-3.25 9.65-.94 2.35-2.03 4.62-3.45 6.72Zm49.42-5.86c-.27.07-.56.1-.84.1-2.41.02-4.82.03-7.22.21-1.35.1-2.69.25-4.04.39-2.13.22-4.24.56-6.34.98-1.79.35-3.58.71-5.35 1.14-1.38.33-2.73.77-4.09 1.19-1 .31-1.99.65-2.98.99-1.76.6-3.48 1.28-5.19 2-2.1.9-4.16 1.86-6.16 2.96-.54.3-1.07.64-1.59.97-.31.19-.29.19-.54-.07-.33-.35-.54-.77-.62-1.28-.26-.97.2-1.7.88-2.35.41-.38.9-.66 1.39-.92 1.01-.53 2.06-.96 3.12-1.35 1.46-.53 2.91-1.06 4.39-1.54 1.23-.41 2.48-.78 3.73-1.12 1.67-.46 3.35-.92 5.04-1.3 2.04-.46 4.1-.88 6.16-1.26 1.61-.3 3.23-.57 4.85-.78 3.26-.41 6.53-.7 9.82-.62 1.19.03 2.38.08 3.55.29.53.1 1.06.25 1.58.41.2.06.4.18.57.32.28.23.22.55-.13.64Zm-3.04-10.9c.03.69.11 1.37.3 2.04.05.18.09.39.27.51.19-.04.29-.19.41-.32.61-.71 1.08-1.51 1.48-2.35.84-1.75 1.44-3.58 1.99-5.44.64-2.19 1.16-4.41 1.54-6.66.07-.43.11-.43.48-.19.91.59 1.18 1.46 1.17 2.48-.01.83-.19 1.62-.36 2.42-.62 2.87-1.8 5.51-3.24 8.05-.6 1.06-1.24 2.09-2.05 3-.54.61-1.13 1.16-1.81 1.59-.48.31-1.02.48-1.58.48-.69 0-1.29-.21-1.69-.86-.47-.77-.71-1.59-.78-2.47-.12-1.47-.15-2.94-.02-4.41.05-.52.08-1.04.12-1.57v-.29c-.09.15-.14.23-.18.32-1.11 2.09-2.35 4.09-3.88 5.91-.56.67-1.17 1.29-1.79 1.91-.49.49-1.09.83-1.7 1.15-.79.41-2.14.19-2.77-.56-.34-.4-.58-.85-.7-1.36-.24-1.01-.24-2.04-.16-3.06.13-1.6.45-3.18.88-4.73.68-2.46 1.38-4.92 2.08-7.38.05-.17.13-.29.27-.39 1.27-.92 2.67-1.51 4.21-1.78.13-.02.26-.03.39-.02.23.02.34.15.29.38-.05.25-.13.49-.2.73-.33 1.06-.69 2.12-1 3.19-.65 2.27-1.22 4.56-1.57 6.89-.13.85-.22 1.71-.17 2.58.01.25.06.5.15.73.11.3.31.36.56.16.26-.2.5-.43.71-.67.63-.74 1.16-1.56 1.63-2.41.71-1.31 1.39-2.65 2.08-3.98.41-.77.82-1.54 1.23-2.32.06-.11.11-.24.12-.37.29-3.13.59-6.26.87-9.39.08-.9.11-1.81.17-2.71v-.42c-.23.03-.43.05-.64.08-1.54.2-3.08.4-4.58.79-1.84.48-3.65 1.07-5.34 1.95-1.37.7-2.6 1.6-3.67 2.71-.15.15-.24.37-.46.44-.07.02-.17.03-.24 0-.89-.43-1.43-1.16-1.68-2.1-.12-.45-.04-.89.16-1.3.19-.39.46-.72.78-1 .8-.68 1.73-1.14 2.7-1.51 1.36-.52 2.77-.88 4.21-1.08 1.97-.28 3.94-.54 5.91-.78.84-.1 1.7-.14 2.55-.2.11 0 .21-.02.35-.04-.02-.54-.02-1.05-.05-1.56-.07-1.06-.13-2.11-.33-3.16-.06-.29 0-.5.26-.71.5-.4 1.05-.67 1.68-.74.4-.04.81-.09 1.21-.05.87.07 1.42.56 1.66 1.4.21.73.26 1.48.24 2.24-.01.54-.06 1.09-.09 1.63 0 .11-.01.21-.02.35.29-.06.56-.1.81-.18 1.36-.44 2.65-1.02 3.68-2.06.13-.13.28-.29.48-.21.21.08.29.28.33.49.07.4.03.79-.16 1.15-.51 1-1.24 1.76-2.33 2.14-.78.28-1.58.5-2.41.62-.23.03-.45.1-.71.15-.02.1-.05.22-.07.35-.49 2.75-.78 5.53-1.07 8.31-.23 2.17-.52 4.33-.72 6.51-.22 2.31-.31 4.64-.19 6.96Zm-10.9-17.1c.18-1.02.82-1.68 1.76-2.07.15-.06.31-.11.47-.13.71-.09 1.29.13 1.68.76.43.68.49 1.39.09 2.1-.36.62-.93.96-1.55 1.15-.69.11-1.29 0-1.84-.34-.54-.34-.72-.87-.61-1.48Zm50.78 35.11c-.09 2.41-1.03 4.66-2.91 6.41-.77.72-.64 1.55-.5 2.42.43 2.69.85 5.38 1.28 8.07.41 2.57.83 5.13 1.22 7.71.15 1.04.24 2.08.32 3.13.06.75-.24 1.18-1.13 1.14-1-.05-2-.01-3-.01-.7 0-1.11-.3-1.22-.98-.27-1.65-.58-3.3-.81-4.96-.56-4-1.07-8-1.62-12-.07-.53-.21-1.06-.34-1.58-.04-.17-.14-.44-.24-.46-.76-.09-1.56-.27-2.27-.12-.32.07-.66.84-.67 1.3-.05 5.45-.03 10.9-.03 16.35v.9c-.02 1.42-.14 1.54-1.61 1.54h-2.53c-1.19 0-1.52-.31-1.52-1.43-.01-2.1 0-4.19 0-6.29V98.92c0-7.49.01-14.98-.01-22.46 0-1.29.3-1.87 1.92-1.82 2.28.07 4.57.03 6.85.02 4.69-.04 7.85 3.1 8.6 7.21.76 4.13.41 8.3.25 12.45Zm.86-35.83c-.17 2.92-1.52 5.39-4.19 7.07-1.17.74-2.48 1.19-3.89 1.21-2.85.04-5.7.03-8.55.02-1.01 0-1.38-.39-1.38-1.39V19.84c0-1.25.33-1.56 1.69-1.57 2.19 0 4.37.03 6.56 0 4.28-.07 7.64 2.88 8.46 6.6.27 1.25.41 2.54.44 3.81.06 2.45-.01 4.91-.02 7.37 0 1.68-.47 3.24-1.3 4.71-.31.55-.3 1.04.12 1.58 1.45 1.86 2.15 3.96 2.15 6.27 0 3.29.12 6.6-.08 9.88Zm21.5 40.48h-.03v15.27c0 2.23-.56 4.3-1.94 6.15-1.88 2.52-4.56 3.34-7.62 3.1-2.6-.2-4.8-1.24-6.25-3.44-.97-1.47-1.48-3.08-1.64-4.79-.07-.71-.06-1.44-.06-2.15 0-9.52.01-19.05-.01-28.57 0-2.54.41-4.94 1.97-7.05 1.15-1.54 2.71-2.53 4.67-2.87.67-.12 1.33-.35 2-.34 4.13.05 7.45 2.23 8.36 6.27.31 1.39.5 2.83.52 4.24.06 4.73.02 9.46.02 14.2Zm.29-32.18c-1.14.02-2.28.04-3.42-.02-.27-.01-.67-.26-.76-.49-.22-.55-.34-1.14-.42-1.73-.17-1.3-.31-2.61-.43-3.92-.06-.63-.42-.91-1.06-.91h-4.75c-.63 0-.92.3-.99.86-.13 1.04-.28 2.08-.4 3.11-.07.59-.07 1.2-.16 1.79-.19 1.18-.39 1.33-1.67 1.33-.86 0-1.71.02-2.57 0-.88-.02-1.29-.46-1.18-1.25.55-3.82 1.13-7.63 1.66-11.45.39-2.76.7-5.52 1.08-8.28.4-2.9.87-5.8 1.28-8.7.39-2.73.72-5.46 1.1-8.19.45-3.23.91-6.45 1.39-9.68.09-.61.5-.95 1.17-.96h1.71c2.55 0 2.59-.01 2.96 2.35.5 3.22.92 6.46 1.39 9.68.55 3.82 1.12 7.63 1.66 11.45.23 1.63.4 3.27.63 4.9.42 2.96.86 5.92 1.28 8.88.17 1.16.33 2.31.48 3.47.31 2.25.63 4.5.91 6.76.07.58-.23 1-.91 1.01Zm1.86-46.09c-.03-2.42 0-2.42 2.56-2.42H154.74c1.13 0 1.39.26 1.4 1.34 0 .84-.05 1.68.01 2.52.07.92-.45 1.24-1.28 1.29-.63.04-1.27 0-1.9.02-1.43.03-1.64.23-1.64 1.59v39.81c0 .33.11.73-.04.97-.25.38-.65.89-1.04.93-1.22.12-2.47.1-3.7 0-.35-.03-.78-.43-.96-.76-.18-.35-.11-.82-.11-1.24V25.11c-.03-1.4-.32-1.68-1.8-1.68-3.34 0-2.87-.16-2.9-2.76Zm20.68 94.79c-.07 2.91-1.41 5.43-4.19 6.99-1.49.84-3.14 1.17-4.85 1.05-2.73-.2-5.08-1.15-6.63-3.47-.94-1.41-1.46-2.96-1.61-4.62-.09-.98-.09-1.97-.09-2.96V76.62c0-.3 0-.6.01-.9.01-.69.35-1.06 1.09-1.06h3.38c.71 0 1.07.42 1.16 1.06.04.32.02.66.02.99l.03 36.75c0 1.35.1 2.69.91 3.87.75 1.09 1.9 1.06 3.02.9.95-.14 1.55-.8 1.73-1.68.24-1.19.48-2.41.48-3.62.04-12.04.03-24.08.04-36.12 0-.36-.02-.72.01-1.08.07-.64.4-1.07 1.13-1.07h3.47c.65 0 .98.33 1.03.93.03.36.03.72.04 1.08V95.9h-.11c0 6.53.11 13.06-.05 19.58Zm.18-51.81c-.98-1.47-1.5-3.08-1.68-4.79-.08-.74-.07-1.5-.07-2.24 0-9.49.01-18.99-.01-28.48 0-2.54.4-4.94 1.98-7.06 1.16-1.55 2.74-2.53 4.72-2.89.73-.13 1.48-.37 2.21-.35 4.04.12 7.36 2.17 8.3 6.24.33 1.42.51 2.89.53 4.33.07 4.7.02 9.4.02 14.11h-.02v15.27c0 2.26-.57 4.39-1.99 6.23-1.95 2.51-4.7 3.32-7.84 3.02-2.56-.24-4.72-1.26-6.15-3.4Zm22.83 51.77c-.12 2.9-1.38 5.46-4.19 7-1.75.96-3.65 1.27-5.68.98-2.44-.34-4.44-1.34-5.8-3.35-1.02-1.51-1.64-3.18-1.66-4.96-.06-5.39-.02-10.78-.02-16.17 0-5.42-.13-10.85.05-16.26.1-3.04 1.38-5.73 4.33-7.3 4.96-2.64 11.2-.45 12.61 5.1.77 3.03.36 6.07.48 9.11.02.58-.31.91-.9.92-1.22.03-2.44.05-3.66.01-.83-.03-1.08-.59-1.09-1.3-.02-2.01.02-4.02-.09-6.02-.07-1.18-.28-2.4-1.39-3.19-1.39-.99-3.55-.45-4.15 1.1-.3.77-.53 1.62-.53 2.44-.03 10.24-.04 20.49 0 30.73 0 1.37.21 2.82 1.57 3.65 1.24.76 3.5.58 4.03-1.32.28-1 .49-2.04.52-3.07.08-2.78.05-5.57.04-8.36 0-1.2-.13-1.31-1.41-1.35-1.32-.04-1.59-.3-1.6-1.55 0-.81.01-1.62 0-2.43-.02-.82.43-1.25 1.24-1.26 2.06-.03 4.13-.03 6.19 0 .8 0 1.27.38 1.26 1.23-.04 5.21.07 10.43-.14 15.63Zm19.29 6.66c0 .69-.34 1.07-1.08 1.07H191.8c-.73 0-1.06-.43-1.14-1.07-.04-.3-.01-.6-.01-.9V98.83c0-7.46.01-14.91-.01-22.37 0-1.32.32-1.87 1.9-1.84 3.25.07 6.5.02 9.75.02 1.24 0 1.46.22 1.47 1.43 0 .72.01 1.44 0 2.16-.02 1.08-.28 1.33-1.38 1.34-1.56.01-3.13 0-4.69 0-.99 0-1.36.35-1.36 1.31-.01 4.64-.01 9.28 0 13.92 0 1.06.36 1.38 1.48 1.39 1.53.01 3.06 0 4.6 0 1.1 0 1.34.23 1.36 1.25.02.81.02 1.62 0 2.43-.02.92-.34 1.24-1.3 1.25-1.56.02-3.13 0-4.69 0-1.12 0-1.44.31-1.44 1.4v14.28c0 1.13.33 1.42 1.52 1.42h4.6c1.01 0 1.3.28 1.32 1.22.02.87 0 1.74 0 2.6Zm.17-56.56c-.11 1-.38 1.24-1.43 1.25h-2c-2.2.03-1.81-.06-2.44-1.8-1.05-2.93-1.91-5.92-2.83-8.89-1.02-3.32-2.01-6.64-3.03-9.96-.61-1.97-1.26-3.93-1.89-5.89-.08-.25-.21-.49-.32-.74-.16.11-.33.22-.49.33-.02.38-.06.75-.06 1.13v24.18c0 1.54-.1 1.62-1.73 1.62h-2.66c-.87 0-1.25-.45-1.29-1.22-.01-.24 0-.48 0-.72 0-14.89 0-29.78-.02-44.67 0-1.52.37-2.03 2.02-1.92.76.05 1.52.03 2.28 0 .68-.02 1.12.32 1.29.85.7 2.16 1.33 4.35 2 6.52.68 2.2 1.38 4.39 2.07 6.59.57 1.83 1.13 3.66 1.7 5.48.55 1.77 1.11 3.54 1.67 5.31.27.87.55 1.74.83 2.6h.36c.06-.43.18-.86.18-1.29.01-7.76 0-15.52 0-23.28v-.9c.01-1.66.24-1.88 1.95-1.88.82 0 1.65.04 2.47-.01.86-.05 1.21.38 1.32 1.09.05.32.05.66.05.99v44.4c0 .27 0 .54-.02.81Z"/><path class="b" d="M132.42 81.36c-.45-1.77-2.53-2.48-4.09-1.44-1.3.86-1.53 2.24-1.54 3.58-.04 10.25-.03 20.49 0 30.74 0 .82.25 1.66.51 2.45.32 1 1.21 1.51 2.35 1.59 1.18.08 2.16-.26 2.61-1.32.34-.81.59-1.73.6-2.6.05-5.12.03-10.25.03-15.37h.04c0-4.76.03-9.53-.02-14.29-.01-1.12-.22-2.25-.5-3.34ZM130.89 35.38c-.03-.28-.27-.53-.41-.8-.14.28-.38.56-.41.85-.24 2.11-.42 4.23-.65 6.34-.4 3.56-.89 7.12-1.22 10.69-.24 2.63-.55 2.3 2.22 2.33.51 0 1.01-.02 1.52 0 .75.04 1.04-.27.95-.96-.16-1.21-.32-2.43-.45-3.65-.52-4.93-1.02-9.87-1.55-14.8ZM171.22 60.57c.35-.81.6-1.73.61-2.6.06-5.12.03-10.25.03-15.37h.04c0-4.76.03-9.53-.02-14.29-.01-1.12-.22-2.25-.5-3.34-.45-1.77-2.56-2.48-4.14-1.44-1.34.89-1.56 2.29-1.56 3.67-.03 10.19-.03 20.37 0 30.56 0 .85.26 1.72.52 2.54.32 1.01 1.23 1.51 2.38 1.59 1.19.08 2.19-.26 2.64-1.32Z"/><g><path class="b" d="M4.98 148.17h1.37l2.89 6.79H7.69l-.62-1.51H4.22l-.62 1.51H2.09l2.89-6.79Zm1.56 3.97-.9-2.19-.9 2.19h1.79ZM10.72 148.22h1.37l3.16 4.15v-4.15h1.46v6.74h-1.26l-3.26-4.28v4.28h-1.46v-6.74ZM24.41 148.17h1.37l2.89 6.79h-1.55l-.62-1.51h-2.85l-.62 1.51h-1.51l2.89-6.79Zm1.56 3.97-.9-2.19-.9 2.19h1.79ZM29.8 152.07v-3.85h1.48v3.81c0 1.1.55 1.67 1.45 1.67s1.45-.55 1.45-1.62v-3.86h1.48v3.8c0 2.04-1.15 3.04-2.96 3.04s-2.92-1.01-2.92-2.99ZM39.2 149.59h-2.05v-1.37h5.58v1.37h-2.05v5.37H39.2v-5.37ZM44.31 148.22h1.48v2.67h2.73v-2.67H50v6.74h-1.48v-2.71h-2.73v2.71h-1.48v-6.74ZM52.07 148.22h5.08v1.32h-3.61v1.37h3.18v1.32h-3.18v1.42h3.66v1.32h-5.13v-6.74ZM58.96 148.22h1.37l3.16 4.15v-4.15h1.46v6.74h-1.26l-3.26-4.28v4.28h-1.46v-6.74ZM68.58 149.59h-2.05v-1.37h5.58v1.37h-2.05v5.37h-1.48v-5.37ZM73.76 148.22h1.48v6.74h-1.48v-6.74ZM77.07 151.61v-.02c0-1.92 1.44-3.49 3.51-3.49 1.27 0 2.03.42 2.66 1.04l-.94 1.09c-.52-.47-1.05-.76-1.72-.76-1.14 0-1.95.94-1.95 2.1v.02c0 1.16.8 2.12 1.95 2.12.77 0 1.24-.31 1.77-.79l.94.95c-.69.74-1.46 1.2-2.76 1.2-1.98 0-3.46-1.53-3.46-3.47ZM88.25 148.22h1.48v5.39h3.36v1.35h-4.84v-6.74ZM93.97 151.61v-.02c0-1.92 1.51-3.49 3.59-3.49s3.57 1.55 3.57 3.47v.02c0 1.92-1.51 3.49-3.59 3.49s-3.57-1.55-3.57-3.47Zm5.61 0v-.02c0-1.16-.85-2.12-2.04-2.12s-2.02.94-2.02 2.1v.02c0 1.16.85 2.12 2.04 2.12s2.02-.94 2.02-2.1ZM102.79 152.07v-3.85h1.48v3.81c0 1.1.55 1.67 1.45 1.67s1.45-.55 1.45-1.62v-3.86h1.48v3.8c0 2.04-1.15 3.04-2.96 3.04s-2.92-1.01-2.92-2.99ZM110.68 148.22h1.48v6.74h-1.48v-6.74ZM113.83 153.98l.88-1.05c.61.5 1.24.82 2.01.82.61 0 .97-.24.97-.64v-.02c0-.38-.23-.57-1.36-.86-1.36-.35-2.23-.72-2.23-2.06v-.02c0-1.22.98-2.03 2.36-2.03.98 0 1.82.31 2.5.86l-.77 1.12c-.6-.41-1.18-.66-1.75-.66s-.87.26-.87.59v.02c0 .44.29.59 1.45.89 1.37.36 2.14.85 2.14 2.02v.02c0 1.34-1.02 2.09-2.47 2.09-1.02 0-2.05-.36-2.86-1.08ZM120.96 148.22h1.48v6.74h-1.48v-6.74ZM126.89 148.17h1.37l2.89 6.79h-1.55l-.62-1.51h-2.85l-.62 1.51H124l2.89-6.79Zm1.56 3.97-.9-2.19-.9 2.19h1.79ZM132.62 148.22h1.37l3.16 4.15v-4.15h1.46v6.74h-1.26l-3.26-4.28v4.28h-1.46v-6.74ZM142.98 148.17h1.37l2.89 6.79h-1.55l-.62-1.51h-2.85l-.62 1.51h-1.51l2.89-6.79Zm1.56 3.97-.9-2.19-.9 2.19h1.79ZM152.05 148.22h5.08v1.32h-3.61v1.37h3.18v1.32h-3.18v1.42h3.66v1.32h-5.13v-6.74ZM160.78 151.53l-2.25-3.31h1.73l1.41 2.19 1.43-2.19h1.69l-2.25 3.29 2.35 3.45h-1.73l-1.51-2.31-1.52 2.31h-1.69l2.35-3.43ZM166.43 148.22h2.75c1.61 0 2.58.95 2.58 2.33v.02c0 1.56-1.21 2.37-2.72 2.37h-1.13v2.02h-1.48v-6.74Zm2.66 3.4c.74 0 1.17-.44 1.17-1.02v-.02c0-.66-.46-1.02-1.2-1.02h-1.15v2.06h1.17ZM173.31 148.22h5.08v1.32h-3.61v1.37h3.18v1.32h-3.18v1.42h3.66v1.32h-5.13v-6.74ZM180.2 148.22h3.08c.86 0 1.52.24 1.96.68.38.38.58.91.58 1.54v.02c0 1.09-.59 1.77-1.44 2.09l1.65 2.41h-1.73l-1.44-2.16h-1.17v2.16h-1.48v-6.74Zm2.98 3.27c.72 0 1.14-.39 1.14-.95v-.02c0-.64-.44-.96-1.16-.96h-1.47v1.94h1.5ZM187.67 148.22h1.48v6.74h-1.48v-6.74ZM191.28 148.22h5.08v1.32h-3.61v1.37h3.18v1.32h-3.18v1.42h3.66v1.32h-5.13v-6.74ZM198.18 148.22h1.37l3.16 4.15v-4.15h1.46v6.74h-1.26l-3.26-4.28v4.28h-1.46v-6.74ZM205.93 151.61v-.02c0-1.92 1.44-3.49 3.51-3.49 1.27 0 2.03.42 2.66 1.04l-.94 1.09c-.52-.47-1.05-.76-1.72-.76-1.14 0-1.95.94-1.95 2.1v.02c0 1.16.8 2.12 1.95 2.12.77 0 1.24-.31 1.77-.79l.94.95c-.69.74-1.46 1.2-2.76 1.2-1.98 0-3.46-1.53-3.46-3.47ZM213.77 148.22h5.08v1.32h-3.61v1.37h3.18v1.32h-3.18v1.42h3.66v1.32h-5.13v-6.74Z"/></g></svg>