<svg xmlns="http://www.w3.org/2000/svg" viewBox="0 0 404 56.56"><path d="M399.89 40.28c-.21.42-.67.63-1.07.37-.3-.19-.45-.62-.67-.95.33-.64.54-1.21.89-1.67.16-.21.67-.36.87-.26.27.14.59.58.55.85-.07.57-.32 1.13-.58 1.66m-3.74.48c-.21.47-.58.74-1.13.6-.49-.13-.73-.63-.6-1.24.05-.25.15-.49.24-.73.12-.32.25-.64.38-.95.51-1.17 1.03-2.33 1.55-3.5.21-.48.57-.77 1.11-.61.54.16.67.6.63 1.15-.06.21-.11.46-.21.7-.65 1.52-1.31 3.05-1.98 4.56m-3.75 1.17c-.06.16-.12.37-.24.44-.31.16-.72.42-.98.33-.27-.09-.52-.52-.59-.85-.06-.3.1-.67.22-.98.66-1.75 1.33-3.49 2-5.24.2-.52.54-.96 1.14-.75.32.11.52.54.74.78-.14.54-.21.92-.34 1.28-.63 1.67-1.28 3.33-1.92 4.99m-4.21.98c-.27.65-.69.89-1.15.69-.58-.24-.67-.71-.52-1.27.15-.53.28-1.07.48-1.58.6-1.49 1.24-2.97 1.86-4.46.2-.48.55-.85 1.07-.63.32.14.52.56.74.81-.18.6-.27 1.06-.44 1.49-.66 1.65-1.35 3.29-2.04 4.93m-5.14.67c-.31-.16-.48-.59-.65-.81.12-.44.17-.69.27-.93.66-1.66 1.33-3.32 2-4.97.06-.16.15-.31.24-.45.28-.43.66-.71 1.18-.48.52.23.63.69.44 1.18-.77 1.98-1.55 3.96-2.36 5.93-.19.47-.63.8-1.12.53m-2.84.2c-.06.16-.11.32-.18.48-.2.44-.56.74-1.01.55-.32-.14-.54-.54-.75-.76.13-.55.17-.95.31-1.29.72-1.73 1.46-3.45 2.22-5.16.22-.5.6-.85 1.22-.65.5.16.69.69.43 1.42-.24.68-.58 1.33-.85 2-.47 1.14-.93 2.28-1.39 3.43m-4.1.75c-.13.31-.29.62-.47.9-.3.46-.69.82-1.27.52-.55-.29-.58-.77-.36-1.32.32-.83.58-1.69.93-2.51.55-1.29 1.16-2.55 1.75-3.83.07-.15.13-.36.26-.43.31-.17.73-.44.98-.35.31.12.49.57.68.82-.18.53-.29.9-.43 1.25-.68 1.65-1.36 3.3-2.06 4.95m-4.9.98c-.48.92-.9 1.17-1.42.95-.59-.25-.7-.8-.23-1.76.99-2.03 2.01-4.03 3.03-6.04.06-.11.11-.27.2-.32.32-.15.73-.44.98-.34.31.12.49.57.69.84-.2.51-.31.88-.48 1.22-.91 1.82-1.83 3.65-2.77 5.46m-4.48.6c-.33.12-.73.29-1.02.19-.21-.07-.39-.53-.4-.82-.01-.32.16-.66.31-.96.86-1.76 1.74-3.5 2.62-5.25.23-.46.59-.81 1.11-.61.29.11.49.48.73.73-.22.57-.35 1.02-.55 1.43-.82 1.63-1.67 3.25-2.51 4.88-.08.15-.16.36-.28.41m-5.43.83c-.31-.18-.47-.61-.64-.85.17-.45.24-.75.38-1.01.89-1.7 1.78-3.4 2.69-5.09.1-.18.23-.41.4-.48.29-.12.72-.29.91-.16.26.17.37.59.48.93.04.13-.08.32-.16.47-.96 1.9-1.92 3.8-2.91 5.69-.23.44-.64.79-1.14.5m-3.43-.26c-.12.22-.26.49-.47.59-.28.13-.71.27-.91.14-.26-.17-.41-.58-.51-.92-.05-.17.09-.41.19-.59 1.05-1.95 2.1-3.9 3.16-5.83.24-.44.65-.79 1.14-.52.31.17.46.6.65.88-.21.51-.32.88-.5 1.22-.91 1.68-1.83 3.36-2.76 5.04m-2.59-3.17c-.68 1.37-1.39 2.74-2.1 4.09-.14.26-.31.58-.54.69-.31.14-.78.24-1.03.1-.25-.15-.36-.6-.45-.95-.04-.17.1-.41.19-.6l2.46-4.77c.06-.11.11-.27.21-.31.33-.14.74-.41 1-.32.31.12.5.56.71.82-.18.53-.27.9-.44 1.24m-6.08 4.42c-.28.48-.67.81-1.26.52-.56-.28-.67-.81-.42-1.31.61-1.21 1.29-2.39 1.98-3.56.23-.4.66-.62 1.08-.33.27.19.41.57.57.82-.16.45-.25.78-.4 1.08-.5.93-1.02 1.86-1.56 2.77m-2.2-2.87c-.57 1.09-1.16 2.17-1.75 3.26-.06.11-.14.26-.24.29-.34.1-.73.29-1.04.2-.45-.12-.67-.61-.46-1.04.65-1.33 1.34-2.65 2.1-3.92.13-.22.7-.35 1-.27.28.08.46.5.64.72-.11.36-.15.58-.25.76m-4.59-14.16c-.5-.4-.42-.9-.1-1.36.61-.86 1.25-1.71 1.91-2.53.28-.36.71-.52 1.13-.28.23.13.36.43.54.66-.15.33-.23.62-.4.85-.57.79-1.14 1.58-1.76 2.33-.42.52-.95.62-1.33.31m.06 14.78c-.07.41-.22.82-.4 1.21-.28.62-.58 1.24-.93 1.82-.19.3-.52.51-.67.65-.81.03-1.31-.6-1.05-1.26.41-1.07.92-2.11 1.49-3.1.13-.23.67-.37.98-.32.47.08.66.54.58 1m-4.11-16.24c.17-.33.44-.63.69-.9.81-.87 1.63-1.73 2.47-2.57.36-.35.82-.49 1.25-.09.42.39.38.87.04 1.25-.99 1.11-2.01 2.19-3.03 3.26-.16.17-.44.23-.57.31-.75.02-1.17-.65-.85-1.25m-3.26 22.38c-.15.16-.66.12-.92-.01-.2-.1-.31-.47-.35-.74-.03-.18.08-.41.18-.59.7-1.21 1.4-2.42 2.12-3.62.26-.44.66-.72 1.16-.48.26.12.42.46.63.7-.77 1.78-1.54 3.43-2.83 4.75m11.8-22.92c.45.01.75.25.79.75.04.58-.75 1.51-1.3 1.52-.51.01-.78-.27-.82-.77-.05-.63.69-1.48 1.33-1.51m1.61-5.78c.5-.05 1.02-.01 1.53-.01v-.04c.67.06 1.36.09 2.02.2.63.11.99.54.9 1.02-.1.53-.46.83-.99.81-1.19-.04-2.37-.12-3.55-.22-.53-.04-.89-.35-.87-.91.03-.55.45-.81.95-.87m8.75 5.05c.5-.01.8.26.86.75.07.59-.71 1.54-1.29 1.57-.48 0-.77-.26-.81-.76-.06-.62.68-1.56 1.25-1.57m1.28 2.03c.71-1.21 1.45-2.41 2.24-3.57.14-.2.63-.31.9-.23.26.07.45.42.67.65-.18.43-.26.76-.44 1.04-.6.98-1.21 1.96-1.85 2.91-.38.57-.87.72-1.28.44-.48-.33-.48-.82-.24-1.25m6.38-3.31c.45.2.6.71.28 1.33-.51.98-1.08 1.93-1.71 2.83-.16.23-.68.34-.99.28-.24-.05-.41-.45-.61-.7.16-.42.24-.76.41-1.04.46-.77.94-1.52 1.43-2.26.28-.43.67-.67 1.19-.44m18.82 2.47c.4-1.24 1.23-2.22 2.19-3.06.16-.14.64-.13.81.01.22.18.47.68.38.83-.67 1.07-1.42 2.09-2.16 3.11-.06.09-.23.09-.33.12-.55.04-1.05-.47-.89-1.01m3.94.24c.06-.37.23-.73.43-1.05.59-.99 1.21-1.96 1.82-2.93.3-.48.67-.8 1.26-.54.5.22.64.76.26 1.43-.7 1.22-1.46 2.4-2.23 3.58-.15.22-.44.35-.57.44-.64.01-1.06-.41-.97-.92m4.7-1.87c.55-1.05 1.2-2.04 1.88-3.01.13-.18.67-.25.9-.13.23.11.49.56.44.79-.28 1.28-1.06 2.28-1.95 3.21-.1.11-.31.12-.39.15-.63.01-1.13-.53-.88-1.01m-61.1 22.21c-.39.16-.81.27-1.18.47-.44.24-.89.51-1.26.85-.61.55-.61.85-.1 1.49.05.07.13.11.18.18.29.36.39.75.13 1.17-.29.47-.74.54-1.23.44-.91-.19-1.64-1.24-1.79-2.4.33-.67.55-1.44 1.01-2 .86-1.05 2.06-1.62 3.38-1.89.2-.04.47-.1.62 0 .3.18.67.41.79.71.19.45-.11.81-.56.99m-6.6-2.47c-.91 1.23-1.81 2.47-2.76 3.68-.27.34-.67.58-.88.77-.75-.03-1.16-.51-1.05-1.08.07-.36.26-.72.48-1.02 1.27-1.7 2.57-3.39 3.87-5.07.1-.13.22-.26.34-.38.37-.36.79-.52 1.26-.23.43.26.5.76.13 1.35-.43.69-.91 1.33-1.39 1.99m-7.41 1.89c-.5-.37-.47-.88-.25-1.38.15-.35.36-.68.58-.99 1.01-1.43 2.01-2.85 3.05-4.26.22-.3.51-.59.84-.76.6-.32 1.25.13 1.22.91-.08.18-.17.47-.33.71-1.21 1.8-2.42 3.61-3.66 5.39-.4.57-1 .71-1.43.39m-3.84-1.34c-.49-.22-.67-.79-.32-1.43.54-1.01 1.15-1.98 1.78-2.94.46-.71.95-1.42 1.53-2.04.2-.21.71-.28 1.02-.19.25.07.41.46.61.71-.21.45-.34.81-.54 1.13-.91 1.43-1.85 2.85-2.78 4.28-.31.47-.72.74-1.29.48m-2.94-1.98c-.23.32-.57.57-.75.75-.77.05-1.24-.48-1.09-1.1.1-.45.29-.9.55-1.28.8-1.2 1.64-2.38 2.49-3.55.32-.44.74-.75 1.31-.42.56.32.51.85.29 1.34-.19.42-.45.82-.7 1.21-.68 1.03-1.37 2.05-2.09 3.05m-5.2-.03c-.07.1-.16.19-.26.28-.35.31-.75.43-1.16.14-.45-.31-.55-.76-.27-1.23s.61-.91.94-1.36c.87-1.2 1.76-2.39 2.64-3.58.18-.24.34-.54.59-.65.27-.12.67-.14.93-.02.21.09.31.45.47.7-.19.4-.3.78-.52 1.08-1.1 1.55-2.23 3.09-3.36 4.63m-4.14-.24c-.2.28-.55.46-.7.59-.8-.02-1.2-.56-1.02-1.18.1-.36.29-.71.5-1.03.68-1.03 1.38-2.05 2.08-3.06.14-.21.31-.48.52-.54.33-.09.78-.14 1.05.02.2.12.3.59.27.89-.03.32-.24.63-.42.92-.74 1.14-1.49 2.28-2.27 3.4m-4.16.12c-.64-.04-1.02-.47-.92-.99.06-.33.21-.65.4-.93.73-1.1 1.49-2.19 2.24-3.28.33-.48.77-.74 1.31-.43.55.32.55.87.25 1.34-.85 1.33-1.74 2.63-2.65 3.91-.15.21-.48.29-.62.37m-2.26-3.1c-.41.6-.79 1.21-1.23 1.79-.19.25-.48.44-.87.77-.32-.38-.65-.64-.78-.98-.09-.23 0-.62.16-.85.83-1.24 1.67-2.46 2.56-3.66.3-.4.76-.59 1.24-.24.46.34.48.8.2 1.24-.4.65-.85 1.27-1.28 1.91m31.98 4.44c.24-.73.7-1.45 1.24-2 .45-.46 1.24.04 1.25 1.02-.34.47-.75 1.23-1.35 1.78-.47.43-1.35-.17-1.14-.8m-35.52-5.64c-.46.8-1.03 1.53-1.58 2.28-.06.08-.23.09-.3.11-.57.01-1.09-.53-.86-1.04.37-.79.91-1.51 1.47-2.19.13-.16.69-.14.91 0 .22.15.46.67.36.83m-4.97 2.02c-.15.21-.47.31-.86.55-.27-.35-.6-.62-.7-.96-.08-.28.06-.69.23-.95.7-1.05 1.44-2.09 2.2-3.1.33-.43.8-.68 1.33-.32.52.36.51.89.2 1.35-.77 1.16-1.57 2.31-2.4 3.43m-4.52-.27c-.49-.24-.66-.8-.26-1.45.72-1.2 1.53-2.36 2.35-3.5.26-.37.72-.52 1.14-.25.25.17.4.49.57.72-.17.39-.26.68-.42.92-.68 1.03-1.37 2.06-2.08 3.07-.31.44-.7.78-1.3.48m-1.6-3.11c-.44.92-.97 1.8-1.52 2.66-.14.22-.46.32-.6.4-.63-.04-1.04-.46-.94-.98.23-1.25.85-2.32 1.84-3.12.21-.17.8-.14 1.01.04.21.18.33.74.21 1m-5.25 1.86c-.76.03-1.23-.51-1.06-1.1.11-.4.33-.78.57-1.12.75-1.03 1.53-2.03 2.3-3.03.31-.41.7-.62 1.21-.39.45.2.59.72.35 1.33-.14.35-.34.68-.57.99-.7.95-1.42 1.9-2.16 2.82-.2.25-.51.4-.64.51m-3.53-1.14c-.21.24-.53.39-.67.49-.72.02-1.18-.42-1.1-.97.04-.32.19-.66.39-.92.95-1.2 1.94-2.38 2.92-3.56.11-.13.24-.3.38-.33.32-.04.76-.13.94.03.23.2.35.65.33.98-.02.31-.24.64-.45.9-.9 1.14-1.81 2.26-2.74 3.37m-4.82.29c-.25.31-.61.53-.8.69-.78 0-1.22-.54-1.07-1.15.08-.36.25-.74.48-1.03 1.1-1.41 2.22-2.81 3.36-4.18.31-.38.76-.59 1.24-.27.54.35.5.86.25 1.35-.17.34-.39.66-.62.97-.93 1.22-1.86 2.44-2.83 3.63m-5.27-.39c-.15.18-.43.24-.56.3-.68-.02-1.13-.58-.96-1.17.1-.36.29-.72.53-1.01.87-1.05 1.75-2.09 2.67-3.1.54-.58 1.04-.64 1.45-.26.47.44.37.95.03 1.38-1.03 1.3-2.09 2.58-3.16 3.85m-1.75-3.38c-.46.75-1.02 1.44-1.58 2.13-.09.11-.31.11-.39.14-.67 0-1.19-.6-.9-1.13.41-.76.99-1.45 1.59-2.08.16-.17.75-.09 1.02.08.2.13.38.68.26.87m-4.24-.45c-.47.61-.96 1.2-1.46 1.77-.34.39-.78.54-1.25.22-.46-.32-.55-.85-.26-1.24.57-.78 1.18-1.56 1.91-2.18.56-.48 1.34.02 1.34.85-.06.13-.11.39-.26.58m-3.71-1.7c-.79.94-1.62 1.84-2.45 2.74-.13.14-.37.19-.47.24-.62.02-1.09-.42-1.04-.97.02-.28.11-.61.29-.81.76-.85 1.55-1.67 2.37-2.46.37-.35.86-.4 1.26 0 .4.39.37.88.04 1.27m-6.5 1.72c-.31.38-.7.5-1.13.28-.45-.22-.53-.65-.43-1.1.03-.16.09-.34.19-.47.78-.95 1.54-1.93 2.39-2.81.22-.22.79-.19 1.16-.12.19.04.3.45.46.7-.18.32-.28.6-.46.83-.71.9-1.45 1.79-2.17 2.68m-3.46-.99c-.32.4-.71.61-1.23.33-.46-.26-.66-.78-.31-1.32.65-.99 1.42-1.9 2.16-2.83.12-.14.37-.19.46-.23.65-.02 1.08.46.97 1.01-.06.28-.2.57-.37.8-.55.76-1.12 1.5-1.7 2.24m-5.01-.19c-.44-.27-.58-.8-.19-1.34.78-1.05 1.62-2.06 2.51-3.02.2-.21.7-.24 1.03-.18.21.04.35.41.54.65-.17.32-.27.6-.44.83-.7.9-1.43 1.79-2.15 2.68-.35.42-.75.72-1.31.38m-3.18.26c-.33.4-.75.59-1.23.25-.45-.32-.53-.77-.29-1.24.23-.45.47-.92.79-1.3.73-.88 1.48-1.76 2.3-2.56.24-.23.77-.27 1.15-.24.19.02.35.4.56.66-.18.35-.29.68-.49.94-.91 1.17-1.84 2.33-2.79 3.48m-2.95-3.12c-.41.59-.82 1.18-1.25 1.76-.3.41-.69.66-1.2.36-.49-.29-.59-.8-.32-1.21.49-.78 1.07-1.51 1.69-2.19.15-.16.65-.14.92-.03.21.09.32.44.47.66-.13.27-.19.47-.31.65m35.35-5.53c.54-.77 1.27-1.43 1.99-2.05.15-.13.7 0 .88.19.18.19.29.73.15.89-.61.74-1.31 1.41-1.99 2.09-.07.07-.24.06-.31.07-.63-.03-1.09-.69-.73-1.2m4.58-1.17c.61.01 1.08.6.76 1.15-.4.67-.96 1.28-1.56 1.78-.41.34-1.04-.03-1.17-.57-.17-.72 1.22-2.38 1.98-2.37m3.11.07c.58 0 1.06.6.78 1.14-.3.58-.74 1.13-1.23 1.55-.42.36-1.04.06-1.2-.47-.23-.75.87-2.23 1.65-2.22m-47.16 5.06c-.39 1.28-1.31 2.24-2.26 3.15-.08.07-.24.06-.55.13-.17-.29-.48-.6-.53-.94-.09-.68 1.56-2.87 2.24-3.12.61-.22 1.28.2 1.1.78m-4.05-.53c-.44.76-.97 1.49-1.56 2.14-.18.2-.76.27-1.01.13-.24-.13-.49-.74-.38-.92.53-.85 1.17-1.63 1.8-2.41.09-.11.31-.11.39-.14.67.03 1.09.65.77 1.19m-3.91-1.15c-.61.92-1.3 1.79-2 2.65-.12.14-.37.17-.48.22-.63-.02-1.03-.51-.86-1.11.35-1.25 1.2-2.15 2.27-2.82.21-.13.73-.03.91.15.18.18.29.71.16.9m-3.93-14.2c-.52.16-1.02-.21-1.06-.78-.04-.59.61-1.52 1.17-1.68.54-.15 1.04.21 1.07.76.02.51-.7 1.56-1.17 1.7m.28 12.47c-.24.53-.67.98-1.04 1.44-.34.43-.69.87-1.08 1.26-.22.23-.53.37-.67.47-.77-.05-1.25-.72-.89-1.23.76-1.07 1.64-2.05 2.54-3.01.14-.15.76-.11.92.05.21.22.35.74.23 1m-6.34 1.73c-.35.43-.74.73-1.31.43-.49-.26-.62-.82-.17-1.43.9-1.23 1.89-2.39 2.87-3.56.17-.21.49-.29.64-.37.67.03 1.06.55.87 1.09-.12.35-.35.68-.58.97-.76.97-1.55 1.91-2.32 2.86m-5.91-.49c-.45-.43-.37-.94-.04-1.38.85-1.11 1.73-2.2 2.6-3.29.21-.26.41-.55.66-.77.21-.18.49-.29.65-.37.64.08.9.38.87.87-.02.24-.13.5-.28.69-1.03 1.35-2.06 2.69-3.12 4.01-.41.51-.98.57-1.33.24m-3.57.31c-.19.25-.52.39-.67.5-.73-.02-1.19-.58-1.04-1.17.1-.4.31-.8.56-1.12.98-1.28 1.99-2.54 3-3.79.21-.26.48-.55.78-.63.32-.09.82-.07 1.03.13.2.19.15.67.17 1.02 0 .1-.12.22-.19.32-1.21 1.58-2.41 3.17-3.64 4.74m-3.33-17.18c-.47.16-.95-.13-1.05-.63-.14-.66.6-1.76 1.25-1.86.5-.08.95.26.97.76.02.49-.71 1.57-1.17 1.73m.7 12.81c-1.1 1.62-2.23 3.21-3.38 4.79-.21.28-.57.44-.74.57-.78-.02-1.2-.57-1.02-1.17.11-.36.31-.7.53-1.01 1.06-1.54 2.14-3.06 3.22-4.59.12-.17.25-.4.42-.46.29-.11.69-.23.92-.11.24.12.47.53.46.8-.02.4-.19.84-.42 1.18m-6.32 1.03c-.68 1.12-1.49 2.17-2.3 3.2-.12.16-.62.21-.8.09-.24-.15-.4-.51-.49-.81-.05-.17.05-.43.16-.59.61-.87 1.22-1.74 1.88-2.58.17-.22.48-.32.63-.42.72-.05 1.24.58.92 1.11m-5.9 1.23c-.68 1.03-1.39 2.04-2.09 3.05-.32.47-.76.72-1.31.44-.57-.29-.61-.83-.39-1.32.6-1.38 1.48-2.58 2.62-3.56.23-.2.72-.2 1.05-.12.21.05.34.42.51.65-.15.34-.23.63-.39.87m-4.73-.05c-.71 1.11-1.45 2.2-2.22 3.27-.18.25-.5.41-.64.52-.67.02-1.1-.33-1.12-.85-.01-.28.04-.62.19-.85.72-1.1 1.44-2.21 2.23-3.25.44-.57 1.03-.64 1.45-.32.43.32.51.83.09 1.48m-6.52 3.51c-.11.15-.36.2-.45.25-.77.04-1.26-.64-.96-1.34.34-.77.8-1.49 1.26-2.2.34-.53.74-1.03 1.17-1.5.35-.38.82-.46 1.26-.14.4.29.5.76.26 1.14-.81 1.29-1.68 2.54-2.55 3.79m-2.55-3.28c-.58 1.04-1.16 2.07-1.8 3.08-.16.25-.51.38-.65.48-.72-.05-1.17-.58-.91-1.11.6-1.2 1.34-2.35 2.1-3.46.13-.19.73-.22 1.01-.09.45.2.49.67.25 1.1m-4.26.48c-.65 1.14-1.28 2.28-1.97 3.4-.27.43-.74.59-1.22.34-.48-.25-.7-.75-.47-1.18.67-1.27 1.4-2.5 2.18-3.69.14-.22.71-.32 1-.22.29.1.47.51.64.72-.08.32-.09.5-.16.64m22.53-18.42c1.09-1.36 2.24-2.67 3.43-3.95.19-.2.71-.2 1.04-.11.21.05.33.43.51.69-.22.35-.36.65-.57.91-.98 1.18-1.99 2.34-2.98 3.5-.33.39-.71.62-1.22.32-.43-.26-.59-.85-.19-1.35m5.91-1.81c.1-.06.24-.05.32-.07.66.03 1.03.65.68 1.2-.53.82-1.13 1.59-1.78 2.31-.16.18-.67.24-.9.12-.23-.12-.49-.59-.42-.81.36-1.16 1.05-2.11 2.1-2.76m15.61 4.28c0 .44-.98 1.59-1.43 1.7-.59.14-1.11-.34-.98-.97.14-.7.57-1.24 1.25-1.51.57-.23 1.17.2 1.16.79m-11.62-9.2c.65-.29 1.36-.44 2.04-.65 1.11.1 2.01.56 2.87 1.13.81.54 1.61 1.12 2.43 1.65.81.52 1.68.83 2.67.6.08-.02.17-.03.25-.03.71-.02 1.18.3 1.23.84.06.61-.29 1.01-.84 1.1-.7.12-1.45.25-2.13.12-.86-.17-1.7-.55-2.49-.94-.72-.36-1.38-.85-2.03-1.32-1.01-.73-2.07-1.17-3.34-.77-.5.16-.94.04-1.19-.46-.22-.45-.04-1.02.52-1.27m11.98 10.02c.48-.8 1.02-1.57 1.57-2.31.4-.53.92-.64 1.31-.34.45.35.47.82.2 1.25-.61.97-1.25 1.91-1.92 2.84-.13.18-.41.26-.76.47-.24-.29-.59-.54-.64-.83-.07-.34.05-.77.23-1.08m-49.63 16.26c-.51.78-1.03 1.55-1.59 2.29-.42.57-.98.71-1.42.4-.5-.35-.59-.89-.3-1.34.63-.99 1.33-1.95 2.08-2.85.18-.21.71-.27 1.02-.19.25.06.43.44.65.69-.17.4-.27.73-.45 1m-4.3-.03c-.6.98-1.19 1.97-1.83 2.92-.26.4-.71.48-1.14.28-.44-.21-.6-.64-.47-1.08.38-1.3 1.15-2.38 2.16-3.25.57-.49 1.36-.07 1.41.73-.02.09-.04.27-.12.41m-4.65.97c-.42.74-.84 1.47-1.29 2.19-.27.43-.67.67-1.19.43-.54-.25-.77-.76-.52-1.26.45-.9.99-1.76 1.56-2.59.26-.38.75-.45 1.14-.19.25.17.39.5.55.72-.12.32-.16.53-.26.71m-4.66.37c-.43 1.05-1 2.04-1.6 3.01-.11.18-.66.23-.91.12-.25-.11-.47-.49-.52-.79-.12-.71 1.18-2.94 1.81-3.24.11-.05.24-.08.34-.11.56-.02 1.08.48.87 1m-6.31 4.4c-.14.08-.32.1-.43.13-.6-.08-.96-.4-.92-.93.08-1.01.57-1.88 1.3-2.55.48-.45 1.24-.1 1.37.55.11.54-.83 2.55-1.32 2.8m-1.73-2.87c-.6 1.17-1.29 2.3-1.98 3.42-.09.15-.36.2-.45.25-.69.04-1.2-.5-1.02-1.1.39-1.33 1.14-2.48 2.16-3.41.18-.16.7-.15.92 0 .22.15.46.66.36.84m-3.95-.24c-.72 1.25-1.45 2.5-2.18 3.75-.04.07-.1.14-.16.2-.33.34-.76.48-1.14.2-.26-.2-.38-.59-.53-.82.14-.39.19-.65.31-.86.67-1.13 1.37-2.25 2.06-3.36.04-.07.1-.14.16-.2.36-.38.79-.55 1.25-.25.53.35.5.85.22 1.35m-5.07 1.62c-.86 1.47-1.76 2.92-2.63 4.39-.29.49-.67.79-1.26.56-.51-.2-.7-.72-.42-1.42.27-.67.6-1.32.97-1.94.73-1.25 1.5-2.48 2.26-3.72.04-.07.09-.15.14-.21.29-.38.7-.61 1.1-.35.3.2.45.63.66.94-.31.67-.51 1.24-.81 1.75m-6.68 3.06c-.12.16-.68.17-.9.03-.23-.14-.47-.65-.38-.83.48-.98 1.02-1.94 1.63-2.85.11-.17.66-.2.92-.09.25.11.38.48.66.86-.66 1-1.25 1.97-1.92 2.87m-1.91 3.19c-.07.62-.55.87-1.1.82-1.13-.1-2.12.17-2.94.95-.35.34-.68.76-.86 1.21-.21.52-.42.94-1.06.87-.53-.06-.91-.57-.93-1.47.1-.24.23-.76.52-1.14.98-1.3 2.23-2.23 3.88-2.45.53-.07 1.1.03 1.63.14.56.11.93.48.86 1.08m-7.5-.17c-.45.72-.9 1.44-1.4 2.13-.3.41-.73.6-1.23.32-.45-.25-.6-.76-.29-1.34.43-.78.93-1.52 1.45-2.25.27-.37.71-.54 1.13-.28.25.16.4.48.56.68-.1.34-.12.57-.22.74m-5.29 2.57c-.32.42-.81.59-1.24.28-.3-.21-.43-.65-.63-.98.31-.61.5-1.14.81-1.58.97-1.4 1.96-2.77 2.97-4.14.68-.92 1.39-1.82 2.1-2.73.16-.2.29-.49.5-.56.33-.12.79-.24 1.04-.1.24.14.47.68.38.94-.22.67-.56 1.33-.96 1.92-1.16 1.68-2.38 3.31-3.58 4.97-.47.66-.91 1.34-1.39 1.98m-4.79-1.06c-.78.05-1.25-.45-1.13-1.08.08-.45.24-.92.5-1.3 1.34-2.03 2.71-4.03 4.09-6.03.14-.21.35-.38.56-.52.4-.25.87-.29 1.15.09.19.26.23.69.19 1.04-.03.27-.24.54-.4.79-1.38 2.1-2.77 4.2-4.18 6.29-.22.33-.59.56-.78.73m-1.62-4.46c-.55 1-1.11 2-1.68 2.99-.15.25-.3.56-.54.69-.26.14-.71.25-.92.12-.27-.16-.4-.57-.54-.9-.05-.13.04-.34.12-.48.6-1.11 1.19-2.24 1.85-3.32.18-.3.55-.55.88-.66.59-.2 1.12.26 1.09.96-.07.15-.14.39-.27.61m15.77-1.17c.28-.75.68-1.46 1.14-2.12.13-.19.65-.26.9-.16.25.09.4.47.65.8-.47.8-.85 1.56-1.34 2.24-.14.19-.7.28-.89.15-.26-.18-.55-.68-.46-.91m-20.39 1.08c-.11.36-.32.69-.5 1.02-.4.74-.84 1.47-1.22 2.22-.24.47-.57.76-1.1.62-.51-.13-.74-.52-.76-1.22.05-.16.1-.51.26-.79.52-.92 1.07-1.82 1.65-2.71.27-.42.67-.67 1.19-.44.57.26.64.76.47 1.29m-6.45 3.03c-.12.15-.69.1-.91-.06-.22-.16-.45-.65-.36-.85.4-.82.88-1.62 1.42-2.36.13-.17.66-.2.92-.09.26.11.4.47.69.85-.6.88-1.13 1.72-1.76 2.5m-3.03-2.53c-.42.86-.98 1.66-1.56 2.43-.13.17-.7.22-.9.08-.26-.18-.56-.72-.46-.91.46-.88 1.05-1.7 1.62-2.53.08-.12.3-.13.39-.17.65-.04 1.18.55.92 1.1m-5.28-.45c-.64 1.15-1.29 2.29-1.98 3.4-.16.25-.51.39-.64.49-.73 0-1.17-.42-1.12-.99.03-.33.15-.67.32-.95.58-.98 1.18-1.96 1.82-2.91.31-.45.76-.72 1.31-.38.52.33.57.83.29 1.34m-4.61-12.24c-.31-.16-.48-.58-.68-.83.21-.57.32-.98.5-1.36.2-.41.55-.67 1.04-.51.47.16.67.55.58 1.01-.08.41-.24.82-.42 1.2-.2.43-.59.72-1.03.49m-1.52 13.11c-.47.8-.93 1.62-1.45 2.38-.42.62-.96.77-1.39.46-.52-.36-.53-.87-.26-1.35.52-.92 1.04-1.85 1.67-2.69.19-.26.74-.42 1.09-.37.26.04.46.48.66.71-.14.38-.19.64-.31.85m-2.38-13.33c.14-.25.61-.47.92-.45.47.03.74.48.62.93-.19.73-.46 1.44-.76 2.13-.19.43-.63.67-1.04.41-.29-.18-.44-.61-.61-.89.33-.82.53-1.52.88-2.13m-1.78 1.2c-.37.98-.88 1.9-1.4 2.81-.09.16-.59.26-.78.16-.26-.13-.5-.46-.57-.75-.14-.6 1.07-2.8 1.61-3.05.11-.05.24-.08.31-.1.52 0 1 .46.82.93m-1.04 12.53c-.43.78-.85 1.57-1.33 2.32-.27.43-.7.63-1.21.36-.48-.26-.67-.75-.45-1.19.45-.9.98-1.78 1.58-2.59.15-.21.7-.26 1.01-.18.25.07.41.46.56.65-.08.31-.09.49-.16.63m-4.25-10.69c-.24-.15-.51-.52-.5-.79.03-.7.37-1.31.98-1.68.58-.35 1.25.09 1.22.97-.23.36-.52.93-.91 1.41-.13.15-.61.2-.79.09m.35 10.03c-.59 1.12-1.28 2.18-1.96 3.25-.09.14-.37.17-.47.21-.66-.05-1.16-.66-.89-1.21.55-1.09 1.22-2.12 1.94-3.11.14-.19.77-.23 1.01-.08.24.15.49.73.38.94m-4.16-11.25c-.2-.69.66-1.84 1.38-1.87.61-.02 1.02.57.74 1.16-.2.41-.49.81-.83 1.13-.45.44-1.12.2-1.29-.42m-1.39-4.61c-.46-.44-.26-1.14.37-1.28.28-.06.59 0 .88.03 1.05.15 2.1.33 3.15.48 1.61.24 3.21.34 4.81-.1.7-.19 1.15.01 1.26.49.14.62-.22 1.02-.75 1.15-.98.24-1.99.38-3 .56-2-.31-3.97-.61-5.94-.94-.28-.05-.57-.2-.78-.4m.17 16.54c-.44.83-.88 1.66-1.38 2.45-.29.47-.74.75-1.3.43-.53-.3-.63-.8-.36-1.32.47-.9.98-1.8 1.5-2.67.24-.4.68-.61 1.1-.39.29.15.47.52.64.72-.09.37-.11.6-.21.78m-4.38.56c-.31 1.22-1.02 2.23-1.93 3.09-.11.11-.31.12-.39.15-.66-.02-1.16-.63-.87-1.18.51-.97 1.15-1.88 1.81-2.76.13-.18.68-.22.91-.1.24.12.53.57.47.8M52.6 25.01c-.61-.02-1.11-.66-.8-1.17.48-.78 1.12-1.47 1.76-2.12.15-.15.67-.07.92.08.19.11.37.61.27.75-.56.83-1.2 1.6-1.83 2.38-.06.08-.24.06-.33.08m.11 14.48c-.44.94-1.04 1.82-1.65 2.67-.13.18-.66.23-.91.12-.25-.11-.48-.47-.54-.76-.13-.74 1.3-2.84 2-3.06.08-.03.16-.04.25-.06.59-.03 1.12.53.86 1.09m-3.8.61c-.37.62-.75 1.24-1.13 1.85-.26.4-.63.59-1.09.42-.51-.19-.74-.62-.6-1.12.28-1 .8-1.89 1.67-2.49.6-.42 1.34.03 1.34.86-.03.1-.08.31-.18.49m-3.74-.25c-.56.93-1.21 1.8-1.86 2.67-.08.11-.31.1-.39.13-.67-.02-1.17-.61-.88-1.15.48-.88 1.09-1.69 1.74-2.45.16-.18.74-.17 1.01-.03.22.11.47.67.37.82M55.39 23.8c.27-.68.73-1.34 1.27-1.82.5-.45 1.24.04 1.22.81-.3.69-.68 1.46-1.42 1.91-.56.34-1.32-.27-1.07-.9m5.97-.46c.33.08.59.45.77.6-.03.89-.87 1.88-1.39 1.85-.46-.02-.83-.46-.82-.96.02-.74.83-1.64 1.44-1.49M37.88 43.35c-.18.15-.7.09-.92-.07-.22-.16-.44-.66-.35-.86.37-.78.82-1.55 1.35-2.23.15-.19.71-.16 1.03-.07.21.06.33.42.51.67-.4 1-.84 1.91-1.64 2.56m-3.7-2.14c-.58.97-1.24 1.9-1.9 2.82-.08.11-.31.11-.38.14-.72 0-1.24-.64-.92-1.24.49-.92 1.15-1.75 1.84-2.54.16-.18.75-.16 1.02-.01.21.11.44.67.34.84m-5.13.35c-.41.65-.82 1.3-1.25 1.93-.3.43-.74.58-1.23.37-.47-.2-.7-.75-.41-1.31.42-.78.91-1.54 1.49-2.21.2-.23.78-.27 1.14-.19.24.05.39.48.55.71-.12.32-.17.53-.28.71m-4.91.01c-.29.57-.58 1.13-.92 1.66-.17.26-.44.46-.57.58-.73.05-1.26-.45-1.18-1.06.17-1.21.82-2.21 1.72-3.01.19-.16.69-.17.92-.03.23.14.43.55.41.82-.01.35-.23.71-.4 1.05m-3.6-1.07c-.52.72-1.03 1.45-1.59 2.14-.3.37-.72.45-1.15.2-.42-.25-.55-.66-.4-1.1.36-1.03 1.01-1.87 1.92-2.46.63-.41 1.35.02 1.35.84-.02.07-.04.25-.13.38m-4.55-.97c-.43.68-.86 1.36-1.34 2-.28.38-.73.45-1.14.21-.4-.24-.63-.67-.4-1.08.46-.8.97-1.57 1.56-2.27.16-.19.71-.16 1.03-.07.2.06.31.44.44.63-.07.26-.07.45-.16.58m-4.53-1.15c-.44.63-.88 1.25-1.35 1.86-.3.38-.72.48-1.14.25-.42-.23-.57-.64-.43-1.09.32-1.01.94-1.83 1.81-2.4.61-.4 1.35.09 1.32.9-.04.11-.09.32-.21.49M7.08 37c-.68 1.02-1.34 2.06-2.06 3.05-.27.37-.78.47-1.13.14-.23-.22-.46-.71-.37-.97.44-1.26 1.17-2.36 2.22-3.19.6-.47 1.37-.09 1.41.64-.02.09 0 .24-.07.34m396.76-6.83c-.19-1.95-.41-3.9-.76-5.83-.29-1.58-.07-3.05.55-4.49.11-.25.2-.51.32-.83-.28 0-.45-.02-.61 0-.38.06-.76.13-1.13.23-3.68.96-7.31 2.03-10.75 3.69-.38.18-.79.36-1.2.44-2.38.47-4.76.96-7.16 1.35-2.32.38-4.64.66-6.97.95-3.35.41-6.7.75-10.06.05-2.7-.57-5.15-1.77-7.64-2.89-.92-.41-1.91-.86-2.89-.93-2.72-.2-5.45-.21-8.17-.3-.78-.03-1.41.24-1.91.85-.78.96-1.82 1.51-3 1.84-.82.23-1.62.55-2.43.79-5.46 1.65-10.98 2.84-16.73 2.67-.68-.02-1.37-.03-2.04-.14-4.17-.7-8.35-1.24-12.6-1.04-2.32.11-4.6-.31-6.83-.89-1.26-.33-2.5-.49-3.79-.5-2.22 0-4.42-.18-6.6-.68-1.54-.35-3.1-.59-4.66-.82-3.12-.45-6.26-.82-9.38-1.3-1.81-.27-3.59-.77-5.41-1-4.53-.56-9.09-.86-13.6-1.57-5.77-.91-11.5-2.07-17.23-3.19-4.85-.94-9.69-1.96-14.54-2.97-2.25-.47-4.51-.92-6.73-1.52-2.42-.65-4.48-1.93-5.77-4.16-.87-1.5-1.82-2.88-3.38-3.74-.14-.08-.26-.22-.36-.36-.36-.48-.85-.66-1.43-.73-1.71-.21-3.29-.82-4.83-1.6-.98-.5-2.02-.9-3.06-1.28-2.25-.83-4.27-.32-6.11 1.13-1.11.87-2.19 1.76-3.33 2.59-2.32 1.7-4.89 2.95-7.52 4.07-.94.4-1.84.93-2.82 1.19-3.72.99-7.5 1.63-11.34 1.92-2.76.21-5.52.47-8.29.73-1.74.16-3.47.45-5.22.53-7.12.36-14.21 1.04-21.31 1.68-2.67.24-5.37.18-8.05.14-1.63-.02-3.24.02-4.83.37-3.92.85-7.83 1.71-11.75 2.57-4.13.92-8.26 1.71-12.52 1.73-2.38.01-4.78.15-7.15.41-2.9.32-5.79.44-8.69.17-3.06-.28-6.11-.63-9.15-1.1-6.5-1.01-12.91-.68-19.3.83-3.32.78-6.67 1.52-10.05 1.89-5.26.57-10.54.87-15.82 1.18-3.2.19-6.4.03-9.58-.37-2.37-.29-4.74-.58-7.11-.86-3.09-.35-6.24-.12-9.29-.88-.2-.05-.43-.05-.64-.03-.74.07-1.01.4-.79 1.11.19.6.47 1.19.79 1.74 1.89 3.25 1.77 5.86-.46 8.87-.59.8-.8 1.6-.4 2.62.63 1.61.47 3.27-.16 4.87-.08.19-.15.39-.23.63 1.34 1.19 2.85 1.89 4.59 2.1 1.82.22 3.67.28 5.47.62 2.64.5 5.24 1.19 7.86 1.77 1.54.34 3.07.71 4.63.96 4.76.76 9.54.12 14.31.05 1.05-.02 2.12-.22 3.16-.47 3.79-.91 7.62-1.42 11.53-1.37 1.27.02 2.54-.24 3.81-.41 1.86-.26 3.7-.71 5.57-.82 4.13-.25 8.27-.32 12.41-.52 2.38-.11 4.79-.19 7.14-.55 3.91-.59 7.8-.82 11.73-.3 1.77.24 3.57.34 5.34.57 1.86.24 3.76.39 5.55.89 4.55 1.27 9.18 1.88 13.87 2.3 1.44.13 2.79-.02 4.11-.62 2.45-1.1 4.92-2.09 6.86-4.1 1.34-1.38 3.03-2.37 4.98-2.74 1.72-.33 3.45-.59 5.17-.86 2.06-.32 4.14-.56 6.19-.95 2.3-.45 4.57-1 6.93-1.16 3.11-.21 6.21-.52 9.29-.93 4.83-.64 9.66-.99 14.55-.65 2.29.16 4.61.01 6.91.01 2.26 0 4.51 0 6.77-.01 1.53-.01 3.07-.03 4.59-.12 1.96-.12 3.91-.41 5.86-.49 7.47-.29 14.82.57 22.06 2.4 4.88 1.24 9.8 2.24 14.83 2.75 3.48.35 6.95.85 10.37 1.55 4.38.9 8.71 2.07 13.06 3.12 4.15 1.01 8.29 2.02 12.61 1.94 3.3-.06 6.56.29 9.75 1.2 1.49.43 3 .62 4.55.56 2.4-.09 4.76.12 7.1.73 3.41.89 6.88 1.2 10.4 1.07 1.02-.04 2.05.02 3.06.14 5.09.6 9.75 2.42 14.09 5.09 1.42.87 2.82 1.77 4.23 2.64 1.87 1.15 3.81 1.36 5.85.47.35-.15.72-.28 1.09-.36 1.36-.31 2.56-.92 3.63-1.81.63-.51 1.3-.97 1.94-1.46 1.32-1.02 2.8-1.56 4.48-1.69 2.12-.16 4.27-.26 6.36-.65 5.85-1.09 11.72-1.72 17.68-1.64 1.95.03 3.94-.08 5.86-.45 5.48-1.05 10.96-2.15 16.4-3.43 4.73-1.12 9.44-2.35 14.26-3.03.26-.04.51-.18.85-.3-.45-.52-.83-.91-1.17-1.35-1.37-1.76-1.45-4.15-.02-5.49 1.23-1.15 1.57-2.51 1.41-4.05" style="fill:#d62e26"/></svg>