<svg xmlns="http://www.w3.org/2000/svg" viewBox="0 0 636 89.04"><path d="M629.54 63.41c-.33.67-1.05.99-1.69.58-.47-.31-.7-.98-1.05-1.5.52-1.01.86-1.9 1.41-2.62.25-.33 1.05-.57 1.37-.41.43.22.93.92.87 1.34-.12.9-.5 1.78-.91 2.61m-5.88.75c-.33.74-.92 1.17-1.77.95-.77-.2-1.15-.99-.94-1.95.08-.39.23-.77.38-1.14.19-.5.39-1 .6-1.49.81-1.84 1.62-3.67 2.44-5.5.34-.75.9-1.21 1.75-.96.84.25 1.06.94.99 1.81-.1.33-.17.73-.33 1.1-1.03 2.4-2.06 4.8-3.12 7.18M617.75 66c-.1.25-.19.58-.38.69-.49.26-1.13.66-1.55.52-.43-.14-.82-.82-.93-1.33-.1-.47.15-1.05.34-1.55 1.03-2.75 2.09-5.5 3.14-8.25.31-.81.86-1.51 1.79-1.18.5.18.82.85 1.16 1.23-.23.85-.33 1.45-.54 2.01-.99 2.63-2.01 5.24-3.03 7.86m-6.63 1.55c-.43 1.02-1.08 1.4-1.81 1.09-.91-.38-1.06-1.13-.82-1.99.23-.83.44-1.68.76-2.48.95-2.35 1.95-4.68 2.93-7.02.32-.76.87-1.33 1.68-.99.51.21.82.88 1.17 1.28-.28.95-.42 1.67-.7 2.35-1.05 2.6-2.12 5.18-3.21 7.76m-8.1 1.06c-.49-.26-.76-.93-1.02-1.28.19-.69.27-1.09.42-1.46 1.04-2.61 2.1-5.22 3.16-7.83.1-.25.23-.49.38-.71.44-.68 1.04-1.11 1.86-.76.81.36 1 1.08.7 1.86-1.21 3.12-2.44 6.24-3.71 9.34-.31.75-.98 1.25-1.77.84m-4.47.31c-.1.25-.17.51-.28.75-.31.69-.89 1.16-1.59.86-.51-.22-.85-.84-1.18-1.2.2-.87.26-1.49.49-2.04 1.14-2.72 2.31-5.42 3.5-8.12.35-.79.95-1.34 1.91-1.03.79.25 1.08 1.08.68 2.23-.38 1.07-.91 2.09-1.34 3.14-.74 1.79-1.47 3.6-2.2 5.4m-6.45 1.18c-.21.49-.45.97-.74 1.42-.47.72-1.08 1.29-2 .81-.87-.45-.91-1.21-.57-2.07.51-1.31.91-2.66 1.46-3.95.87-2.03 1.83-4.02 2.76-6.03.11-.24.2-.57.4-.68.49-.26 1.15-.7 1.54-.55.49.19.77.9 1.07 1.29-.29.84-.45 1.42-.68 1.97-1.07 2.6-2.15 5.2-3.24 7.79m-7.71 1.54c-.76 1.45-1.42 1.84-2.23 1.49-.93-.4-1.1-1.26-.37-2.78 1.55-3.19 3.17-6.35 4.76-9.52.09-.18.17-.43.32-.5.51-.24 1.15-.69 1.54-.53.48.19.76.89 1.09 1.32-.31.81-.49 1.39-.75 1.92-1.44 2.87-2.88 5.75-4.37 8.59m-7.05.95c-.52.19-1.15.45-1.61.3-.33-.11-.61-.83-.63-1.29-.02-.5.25-1.03.48-1.51 1.36-2.76 2.74-5.52 4.12-8.27.36-.72.93-1.27 1.75-.95.46.18.77.75 1.15 1.15-.34.89-.54 1.61-.87 2.26-1.3 2.57-2.63 5.12-3.95 7.68-.12.24-.25.57-.45.65m-8.54 1.3c-.48-.28-.73-.95-1.01-1.34.27-.72.38-1.18.6-1.59 1.4-2.68 2.81-5.35 4.23-8.01.16-.29.36-.64.63-.76.45-.19 1.14-.45 1.43-.25.4.27.58.93.75 1.46.07.2-.13.51-.25.75-1.52 2.99-3.03 5.99-4.58 8.96-.36.7-1.01 1.25-1.8.79m-5.4-.41c-.19.35-.41.77-.73.93-.43.21-1.13.43-1.44.23-.41-.27-.64-.92-.8-1.44-.08-.26.14-.65.3-.94 1.65-3.07 3.3-6.13 4.98-9.18.38-.7 1.02-1.24 1.8-.81.48.26.73.95 1.03 1.38-.33.81-.5 1.39-.78 1.92-1.43 2.65-2.89 5.29-4.35 7.93m-4.07-4.99c-1.08 2.16-2.18 4.31-3.31 6.44-.22.41-.48.91-.85 1.08-.49.22-1.23.39-1.63.16-.4-.23-.57-.95-.7-1.49-.06-.27.16-.64.31-.94 1.28-2.51 2.58-5.01 3.88-7.51.09-.18.17-.43.32-.49.51-.22 1.16-.65 1.57-.5.49.19.79.89 1.11 1.29-.29.83-.43 1.42-.69 1.96m-9.57 6.97c-.44.76-1.06 1.27-1.98.82-.88-.44-1.05-1.28-.66-2.05.97-1.9 2.03-3.76 3.11-5.6.36-.62 1.04-.98 1.7-.52.42.3.64.9.9 1.29-.26.7-.39 1.23-.63 1.7-.79 1.47-1.61 2.92-2.45 4.37m-3.47-4.52c-.9 1.72-1.83 3.42-2.75 5.13-.1.17-.22.41-.37.46-.54.16-1.16.45-1.64.32-.72-.2-1.05-.97-.73-1.63 1.02-2.1 2.11-4.17 3.3-6.18.21-.35 1.11-.55 1.57-.42.44.13.73.78 1.01 1.13-.18.57-.23.91-.39 1.2m-7.22-22.29c-.78-.64-.67-1.42-.16-2.13.97-1.36 1.97-2.69 3-3.98.45-.56 1.12-.82 1.79-.43.36.21.56.68.85 1.04-.23.52-.36.98-.62 1.34-.89 1.24-1.8 2.48-2.77 3.67-.66.81-1.49.98-2.09.49m.1 23.27c-.12.65-.35 1.3-.63 1.9-.44.98-.91 1.95-1.47 2.86-.29.47-.82.8-1.06 1.02-1.27.05-2.05-.94-1.65-1.98.65-1.68 1.45-3.31 2.35-4.88.2-.36 1.06-.59 1.55-.5.74.13 1.04.85.92 1.57m-6.46-25.56c.27-.52.69-.99 1.09-1.42 1.28-1.37 2.56-2.73 3.89-4.04.56-.56 1.29-.78 1.97-.15.67.61.6 1.37.07 1.97-1.55 1.75-3.16 3.44-4.78 5.13-.26.27-.69.37-.9.48-1.18.03-1.84-1.02-1.34-1.98m-5.13 35.23c-.24.25-1.05.18-1.45-.02-.31-.16-.48-.74-.55-1.17-.05-.29.12-.65.28-.93 1.1-1.91 2.21-3.8 3.34-5.7.41-.7 1.04-1.14 1.83-.76.41.2.67.72 1 1.1-1.21 2.81-2.42 5.4-4.45 7.48m18.57-36.08c.71.02 1.19.39 1.24 1.19.06.91-1.17 2.37-2.04 2.4-.8.02-1.23-.43-1.29-1.2-.08-.98 1.08-2.33 2.1-2.38m2.54-9.1c.79-.08 1.6-.02 2.4-.02v-.06c1.06.1 2.14.14 3.19.32 1 .17 1.56.86 1.42 1.61-.15.84-.73 1.31-1.55 1.28-1.87-.07-3.73-.2-5.6-.34-.83-.07-1.41-.55-1.36-1.43.04-.87.71-1.28 1.49-1.36m13.78 7.95c.79-.02 1.26.41 1.35 1.19.11.93-1.11 2.42-2.04 2.48-.75 0-1.21-.41-1.28-1.19-.1-.98 1.08-2.45 1.97-2.47m2.01 3.19c1.12-1.91 2.28-3.79 3.53-5.61.22-.32.99-.48 1.41-.37.41.11.7.66 1.05 1.03-.28.67-.42 1.2-.69 1.64-.95 1.54-1.91 3.08-2.92 4.58-.6.9-1.37 1.13-2.02.69-.76-.52-.76-1.29-.37-1.96m10.04-5.2c.7.31.95 1.12.43 2.09-.81 1.54-1.7 3.04-2.69 4.46-.25.36-1.07.54-1.55.44-.38-.08-.65-.72-.96-1.1.26-.66.38-1.19.65-1.64.72-1.21 1.48-2.39 2.25-3.56.45-.68 1.05-1.05 1.87-.69m29.63 3.88c.62-1.95 1.94-3.49 3.45-4.82.25-.22 1-.2 1.27.02.35.28.74 1.07.59 1.3-1.06 1.68-2.24 3.28-3.41 4.89-.1.13-.37.14-.51.19-.86.06-1.66-.74-1.39-1.58m6.2.38c.1-.58.37-1.15.67-1.66.93-1.56 1.91-3.08 2.86-4.62.47-.75 1.06-1.26 1.99-.85.79.34 1.01 1.2.41 2.25-1.1 1.92-2.3 3.78-3.51 5.63-.23.35-.7.55-.9.7-1.01.02-1.67-.64-1.52-1.45m7.4-2.94c.86-1.65 1.88-3.22 2.96-4.73.2-.29 1.05-.39 1.42-.21.36.17.76.88.69 1.25-.43 2.01-1.67 3.59-3.07 5.05-.16.17-.48.19-.61.24-.99.02-1.78-.83-1.38-1.59M521.57 78.7c-.62.25-1.28.42-1.86.74-.7.38-1.4.81-1.99 1.34-.96.86-.95 1.34-.15 2.34.08.1.2.18.28.28.45.57.62 1.18.2 1.85-.46.74-1.16.85-1.93.69-1.44-.3-2.58-1.95-2.81-3.78.52-1.06.86-2.26 1.59-3.14 1.35-1.65 3.24-2.55 5.33-2.98.32-.07.74-.15.98 0 .48.29 1.05.65 1.24 1.12.29.71-.18 1.27-.88 1.56m-10.39-3.89c-1.43 1.94-2.86 3.89-4.34 5.79-.42.54-1.05.92-1.39 1.2-1.18-.05-1.83-.8-1.65-1.69.11-.57.41-1.14.76-1.61 2.01-2.68 4.05-5.33 6.09-7.99.16-.21.34-.41.54-.6.58-.57 1.24-.81 1.99-.36.68.41.79 1.19.2 2.13-.67 1.08-1.44 2.1-2.19 3.13m-11.67 2.98c-.79-.58-.75-1.39-.4-2.17.24-.55.57-1.07.91-1.56 1.58-2.25 3.17-4.49 4.8-6.71.35-.47.81-.93 1.32-1.2.95-.5 1.96.2 1.92 1.43-.13.28-.27.73-.53 1.12-1.91 2.84-3.81 5.68-5.77 8.49-.63.9-1.57 1.12-2.25.61m-6.05-2.1c-.76-.35-1.05-1.25-.51-2.25.85-1.59 1.82-3.11 2.8-4.62.73-1.12 1.5-2.23 2.4-3.21.31-.33 1.11-.43 1.6-.3.39.1.65.72.97 1.11-.34.71-.54 1.28-.86 1.78-1.44 2.26-2.91 4.49-4.37 6.73-.49.75-1.13 1.17-2.03.76m-4.62-3.11c-.37.51-.9.9-1.18 1.18-1.22.08-1.95-.75-1.72-1.73.16-.7.46-1.42.86-2.01 1.26-1.89 2.58-3.75 3.91-5.59.5-.69 1.17-1.18 2.06-.67.88.51.81 1.34.46 2.11-.3.67-.7 1.29-1.11 1.91-1.08 1.61-2.16 3.23-3.29 4.8m-8.18-.04c-.12.16-.26.31-.41.43-.56.48-1.18.67-1.83.23-.71-.49-.86-1.2-.43-1.93.44-.74.96-1.44 1.47-2.14 1.38-1.89 2.76-3.76 4.16-5.64.28-.37.54-.85.92-1.02.43-.18 1.05-.21 1.46-.03.33.15.49.7.74 1.11-.3.63-.47 1.22-.81 1.7-1.74 2.45-3.51 4.87-5.28 7.29m-6.51-.38c-.32.45-.86.73-1.11.93-1.26-.04-1.89-.88-1.61-1.85.16-.57.46-1.12.79-1.62 1.07-1.63 2.17-3.23 3.28-4.82.22-.33.49-.76.81-.85.53-.14 1.22-.22 1.65.02.32.18.47.93.42 1.4-.05.5-.38 1-.66 1.44-1.17 1.8-2.34 3.6-3.58 5.35m-6.55.19c-1.01-.07-1.6-.75-1.44-1.56.1-.51.34-1.03.63-1.47 1.15-1.73 2.34-3.44 3.52-5.16.51-.75 1.21-1.16 2.05-.67.87.5.87 1.38.39 2.11-1.34 2.09-2.74 4.14-4.18 6.16-.23.33-.76.46-.98.58m-3.56-4.88c-.64.95-1.25 1.91-1.93 2.82-.3.4-.75.69-1.36 1.22-.51-.6-1.02-1.01-1.23-1.54-.14-.36.01-.97.25-1.33 1.3-1.95 2.64-3.87 4.02-5.76.47-.64 1.19-.92 1.95-.38.73.53.75 1.25.31 1.96-.63 1.02-1.34 2.01-2.01 3.01m50.34 6.99c.38-1.15 1.1-2.28 1.95-3.14.71-.72 1.95.07 1.97 1.6-.54.73-1.18 1.93-2.13 2.79-.74.67-2.12-.26-1.79-1.26m-55.92-8.88c-.73 1.25-1.63 2.42-2.49 3.59-.1.13-.36.13-.48.17-.9.02-1.72-.84-1.35-1.63.58-1.24 1.43-2.38 2.31-3.45.2-.25 1.09-.22 1.44 0 .35.23.72 1.05.57 1.31m-7.82 3.19c-.24.33-.75.48-1.36.86-.42-.55-.95-.97-1.1-1.51-.12-.44.09-1.08.36-1.49 1.1-1.66 2.26-3.29 3.46-4.88.51-.68 1.26-1.07 2.09-.5.82.56.8 1.39.32 2.12-1.21 1.83-2.48 3.63-3.77 5.4m-7.12-.42c-.77-.38-1.03-1.26-.42-2.28 1.14-1.89 2.41-3.71 3.69-5.51.42-.58 1.14-.82 1.79-.39.39.26.63.77.9 1.14-.27.61-.41 1.07-.66 1.45-1.07 1.63-2.16 3.24-3.27 4.84-.49.7-1.11 1.22-2.04.76m-2.52-4.9c-.69 1.45-1.53 2.83-2.39 4.19-.22.34-.73.5-.94.63-.98-.06-1.64-.72-1.49-1.55.37-1.96 1.34-3.66 2.9-4.9.33-.27 1.26-.22 1.59.06.33.29.52 1.16.32 1.57m-8.26 2.92c-1.2.04-1.94-.81-1.67-1.74.17-.62.51-1.23.9-1.76 1.18-1.62 2.41-3.19 3.62-4.78.49-.64 1.11-.98 1.91-.61.7.32.93 1.14.55 2.09-.22.55-.54 1.08-.89 1.56-1.11 1.5-2.23 2.99-3.4 4.44-.31.39-.8.63-1.01.8m-5.55-1.8c-.32.38-.83.61-1.06.77-1.13.04-1.85-.66-1.74-1.53.07-.5.3-1.04.62-1.44 1.5-1.89 3.05-3.74 4.59-5.6.17-.2.38-.48.6-.51.5-.07 1.2-.21 1.49.05.36.32.55 1.02.52 1.54-.03.49-.38 1.01-.7 1.42-1.41 1.79-2.84 3.56-4.31 5.3m-7.59.46c-.39.49-.97.83-1.27 1.08-1.23 0-1.92-.84-1.69-1.81.13-.57.39-1.17.75-1.63 1.73-2.22 3.49-4.42 5.28-6.59.49-.6 1.19-.94 1.96-.43.84.56.78 1.35.39 2.13-.27.54-.61 1.04-.98 1.52-1.47 1.92-2.93 3.84-4.45 5.72m-8.29-.61c-.23.28-.68.37-.89.48-1.07-.02-1.78-.92-1.51-1.84.16-.56.46-1.13.84-1.58 1.36-1.66 2.75-3.3 4.2-4.88.84-.92 1.64-1 2.28-.41.74.69.59 1.5.05 2.17-1.62 2.05-3.29 4.06-4.97 6.06m-2.76-5.32c-.72 1.18-1.61 2.26-2.48 3.35-.14.17-.49.18-.62.22-1.05 0-1.87-.95-1.42-1.78.65-1.2 1.56-2.29 2.51-3.27.25-.26 1.19-.14 1.6.12.32.2.59 1.08.41 1.37m-6.67-.71c-.74.95-1.51 1.88-2.31 2.78-.54.61-1.23.85-1.97.34-.73-.5-.87-1.33-.42-1.96.89-1.23 1.85-2.46 3-3.43.89-.75 2.1.03 2.1 1.34-.09.2-.18.62-.42.92m-5.83-2.67c-1.24 1.48-2.55 2.9-3.86 4.31-.21.22-.58.3-.73.37-.98.04-1.71-.66-1.64-1.52.03-.44.17-.97.46-1.28 1.2-1.33 2.44-2.63 3.73-3.87.58-.55 1.35-.62 1.98 0 .63.62.58 1.39.07 1.99m-10.24 2.71c-.49.6-1.1.79-1.79.45-.7-.35-.83-1.02-.68-1.73.05-.26.14-.54.3-.73 1.23-1.5 2.42-3.04 3.76-4.43.34-.35 1.24-.31 1.82-.18.3.06.48.7.72 1.1-.28.51-.45.95-.73 1.31-1.12 1.42-2.28 2.82-3.42 4.22m-5.45-1.56c-.5.63-1.13.97-1.93.52-.73-.4-1.05-1.23-.48-2.08 1.03-1.56 2.23-2.99 3.4-4.45.18-.23.58-.29.73-.36 1.02-.02 1.71.73 1.53 1.59-.09.44-.32.89-.58 1.26-.86 1.19-1.76 2.36-2.67 3.52m-7.89-.3c-.69-.42-.92-1.26-.3-2.11 1.22-1.66 2.55-3.24 3.95-4.75.31-.33 1.11-.38 1.63-.28.33.06.56.64.86 1.02-.26.51-.42.95-.69 1.31-1.11 1.42-2.24 2.82-3.38 4.21-.54.67-1.17 1.14-2.06.6m-5 .42c-.51.63-1.18.93-1.94.4-.71-.5-.83-1.2-.45-1.95.37-.71.74-1.44 1.24-2.05 1.15-1.39 2.32-2.78 3.62-4.03.38-.37 1.21-.43 1.8-.37.31.03.56.63.88 1.04-.28.56-.45 1.07-.77 1.48-1.44 1.85-2.9 3.67-4.39 5.48m-4.65-4.91c-.64.94-1.29 1.86-1.96 2.78-.48.64-1.08 1.04-1.89.57-.78-.45-.92-1.26-.51-1.91.78-1.22 1.68-2.38 2.65-3.45.24-.26 1.02-.22 1.45-.04.34.14.51.69.74 1.04-.2.43-.3.75-.48 1.02m55.65-8.7c.85-1.22 2-2.24 3.13-3.23.23-.2 1.1 0 1.39.31.28.3.45 1.14.24 1.4-.96 1.17-2.06 2.22-3.13 3.29-.11.11-.38.09-.49.11-.98-.05-1.71-1.08-1.14-1.89m7.21-1.85c.95.02 1.7.95 1.19 1.82-.62 1.06-1.51 2.02-2.46 2.81-.65.54-1.64-.05-1.84-.9-.26-1.13 1.92-3.75 3.11-3.73m4.89.11c.92 0 1.67.94 1.23 1.8-.47.91-1.16 1.78-1.94 2.45-.67.57-1.64.09-1.89-.74-.36-1.18 1.37-3.51 2.6-3.5m-74.25 7.96c-.61 2.02-2.07 3.52-3.56 4.96-.12.12-.38.1-.87.2-.26-.45-.76-.94-.83-1.48-.14-1.07 2.45-4.52 3.52-4.91.96-.34 2.01.31 1.73 1.23m-6.37-.83c-.7 1.2-1.53 2.34-2.46 3.37-.29.32-1.2.43-1.59.21-.38-.21-.78-1.17-.61-1.45.83-1.34 1.84-2.56 2.83-3.79.14-.17.48-.17.61-.22 1.05.05 1.71 1.03 1.22 1.88m-6.15-1.81c-.96 1.45-2.05 2.81-3.14 4.17-.18.23-.59.27-.75.35-.99-.04-1.61-.81-1.36-1.74.55-1.96 1.89-3.38 3.57-4.44.33-.2 1.14-.05 1.44.23.29.29.45 1.11.25 1.42m-6.18-22.35c-.82.25-1.61-.33-1.67-1.23-.06-.93.96-2.4 1.84-2.65.85-.24 1.64.33 1.68 1.2.04.8-1.1 2.45-1.85 2.67m.43 19.63c-.38.83-1.05 1.54-1.64 2.27-.54.68-1.09 1.37-1.7 1.99-.35.36-.83.59-1.06.74-1.21-.08-1.96-1.14-1.4-1.93 1.19-1.68 2.59-3.23 4-4.73.23-.24 1.19-.18 1.44.09.33.35.55 1.17.36 1.58M328 46.97c-.55.68-1.16 1.15-2.05.68-.76-.4-.97-1.29-.26-2.26 1.42-1.93 2.97-3.76 4.52-5.6.27-.32.78-.45 1.01-.58 1.06.05 1.66.87 1.37 1.72-.19.55-.55 1.06-.92 1.53-1.2 1.52-2.45 3-3.66 4.51m-9.3-.76c-.71-.68-.58-1.48-.06-2.17 1.33-1.75 2.72-3.46 4.09-5.18.33-.42.64-.87 1.04-1.21.33-.29.77-.45 1.02-.58 1.01.12 1.42.6 1.37 1.37-.03.37-.21.79-.44 1.09-1.62 2.12-3.24 4.24-4.92 6.31-.65.8-1.55.9-2.1.37m-5.62.49c-.3.39-.81.61-1.05.78-1.15-.03-1.88-.91-1.64-1.84.16-.63.49-1.25.89-1.77 1.54-2.02 3.13-4 4.73-5.97.33-.4.76-.86 1.22-.99.51-.14 1.3-.11 1.63.2.32.3.23 1.05.26 1.61.01.16-.18.35-.3.51-1.9 2.49-3.8 5-5.74 7.47m-5.25-27.05c-.73.25-1.5-.2-1.66-.99-.22-1.05.94-2.76 1.97-2.93.79-.13 1.49.42 1.53 1.2.04.77-1.11 2.48-1.84 2.73m1.1 20.16c-1.73 2.54-3.5 5.06-5.31 7.54-.32.44-.9.7-1.17.89-1.23-.04-1.89-.9-1.6-1.84.17-.56.49-1.1.83-1.59 1.67-2.42 3.37-4.82 5.07-7.22.19-.27.39-.63.67-.72.46-.17 1.08-.36 1.45-.17.38.19.74.84.72 1.26-.03.63-.3 1.32-.66 1.85m-9.95 1.63c-1.07 1.76-2.34 3.41-3.61 5.04-.19.25-.97.32-1.27.14-.38-.24-.63-.8-.77-1.27-.08-.26.08-.68.26-.94.96-1.37 1.93-2.74 2.96-4.06.26-.34.76-.51 1-.66 1.14-.07 1.96.91 1.45 1.75m-9.28 1.93c-1.08 1.61-2.18 3.21-3.29 4.8-.51.74-1.19 1.13-2.06.69-.89-.45-.96-1.3-.62-2.08.95-2.17 2.32-4.07 4.12-5.6.36-.31 1.13-.32 1.65-.19.33.08.54.66.81 1.03-.23.53-.37.99-.62 1.36m-7.44-.08c-1.11 1.75-2.28 3.46-3.49 5.16-.28.4-.79.64-1 .81-1.06.04-1.73-.52-1.76-1.33-.02-.45.06-.98.29-1.34 1.13-1.74 2.27-3.47 3.52-5.12.69-.9 1.62-1 2.29-.51.68.5.8 1.31.15 2.34m-10.26 5.52c-.17.24-.56.32-.71.4-1.21.07-1.98-1.01-1.5-2.1.54-1.21 1.26-2.35 1.99-3.46.54-.84 1.17-1.63 1.85-2.36.55-.6 1.29-.73 1.99-.22.63.46.79 1.19.41 1.79-1.28 2.02-2.65 4-4.02 5.96m-4.01-5.16c-.92 1.63-1.83 3.27-2.83 4.85-.25.4-.8.6-1.03.76-1.13-.08-1.85-.92-1.43-1.75.95-1.89 2.1-3.69 3.31-5.44.2-.3 1.15-.34 1.59-.15.7.31.77 1.05.39 1.73m-6.7.76c-1.02 1.79-2.02 3.6-3.1 5.35-.42.68-1.16.93-1.93.53-.75-.39-1.1-1.18-.74-1.86 1.05-1.99 2.2-3.94 3.44-5.81.22-.34 1.12-.5 1.57-.35.45.15.73.8 1.01 1.14-.12.5-.13.79-.26 1.01m35.47-28.99c1.72-2.14 3.52-4.21 5.39-6.22.29-.31 1.12-.31 1.64-.18.32.08.52.67.8 1.08-.34.54-.57 1.03-.9 1.43-1.55 1.85-3.13 3.68-4.7 5.51-.52.61-1.13.98-1.92.5-.67-.41-.93-1.34-.3-2.12m9.31-2.85c.16-.1.39-.08.51-.11 1.04.05 1.63 1.02 1.07 1.89-.83 1.28-1.78 2.5-2.8 3.64-.26.29-1.06.38-1.42.2-.36-.19-.77-.93-.66-1.28.57-1.82 1.65-3.32 3.31-4.35m24.57 6.74c-.01.69-1.54 2.5-2.25 2.67-.92.22-1.75-.54-1.54-1.53.23-1.11.89-1.96 1.97-2.38.9-.36 1.85.32 1.82 1.24m-18.3-14.49c1.02-.46 2.14-.69 3.21-1.02 1.74.16 3.17.88 4.52 1.79 1.28.86 2.53 1.76 3.82 2.6 1.27.82 2.64 1.3 4.2.94.13-.03.26-.05.4-.05 1.11-.02 1.86.47 1.94 1.32.09.96-.45 1.59-1.32 1.74-1.1.19-2.29.4-3.36.19-1.35-.27-2.67-.86-3.92-1.48-1.13-.57-2.17-1.33-3.2-2.08-1.6-1.15-3.26-1.84-5.26-1.21-.78.25-1.48.07-1.87-.73-.35-.71-.07-1.6.82-2.01m18.86 15.77c.76-1.26 1.6-2.46 2.48-3.64.63-.84 1.45-1.01 2.07-.53.7.55.74 1.29.31 1.97-.96 1.52-1.98 3.01-3.02 4.48-.21.29-.65.41-1.19.73-.38-.46-.92-.84-1.01-1.31-.1-.53.08-1.22.37-1.7M253.1 46.22c-.8 1.22-1.63 2.43-2.5 3.61-.66.89-1.54 1.11-2.24.63-.79-.55-.93-1.4-.47-2.12 1-1.56 2.09-3.07 3.27-4.49.28-.34 1.11-.43 1.61-.3.4.1.68.69 1.03 1.09-.27.63-.42 1.15-.7 1.58m-6.77-.04c-.95 1.54-1.88 3.09-2.88 4.6-.42.63-1.12.76-1.8.44-.7-.33-.95-1-.74-1.7.6-2.05 1.82-3.75 3.4-5.12.89-.77 2.14-.12 2.21 1.14-.04.13-.06.42-.19.64m-7.32 1.53c-.66 1.16-1.32 2.32-2.03 3.45-.43.67-1.06 1.06-1.87.67-.85-.4-1.22-1.19-.81-1.99.71-1.42 1.56-2.77 2.46-4.08.41-.6 1.18-.71 1.8-.3.39.26.61.79.87 1.14-.18.5-.26.83-.42 1.11m-7.33.58c-.68 1.65-1.58 3.21-2.51 4.73-.17.28-1.04.37-1.43.19-.39-.18-.73-.78-.81-1.24-.19-1.11 1.85-4.63 2.85-5.1.18-.08.38-.12.53-.17.87-.04 1.71.76 1.37 1.58m-9.94 6.93c-.23.12-.5.15-.68.2-.95-.12-1.51-.63-1.45-1.46.12-1.59.9-2.95 2.04-4.01.76-.71 1.95-.16 2.16.86.17.84-1.3 4.01-2.08 4.41M219 50.7c-.95 1.84-2.03 3.61-3.11 5.38-.15.24-.56.32-.7.4-1.08.06-1.89-.79-1.61-1.74.61-2.1 1.79-3.9 3.4-5.37.28-.25 1.1-.23 1.45 0 .35.23.72 1.04.57 1.32m-6.22-.38c-1.13 1.98-2.28 3.94-3.43 5.9-.07.11-.16.22-.25.31-.52.54-1.2.76-1.8.31-.42-.31-.6-.93-.83-1.29.22-.61.29-1.02.49-1.36 1.06-1.78 2.16-3.54 3.24-5.3.07-.11.16-.21.25-.31.57-.6 1.24-.87 1.97-.39.84.54.79 1.34.34 2.12m-7.98 2.55c-1.35 2.32-2.76 4.6-4.15 6.91-.46.77-1.06 1.24-1.99.89-.81-.31-1.1-1.13-.65-2.23.42-1.05.95-2.08 1.52-3.06 1.15-1.97 2.36-3.9 3.55-5.85.07-.11.14-.23.22-.34.45-.6 1.11-.96 1.74-.55.47.31.71.99 1.03 1.48-.48 1.06-.81 1.95-1.27 2.75m-10.52 4.82c-.19.25-1.08.27-1.42.05-.36-.23-.74-1.02-.6-1.31.75-1.55 1.61-3.05 2.57-4.48.18-.27 1.04-.31 1.45-.13.39.17.6.76 1.03 1.36-1.04 1.58-1.96 3.1-3.03 4.52m-3.01 5.02c-.11.97-.86 1.37-1.73 1.3-1.77-.15-3.34.27-4.62 1.49-.55.53-1.07 1.2-1.35 1.9-.34.82-.66 1.48-1.67 1.37-.83-.1-1.43-.9-1.47-2.32.16-.37.36-1.19.82-1.8 1.54-2.04 3.51-3.52 6.11-3.86.83-.11 1.73.05 2.57.22.87.17 1.46.76 1.36 1.71m-11.8-.27c-.71 1.13-1.42 2.27-2.21 3.35-.47.65-1.15.94-1.94.5-.7-.39-.95-1.2-.45-2.11.68-1.23 1.47-2.4 2.28-3.54.42-.59 1.12-.85 1.78-.44.4.25.63.75.89 1.07-.16.54-.18.9-.35 1.17m-8.33 4.05c-.5.66-1.28.92-1.95.45-.47-.33-.68-1.02-1-1.54.48-.96.79-1.79 1.28-2.49 1.52-2.2 3.09-4.37 4.68-6.52 1.07-1.46 2.2-2.87 3.3-4.3.25-.32.46-.76.79-.89.51-.19 1.25-.38 1.64-.15.38.22.74 1.07.6 1.48-.35 1.06-.88 2.1-1.52 3.02-1.83 2.64-3.75 5.21-5.63 7.82-.74 1.03-1.43 2.11-2.19 3.12m-7.54-1.67c-1.23.07-1.96-.7-1.78-1.7.13-.71.39-1.45.78-2.05 2.11-3.19 4.27-6.34 6.44-9.5.22-.32.54-.61.88-.81.62-.39 1.38-.46 1.82.15.3.41.36 1.09.3 1.63-.04.43-.38.85-.63 1.24-2.18 3.31-4.35 6.62-6.58 9.9-.35.52-.93.88-1.23 1.14m-2.55-7.01c-.87 1.57-1.75 3.14-2.65 4.7-.23.4-.48.88-.85 1.08-.42.23-1.12.4-1.45.19-.42-.26-.64-.9-.84-1.42-.08-.2.06-.53.18-.76.95-1.75 1.88-3.52 2.91-5.22.28-.46.86-.86 1.39-1.04.92-.32 1.76.4 1.72 1.51-.1.24-.23.62-.42.96m24.83-1.84c.44-1.17 1.07-2.3 1.79-3.34.2-.3 1.02-.41 1.42-.26.4.15.63.74 1.03 1.26-.73 1.26-1.33 2.46-2.11 3.53-.21.29-1.11.44-1.4.24-.4-.28-.86-1.08-.73-1.44m-32.09 1.7c-.18.57-.5 1.09-.78 1.61-.63 1.17-1.32 2.31-1.92 3.49-.38.75-.89 1.19-1.73.98-.81-.2-1.17-.82-1.19-1.93.08-.25.16-.8.41-1.24.83-1.44 1.69-2.87 2.59-4.26.42-.65 1.06-1.06 1.88-.69.9.41 1.01 1.2.74 2.03m-10.15 4.77c-.19.23-1.09.16-1.44-.09-.35-.25-.71-1.03-.57-1.33.63-1.3 1.38-2.55 2.23-3.71.2-.27 1.04-.31 1.44-.14.4.17.64.74 1.09 1.34-.95 1.38-1.78 2.72-2.77 3.93m-4.77-3.99c-.66 1.36-1.54 2.62-2.45 3.82-.21.27-1.11.35-1.42.13-.4-.28-.88-1.14-.73-1.43.73-1.39 1.65-2.68 2.54-3.98.12-.18.47-.21.61-.27 1.02-.06 1.86.87 1.45 1.73m-8.31-.71c-1.01 1.8-2.03 3.6-3.12 5.35-.25.4-.8.61-1.01.76-1.15.01-1.84-.66-1.76-1.55.05-.51.23-1.05.5-1.5.92-1.55 1.86-3.08 2.86-4.58.48-.72 1.2-1.14 2.06-.6.82.51.9 1.31.46 2.1m-7.26-19.27c-.48-.25-.75-.91-1.07-1.31.33-.89.5-1.55.79-2.14.32-.64.86-1.06 1.63-.8.74.25 1.05.86.91 1.59-.13.65-.37 1.28-.65 1.89-.31.67-.93 1.13-1.61.78m-2.39 20.64c-.73 1.27-1.46 2.55-2.28 3.75-.67.98-1.51 1.21-2.19.73-.81-.56-.83-1.37-.41-2.13.81-1.45 1.64-2.91 2.63-4.24.31-.42 1.17-.66 1.71-.58.41.06.73.76 1.03 1.12-.22.6-.3 1.01-.49 1.34m-3.75-20.98c.23-.4.96-.75 1.44-.71.75.05 1.16.76.97 1.47-.3 1.14-.72 2.26-1.2 3.35-.29.68-.99 1.05-1.64.64-.46-.29-.69-.96-.97-1.4.51-1.29.84-2.39 1.39-3.35m-2.8 1.89c-.59 1.54-1.39 3-2.2 4.43-.15.25-.92.41-1.23.25-.4-.21-.79-.73-.9-1.18-.22-.94 1.69-4.4 2.54-4.81.18-.08.37-.12.49-.16.82 0 1.58.72 1.29 1.47m-1.64 19.72c-.68 1.23-1.34 2.47-2.09 3.65-.43.68-1.11 1-1.9.57-.76-.41-1.06-1.18-.71-1.88.72-1.42 1.55-2.8 2.48-4.08.24-.33 1.11-.42 1.6-.28.39.11.64.72.88 1.02-.12.49-.14.77-.26 1m-6.69-16.83c-.39-.24-.8-.82-.78-1.24.04-1.1.58-2.07 1.55-2.65.92-.56 1.98.13 1.91 1.53-.36.57-.81 1.46-1.43 2.22-.2.24-.96.32-1.25.14m.55 15.79c-.93 1.76-2.01 3.44-3.09 5.11-.15.22-.58.26-.74.33-1.04-.08-1.83-1.04-1.4-1.9.86-1.71 1.93-3.34 3.05-4.9.22-.3 1.21-.36 1.59-.13.38.23.76 1.16.59 1.48m-6.54-17.7c-.31-1.08 1.04-2.9 2.17-2.94.96-.03 1.61.9 1.16 1.82-.32.65-.78 1.27-1.3 1.78-.72.69-1.76.31-2.03-.66m-2.19-7.26c-.73-.69-.41-1.79.58-2.02.44-.1.93-.01 1.38.05 1.66.24 3.31.51 4.96.76 2.53.37 5.05.54 7.57-.16 1.1-.3 1.81.02 1.98.77.23.98-.35 1.61-1.17 1.82-1.54.38-3.13.6-4.72.89-3.15-.49-6.25-.96-9.35-1.48-.43-.07-.9-.32-1.22-.62m.27 26.04c-.7 1.3-1.39 2.61-2.17 3.86-.46.74-1.17 1.18-2.05.68-.84-.48-1-1.26-.57-2.08.75-1.42 1.54-2.83 2.37-4.2.38-.63 1.07-.96 1.73-.61.46.23.73.81 1.01 1.13-.15.58-.17.94-.33 1.23m-6.89.87c-.49 1.92-1.6 3.51-3.03 4.87-.18.17-.49.19-.62.23-1.05-.03-1.83-.99-1.38-1.86.8-1.53 1.81-2.96 2.85-4.35.21-.28 1.06-.34 1.44-.15.38.19.83.9.74 1.25m-8.43-20.9c-.96-.04-1.75-1.04-1.26-1.84.75-1.22 1.76-2.31 2.78-3.34.23-.23 1.06-.11 1.45.13.29.18.58.96.43 1.18-.89 1.3-1.89 2.53-2.88 3.75-.1.12-.38.09-.52.12m.17 22.8c-.7 1.48-1.63 2.87-2.6 4.2-.21.28-1.04.36-1.44.19-.39-.17-.76-.75-.84-1.2-.2-1.16 2.04-4.47 3.14-4.81.13-.04.26-.06.39-.09.93-.05 1.76.83 1.35 1.72m-5.98.96c-.58.98-1.18 1.95-1.79 2.91-.4.64-.99.92-1.72.66-.81-.3-1.17-.98-.95-1.76.44-1.58 1.26-2.98 2.63-3.93.95-.66 2.11.04 2.11 1.36-.05.15-.12.49-.29.77m-5.89-.39c-.89 1.46-1.91 2.84-2.93 4.21-.12.17-.49.16-.61.2-1.06-.03-1.84-.96-1.38-1.8.75-1.38 1.72-2.66 2.75-3.86.25-.29 1.16-.27 1.59-.05.34.17.73 1.05.58 1.3m16.09-25.27c.42-1.07 1.15-2.11 2-2.87.79-.7 1.96.07 1.92 1.28-.47 1.09-1.07 2.3-2.24 3.01-.88.53-2.07-.43-1.68-1.41m9.4-.72c.52.13.93.7 1.22.94-.05 1.4-1.37 2.95-2.19 2.91-.72-.04-1.31-.73-1.3-1.51.03-1.16 1.31-2.58 2.27-2.34M59.56 68.63c-.29.23-1.1.14-1.44-.11-.35-.26-.69-1.03-.54-1.35.59-1.23 1.29-2.44 2.13-3.51.23-.3 1.12-.26 1.63-.11.33.1.52.67.8 1.05-.62 1.58-1.32 3.01-2.57 4.02m-5.83-3.37c-.91 1.53-1.95 2.98-2.99 4.44-.12.17-.48.18-.6.22-1.13 0-1.95-1.01-1.44-1.96.77-1.44 1.82-2.76 2.89-4 .25-.29 1.17-.25 1.61-.02.34.17.69 1.05.53 1.32m-8.08.56c-.64 1.02-1.28 2.05-1.97 3.04-.47.68-1.16.91-1.94.58-.73-.31-1.1-1.19-.64-2.06.65-1.23 1.43-2.43 2.34-3.47.32-.37 1.23-.43 1.79-.3.37.08.61.76.86 1.11-.2.5-.27.84-.45 1.11m-7.73.02c-.45.89-.91 1.78-1.44 2.62-.26.42-.7.72-.89.91-1.15.08-1.99-.71-1.85-1.68.27-1.91 1.29-3.48 2.71-4.75.29-.26 1.08-.27 1.45-.05.36.22.67.86.65 1.3-.02.56-.36 1.12-.63 1.65m-5.67-1.69c-.81 1.14-1.63 2.28-2.5 3.37-.46.58-1.14.7-1.81.31-.67-.39-.87-1.05-.63-1.73.57-1.62 1.59-2.95 3.02-3.88.99-.64 2.13.04 2.12 1.32-.03.11-.06.4-.2.6m-7.16-1.53c-.68 1.06-1.35 2.13-2.11 3.14-.45.6-1.15.72-1.79.33-.63-.37-.99-1.06-.62-1.71.72-1.26 1.53-2.48 2.46-3.58.25-.3 1.12-.26 1.63-.1.32.1.49.69.69.99-.11.41-.12.71-.25.92m-7.14-1.81c-.69.99-1.39 1.97-2.13 2.92-.47.6-1.13.75-1.8.39-.66-.36-.9-1-.67-1.72.5-1.59 1.48-2.87 2.84-3.77.97-.64 2.13.14 2.08 1.42-.07.17-.14.51-.33.77m-6.84-2.23c-1.07 1.61-2.11 3.24-3.25 4.79-.43.59-1.23.75-1.78.22-.37-.35-.72-1.12-.58-1.53.69-1.98 1.84-3.72 3.5-5.02.95-.75 2.16-.15 2.22 1-.03.14-.01.38-.11.53m624.6-10.75c-.31-3.07-.64-6.14-1.19-9.17-.45-2.49-.11-4.8.86-7.08.17-.39.31-.8.51-1.31-.44 0-.7-.04-.96 0-.6.1-1.19.21-1.77.36-5.79 1.51-11.51 3.2-16.93 5.8-.6.29-1.24.57-1.89.69-3.75.74-7.5 1.51-11.27 2.12-3.64.59-7.31 1.05-10.98 1.5-5.27.65-10.54 1.19-15.84.08-4.26-.89-8.1-2.78-12.02-4.55-1.45-.65-3-1.35-4.55-1.46-4.28-.31-8.58-.33-12.87-.48-1.23-.04-2.22.37-3 1.33-1.23 1.52-2.87 2.37-4.73 2.9-1.29.36-2.54.86-3.83 1.25-8.59 2.6-17.29 4.47-26.34 4.2-1.07-.03-2.16-.04-3.21-.22-6.57-1.1-13.15-1.95-19.83-1.64-3.65.17-7.24-.48-10.75-1.4-1.98-.52-3.94-.78-5.96-.78-3.5-.01-6.96-.29-10.4-1.07-2.42-.55-4.88-.93-7.34-1.29-4.91-.71-9.85-1.3-14.76-2.04-2.85-.43-5.66-1.21-8.51-1.57-7.13-.89-14.32-1.36-21.4-2.47-9.08-1.43-18.1-3.26-27.12-5.02-7.64-1.49-15.26-3.09-22.88-4.68-3.55-.74-7.11-1.45-10.6-2.39-3.81-1.02-7.05-3.04-9.08-6.55-1.37-2.36-2.87-4.53-5.32-5.88-.23-.12-.42-.35-.57-.56-.57-.76-1.34-1.03-2.25-1.14-2.7-.33-5.19-1.29-7.6-2.52-1.55-.79-3.19-1.41-4.82-2.01-3.54-1.3-6.72-.5-9.62 1.78-1.74 1.37-3.45 2.77-5.24 4.07-3.65 2.68-7.69 4.65-11.85 6.41-1.48.63-2.9 1.46-4.44 1.87-5.85 1.55-11.8 2.56-17.85 3.02-4.35.33-8.7.74-13.04 1.14-2.74.26-5.47.7-8.21.84-11.21.56-22.37 1.64-33.54 2.64-4.2.37-8.45.28-12.67.22-2.57-.04-5.1.03-7.61.58-6.16 1.34-12.33 2.69-18.49 4.05-6.5 1.44-13.01 2.69-19.72 2.73-3.75.02-7.52.23-11.25.64-4.56.5-9.12.69-13.68.27-4.81-.44-9.62-.99-14.4-1.73-10.23-1.59-20.32-1.07-30.39 1.31-5.22 1.23-10.5 2.4-15.82 2.98-8.27.9-16.6 1.38-24.91 1.86-5.03.29-10.07.05-15.09-.58-3.73-.46-7.46-.92-11.2-1.35-4.86-.56-9.82-.19-14.62-1.38-.32-.08-.67-.07-1-.04-1.16.11-1.59.63-1.25 1.75.3.95.74 1.87 1.24 2.73 2.98 5.11 2.78 9.23-.72 13.96-.93 1.26-1.26 2.52-.64 4.12.99 2.54.73 5.14-.25 7.67-.12.3-.23.61-.37.98 2.1 1.87 4.49 2.98 7.22 3.31 2.87.35 5.78.45 8.6.98 4.15.78 8.24 1.87 12.37 2.79 2.42.54 4.84 1.11 7.29 1.51 7.5 1.19 15.02.19 22.53.08 1.66-.02 3.34-.35 4.97-.74 5.97-1.43 12-2.24 18.15-2.16 2 .02 4.01-.37 6-.65 2.92-.41 5.83-1.12 8.76-1.29 6.5-.4 13.02-.5 19.53-.81 3.75-.18 7.53-.3 11.24-.86 6.16-.94 12.28-1.29 18.46-.46 2.79.37 5.61.53 8.41.9 2.93.38 5.91.61 8.74 1.4 7.16 2 14.46 2.96 21.83 3.61 2.26.2 4.39-.04 6.48-.98 3.85-1.74 7.74-3.29 10.8-6.46 2.1-2.17 4.78-3.73 7.84-4.31 2.7-.52 5.43-.92 8.14-1.35 3.25-.51 6.52-.88 9.75-1.5 3.62-.7 7.19-1.58 10.91-1.83 4.89-.33 9.77-.82 14.62-1.47 7.61-1.01 15.21-1.55 22.9-1.03 3.61.25 7.25.02 10.88.02 3.55 0 7.11.01 10.66-.02 2.41-.02 4.83-.04 7.23-.19 3.08-.2 6.15-.65 9.23-.77 11.76-.46 23.33.9 34.73 3.79 7.69 1.95 15.43 3.52 23.34 4.32 5.47.55 10.94 1.34 16.33 2.45 6.9 1.42 13.72 3.25 20.57 4.92 6.53 1.58 13.04 3.19 19.85 3.06 5.19-.09 10.33.46 15.34 1.89 2.35.67 4.72.97 7.16.87 3.78-.15 7.5.19 11.18 1.15 5.36 1.41 10.83 1.89 16.37 1.69 1.6-.06 3.23.03 4.82.22 8.01.95 15.34 3.8 22.17 8.02 2.23 1.38 4.43 2.79 6.66 4.16 2.94 1.81 6 2.15 9.21.73.55-.24 1.13-.44 1.72-.57 2.14-.49 4.02-1.45 5.72-2.84.98-.81 2.04-1.53 3.06-2.3 2.08-1.6 4.41-2.46 7.05-2.67 3.34-.26 6.72-.41 10.01-1.03 9.21-1.71 18.45-2.71 27.83-2.58 3.07.04 6.21-.13 9.22-.71 8.63-1.65 17.26-3.39 25.81-5.4 7.45-1.76 14.86-3.69 22.45-4.77.41-.06.8-.28 1.34-.47-.71-.81-1.31-1.44-1.85-2.12-2.16-2.77-2.28-6.54-.03-8.64 1.94-1.81 2.46-3.95 2.22-6.38" style="fill:#d3a5a3"/></svg>