<svg id="a" xmlns="http://www.w3.org/2000/svg" viewBox="0 0 71 40.19"><defs><style>.b{fill:#c6a16b}</style></defs><path class="b" d="M35.29.2c-.53 6.55-.33 13.21-.38 19.78-.05 6.59-.23 13.2.13 19.78.03.58.88.59.91 0 .36-6.58.18-13.19.13-19.78-.05-6.57.15-13.23-.38-19.78-.02-.27-.39-.27-.41 0ZM38.48 38.78c1.54-4.5 2.52-9.24 3.85-13.81 1.33-4.59 3.02-9.08 4.32-13.67.11-.39-.5-.67-.67-.28-1.87 4.41-3.15 9.12-4.45 13.73-1.29 4.56-2.67 9.29-3.19 14.01 0 .08.12.09.14.02ZM42.3 39.35c2.51-4.38 4.83-9.04 6.8-13.69.19-.45-.42-.85-.67-.39-2.46 4.45-4.71 9.16-6.62 13.87-.12.29.35.47.5.21ZM51.54 20.24c.73-1.17 1.42-2.34 2.05-3.57.17-.34-.31-.62-.51-.3-.74 1.17-1.39 2.36-2.02 3.58-.16.32.29.59.48.28ZM47.69 39.69c5.2-5.74 9.7-12.49 13.77-19.07.3-.48-.43-.88-.74-.43-4.52 6.31-9.3 12.62-13.41 19.2-.15.24.2.51.39.3ZM54.06 39.18c3.44-2.87 6.4-6.63 9.09-10.2.29-.39-.35-.89-.68-.52-2.98 3.38-6.23 6.73-8.88 10.36-.21.29.22.56.46.36ZM59.18 39.7c1.34-1.21 2.67-2.44 3.87-3.79.29-.32-.15-.76-.47-.47-1.35 1.2-2.58 2.52-3.79 3.87-.24.27.13.64.39.39ZM64.26 39.17c1.21-1.01 2.21-2.34 3.17-3.58.23-.3-.27-.68-.53-.41-1.08 1.13-2.24 2.33-3.05 3.68-.16.26.19.49.4.31ZM69.72 38.25c.42-.35.82-.7 1.21-1.09.21-.21-.07-.58-.32-.41-.47.32-.92.67-1.36 1.03-.33.27.14.75.47.47Z"/><g><path class="b" d="M32.66 38.76c-.52-4.72-1.91-9.45-3.19-14.01-1.3-4.61-2.58-9.32-4.45-13.73-.16-.39-.78-.11-.67.28 1.3 4.59 2.99 9.08 4.32 13.67 1.33 4.57 2.31 9.31 3.85 13.81.02.07.15.07.14-.02ZM29.2 39.14c-1.92-4.71-4.16-9.42-6.62-13.87-.25-.45-.87-.05-.67.39 1.97 4.65 4.29 9.31 6.8 13.69.15.26.61.08.5-.21ZM19.94 19.95c-.63-1.23-1.28-2.42-2.02-3.58-.2-.32-.68-.04-.51.3.63 1.23 1.32 2.4 2.05 3.57.19.31.65.04.48-.28ZM23.7 39.39c-4.11-6.58-8.89-12.89-13.41-19.2-.32-.44-1.04-.05-.74.43 4.07 6.57 8.57 13.32 13.77 19.07.19.21.54-.06.39-.3ZM17.4 38.82c-2.66-3.64-5.9-6.98-8.88-10.36-.32-.36-.97.13-.68.52 2.69 3.56 5.66 7.33 9.09 10.2.24.2.68-.07.46-.36ZM12.22 39.3c-1.21-1.34-2.44-2.67-3.79-3.87-.32-.29-.76.15-.47.47 1.2 1.35 2.52 2.58 3.87 3.79.27.24.64-.13.39-.39ZM7.14 38.86c-.81-1.35-1.97-2.55-3.05-3.68-.26-.27-.76.1-.53.41.96 1.24 1.96 2.58 3.17 3.58.21.18.56-.04.4-.31ZM1.76 37.78c-.45-.36-.89-.71-1.36-1.03-.25-.17-.53.21-.32.41.39.39.79.74 1.21 1.09.33.28.81-.21.47-.47Z"/></g></svg>