<?xml version="1.0" encoding="UTF-8"?>
<svg width="24px" height="24px" viewBox="0 0 24 24" version="1.1" xmlns="http://www.w3.org/2000/svg" xmlns:xlink="http://www.w3.org/1999/xlink">
    <title>icon-social-fb copy</title>
    <g id="Symbols" stroke="none" stroke-width="1" fill="none" fill-rule="evenodd">
        <g id="icon-social-fb-copy">
            <rect id="Rectangle-Copy-4" fill="#D8D8D8" opacity="0" x="0" y="0" width="24" height="24"></rect>
            <path d="M13.4723885,3 C15.9500918,3 16.9527593,3.27847683 17.9305371,3.80139811 C18.9083149,4.32431939 19.6756806,5.09168511 20.1986019,6.06946289 C20.7215232,7.04724067 21,8.0499082 21,10.5276115 L21,13.4723885 C21,15.9500918 20.7215232,16.9527593 20.1986019,17.9305371 C19.6756806,18.9083149 18.9083149,19.6756806 17.9305371,20.1986019 C17.4545451,20.4531652 16.9726547,20.6497991 16.317568,20.7845773 L16.3169944,13.9940431 L18.3139053,13.9940431 L18.5785391,11.5384411 L16.3169944,11.5384411 L16.3203871,10.3093887 C16.3203871,9.66892987 16.3821633,9.32575741 17.3160153,9.32575741 L18.5644027,9.32575741 L18.5644027,6.86987736 L16.567209,6.86987736 C14.1682583,6.86987736 13.3238898,8.0611085 13.3238898,10.0643847 L13.3238898,11.5387192 L11.8285391,11.5387192 L11.8285391,13.9943212 L13.3238898,13.9943212 L13.323,21 L10.5276115,21 C8.0499082,21 7.04724067,20.7215232 6.06946289,20.1986019 C5.09168511,19.6756806 4.32431939,18.9083149 3.80139811,17.9305371 C3.27847683,16.9527593 3,15.9500918 3,13.4723885 L3,10.5276115 C3,8.0499082 3.27847683,7.04724067 3.80139811,6.06946289 C4.32431939,5.09168511 5.09168511,4.32431939 6.06946289,3.80139811 C7.04724067,3.27847683 8.0499082,3 10.5276115,3 L13.4723885,3 Z" id="Combined-Shape" fill="#0A0B09"></path>
        </g>
    </g>
</svg>