<?xml version="1.0" encoding="UTF-8"?>
<svg width="24px" height="24px" viewBox="0 0 24 24" version="1.1" xmlns="http://www.w3.org/2000/svg" xmlns:xlink="http://www.w3.org/1999/xlink">
    <title>Group Copy</title>
    <defs>
        <polygon id="path-1" points="3 21.0053562 20.9943214 21.0053562 20.9943214 3.00568094 3 3.00568094"></polygon>
    </defs>
    <g id="Symbols" stroke="none" stroke-width="1" fill="none" fill-rule="evenodd">
        <g id="Group-Copy">
            <rect id="Rectangle" fill="#D8D8D8" opacity="0" x="0" y="0" width="24" height="24"></rect>
            <mask id="mask-2" fill="white">
                <use xlink:href="#path-1"></use>
            </mask>
            <g id="Clip-2"></g>
            <path d="M13.2291311,3.00710896 C14.58933,3.01116322 14.9389643,3.02480319 15.7066786,3.05984635 C16.6643214,3.10354313 17.3183571,3.25571365 17.8906429,3.4782349 C18.4822857,3.70822354 18.9840357,4.01599458 19.48425,4.51638156 C19.9844286,5.01680427 20.2920714,5.51876333 20.522,6.11065271 C20.7443929,6.68317688 20.8965,7.3374851 20.9401786,8.29552698 C20.9767469,9.09732089 20.9899987,9.44328288 20.9933739,10.9595506 L20.9933739,13.0536511 C20.9899987,14.5698981 20.9767469,14.91586 20.9401786,15.717654 C20.8965,16.6756958 20.7443929,17.3300041 20.522,17.9025282 C20.2920714,18.4944176 19.9844286,18.9963767 19.48425,19.4967994 C18.9840357,19.9971864 18.4822857,20.3049574 17.8906429,20.5349818 C17.3183571,20.7574673 16.6643214,20.9096378 15.7066786,20.9533346 C14.9091087,20.9897405 14.5627685,21.0030462 13.0657723,21.0065022 L11.2050199,21.0070125 C9.47073749,21.0045317 9.13212857,20.9918821 8.28764286,20.9533346 C7.33,20.9096378 6.67596429,20.7574673 6.10367857,20.5349818 C5.51203571,20.3049574 5.01028571,19.9971864 4.51007143,19.4967994 C4.00989286,18.9963767 3.70225,18.4944176 3.47235714,17.9025282 C3.24992857,17.3300041 3.09782143,16.6756958 3.05414286,15.717654 C3.02046154,14.9791596 3.00656044,14.6273647 3.00193823,13.3916803 L3.00193823,10.6215169 C3.00656044,9.38581624 3.02046154,9.03402137 3.05414286,8.29552698 C3.09782143,7.3374851 3.24992857,6.68317688 3.47235714,6.11065271 C3.70225,5.51876333 4.00989286,5.01680427 4.51007143,4.51638156 C5.01028571,4.01599458 5.51203571,3.70822354 6.10367857,3.4782349 C6.67596429,3.25571365 7.33,3.10354313 8.28764286,3.05984635 C9.05535714,3.02480319 9.40499143,3.01116322 10.7652086,3.00710896 L13.2291311,3.00710896 Z M12.0000174,7.875 C9.51470264,7.875 7.5,9.88970264 7.5,12.3750174 C7.5,14.8602974 9.51470264,16.875 12.0000174,16.875 C14.4852974,16.875 16.5,14.8602974 16.5,12.3750174 C16.5,9.88970264 14.4852974,7.875 12.0000174,7.875 Z M16.4999814,6.375 C15.8786925,6.375 15.375,6.87869246 15.375,7.50001861 C15.375,8.12134475 15.8786925,8.625 16.4999814,8.625 C17.1213075,8.625 17.625,8.12134475 17.625,7.50001861 C17.625,6.87869246 17.1213075,6.375 16.4999814,6.375 Z" id="Combined-Shape" fill="#0A0B09" mask="url(#mask-2)"></path>
            <path d="M12.0000179,15.375 C10.343138,15.375 9,14.031862 9,12.3750179 C9,10.718138 10.343138,9.375 12.0000179,9.375 C13.656862,9.375 15,10.718138 15,12.3750179 C15,14.031862 13.656862,15.375 12.0000179,15.375 Z" id="Path" fill="#0A0B09" mask="url(#mask-2)"></path>
        </g>
    </g>
</svg>