<?xml version="1.0" encoding="UTF-8"?>
<svg width="24px" height="24px" viewBox="0 0 24 24" version="1.1" xmlns="http://www.w3.org/2000/svg" xmlns:xlink="http://www.w3.org/1999/xlink">
    <title>icon-social-tw copy</title>
    <g id="Symbols" stroke="none" stroke-width="1" fill="none" fill-rule="evenodd">
        <g id="icon-social-tw-copy">
            <rect id="Rectangle-Copy-2" fill="#D8D8D8" opacity="0" x="0" y="0" width="24" height="24"></rect>
            <path d="M12.020566,9.0108238 L12.0579583,9.62717649 L11.4347545,9.55170473 C9.16629255,9.26239633 7.18450441,8.28126348 5.5018541,6.63346344 L4.67922506,5.81585274 L4.46733577,6.4196268 C4.01862902,7.76553981 4.30530277,9.18692457 5.2401085,10.1429002 C5.73867155,10.6712025 5.62649487,10.7466742 4.7664736,10.4322086 C4.46733577,10.3315796 4.20559016,10.2561078 4.18066201,10.2938437 C4.09341347,10.3818941 4.39255131,11.5265491 4.62936876,11.9793796 C4.95343474,12.6083109 5.61403079,13.2246636 6.33694722,13.5894438 L6.94768696,13.8787522 L6.22477053,13.8913308 C5.52678226,13.8913308 5.5018541,13.9039094 5.57663856,14.1680606 C5.82592009,14.9856713 6.81058212,15.8535965 7.90742084,16.2309553 L8.68019358,16.4951064 L8.00713345,16.8976225 C7.01000734,17.4762393 5.83838417,17.8032835 4.66676099,17.8284408 C4.10587755,17.8410194 3.64470673,17.8913339 3.64470673,17.9290698 C3.64470673,18.0548561 5.16532404,18.7592591 6.05027346,19.0359889 C8.70512173,19.8535996 11.858533,19.5013981 14.2267076,18.1051706 C15.9093579,17.1114591 17.5920082,15.1366148 18.377245,13.2246636 C18.8010236,12.2057949 19.2248022,10.3441582 19.2248022,9.45107572 C19.2248022,8.87245891 19.2621944,8.79698716 19.9601827,8.10516271 C20.3714972,7.70264667 20.7578836,7.26239476 20.832668,7.13660849 C20.9573088,6.8976146 20.9448447,6.8976146 20.3091768,7.11145124 C19.2497303,7.48881003 19.1001614,7.43849552 19.6236526,6.87245734 C20.010039,6.4699413 20.4712098,5.74038098 20.4712098,5.52654434 C20.4712098,5.48880846 20.2842487,5.55170159 20.0723594,5.66490922 C19.848006,5.79069549 19.3494429,5.97937488 18.9755207,6.09258252 L18.3024605,6.30641916 L17.6917208,5.8913245 C17.3551907,5.66490922 16.8815558,5.4133367 16.6322743,5.33786494 C15.9966064,5.16176417 15.0244084,5.18692143 14.4510609,5.38817945 C12.8930514,5.95421763 11.9083894,7.41333827 12.020566,9.0108238 Z" id="Path" fill="#000000"></path>
        </g>
    </g>
</svg>