<?xml version="1.0" encoding="UTF-8"?>
<svg width="24px" height="24px" viewBox="0 0 24 24" version="1.1" xmlns="http://www.w3.org/2000/svg" xmlns:xlink="http://www.w3.org/1999/xlink">
    <title>icon-social-youtube copy</title>
    <g id="Symbols" stroke="none" stroke-width="1" fill="none" fill-rule="evenodd">
        <g id="icon-social-youtube-copy">
            <rect id="Rectangle-Copy-3" fill="#D8D8D8" opacity="0" x="0" y="0" width="24" height="24"></rect>
            <path d="M17.544,5.34115403 C13.8612504,4.71961532 10.1027496,4.71961532 6.42,5.34115403 C4.314,5.78904522 3,7.16928133 3,8.96998673 L3,15.3684323 C3,17.1965596 4.314,18.5585144 6.456,19.0246869 C8.28795479,19.3379448 10.1422639,19.4969234 12,19.5 C13.8634419,19.4995807 15.7236998,19.3436654 17.562,19.0338275 C19.65,18.6316395 21,17.2057002 21,15.3775729 L21,8.97912736 C21,7.1601407 19.65,5.7342014 17.544,5.34115403 Z M14.7935604,12.5886051 L10.415645,15.31137 C10.3471628,15.3546269 10.2681707,15.3766714 10.1879934,15.3749012 C10.1119794,15.3742659 10.0371098,15.3556404 9.9690976,15.3204459 C9.82893894,15.232283 9.74533043,15.07282 9.75020182,14.9029553 L9.75020182,9.45742546 C9.7515423,9.29400592 9.83435047,9.14293622 9.9690976,9.0580866 C10.1085702,8.9806378 10.2761723,8.9806378 10.415645,9.0580866 L14.7935604,11.7808515 C14.9221557,11.8658589 15,12.0130195 15,12.1711145 C15,12.3292095 14.9221557,12.47637 14.7935604,12.5613774 L14.7935604,12.5886051 Z" id="Shape" fill="#000000" fill-rule="nonzero"></path>
        </g>
    </g>
</svg>