<svg id="Layer_1" data-name="Layer 1" xmlns="http://www.w3.org/2000/svg" viewBox="0 0 100 100"><defs><style>.cls-1{fill:#d8d8d8;}.cls-2{fill:#6e6e6e;}</style></defs><title>3_buildandprice</title><path class="cls-1" d="M50,1A49,49,0,1,1,1,50,49.05,49.05,0,0,1,50,1m0-1a50,50,0,1,0,50,50A50,50,0,0,0,50,0Z"/><path class="cls-2" d="M41,49.23,29.38,61h0C25,65.39,26,69.88,28.61,72.51c3,3,7.31,3.27,11.4-.83h0L51.59,59.93ZM37.3,69l-.07.08c-2,1.91-4,2.64-5.93.73s-1.18-4.16.77-6.11l.13-.13,8.88-9,5.24,5.3Z"/><path class="cls-2" d="M68.71,61.16a7.74,7.74,0,0,0-1.08.09L44.36,38V30.66L38.66,25H30l7.51,7.44-3.84,3.84L26.37,28.9v8.77l5.5,5.61h7.41l22.8,22.81a6.92,6.92,0,1,0,6.63-4.93Zm0,10a3.12,3.12,0,1,1,3.12-3.12A3.12,3.12,0,0,1,68.71,71.2Z"/><polygon class="cls-2" points="65.37 39.98 69.88 38.91 75.42 29.4 71.07 25 61.65 30.59 60.52 35.37 52.97 42.96 57.7 47.7 65.37 39.98"/></svg>