<?xml version="1.0" encoding="utf-8"?>
<!-- Generator: Adobe Illustrator 25.1.0, SVG Export Plug-In . SVG Version: 6.00 Build 0)  -->
<svg version="1.1" id="Layer_1" xmlns="http://www.w3.org/2000/svg" xmlns:xlink="http://www.w3.org/1999/xlink" x="0px" y="0px"
	 viewBox="0 0 1020.2 32.2" style="enable-background:new 0 0 1020.2 32.2;" xml:space="preserve">
<style type="text/css">
	.st0{fill:#FFFFFF;}
</style>
<polygon class="st0" points="441.4,6.3 449.3,6.3 449.3,31.8 455.4,31.8 455.4,6.3 463.3,6.3 463.3,0.4 441.4,0.4 "/>
<polygon class="st0" points="484.3,12.5 474.8,12.5 474.8,0.4 468.7,0.4 468.7,31.8 474.8,31.8 474.8,18.3 484.3,18.3 484.3,31.8 
	490.4,31.8 490.4,0.4 484.3,0.4 "/>
<path class="st0" d="M504.4,0.4l-8.8,31.4h6.2l2.1-8.1h8.1l2.1,8.1h6.2l-8.8-31.4C511.5,0.4,504.4,0.4,504.4,0.4z M505.4,18l2.4-9.9
	h0.2l2.5,9.9H505.4z"/>
<polygon class="st0" points="520,6.3 527.9,6.3 527.9,31.8 534,31.8 534,6.3 541.9,6.3 541.9,0.4 520,0.4 "/>
<path class="st0" d="M547.1,7.3h3c0.3,0,0.5,0.1,0.5,0.6c0,1.6-0.7,3.5-3.6,4.5v2.4c3.3-0.3,6-2.7,6.6-5.9c0.2-1.1,0.3-2.1,0.3-3.2
	V0.4h-6.8V7.3z"/>
<path class="st0" d="M570.3,13.2l-2.7-0.9c-2-0.7-3.3-1.8-3.3-3.6c0-1.7,1.3-3,3.8-3c2.2-0.2,4.1,1.4,4.3,3.6c0,0.2,0,0.4,0,0.6h6
	c0.3-6.9-4.2-9.9-10-9.9c-5.6,0-10.1,3.2-10.1,8.7c0,5.7,3.4,7.7,7.7,9.3l2.6,1c2.2,0.8,4.1,2,4.1,4.1c0,2.3-1.9,3.6-4.5,3.6
	c-2.6,0.1-4.7-1.9-4.8-4.5l0,0l0,0v-0.1h-6c0.2,5.9,4,10.2,11,10.2c6,0,10.5-3.7,10.5-9.3C578.8,17.6,575.2,14.8,570.3,13.2z"/>
<rect y="10.6" class="st0" width="425.1" height="8.4"/>
<rect x="595.1" y="10.6" class="st0" width="425.1" height="8.4"/>
</svg>
