<svg id="Layer_1" data-name="Layer 1" xmlns="http://www.w3.org/2000/svg" viewBox="0 0 336.19 156.54"><defs><style>.cls-1{fill:#cc9834;}.cls-2{fill:#fff;}</style></defs><path class="cls-1" d="M97.58,105.1c0,8.13-.81,15.25-2.44,20.33-5.89,19.11-24.8,31.11-46.35,31.11s-40.46-12-46.35-31.11C.81,120.35,0,113.23,0,105.1V51.43C0,43.3.81,36.19,2.44,31.1,8.33,12,27.24,0,48.79,0S89.25,12,95.14,31.1c1.63,5.09,2.44,12.2,2.44,20.33ZM67.9,51.64c0-4.68-.41-9.15-1.63-12.2-2.64-6.71-9.35-10.78-17.48-10.78S34,32.73,31.31,39.44c-1.22,3.05-1.63,7.52-1.63,12.2V104.9c0,4.67.41,9.15,1.63,12.2,2.64,6.7,9.35,10.77,17.48,10.77s14.84-4.07,17.48-10.77c1.22-3,1.63-7.53,1.63-12.2Z"/><path class="cls-1" d="M168.94,33.54c0,19.52-12.4,31.92-28.87,31.92S111.2,53.06,111.2,33.54V31.71C111.2,12.2,123.6,0,140.07,0s28.87,12.2,28.87,31.71Zm-45.34,121L197,2h17.08L140.68,154.5ZM149.83,31.71c0-8.94-3.66-14-9.76-14s-9.76,5.08-9.76,14v1.83c0,9,3.66,14,9.76,14s9.76-5.08,9.76-14Zm76.64,92.91c0,19.51-12.4,31.92-28.87,31.92s-28.87-12.41-28.87-31.92v-1.83c0-19.52,12.4-31.71,28.87-31.71s28.87,12.19,28.87,31.71Zm-19.11-1.83c0-9-3.66-14-9.76-14s-9.76,5.08-9.76,14v1.83c0,8.94,3.66,14,9.76,14s9.76-5.09,9.76-14Z"/><path class="cls-2" d="M253.88,154.5l-2.59-10h-10l-2.58,10H231l10.85-38.75h8.89l10.85,38.75Zm-7.55-29.24h-.2l-3,12.24h6.3Z"/><path class="cls-2" d="M265.92,154.5V115.75h12.55a17.61,17.61,0,0,1,6.1.88c4.55,1.71,7.54,5.94,7.54,11.47a11.74,11.74,0,0,1-7.54,11.37,16.61,16.61,0,0,1-5.84.82h-5.27V154.5Zm12.5-21.39a7.21,7.21,0,0,0,3.62-.67,5.07,5.07,0,0,0,0-8.78,6.61,6.61,0,0,0-3.62-.67h-5v10.12Z"/><path class="cls-2" d="M317.33,154.5c-1-1-1.4-2.94-1.55-4.65l-.52-6.1c-.31-3.66-2.06-5.06-6-5.06h-3.46V154.5h-7.49V115.75h11.93a22.6,22.6,0,0,1,4.55.42c5.06,1.13,8.32,4.44,8.32,9.86a9.47,9.47,0,0,1-5.89,8.89V135c3.35,1.19,5.11,3.36,5.42,7.34l.57,6.92c.16,2,.72,3.88,2.17,5v.31ZM310,131.82c3.57,0,5.53-2,5.53-4.86a3.63,3.63,0,0,0-3.1-3.77,12.52,12.52,0,0,0-2.63-.26h-4v8.89Z"/><path class="cls-2" d="M331.79,137.29V120.07l-4.61,3.55v-4.88l5.24-4h3.77v22.59Z"/></svg>