<svg id="Layer_1" data-name="Layer 1" xmlns="http://www.w3.org/2000/svg" viewBox="0 0 363.19 156.54"><defs><style>.cls-1{fill:#fff;}.cls-2{fill:#cb9734;}</style></defs><path class="cls-1" d="M280.88,154.5l-2.59-10h-10l-2.58,10H258l10.85-38.75h8.89l10.85,38.75Zm-7.55-29.24h-.2l-3,12.24h6.3Z"/><path class="cls-1" d="M292.92,154.5V115.75h12.55a17.61,17.61,0,0,1,6.1.88c4.55,1.71,7.54,5.94,7.54,11.47a11.74,11.74,0,0,1-7.54,11.37,16.61,16.61,0,0,1-5.84.82h-5.27V154.5Zm12.5-21.39a7.21,7.21,0,0,0,3.62-.67,5.07,5.07,0,0,0,0-8.78,6.61,6.61,0,0,0-3.62-.67h-5v10.12Z"/><path class="cls-1" d="M344.33,154.5c-1-1-1.4-2.94-1.55-4.65l-.52-6.1c-.31-3.66-2.06-5.06-6-5.06h-3.46V154.5h-7.49V115.75h11.93a22.6,22.6,0,0,1,4.55.42c5.06,1.13,8.32,4.44,8.32,9.86a9.47,9.47,0,0,1-5.89,8.89V135c3.35,1.19,5.11,3.36,5.42,7.34l.57,6.92c.16,2,.72,3.88,2.17,5v.31ZM337,131.82c3.57,0,5.53-2,5.53-4.86a3.63,3.63,0,0,0-3.1-3.77,12.52,12.52,0,0,0-2.63-.26h-4v8.89Z"/><path class="cls-1" d="M358.79,137.29V120.07l-4.61,3.55v-4.88l5.24-4h3.77v22.59Z"/><path class="cls-2" d="M100,106.17a59.88,59.88,0,0,1-3.66,21.94c-6.7,18.06-24,28.43-46.29,28.43S10.42,146.17,3.72,128.11A59.88,59.88,0,0,1,.06,106.17V50.5A60.07,60.07,0,0,1,3.72,28.61C10.42,10.54,27.68.18,50,.18S89.6,10.54,96.3,28.61A59.86,59.86,0,0,1,100,50.5Zm-39.39-55a23.88,23.88,0,0,0-1-7.51c-1.42-4.06-4.67-6.5-9.54-6.5s-8.12,2.44-9.55,6.5a24.19,24.19,0,0,0-1,7.51v54.42a26.78,26.78,0,0,0,1,7.71c1.43,3.86,4.68,6.29,9.55,6.29s8.12-2.43,9.54-6.29a26.1,26.1,0,0,0,1-7.71Z"/><path class="cls-2" d="M176.31,36.78c0,21.52-14,35.13-32.28,35.13-18.08,0-32.09-13.61-32.09-35.13V35.31C111.94,13.79,126,.18,144,.18c18.29,0,32.28,13.61,32.28,35.13ZM130.43,154.5,211.84,2.22h24L154.37,154.5ZM149.87,35.31c0-6.7-2-11.17-5.89-11.17-3.66,0-5.89,4.47-5.89,11.17v1.47c0,6.7,2.29,11.17,5.89,11.17,3.85,0,5.89-4.47,5.89-11.17ZM254.28,121.4c0,21.53-14,35.14-32.28,35.14-18.07,0-32.09-13.61-32.09-35.14V120c0-21.53,14-35.18,32.09-35.18,18.29,0,32.28,13.61,32.28,35.13ZM227.88,120c0-6.71-2-11.18-5.88-11.18-3.66,0-5.89,4.47-5.89,11.18v1.41c0,6.71,2.28,11.18,5.89,11.18,3.85,0,5.88-4.47,5.88-11.18Z"/></svg>