<?xml version="1.0" encoding="UTF-8"?>
<!-- Generator: Adobe Illustrator 16.0.0, SVG Export Plug-In . SVG Version: 6.00 Build 0)  -->
<!DOCTYPE svg PUBLIC "-//W3C//DTD SVG 1.1//EN" "http://www.w3.org/Graphics/SVG/1.1/DTD/svg11.dtd">
<svg version="1.1" id="svg2" xmlns:rdf="http://www.w3.org/1999/02/22-rdf-syntax-ns#" xmlns:cc="http://creativecommons.org/ns#" xmlns:svg="http://www.w3.org/2000/svg" xmlns:dc="http://purl.org/dc/elements/1.1/" xmlns="http://www.w3.org/2000/svg" xmlns:xlink="http://www.w3.org/1999/xlink" x="0px" y="0px" width="511.982px" height="147.188px" viewBox="0 182.415 511.982 147.188" enable-background="new 0 182.415 511.982 147.188" xml:space="preserve">
<g id="g10" transform="matrix(1.3333333,0,0,-1.3333333,0,223.42667)">
	<g id="g12" transform="scale(0.1)">
		<path id="path14" fill="#ffffff" d="M3539.532-192.093L3367.53-437.352l-172.009,245.259h-118.118l238.345-337.163v-255.271    h103.491v255.212l0.33,0.454l238.015,336.768H3539.532"/>
		<path id="path16" fill="#ffffff" d="M293.683-697.904H103.495v175.964h190.122c54.415,0,98.683-39.463,98.683-88.015    C392.366-658.507,348.098-697.904,293.683-697.904 M103.495-278.651h174.309c48.486,0,87.883-35.186,87.883-78.398    s-39.397-78.325-87.883-78.325H103.495V-278.651z M421.351-476.947l-8.167,6.123l7.05,7.251    c28.524,29.78,44.268,67.588,44.268,106.523c0,90.981-83.73,164.956-186.698,164.956H0v-592.434h293.683    c108.893,0,197.501,78.259,197.501,174.507C491.184-558.7,465.754-510.213,421.351-476.947"/>
		<path id="path18" fill="#ffffff" d="M2219.217-587.293l-171.218,395.2h-114.031l261.401-592.368h47.761l261.401,592.368h-114.031    L2219.217-587.293"/>
		<path id="path20" fill="#ffffff" d="M903.97-694.93c-113.903,0-206.591,92.681-206.591,206.587s92.688,206.587,206.591,206.587    s206.594-92.681,206.594-206.587C1110.498-602.249,1017.872-694.93,903.97-694.93z M903.97-180.301    c-170.094,0-308.042-137.886-308.042-308.042c0-170.098,137.882-307.976,308.042-307.976    c170.098,0,308.046,137.878,308.046,308.042C1211.95-318.187,1074.068-180.301,903.97-180.301"/>
		<path id="path22" fill="#ffffff" d="M1723.092-574.051l-336.24,381.958h-51.581v-592.434h103.363v381.958l336.237-381.958h51.584    v592.434h-103.363V-574.051"/>
		<path id="path24" fill="#ffffff" d="M2801.638-505.936c-65.61,0-119.106,53.43-119.106,119.106    c0,65.684,53.43,119.048,119.106,119.048c65.684,0,119.107-53.43,119.107-119.048    C2920.679-452.506,2867.256-505.936,2801.638-505.936z M2801.638-180.301c-113.899,0-206.594-92.688-206.594-206.587    c0-113.906,92.695-206.594,206.594-206.594c113.899,0,206.594,92.688,206.594,206.594    C3008.233-272.989,2915.545-180.301,2801.638-180.301"/>
		<path id="path26" fill="#ffffff" d="M560.156,205.81V5.408H504.95v296.316l0,0l0,0h61.86l91.307-164.033l91.304,164.033h61.86l0,0    l0,0V5.408h-55.206V205.81L678.076,62.328h-39.855L560.156,205.81"/>
		<path id="path28" fill="#ffffff" d="M2922.723,301.724v-51.053h87.356V5.408h55.203v245.262h87.422v51.053H2922.723"/>
		<path id="path30" fill="#ffffff" d="M2602.823,301.724v-51.053h87.349V5.408h55.21v245.262h87.415v51.053H2602.823"/>
		<path id="path32" fill="#ffffff" d="M2052.019,5.408h55.276v296.316h-55.276V5.408"/>
		<path id="path34" fill="#ffffff" d="M1371.504,254.886h91.703c25.69,0,46.641-18.512,46.641-41.305l0,0l0,0    c0-22.793-20.951-41.305-46.641-41.305h-91.703V254.886z M1371.504,125.372h45.059L1499.37,5.342h63.311l-83.665,121.282    c47.366,6.786,83.665,43.085,83.665,86.957l0,0l0,0c0,48.618-44.667,88.209-99.54,88.209h-146.909V5.474h55.206L1371.504,125.372"/>
		<path id="path36" fill="#ffffff" d="M1054.237,301.724L916.948,5.408h59.092l26.418,56.92h130.437l26.418-56.92h59.092    l-137.289,296.316H1054.237z M1067.677,202.909l43.151-92.952h-86.235L1067.677,202.909z"/>
		<path id="path38" fill="#ffffff" d="M1873.426,213.581L1873.426,213.581c0-22.793-20.951-41.305-46.641-41.305h-91.703v82.676    h91.703C1852.541,254.886,1873.426,236.374,1873.426,213.581L1873.426,213.581z M1826.785,301.79h-146.909V5.474h55.206v119.897    h45.059l82.811-120.029h63.303l-83.661,121.282c47.366,6.786,83.661,43.085,83.661,86.957l0,0l0,0    C1926.328,262.199,1881.658,301.79,1826.785,301.79"/>
		<path id="path40" fill="#ffffff" d="M2372.578,54.752c-54.478,0-98.818,44.334-98.818,98.815s44.341,98.818,98.818,98.818    s98.818-44.337,98.818-98.818S2427.056,54.752,2372.578,54.752z M2372.578,307.587c-85.049,0-154.021-68.972-154.021-154.021    S2287.53-0.455,2372.578-0.455s154.021,68.972,154.021,154.021S2457.627,307.587,2372.578,307.587"/>
		<path id="path42" fill="#ffffff" d="M2541.555-784.527h520.166v86.565h-520.166V-784.527"/>
		<path id="path44" fill="#ffffff" d="M3725.442-278.651v72.788h-21.35v14.824h57.056v-14.824h-21.284v-72.788H3725.442"/>
		<path id="path46" fill="#ffffff" d="M3770.369-278.651v87.612h21.672l13.044-59.817l12.979,59.817h21.804v-87.612h-13.506v69.034    l-14.297-69.034h-13.967l-14.224,69.034v-69.034H3770.369"/>
	</g>
</g>
</svg>