<svg xmlns="http://www.w3.org/2000/svg" width="45" height="45" viewBox="0 0 45 45"><defs><style>.a{fill:#00204c;}.b,.d{fill:none;}.b{stroke:#00204c;stroke-width:2px;}.c{stroke:none;}</style></defs><g transform="translate(-255 -5115)"><path class="a" d="M4.88-21.818a10.025,10.025,0,0,1-1.069.387,6.987,6.987,0,0,1-1.143.24A4.092,4.092,0,0,0,3.7-22.113a3.917,3.917,0,0,0,.664-1.217,7.48,7.48,0,0,1-1.18.572,6.679,6.679,0,0,1-1.291.35,3.856,3.856,0,0,0-1.254-.885,3.819,3.819,0,0,0-1.586-.332A3.755,3.755,0,0,0-3.675-22.5a3.707,3.707,0,0,0-1.143,2.747,2.687,2.687,0,0,0,.037.442l.074.442a10.491,10.491,0,0,1-4.462-1.2,11.165,11.165,0,0,1-3.5-2.858,4.262,4.262,0,0,0-.406.94,3.551,3.551,0,0,0-.147,1.014,3.684,3.684,0,0,0,.479,1.844,3.941,3.941,0,0,0,1.254,1.364,3.276,3.276,0,0,1-.922-.129,3.442,3.442,0,0,1-.811-.35v.074a3.691,3.691,0,0,0,.885,2.452,3.938,3.938,0,0,0,2.212,1.346l-.516.074a3.646,3.646,0,0,1-.516.037q-.184,0-.369-.018t-.369-.055A3.8,3.8,0,0,0-10.534-12.4a3.679,3.679,0,0,0,2.286.756,8,8,0,0,1-2.231,1.217,7.65,7.65,0,0,1-2.6.442h-.461A2.8,2.8,0,0,1-14-10.018a11.59,11.59,0,0,0,2.8,1.272,10.688,10.688,0,0,0,3.134.461,10.738,10.738,0,0,0,4.72-1A10.843,10.843,0,0,0,.123-11.862a10.732,10.732,0,0,0,2.1-3.577,10.909,10.909,0,0,0,.737-3.872v-.479a10.779,10.779,0,0,0,1.032-.94A8.535,8.535,0,0,0,4.88-21.818Z" transform="translate(282.56 5153.33)"/><g class="b" transform="translate(255 5115)"><circle class="c" cx="22.5" cy="22.5" r="22.5"/><circle class="d" cx="22.5" cy="22.5" r="21.5"/></g></g></svg>